<svg width="54" height="49" viewBox="0 0 54 49" fill="none" xmlns="http://www.w3.org/2000/svg">
<g clip-path="url(#clip0_173_8486)">
<path d="M31.1029 12.5949C31.1029 9.62704 32.216 6.6279 33.9053 4.28143C35.8287 2.01254 37.9746 1.06953 40.6966 1.06953C43.6756 1.06953 46.429 2.68129 48.0911 4.64342C50.9496 8.37546 52.6724 12.4316 52.6724 19.3008C52.6724 31.0375 45.7579 41.501 35.9405 47.1243L34.0642 43.9119C43.6022 37.4465 45.684 29.3072 46.2831 23.9815L46.4901 22.1413L44.981 23.2146C43.7125 24.1167 41.8649 24.4576 39.9415 24.1319L39.9265 24.1293L39.9114 24.1273C35.0344 23.485 31.1029 18.9611 31.1029 12.5949ZM16.5078 23.9815L16.7148 22.1413L15.2057 23.2146C13.9373 24.1167 12.0896 24.4576 10.1663 24.1319L10.1512 24.1293L10.1361 24.1273C5.25911 23.485 1.32759 18.9611 1.32759 12.5949C1.32759 9.61644 2.44871 6.60645 4.14815 4.25629C5.74662 2.04576 8.14872 1.06953 10.9213 1.06953C13.9003 1.06953 16.6537 2.68127 18.3158 4.6434C21.1743 8.37544 22.8971 12.4316 22.8971 19.3008C22.8971 31.0375 15.9826 41.501 6.16518 47.1243L4.28895 43.9119C13.8269 37.4465 15.9087 29.3072 16.5078 23.9815Z" stroke="#FFC107" stroke-width="1.65517"/>
</g>
<defs>
<clipPath id="clip0_173_8486">
<rect width="53" height="48" fill="white" transform="translate(0.5 0.241943)"/>
</clipPath>
</defs>
</svg>
