<svg width="158" height="100" viewBox="0 0 158 100" fill="none" xmlns="http://www.w3.org/2000/svg">
<path d="M20.4323 -20.7275C21.7571 -19.848 21.7482 -19.244 20.404 -18.1106C20.187 -17.9276 19.9049 -17.6993 19.8405 -17.4637C19.5666 -16.4598 18.858 -16.4653 18.1008 -16.4982C18.8985 -15.1628 18.828 -14.9619 17.4107 -14.4643C17.1108 -14.359 16.7834 -14.4187 16.4722 -14.3476C16.0017 -14.2394 15.62 -14.0036 15.6384 -13.3141C16.3368 -13.2498 16.9285 -12.9947 16.8317 -12.0549C16.2077 -11.1581 15.5799 -10.2569 15.0893 -9.55205C14.1344 -8.94344 13.3248 -8.4272 12.4471 -7.86775C12.545 -7.18895 12.6381 -6.54422 12.7244 -5.94552C12.3874 -5.81127 12.0458 -5.67496 11.4643 -5.44357C12.8496 -3.5808 13.0925 -1.36988 13.3128 0.785027C14.0905 1.37577 14.8326 1.9395 15.6894 2.59076C15.5362 2.07218 15.4341 1.72633 15.2936 1.25031C15.8827 1.31896 16.3576 1.52947 16.7755 1.39328C17.9387 1.01338 18.6696 1.33933 19.0101 2.44296C20.1497 1.90682 21.116 1.6971 21.7075 2.85772C20.458 3.32065 20.4625 3.32188 19.9253 4.75984C19.867 4.9157 19.7436 5.08256 19.6125 5.18554C18.8713 5.76674 19.1277 6.30895 19.4392 6.82517C19.9599 7.68809 20.5079 8.53091 21.0336 9.36476C21.5711 9.34108 22.1048 9.38471 22.6324 9.27893C23.4471 9.1156 23.6948 9.52778 23.6818 10.2449C23.6688 10.9776 23.9055 11.4981 24.4799 11.8715C24.6647 11.9917 24.641 12.4214 24.7661 12.9248C24.2356 12.6784 23.9829 12.5612 23.6774 12.4192C23.5374 13.9848 24.5791 13.5411 25.384 13.4339C25.4558 13.9376 25.5131 14.3413 25.5738 14.7675C25.2261 14.793 24.9887 14.8102 24.5957 14.8386C25.1482 15.5163 25.585 16.0522 26.2148 16.825C26.1979 16.1489 26.1901 15.8339 26.1847 15.6146C26.8515 15.5378 27.5554 15.3031 28.1395 15.4301C28.8101 15.576 29.3745 16.0428 30.0969 16.4302C29.917 17.2437 29.7218 18.1271 29.5191 19.0434C30.3278 18.5922 31.0578 18.1847 31.7686 17.788C32.4382 19.0405 32.4398 19.0376 34.0103 19.6375C34.1507 19.6912 34.2711 19.8052 34.3761 19.917C35.2371 20.8335 36.0924 21.7562 37.0248 22.7582C37.486 22.5547 38.0395 22.3108 38.7972 21.9767C38.6646 22.6325 38.5486 23.2084 38.4617 23.639C38.783 24.6295 40.0094 24.4282 40.2939 25.5314C40.6108 26.7615 40.0468 27.5006 39.1478 28.2108C39.1855 29.3574 39.2218 30.4533 39.2573 31.5369C40.3247 31.3922 41.2022 31.2734 42.1916 31.1395C41.969 30.7822 41.7671 30.4575 41.5927 30.1778C41.1985 30.3969 40.9215 30.551 40.4026 30.8393C40.5738 29.8169 40.7429 29.0355 40.8241 28.2577C40.9071 27.4615 40.8257 26.6664 40.9599 25.8756C41.0935 25.0896 40.3237 24.3858 41.089 23.4834C42.0883 24.4053 41.8859 25.7923 42.0811 26.9715C42.2128 27.7674 42.4298 28.1357 42.9879 27.9584C43.3876 26.9806 43.7024 26.2107 44.0173 25.4402C44.0168 25.4315 44.0161 25.423 44.0156 25.4143C44.0154 25.4141 44.015 25.4136 44.0146 25.4135C44.015 25.4136 44.0152 25.4138 44.0156 25.4143C43.9738 24.7615 43.9323 24.1085 43.8896 23.4414C44.8032 23.246 44.5719 24.3492 45.1952 24.6817C45.4043 24.2773 45.6097 23.8798 45.8522 23.411C46.5039 25.5816 47.3188 26.6474 49.2817 27.967C49.4097 28.0533 49.5663 28.1287 49.6395 28.2589C50.1822 29.2254 50.7068 30.2044 51.2909 31.2782C50.8291 31.5725 50.4183 31.8345 49.9728 32.1184C49.567 31.5211 49.2292 30.9631 48.8343 30.4567C48.2469 29.703 47.7078 28.9105 46.6111 28.7648C46.2769 28.7206 45.9224 28.2296 45.8375 27.8436C45.6355 26.9257 45.0473 26.3808 44.4541 25.8315C44.9174 26.6339 43.911 27.7894 44.2074 28.7389C45.1577 28.4171 45.9158 28.5231 46.2674 29.4998C46.3428 29.7087 46.6338 29.8103 46.8344 29.9488C47.84 30.6446 47.8216 30.9942 46.7162 32.1389C46.0459 31.9723 45.3738 31.8047 44.7017 31.6376C44.4866 31.8018 44.2716 31.9659 44.0563 32.1299C46.211 31.9579 44.6107 33.5998 45.2726 34.1042C45.8237 33.8677 46.301 33.6627 46.7274 33.4797C47.0009 34.1339 47.218 34.6524 47.4745 35.2651C46.7326 35.4793 46.1935 35.992 45.9231 36.8791C46.55 36.4254 47.177 35.9718 47.8105 35.5133C48.4914 36.0396 49.0871 36.4505 49.6249 36.9298C50.158 37.4045 50.6327 37.948 51.117 38.4446C51.5547 38.4239 51.9998 38.4029 52.4448 38.382C52.4628 38.4965 52.4807 38.6111 52.4987 38.7257C52.3452 38.8237 52.0555 38.9502 52.0588 39.0147C52.1044 39.8731 52.1485 40.7378 52.2996 41.5641C52.3342 41.7536 52.7727 41.8036 53.0251 41.9179C53.0791 41.8289 53.1329 41.7396 53.1869 41.6506C52.9664 41.1955 52.746 40.7403 52.4716 40.1735C54.6653 41.2303 56.9129 44.8553 56.8055 47.0397C55.7032 47.1903 55.4044 46.3318 55.0251 45.5976C54.7147 44.9968 54.4904 44.3133 53.4432 44.2923C53.3131 45.9783 54.2445 46.946 54.8445 47.9526C54.7017 48.6488 54.5242 49.2601 54.4758 49.8621C54.4535 50.1409 54.6029 50.5489 54.8103 50.649C56.4432 51.4377 57.2308 53.1809 58.6627 54.202C59.4951 54.7955 59.8276 55.7716 59.4671 57.0686C60.2645 56.875 61.0308 56.693 61.1263 57.8363C61.1513 58.1355 61.5676 58.3775 61.8579 58.5667C62.6745 59.0996 63.519 59.5913 64.4589 60.1644C63.8037 60.5819 63.2861 60.9118 62.7254 61.2694C63.1149 62.4491 64.4602 62.072 65.0445 62.9185C65.2935 62.4857 65.4567 62.2015 65.6286 61.9026C65.7324 62.0468 67.3116 65.7416 67.3276 65.8481C66.7587 65.8473 66.1739 65.8468 65.5893 65.846C65.5489 65.9955 65.5089 66.1449 65.4687 66.2942C66.4339 66.2596 67.048 66.9925 68.0453 66.9601C68.4777 66.9462 68.9954 67.1747 69.2555 67.4955C69.9419 68.3428 70.5085 69.3005 71.1713 70.2865C70.1361 70.0653 69.5222 69.4056 69.0977 68.4329C68.5757 68.8088 68.1177 69.1388 67.6208 69.4968C67.1347 68.9747 66.6978 68.5059 66.2613 68.0367C66.1465 68.0801 66.0316 68.1239 65.917 68.1671C65.8719 68.7216 65.8268 69.2757 65.7781 69.8741C65.4702 70.1458 65.126 70.4493 64.5025 70.9994C65.6974 71.1067 66.7715 70.9347 67.4961 71.3405C68.2839 71.7818 68.7468 72.7601 69.4732 73.6547C68.7715 73.8745 68.3138 74.0178 67.788 74.1825C67.932 74.5603 68.0564 74.879 68.175 75.201C68.2882 75.5075 68.3137 75.9063 68.5194 76.1099C69.2604 76.8432 70.1394 77.452 69.9721 78.8112C69.9583 78.923 70.1404 79.031 70.2812 79.2004C70.5378 78.7467 70.7655 78.3444 71.0428 77.854C71.6066 78.1041 72.2954 77.8209 72.6389 78.6335C72.8609 79.1588 73.4979 79.5064 74.0389 79.7698C74.8802 80.1797 75.7575 80.4707 75.1001 81.8502C75.0668 81.9203 75.2661 82.0823 75.363 82.204C76.2501 80.8623 76.6637 80.8186 77.859 82.0581C77.338 82.3902 76.8617 82.6938 76.41 82.9818C76.8439 83.3288 77.265 83.5265 77.4943 83.8761C78.0727 84.7583 78.818 84.9839 79.8489 84.3949C80.6862 83.9166 81.4042 84.2988 81.7049 84.8179C82.4029 86.0229 83.6135 86.3818 84.7013 86.9717C84.8572 87.0563 84.9595 87.2325 85.0865 87.3665C85.0384 87.4789 84.9907 87.5911 84.9426 87.7035C83.8276 87.7133 82.7739 87.4806 81.7858 86.9206C81.2078 87.2889 80.684 87.6229 80.2436 87.9036C79.7088 87.4642 79.2872 87.1178 78.8659 86.7712C78.7777 86.8775 78.6892 86.984 78.6009 87.0903C79.2322 88.098 80.1231 88.8127 81.1837 89.356C81.5266 89.5318 81.8305 89.794 82.1053 90.0675C82.6472 90.6072 83.1559 91.1826 83.7034 91.7699C83.4312 91.8496 83.0898 91.9494 82.745 92.0503C82.9482 92.2472 83.1235 92.5084 83.3745 92.5941C84.3286 92.92 85.303 93.2036 86.2919 93.4396C86.4847 93.4856 86.9201 93.301 86.9995 93.1298C87.5155 92.02 87.8893 92.6 88.2293 93.0376C88.4441 93.3141 88.5566 93.6823 88.7322 94.045C88.4097 94.4396 88.1298 94.7821 87.8518 95.1223C88.8596 95.2911 89.8613 95.4832 90.8779 95.6187C91.4978 95.7012 91.9174 95.9111 91.644 96.6882C91.3891 97.413 90.9019 97.5165 90.2983 97.359C89.7111 97.2057 89.095 97.1317 88.1412 96.9595C88.3594 97.5816 88.4051 97.9138 88.5728 98.1415C88.8103 98.4642 89.393 98.6794 89.3824 98.9929C89.3324 100.432 90.303 100.019 91.0271 100.087C91.1698 99.1465 91.295 98.322 91.4175 97.5147C92.3068 97.488 93.3375 96.7182 94.0294 97.836C93.3835 98.3867 92.7315 98.9428 91.8158 99.7236C91.8012 99.7791 91.6866 100.213 91.5617 100.685C91.911 101.007 92.2971 101.278 92.5811 101.642C93.0855 102.288 91.9696 102.263 91.9925 102.872C92.6979 102.957 93.4255 103.044 94.4035 103.162C94.5703 103.598 94.8109 104.228 95.0175 104.768C95.7379 104.948 96.5382 105.136 97.3287 105.35C97.8735 105.498 98.3849 105.62 98.6085 104.642C98.0834 104.297 97.5426 103.941 97.0177 103.596C97.189 103.155 97.3293 102.794 97.5192 102.305C96.8707 102.295 96.3562 102.286 95.9423 102.279C95.0828 101.451 96.7926 101.256 96.484 100.587C95.6375 100.919 94.8062 101.245 93.9994 101.561C93.7306 100.803 93.5271 100.229 93.311 99.6207C93.9386 98.959 94.5754 98.4442 95.4873 98.6669C95.7566 98.7325 96.1301 98.5292 96.4507 98.42C97.7418 97.9806 97.7425 97.9765 98.4463 99.151C97.7879 99.037 97.1204 98.7625 96.4332 99.6786C97.1295 100.371 97.8276 101.073 98.5353 101.765C99.0482 102.266 99.5504 102.695 100.448 102.512C100.966 102.407 101.501 102.688 102.219 102.834C101.672 103.507 101.339 103.916 100.895 104.461C101.45 104.781 101.979 105.087 102.508 105.392C103.049 105.005 103.509 105.06 103.656 105.646C103.791 106.185 103.349 106.307 102.932 106.333C103.275 107.715 104.166 108.583 105.371 109.244C105.853 108.547 106.382 108.422 107.057 108.795C107.478 109.027 108.067 108.966 108.555 109.103C110.198 109.565 111.526 110.426 110.787 112.305C110.013 111.725 109.255 111.039 108.385 110.534C107.341 109.928 106.753 111.37 105.842 111.492C105.849 111.627 105.856 111.763 105.863 111.898C106.404 111.873 106.945 111.847 107.71 111.812C107.677 112.21 107.647 112.653 107.602 113.098C107.547 113.635 107.48 114.172 107.403 114.845C107.116 115.028 106.736 115.27 106.356 115.513C106.814 116.404 106.814 116.404 108.125 115.635C108.523 115.856 108.951 116.094 109.612 116.461C108.978 116.929 108.538 117.256 108.096 117.578C107.634 117.915 107.17 118.249 106.548 118.698C108.717 119.286 109.048 121.459 110.432 122.994C109.328 122.284 109.029 123.241 108.684 123.744C107.964 123.955 107.413 123.059 106.697 124.095C107.06 124.352 107.435 124.587 107.775 124.868C108.045 125.091 108.451 125.323 108.48 125.631C108.54 126.283 108.944 126.504 109.334 126.85C109.863 127.319 110.575 127.871 110.627 128.526C110.685 129.255 111.006 129.571 111.386 129.964C112.172 130.775 112.95 131.593 113.705 132.38C115.121 132.067 115.971 132.546 116.224 133.798C116.255 133.954 116.066 134.191 115.929 134.504C115.472 134.259 115.101 134.06 114.638 133.812C114.497 134.295 114.401 134.621 114.268 135.078C115.015 134.94 115.703 134.817 115.723 135.794C115.726 135.949 116.002 136.144 116.187 136.162C116.823 136.224 116.888 136.715 116.873 137.228C116.841 138.275 117.149 139.113 117.829 139.777C118.149 140.088 117.925 140.567 117.953 140.944C118.031 141.989 116.795 141.832 116.675 142.691C117.205 142.634 117.67 142.585 118.377 142.51C117.58 143.641 118.102 144.32 118.5 145.036C118.623 145.258 118.914 145.512 118.854 145.687C118.363 147.12 119.439 147.524 120.071 148.224C120.007 147.511 119.942 146.799 119.878 146.086C119.283 145.047 119.285 145.037 120.226 144.068C119.012 142.381 119.17 140.261 119.224 138.29C120.014 138.029 120.69 137.806 121.382 137.577C120.961 136.161 120.961 136.161 119.203 135.948C119.084 135.297 118.965 134.642 118.842 133.969C119.875 133.473 120.019 134.659 120.758 134.768C120.589 134.235 120.29 133.857 120.005 133.466C119.493 132.763 119.564 132.537 120.604 131.673C120.836 131.986 121.069 132.302 121.274 132.579C121.773 132.452 122.184 132.346 122.699 132.214C122.719 132.766 122.616 133.278 122.788 133.606C122.935 133.888 123.396 133.96 123.736 134.134C122.541 134.97 122.585 134.929 123.365 135.878C123.701 136.287 123.8 136.913 124.023 137.43C124.18 137.795 124.365 138.143 124.588 138.604C124.945 138.188 125.145 137.892 125.4 137.669C126.196 136.974 127.117 136.841 127.803 137.442C128.843 138.354 129.109 139.669 129.069 141C128.103 141.164 127.336 141.294 126.451 141.445C126.569 141.886 126.65 142.187 126.731 142.488L126.685 142.463C126.688 142.476 126.691 142.489 126.694 142.502C126.702 142.499 126.71 142.496 126.717 142.493C127.237 143.001 127.806 143.463 128.253 144.035C128.742 144.662 128.256 145.015 127.639 145.24C127.722 145.636 127.805 146.032 127.923 146.599C128.473 146.163 129.005 145.938 129.161 145.582C129.697 144.354 128.723 143.601 128.438 142.588C129.159 142.177 129.819 141.607 129.806 142.927C129.804 143.089 130.067 143.225 130.224 143.35C130.821 143.824 131.611 144.15 131.988 144.783C132.825 146.189 133.952 146.257 135.428 145.534C135.769 145.366 136.142 145.299 136.298 145.25C136.517 144.738 136.674 144.371 136.828 144.01C136.83 144.012 136.83 144.013 136.832 144.015C137.001 143.595 137.169 143.174 137.35 142.723C137.91 142.988 138.442 143.241 138.975 143.494C138.566 142.541 137.742 141.937 137.825 140.939C138.42 140.329 138.992 139.904 139.343 139.347C139.881 138.496 140.266 137.555 140.764 136.557C141.556 137.536 141.556 137.536 139.901 139.276C140.763 139.434 141.493 139.569 142.457 139.746C141.479 140.72 142.163 141.204 142.402 141.773C142.724 142.543 143.51 142.501 144.537 142.771C143.997 141.883 144.199 140.843 143.042 141.006C142.937 140.195 142.832 139.386 142.714 138.47C143.168 138.298 143.554 138.153 143.888 138.027C143.778 138.768 143.68 139.429 143.585 140.07C145.152 140.258 146.261 139.556 147.131 138.464C147.074 136.674 146.995 134.996 146.981 133.307C146.975 132.59 146.751 132.273 145.926 132.499C145.904 132.822 145.904 133.147 145.85 133.471C145.81 133.71 145.763 134.027 145.608 134.17C144.876 134.846 145.822 134.461 145.802 134.611C145.757 134.932 145.642 135.252 145.555 135.575C146.496 136.05 146.897 136.834 146.407 137.411C145.985 137.453 145.518 137.5 145.036 137.548C144.905 137.069 144.795 136.669 144.709 136.354C144.115 136.607 143.579 136.837 142.554 137.274C143.295 135.2 141.764 134.001 142.522 131.931C143.22 132.341 143.759 132.656 144.295 132.971C144.971 131.334 145.788 130.901 146.956 131.571C147.602 131.942 148.25 132.31 148.901 132.674C149.074 132.77 149.378 132.79 149.423 132.938C149.801 134.193 150.058 135.551 149.302 136.855C149.065 137.264 148.833 137.55 148.922 137.953C149.193 139.178 149.318 140.439 149.335 141.748C148.988 142.107 148.636 142.472 148.177 142.947C148.562 143.211 148.87 143.625 149.119 143.554C149.964 143.314 150.159 143.823 150.369 144.403C150.384 144.444 150.534 144.414 150.622 144.416C150.602 144.208 150.583 144 150.562 143.772C151.68 143.829 151.777 143.867 153.387 144.837C154.368 145.428 154.704 145.309 155.207 144.135C155.314 143.885 155.299 143.593 155.367 143.141C156.168 143.137 156.875 143.133 157.572 143.129C157.738 142.356 157.38 140.86 156.969 140.672C156.749 140.812 156.519 140.958 156.299 141.098C155.772 140.604 155.779 139.493 154.62 139.92C154.565 140.988 155.284 141.528 155.958 142.198C154.271 143.29 154.328 141.097 153.197 141.266C153.379 140.614 153.601 140.105 153.633 139.613C153.658 139.224 153.52 138.803 153.333 138.485C152.714 137.434 153.421 135.542 151.742 135.16C151.675 135.145 151.662 134.97 151.624 134.868C151.181 133.676 150.739 132.483 150.395 131.557C150.733 130.928 151.16 130.468 151.132 130.119C151.07 129.377 150.38 129.925 149.916 130.046C149.883 129.93 149.851 129.815 149.819 129.699C150.315 129.193 150.811 128.687 151.465 128.02C151.887 128.891 152.194 129.526 152.58 130.322C153.302 130.362 154.515 129.996 154.658 131.587C155.552 131.215 156.329 130.893 157.328 130.478C156.935 131.29 156.692 131.793 156.415 132.366C155.949 132.16 155.573 131.993 154.955 131.72C155.097 132.236 155.163 132.475 155.229 132.714C154.156 133.007 154.119 131.943 153.531 131.138C153.197 132.143 152.961 132.856 152.668 133.742C153.185 133.552 153.546 133.419 153.926 133.28C154.169 133.598 154.415 133.923 154.662 134.248C155.022 134.123 155.381 133.998 155.726 133.879C156.722 135.456 158.392 136.532 157.967 138.794C159.248 139.655 160.453 140.464 161.598 141.234C162.372 140.654 162.939 140.228 163.792 139.59C162.214 139.39 162.162 138.13 162.24 137.17C162.311 136.289 162.114 135.784 161.559 135.458C160.997 135.127 160.561 134.48 159.602 134.935C158.965 135.237 158.642 134.755 158.969 134.023C159.351 133.166 159.342 132.58 158.515 132.274C158.386 132.226 158.184 132.053 158.206 132.001C158.767 130.679 157.319 130.494 157.324 129.841C156.587 129.539 155.904 129.466 155.549 129.066C154.986 128.431 156.073 128.08 156.235 127.584C156 127.032 155.793 126.544 155.601 126.094C155.08 126.034 154.598 125.978 154.1 125.92C154.081 126.903 155.662 127.425 154.193 128.849C153.752 127.635 153.366 126.572 153.069 125.753C152.281 125.719 151.771 125.697 151.262 125.676C151.267 125.567 151.272 125.458 151.276 125.349C151.779 125.029 152.281 124.709 152.926 124.297C152.252 123.923 151.725 123.497 151.101 123.322C150.497 123.152 149.794 123.241 149.147 123.217C149.332 122.498 149.46 121.997 149.588 121.499C150.512 121.098 151.384 121.07 151.871 121.744C152.407 122.486 152.902 122.695 153.886 122.36C153.892 122.358 153.897 122.357 153.902 122.355C154.337 122.848 154.455 122.886 155.05 123.075C154.679 122.792 154.388 122.57 154.052 122.313C154.921 122.067 155.164 122.429 155.23 123.496C155.247 123.774 155.157 124.26 155.273 124.303C156.373 124.706 156.127 126.077 156.77 126.792C156.939 126.979 157.065 127.267 157.282 127.337C158.129 127.612 158.633 128.235 159.089 128.966C159.3 129.304 159.696 129.503 160.019 129.752C160.489 130.114 160.973 130.458 161.437 130.828C161.49 130.871 161.456 131.026 161.462 131.13C161.28 131.223 161.098 131.317 160.929 131.404C161.015 132.985 162.249 133.605 162.947 134.524C164.059 134.428 165.047 134.342 166.275 134.236C165.165 133.124 166.646 132.561 166.675 131.7C167.732 131.784 168.385 132.174 168.754 133.058C168.973 133.582 169.288 134.366 169.701 134.405C171.195 134.545 171.016 135.797 170.943 136.76C170.875 137.652 171.42 137.968 171.65 138.293C171.334 138.975 170.935 139.486 170.925 139.947C170.911 140.539 171.431 140.614 172.107 140.453C171.199 138.939 172.801 138.616 173.49 137.783C173.107 137.623 172.617 137.556 172.611 137.394C172.562 136.06 171.528 135.322 171.218 134.096C170.949 133.029 170.469 131.658 169.009 131.463C168.865 131.443 168.808 131.084 168.653 130.763C170.066 130.422 170.573 131.777 171.676 131.675C172.192 132.801 173.174 132.964 174.34 132.781C174.454 132.763 174.568 132.939 174.751 133.078C174.431 133.534 174.138 133.951 173.867 134.337C174.308 135.687 175.727 136.264 176.177 137.682C176.107 137.154 176.037 136.624 175.97 136.119C176.707 135.959 177.369 135.816 178.044 135.669C177.979 135.159 177.935 134.807 177.876 134.341C178.663 134.315 179.289 134.294 179.908 134.274C179.933 132.77 179.882 132.702 178.753 131.946C178.595 131.84 178.587 131.518 178.513 131.292C178.071 131.271 177.538 131.381 177.231 131.17C176.531 130.686 175.915 130.527 174.992 131.031C174.153 131.488 173.282 131.092 172.852 130.332C172.368 129.476 172.376 128.962 172.936 127.127C173.128 127.419 173.286 127.659 173.443 127.897C172.994 127.114 174.399 126.002 173.397 125.282C173.187 125.634 172.991 125.962 172.566 126.674C172.533 125.546 172.143 125.029 172.349 124.122C172.496 123.479 171.82 122.768 171.554 122.064C171.486 121.883 171.615 121.607 171.591 121.391C171.561 121.121 171.526 120.822 171.39 120.619C170.772 119.696 170.118 118.803 169.415 117.811C169.031 118.421 168.651 119.023 168.204 119.732C168.119 119.747 167.898 119.75 167.698 119.833C167.476 119.926 167.273 120.093 167.04 120.241C167.274 120.486 167.448 120.669 167.621 120.85C167.514 121.082 167.405 121.316 167.301 121.543C166.769 121.446 166.511 121.402 166.259 121.654C166.026 121.392 165.819 121.121 165.624 120.845C165.228 120.028 164.851 119.249 164.411 118.34C164.936 118.525 165.228 118.628 165.645 118.775C165.301 117.943 165.044 117.323 164.711 116.52C165.474 116.541 166.02 116.556 166.621 116.572C166.627 115.917 165.913 115.157 167.138 114.565C167.586 115.332 168.041 116.112 168.557 116.996C169.762 114.518 168.746 113.089 167.438 111.595C166.959 112.033 166.491 112.461 165.847 113.049C166.05 111.297 164.313 111.759 163.772 110.609C164.175 110.228 164.589 109.837 165.013 109.436C166.081 110.916 166.081 110.916 166.496 110.658C165.774 109.404 165.102 108.097 164.302 106.893C163.631 105.883 163.774 104.324 162.562 103.679C162.405 103.595 162.351 103.21 162.378 102.96C162.425 102.53 162.539 102.122 161.926 102.214C161.937 101.902 161.947 101.591 161.958 101.3C160.86 101.117 160.844 102.183 160.271 102.812C160.834 102.89 161.269 102.95 161.807 103.025C161.651 103.536 161.531 103.93 161.305 104.674C160.475 103.34 159.823 102.291 159.241 101.355C159.597 100.821 159.822 100.485 160.038 100.161C160.927 100.107 161.784 100.054 162.714 99.9968C162.652 99.5775 162.601 99.2295 162.553 98.9058C162.745 98.7701 162.928 98.6667 163.105 98.5882C163.15 98.6303 163.193 98.6713 163.241 98.7162C163.243 98.6524 163.244 98.5936 163.246 98.5331C163.571 98.4152 163.874 98.3999 164.161 98.4912C164.36 98.7427 164.487 98.8933 164.594 98.9663C164.366 99.2303 164.083 99.5015 164.116 99.6546C164.304 100.55 164.561 101.43 164.899 102.256C165.094 102.733 165.531 102.83 166.131 102.602C166.703 102.384 167.331 102.312 167.918 102.303C168.794 102.29 169.284 102.9 168.908 103.673C168.295 104.936 168.641 105.756 169.363 106.54C169.477 106.664 169.422 106.967 169.429 107.19C169.464 108.261 170.459 108.692 171.346 108.009C171.54 107.86 171.71 107.673 171.891 107.503C171.953 107.54 172.014 107.576 172.077 107.613C171.784 108.265 171.492 108.916 171.251 109.455C171.884 109.968 172.301 110.305 172.679 110.611C173.836 109.884 172.312 108.11 174.174 107.8C175.54 108.981 175.282 109.987 173.327 111.112C173.81 112.267 174.247 113.451 174.794 114.565C175.069 115.124 175.683 114.81 176.159 113.901C175.705 112.882 173.947 112.517 175.151 110.366C175.481 111.302 175.721 111.984 176.028 112.856C176.339 112.658 176.844 112.505 176.966 112.221C177.194 111.696 176.741 111.644 176.348 111.566C176.21 111.538 176.187 111.147 176.046 110.727C176.433 110.875 176.641 110.88 176.709 110.991C177.775 112.723 178.848 114.451 179.848 116.23C180.012 116.521 179.836 117.054 179.815 117.534C181.559 117.498 180.523 119.035 180.67 119.921C179.18 119.224 178.276 118.213 178.7 116.121C178.856 115.354 178.461 114.389 177.425 114.294C176.998 114.986 176.633 115.576 176.197 116.282C177.525 116.619 177.493 117.724 177.462 118.935C176.883 118.595 176.381 118.3 175.934 118.038C175.544 119.031 175.209 119.885 174.831 120.845C174.999 121.131 175.234 121.529 175.494 121.972C175.131 122 174.842 122.022 174.53 122.046C174.793 123.284 175.86 122.842 176.532 122.792C177.183 122.743 177.976 122.235 178.531 121.716C179.598 120.716 179.823 120.593 180.476 121.656C181.067 122.617 181.494 123.703 182.02 124.789C181.913 124.929 181.743 125.155 181.673 125.247C181.934 125.993 182.166 126.656 182.394 127.305C180.916 128.089 181.276 126.287 180.415 126.143C180.051 127.11 180.846 127.241 181.109 127.659C181.401 128.122 181.908 128.42 182.306 128.776C182.053 130.863 182.121 131.004 183.383 131.156C183.813 130.662 184.218 130.198 184.605 129.753C184.485 129.293 184.353 128.785 184.136 127.953C184.985 128.338 185.484 128.563 186.104 128.844C186.587 128.097 186.917 127.233 187.508 126.772C188.118 126.295 188.98 126.21 189.911 125.892C189.422 125.467 189.074 125.091 188.656 124.821C188.232 124.547 187.76 124.198 187.27 124.212C186.798 124.225 186.276 124.661 185.707 124.945C185.621 124.343 185.555 123.743 185.447 123.158C185.331 122.529 185.094 122.093 184.317 122.123C183.313 122.162 182.892 121.582 183.251 120.598C183.554 119.769 183.457 119.286 182.81 118.915C182.51 118.743 182.283 118.455 181.884 118.094C182.266 117.721 182.627 117.158 182.869 117.176C183.403 117.214 183.988 117.425 184.352 117.785C184.889 118.316 185.142 119.175 185.799 119.177C186.163 118.44 186.497 117.764 186.976 116.793C186.37 117.119 186.104 117.263 185.84 117.405C185.67 117.053 185.512 116.727 185.354 116.401C184.863 116.442 184.373 116.483 183.883 116.524C183.87 116.428 183.856 116.333 183.843 116.237C184.067 116.132 184.291 116.027 184.623 115.872C184.905 115.476 183.941 114.884 184.828 114.45C184.643 114.091 184.526 113.661 184.26 113.388C182.061 111.136 179.805 108.942 177.637 106.658C177.174 106.17 176.773 106.226 176.224 106.474C176.009 106.941 175.798 107.399 175.586 107.858C174.907 107.754 174.626 107.447 174.904 106.805C175.532 105.352 176.923 104.383 178.505 104.311C178.206 103.677 177.952 103.231 177.074 103.476C176.605 103.607 176.08 103.328 175.597 103.19C175.527 103.17 175.552 102.903 175.523 102.673C176.014 102.508 176.464 102.358 177.124 102.137C176.88 101.511 176.694 101.033 176.378 100.222C176.073 100.888 175.947 101.134 175.847 101.389C175.732 101.681 175.64 101.979 175.46 102.503C174.011 101.381 174.353 99.7216 174.296 98.1405C173.883 98.4039 173.57 98.6035 173.071 98.9214C172.782 98.3244 172.16 97.6916 172.314 97.2347C172.742 95.9695 171.939 95.7969 171.319 95.4073C170.782 95.0709 170.224 94.767 169.682 94.4524C169.811 95.2971 169.848 96.1793 170.094 96.9629C170.348 97.7754 170.803 98.4927 171.21 99.3313C169.98 99.5259 170.008 99.509 169.732 98.8686C169.384 98.0627 169.139 97.1212 168.568 96.5389C167.711 95.6657 167.972 94.263 167.283 93.3392C167.141 93.1498 167.394 92.6169 167.46 92.2705C168.86 91.9526 168.26 93.3159 168.784 93.8372C169.124 93.7424 169.515 93.6332 169.815 93.5496C170.154 91.8857 168.858 91.5345 168.312 90.6158C167.958 91.3126 167.626 91.6566 167.312 90.7886C166.471 90.3505 165.63 89.9125 164.818 89.4893C164.778 89.7894 164.72 90.2195 164.61 91.0495C163.386 89.8166 162.861 88.5118 162.499 87.1694C161.979 86.9638 161.488 86.7703 160.833 86.511C161.243 87.6627 160.374 88.1438 159.73 88.5574C160.002 89.1193 160.222 89.5749 160.441 90.0262C160.084 90.0412 159.728 90.0556 159.387 90.0695C159.118 89.5157 158.792 89.0239 158.631 88.4584C158.476 87.9097 158.292 87.241 158.471 86.7014C159 85.0992 158.536 83.9548 157.68 82.9168C157.627 82.8529 157.52 82.8405 157.438 82.8044C157.266 83.0384 157.095 83.2723 156.91 83.525C156.407 83.2206 155.945 82.9418 155.466 82.652C154.667 83.5108 153.949 84.2823 153.228 85.057C152.321 84.4941 152.147 83.7837 152.893 83.43C153.684 83.0548 153.85 82.4645 154.173 81.835C154.338 81.5152 154.661 81.103 154.943 81.0288C155.771 80.8113 155.884 80.1915 156.271 79.3085C155.018 79.8288 154.017 80.2445 153.146 80.606C152.634 80.3642 152.25 80.022 151.824 80.0326C151.492 80.041 151.108 80.4887 150.775 80.7216C150.6 80.3591 150.507 79.7366 150.237 79.6837C148.966 79.4358 149.452 78.7196 149.948 77.959C150.204 77.5678 150.561 77.1868 150.03 76.6853C149.765 77.1353 149.53 77.5347 149.219 78.0628C148.801 77.8323 148.191 77.717 148.157 77.4387C148.013 76.2557 147.104 75.7544 146.503 74.9912C145.254 73.4066 143.906 71.9097 142.709 70.2819C142.221 69.6177 141.609 69.6995 140.985 69.8537C139.155 66.5055 137.882 65.0388 134.841 62.718C134.403 61.4248 133.871 60.118 132.425 58.6611C132.253 58.797 132.107 58.913 131.984 59.0106C131.801 58.8931 131.629 58.7827 131.46 58.6746C130.921 58.1721 130.299 57.7538 130.119 56.9185C130.296 56.5989 130.482 56.2615 130.744 55.7869C129.186 55.7003 128.347 54.8652 127.856 53.5567C127.652 53.0123 127.28 52.5592 126.991 52.0593C126.479 51.1737 125.972 50.2846 125.388 49.2654C125.407 49.2613 125.191 49.3427 124.985 49.3478C123.103 49.3914 123.104 49.3874 123.634 47.4115C123.861 46.5656 122.878 45.2067 122.196 45.3608C121.892 45.6972 121.611 46.0083 121.307 46.3445C121.21 46.1444 121.073 46.0091 121.086 45.8656C121.256 43.9758 120.641 42.7756 118.71 42.8126C117.907 42.828 117.835 42.1031 117.897 41.6894C118.027 40.827 117.601 40.2239 117.54 39.4961C117.417 38.0261 116.627 37.5964 115.452 37.7737C115.109 37.2782 114.846 36.8985 114.711 36.703C114.701 35.7813 114.819 35.0171 114.651 34.3727C114.463 33.6478 114.008 33.0376 113.688 32.366C113.225 31.3989 112.451 30.8697 111.415 30.6733C109.92 30.3901 109.645 29.9939 109.514 28.4969C109.385 27.0175 109.145 25.5654 108.945 24.0279C108.989 24.0026 109.258 23.85 109.527 23.6972C108.513 23.4193 107.49 23.3012 107.068 22.1803C106.722 22.7459 106.465 23.1664 106.036 23.868C105.783 23.1932 105.436 22.7658 105.545 22.438C105.694 21.9898 106.188 21.6176 106.831 20.8656C105.918 21.2043 105.38 21.4034 104.655 21.6722C104.388 20.8847 104.128 20.1158 103.868 19.3451C104.478 18.7697 104.988 18.289 105.737 17.5829C104.926 17.4883 104.334 17.324 103.73 17.385C103.375 17.421 103.001 17.8146 102.55 18.1022C101.039 17.5935 100.724 16.0245 100.226 14.6445C100.103 14.3056 100.166 13.657 100.399 13.405C100.634 13.1495 101.185 13.209 101.598 13.1296C101.67 11.9547 101.231 10.93 100.677 11.0102C100.501 11.2709 100.319 11.5407 100.134 11.8151C99.4019 11.4574 99.3632 10.8136 99.4387 10.1099C99.5655 9.88056 99.8241 9.54365 99.7689 9.46282C99.258 8.71566 98.843 7.81087 97.7293 7.97908C97.8035 7.63841 97.9605 7.24861 97.8877 7.20127C97.2538 6.78984 97.3408 6.08828 97.4011 5.40557C97.4757 4.55911 97.3464 3.89328 96.5221 3.60387C96.2677 3.51479 96.1199 3.18366 95.922 2.96177C96.1631 2.53517 96.3583 2.18931 96.4213 2.07746C94.3509 -1.03813 92.6642 -4.27822 90.0545 -6.78322C90.6691 -5.69818 90.1798 -4.52948 89.9271 -3.37338C89.6515 -4.55319 89.1952 -5.65762 89.5574 -7.02262C89.6778 -7.47611 89.664 -8.25484 89.4142 -8.39563C88.7054 -8.79483 88.9174 -9.49533 88.8928 -10.1757C87.8212 -10.1153 87.6553 -11.6887 86.3936 -11.3224C86.2741 -11.2875 85.9216 -11.7386 85.9727 -11.9117C86.4135 -13.3995 85.158 -13.9035 84.7436 -14.8829C84.6238 -15.1665 84.1445 -15.2415 83.6768 -15.4955C83.9133 -13.0208 83.9133 -13.0208 82.781 -12.3732C83.1179 -13.4329 83.3911 -14.417 82.7203 -15.2035C82.1976 -15.8165 81.5771 -16.3882 82.1377 -17.5044C82.2347 -17.6976 81.9602 -18.1164 81.7716 -18.3527C81.2966 -18.9476 80.7726 -19.4976 80.2644 -20.0699C79.421 -19.103 79.8602 -18.4644 80.2718 -17.9619C79.6323 -17.3544 79.1074 -16.8559 78.3633 -16.1494C78.6499 -17.1072 78.8405 -17.7437 79.0513 -18.4479C78.4088 -18.5451 77.9051 -18.6211 77.4563 -18.6888C77.1523 -18.2707 76.8386 -17.8395 76.5253 -17.4084C76.4235 -17.4413 76.3214 -17.4741 76.2194 -17.5069C76.2279 -18.3046 76.2361 -19.1021 76.2448 -19.9315C75.0046 -19.8768 74.9557 -18.7673 74.4324 -18.244C75.4099 -15.7561 77.4286 -14.3574 79.0259 -12.6727C78.3576 -11.9428 77.7868 -11.3191 77.1679 -10.6432C78.0651 -9.75009 78.9017 -8.91744 79.4874 -8.33429C80.2816 -8.30452 80.7597 -8.28658 81.1613 -8.27124C81.4079 -8.71002 81.6485 -9.13822 81.8963 -9.57906C81.8724 -9.56915 80.8008 -9.11679 80.7328 -9.08819C80.3899 -10.031 81.1434 -10.2168 81.7591 -10.6343C82.4716 -9.27768 83.7608 -8.32037 83.0247 -6.22216C83.6168 -6.31598 84.0319 -6.31756 84.4188 -6.45871C84.9069 -6.63672 85.3588 -6.8775 85.6986 -6.21421C85.4463 -5.95318 85.134 -5.74122 84.9921 -5.45701C84.7997 -5.07114 84.5184 -4.46295 84.6565 -4.2398C85.4084 -3.02436 86.2774 -1.89834 87.0729 -0.788278C87.4226 0.176461 87.8179 1.10408 88.0943 2.08457C88.2993 2.81162 88.7638 2.92224 89.4125 2.8075C89.6261 3.04242 89.8335 3.27303 89.9918 3.44926C90.395 3.07062 90.6792 2.80357 91.1839 2.32959C91.2621 3.01038 91.2821 3.48412 91.3748 3.93119C91.6055 5.04515 91.5915 6.39806 92.2033 7.17809C92.7407 7.86318 93.3775 8.47702 93.79 9.2911C93.6089 9.43467 93.4276 9.57841 93.2112 9.74994C92.9709 9.43617 92.7442 9.14048 92.4808 8.79659C92.2679 9.23312 92.1307 9.51482 92.0262 9.72921C91.3338 9.03604 90.6369 8.43159 90.0449 7.72714C88.6113 6.0208 87.3062 4.20362 85.5211 2.83531C84.8755 2.34069 84.5129 1.41356 84.1728 0.596681C83.9352 0.0260085 83.6397 -0.243626 83.027 -0.208203C82.9301 -0.202459 82.8517 -0.403576 82.746 -0.53209C83.1378 -0.681483 83.4617 -0.805134 83.9285 -0.983366C83.4926 -1.56504 83.1551 -2.01604 82.8177 -2.46633C83.0042 -2.92959 83.1905 -3.39354 83.4077 -3.93432C83.0347 -3.95343 82.7857 -3.96628 82.6091 -3.97527C82.3177 -3.30476 82.073 -2.74167 81.8229 -2.16686C81.5662 -2.28214 81.3904 -2.32849 81.3974 -2.36351C81.4446 -2.60539 81.4993 -2.85741 81.6087 -3.08272C82.0788 -4.05151 82.5742 -5.13815 81.9496 -5.92641C81.5201 -6.46852 81.288 -6.95433 81.4689 -7.66998C80.8363 -7.18613 80.2879 -6.76673 79.7999 -6.39328C78.8288 -7.2173 77.831 -7.76969 77.2314 -8.6468C76.4672 -9.76473 75.2065 -10.3756 74.7166 -11.7775C74.1942 -13.2717 73.2434 -14.3528 71.2475 -13.7653C71.2766 -14.4051 71.3002 -14.9275 71.32 -15.3633C70.5615 -16.0306 68.5035 -14.9584 69.2934 -17.2244C67.8071 -16.9033 67.8615 -18.4734 67.0587 -18.894C66.0628 -19.4155 66.9309 -20.9663 65.8944 -21.5556C65.9024 -21.164 65.9074 -20.9226 65.9122 -20.6807C65.3939 -20.8786 65.1063 -21.2671 64.7906 -21.6275C64.5597 -21.8907 64.3184 -22.1556 64.0348 -22.3529C63.376 -22.8103 62.6254 -23.166 62.7732 -24.2741C62.7973 -24.4546 62.6078 -24.8037 62.5455 -24.7875C61.5013 -24.5174 61.751 -25.8266 61.0858 -26.0034C60.9462 -26.0404 60.8401 -26.1683 60.6669 -26.2908C60.3464 -26.0641 60.0286 -25.8395 59.6654 -25.5823C59.9806 -25.2326 60.2339 -24.9518 60.5092 -24.6464C59.809 -24.1516 59.371 -24.2702 58.9646 -24.71C58.6525 -25.0475 58.3166 -25.5439 57.9112 -25.5713C56.3735 -25.6746 55.1117 -26.3161 53.8619 -27.0238C53.8047 -27.0561 53.6626 -26.9496 53.4589 -26.8664C53.4526 -25.8591 53.4461 -24.8161 53.4388 -23.6463C54.9886 -22.7183 56.6373 -21.6869 57.5947 -19.828C57.8022 -19.4255 58.2969 -19.2249 58.5973 -18.8716C59.2056 -18.1562 59.6971 -17.3814 59.1701 -16.2124C59.0987 -16.0542 59.1725 -15.8432 59.198 -15.6498C58.434 -15.0709 57.8057 -13.9788 56.7254 -14.554C56.7088 -14.5813 56.6924 -14.609 56.6758 -14.6364C56.7678 -15.0867 56.8617 -15.5464 56.9923 -16.1865C56.8256 -16.1211 56.671 -16.0609 56.5187 -16.0013C56.5182 -16.0045 56.5175 -16.0079 56.517 -16.0111C56.1445 -16.3432 55.8294 -16.6653 55.5231 -16.9099C55.5579 -17.2435 55.4883 -17.5639 55.2254 -17.8798C55.1029 -18.0268 55.0833 -18.3325 55.1239 -18.5606C55.2773 -19.4188 54.7654 -19.2554 54.3307 -19.2228C53.7675 -18.614 54.0096 -17.5642 52.9011 -17.3504C52.5204 -18.3068 52.2559 -19.3762 51.7108 -20.2268C51.1712 -21.0684 50.3485 -21.6891 49.6496 -22.4067C49.5298 -22.3192 49.4099 -22.2317 49.2901 -22.1441C49.6095 -21.282 49.8505 -20.3666 50.2706 -19.5726C50.6843 -18.7902 51.3199 -18.1608 51.7785 -17.4048C52.0188 -17.0086 52.1708 -16.6712 52.6566 -16.4401C53.2327 -16.1661 53.6972 -15.5295 53.7638 -14.6811C52.8189 -14.6553 52.8513 -14.6931 52.4946 -15.01C52.4003 -15.0934 52.3033 -15.1744 52.2088 -15.2576C51.9943 -15.5939 51.7518 -15.9119 51.438 -16.1869C51.2834 -16.2213 51.1524 -16.234 51.0344 -16.2504C50.7394 -16.49 50.445 -16.7305 50.1375 -16.9529C49.7591 -17.2268 49.4914 -17.4411 49.3222 -17.9757C48.9655 -19.1026 48.0207 -19.8013 47.0499 -20.3084C46.323 -20.6884 45.6463 -20.9336 45.7326 -22.0072C45.7502 -22.2284 45.5178 -22.4707 45.3401 -22.6334C44.8562 -23.0759 44.4014 -23.5974 43.8184 -23.8672C43.2536 -24.1287 42.5436 -24.1157 41.8529 -24.2309C42.2481 -26.0305 41.0312 -26.175 39.7767 -26.2666C39.8432 -26.8382 39.8987 -27.3157 40.0021 -28.2067C40.879 -27.6025 41.4564 -27.1412 42.0945 -26.7791C43.2178 -26.1412 44.1953 -24.9873 45.8633 -26.0428C46.0426 -26.1562 46.3614 -26.2242 46.5005 -26.1375C47.7864 -25.3361 48.9065 -25.8547 49.983 -27.0487C50.0841 -27.1607 50.2923 -27.1688 50.5432 -27.2577C51.0987 -26.3907 51.8359 -26.3804 52.6902 -27.2797C52.6488 -27.8152 52.674 -28.3326 51.931 -28.405C51.5711 -28.4402 51.0913 -28.8436 51.0526 -29.1865C50.9939 -29.7047 51.2734 -30.3158 51.4028 -30.8603C50.2694 -30.303 49.1528 -30.3483 48.7083 -31.1216C48.1713 -32.0555 47.7452 -33.0686 47.1799 -34.236C45.8808 -32.9441 46.0051 -34.7103 45.1848 -34.8656C44.9983 -34.355 44.8313 -33.8975 44.5967 -33.2547C44.2185 -33.4606 43.8149 -33.5316 43.6642 -33.7875C43.0205 -34.8825 44.2853 -35.8583 44.4655 -36.9243C43.3397 -36.4869 42.3123 -36.0875 41.0741 -35.6065C41.0224 -35.4787 40.8536 -35.0604 40.7604 -34.83C41.5441 -34.2281 42.2102 -33.7163 42.8328 -33.2381C42.6028 -32.2369 42.4014 -31.3589 42.1608 -30.3112C41.5683 -30.5531 40.9925 -30.7631 40.4413 -31.0194C39.6933 -31.3671 38.9522 -31.7304 38.2297 -32.1229C37.1638 -32.7023 36.1871 -32.2411 35.1623 -31.4889C35.6904 -29.9759 37.118 -29.0918 37.1735 -27.2695C36.1929 -26.9791 35.5507 -27.0628 35.1421 -27.9938C34.8574 -28.6425 34.3469 -29.1789 33.8527 -29.6741C33.4028 -30.125 32.6298 -29.842 32.4385 -29.1194C32.2157 -28.2785 32.1887 -27.4099 32.0442 -26.3063C32.71 -26.7308 33.0717 -26.9613 33.522 -27.2481C33.4709 -26.2067 34.6336 -25.6902 34.0089 -24.505C33.1328 -24.3167 32.5074 -24.5179 32.2931 -25.4601C32.2667 -25.5764 31.9489 -25.5789 31.7522 -25.6385C31.7459 -25.0539 31.7408 -24.5649 31.7344 -23.9861C30.7168 -23.564 29.7915 -23.18 28.6183 -22.6934C28.8734 -23.5157 29.0461 -24.0716 29.2182 -24.6266C28.9944 -24.7092 28.7553 -24.7979 28.5464 -24.8751C28.4501 -24.8277 28.3802 -24.8162 28.3508 -24.7755C28.0702 -24.3894 27.7983 -23.9973 27.5199 -23.6094C26.6334 -22.3731 25.9547 -22.2421 24.9712 -23.0998C24.7052 -23.3316 24.4103 -23.5292 24.1812 -23.7026C22.8133 -22.8307 21.4952 -21.9905 20.1536 -21.1355C20.3183 -20.8894 20.3554 -20.7787 20.4323 -20.7275ZM81.01 88.7059C81.9287 88.0383 82.4789 87.9338 82.8736 88.5421C82.8129 88.6983 82.7517 88.8544 82.6912 89.0105C82.206 88.9223 81.7208 88.8346 81.01 88.7059ZM118.736 135.637C118.581 135.737 118.426 135.838 118.271 135.939C118.01 135.558 117.75 135.176 117.49 134.795C117.586 134.706 117.683 134.617 117.779 134.529C118.098 134.898 118.418 135.268 118.736 135.637ZM136.799 143.963C136.284 144.068 135.776 144.157 136.164 143.021C136.431 143.417 136.617 143.693 136.799 143.963ZM156.372 132.85C156.584 133.205 156.796 133.56 157.064 134.007C156.332 133.782 156.332 133.782 156.059 133.011C156.163 132.958 156.267 132.904 156.372 132.85ZM171.754 129.997C171.134 129.473 171.428 128.878 171.9 128.306C171.854 128.836 171.808 129.366 171.754 129.997ZM182.599 112.34C183.269 113.285 182.741 114.169 182.475 115.082C181.31 115.032 181.348 114.197 181.369 113.436C181.388 112.715 181.922 112.492 182.599 112.34ZM179.667 109.203C179.864 110.941 180.052 112.595 180.28 114.604C178.436 113.256 179.123 111.125 178.573 109.481C178.987 109.376 179.293 109.298 179.667 109.203ZM177.796 110.832C176.421 109.755 176.391 109.578 177.27 107.883C178.774 108.431 177.778 109.748 177.796 110.832ZM172.775 101.799C172.247 102.016 171.762 102.216 171.076 102.497C171.199 101.976 171.29 101.56 171.395 101.146C171.508 100.699 171.633 100.254 171.758 99.787C172.882 100.008 172.626 101.139 172.775 101.799ZM167.442 99.7321C167.368 99.9789 167.189 100.206 167.05 100.441C166.931 100.371 166.712 100.316 166.712 100.227C166.713 99.9987 166.81 99.7555 166.92 99.3115C167.199 99.5289 167.464 99.6569 167.442 99.7321ZM84.9062 -9.49632C84.5392 -9.85014 84.2418 -10.2815 83.9169 -10.682C83.02 -11.7871 83.0784 -11.9635 84.9275 -12.9233C84.4126 -11.2366 86.4782 -10.8832 85.7506 -9.05576C85.4503 -9.20612 85.1222 -9.28858 84.9062 -9.49632ZM86.531 -8.08226C86.5672 -8.22091 86.9034 -8.44524 87.0421 -8.42253C87.6593 -8.32094 87.7123 -7.88673 87.3702 -7.18217C86.6992 -7.17831 86.3591 -7.42133 86.531 -8.08226ZM89.3552 -0.898819C90.4458 -0.33009 90.0249 0.835355 90.2507 1.59665C89.9406 2.02934 89.6722 2.40425 89.4095 2.78188C88.7396 1.7217 89.14 0.480833 89.3552 -0.898819ZM18.1341 -7.03111C19.3202 -7.50255 19.6399 -7.19737 19.5472 -6.36047C19.4257 -6.22594 19.3045 -6.09115 19.1835 -5.95657C18.8779 -6.26954 18.5719 -6.58258 18.1341 -7.03111ZM23.0148 -0.852409C24.0239 -1.0462 24.7871 -1.19262 25.5506 -1.33924C24.8331 -0.401925 24.0597 -0.146214 23.0148 -0.852409ZM23.8202 -1.93083C23.7626 -2.05184 23.9465 -2.32466 24.0233 -2.53007C24.2216 -2.4311 24.4348 -2.35132 24.6052 -2.21681C24.6381 -2.1908 24.5044 -1.95012 24.386 -1.65546C24.1627 -1.75265 23.8923 -1.77922 23.8202 -1.93083ZM26.2212 -1.72068C26.2058 -2.49142 26.1496 -3.1728 26.1973 -3.86262C26.2197 -4.18687 26.381 -4.58079 26.5982 -4.83775C26.7074 -4.96671 27.1893 -4.97378 27.3206 -4.84078C28.4262 -3.72249 29.4898 -2.5589 30.695 -1.27075C30.0658 -0.869566 29.6372 -0.596444 29.129 -0.272682C28.4006 -1.24061 27.747 -2.32691 26.2212 -1.72068ZM78.7676 7.89883C78.6389 8.14546 78.3906 8.37065 78.154 8.59662C78.0089 8.41871 77.8633 8.23962 77.7191 8.06226C77.917 8.32513 77.9656 8.54474 77.989 8.75922C77.9502 8.79852 77.912 8.8381 77.8768 8.87783C77.0792 8.00525 76.9496 7.53059 77.7206 6.86423C77.7225 6.86712 77.7242 6.86932 77.7261 6.87221C77.8343 7.05242 78.0772 7.2471 78.2672 7.41949C78.4397 7.57598 78.6015 7.73848 78.7676 7.89883ZM81.395 10.9145C81.9021 11.6078 82.3252 12.2282 82.2708 12.7486C83.6655 13.9545 83.6717 13.965 83.4927 14.764C83.2341 14.539 82.9668 14.3065 82.5389 13.9343C82.8748 14.5218 83.0911 14.8997 83.3967 15.4343C82.9224 15.0774 82.5504 14.8765 82.3183 14.6036C82.0127 14.2441 81.8092 13.8279 81.5768 13.4369C81.3841 13.1128 81.2689 12.7184 81.0222 12.4805C80.4062 11.8867 79.7466 11.3489 79.0992 10.7953C79.4933 10.4151 79.8955 10.0344 80.1888 9.58368C80.2063 9.55661 80.2412 9.53411 80.2823 9.51393C80.6682 9.96779 81.0415 10.4314 81.395 10.9145ZM90.3908 28.0049C90.4453 28.3327 90.3301 28.5703 90.2854 28.8457C90.1979 28.8028 90.1104 28.7598 90.0226 28.7171C89.8696 28.3707 89.7664 28.0245 89.5496 27.6781C89.3455 27.3522 89.1696 27.0876 89.4417 27.0548C89.5326 27.0439 89.7647 27.1393 89.8481 27.2352C90.0635 27.482 90.361 27.825 90.3908 28.0049ZM107.475 101.007C107.256 101.025 107.022 101.088 106.825 101.043C106.689 101.011 106.605 100.829 106.497 100.714C106.548 100.637 106.599 100.56 106.65 100.482C106.944 100.559 107.238 100.635 107.532 100.711C107.513 100.81 107.494 100.909 107.475 101.007ZM67.1086 58.0397C66.9939 57.8026 66.8464 57.6034 66.8833 57.5576C67.1578 57.2174 67.4691 56.9076 67.7685 56.5881C67.8422 56.6797 67.9158 56.771 67.9896 56.8625C67.7165 57.2269 67.4441 57.5911 67.1086 58.0397ZM81.35 17.1475C81.3282 17.1732 81.3066 17.1991 81.2825 17.2222C80.5371 16.7715 80.2745 16.6088 80.4724 16.0964C80.785 16.4812 81.1321 16.8241 81.35 17.1475ZM83.3775 20.1483C83.4699 20.2612 83.5801 20.3662 83.7287 20.5243C83.2618 20.4101 82.9383 20.149 82.6431 19.773C82.5829 19.5451 82.5322 19.3062 82.4872 19.0578C82.7839 19.4215 83.0798 19.7854 83.3775 20.1483ZM84.8355 22.1227C84.6788 22.0769 84.522 22.0316 84.3652 21.9859C84.3262 21.8767 84.2874 21.7678 84.2218 21.5851C84.4054 21.6738 84.5509 21.7208 84.6878 21.8215C84.7463 21.8642 84.7868 22.0187 84.8355 22.1227ZM93.2403 30.5898C92.6474 29.8407 92.6474 29.8407 93.0657 29.5291C93.1201 29.8597 93.1747 30.1906 93.2403 30.5898ZM99.4107 35.0636C99.3458 35.2676 99.2788 35.478 99.2051 35.7102C98.851 35.6748 98.6043 35.2721 98.3051 34.809C98.521 34.6682 98.7529 34.517 98.9944 34.3594C99.1861 34.6315 99.3227 34.8664 99.4107 35.0636ZM107.366 41.3725C107.329 41.4207 107.281 41.4455 107.227 41.4285C107.028 41.3659 106.649 41.0627 106.484 40.8353C106.483 40.8343 106.482 40.8334 106.482 40.8324C106.943 40.7304 107.135 40.8467 107.366 41.3725ZM111.815 49.7159C111.514 49.5158 111.293 49.3861 111.15 49.2937C111.268 49.2702 111.387 49.2469 111.504 49.2239C111.548 49.3551 111.636 49.5114 111.815 49.7159ZM114.089 47.9413C114.002 47.6013 114.34 47.4187 113.705 46.8751C113.751 46.787 113.771 46.5927 113.846 46.6282C114.143 46.7684 114.443 46.9142 114.744 47.074C114.482 47.422 114.28 47.689 114.089 47.9413ZM106.853 42.2769C106.531 42.2711 106.317 42.2433 106.167 42.1712C106.115 42.1308 106.064 42.0946 106.012 42.0571C105.907 41.9407 105.852 41.7657 105.806 41.5059C106.155 41.7631 106.505 42.0201 106.853 42.2769ZM101.666 39.9316C101.464 39.6208 100.958 39.18 101.332 38.9975C101.633 39.3342 101.924 39.6595 102.346 40.1323C102.028 40.0422 101.706 39.9928 101.666 39.9316ZM96.5167 34.6223C96.3744 34.2407 96.232 33.8588 96.0671 33.4157C96.2822 33.3654 96.4381 33.3286 96.6215 33.2857C97.2817 34.2486 96.6402 34.2503 96.5167 34.6223ZM98.3613 33.1976C98.4016 33.1689 98.4405 33.141 98.4843 33.1096C98.2098 32.8982 97.9567 32.7031 97.5817 32.4143C97.4967 32.009 97.649 31.8038 98.3562 32.3178C98.5061 32.7503 98.7364 33.2261 98.3613 33.1976ZM89.7564 33.1797C89.6623 32.973 89.7067 32.8095 89.9681 32.6976C90.0227 32.9255 90.067 33.1117 90.1071 33.2785C89.9937 33.2463 89.8757 33.2133 89.7564 33.1797ZM70.9604 41.2318C70.7806 40.7312 70.5465 40.1929 70.4942 39.7597C70.4926 39.7479 70.4883 39.7363 70.4868 39.7248C71.1055 40.3023 71.1644 40.5447 71.0402 41.4271C71.0094 41.3588 70.983 41.2946 70.9604 41.2318ZM80.3407 15.2353C79.8622 15.1127 79.599 14.715 79.3689 14.2162C79.7038 14.4858 80.0397 14.7563 80.5136 15.1379C80.4556 15.1713 80.398 15.204 80.3407 15.2353ZM79.8219 12.4279C80.0001 12.658 80.1828 12.8938 80.4629 13.2554C79.7123 12.8001 79.6981 12.7906 79.8219 12.4279ZM78.9509 11.6236C78.6275 12.0797 78.3984 12.1803 78.1008 11.9383C78.3438 11.5434 78.6819 11.1997 79.0331 10.8592C79.2017 11.1836 79.4285 11.4815 79.6068 11.7759C79.7284 11.9768 79.7364 12.1736 79.7894 12.3721C79.508 12.121 79.2266 11.87 78.9509 11.6236ZM75.6699 6.42665C76.186 7.25689 75.1035 7.26389 74.9886 7.95291C74.1184 6.7142 75.3692 6.83347 75.6699 6.42665ZM38.584 10.6816C38.9732 10.539 39.6861 10.4488 39.7769 10.6406C40.1955 11.5232 41.0864 11.4137 41.8031 11.6718C41.9338 11.719 42.0262 11.8512 42.3209 12.1001C41.3492 12.6335 40.6386 12.7716 39.9347 12.4364C39.3043 12.1362 38.6721 11.8397 37.8889 11.4701C38.1203 11.1939 38.3197 10.7785 38.584 10.6816ZM43.4676 13.8744C43.5191 13.8646 43.5828 14.2153 43.6739 14.503C43.0894 14.5909 42.618 14.6616 42.0532 14.7464C42.2987 13.8293 42.9558 13.9726 43.4676 13.8744ZM45.1531 16.6214C45.0678 16.7557 44.7903 16.775 44.6014 16.8474C44.568 16.4455 44.5351 16.0438 44.4921 15.526C45.2224 15.7251 45.5591 15.9819 45.1531 16.6214ZM70.5854 41.4067C70.2717 41.2664 70.0855 41.0903 70.0117 40.8415C70.1995 41.0262 70.3897 41.2139 70.5854 41.4067ZM88.749 25.8808C88.9302 25.6914 87.95 24.6323 88.9481 25.0394C89.4867 25.7831 88.9796 25.7286 88.749 25.8808ZM89.6867 24.6156C90.2317 24.3436 90.5374 24.5682 90.9459 25.3423C90.5348 25.1049 90.2407 24.9352 89.6867 24.6156ZM86.7944 23.4316C86.541 22.7987 85.8613 21.9347 86.4112 21.629C86.8093 22.453 87.1634 23.1857 87.5561 23.9982C87.2189 24.1089 86.9375 23.7885 86.7944 23.4316ZM87.7827 22.209C87.8581 21.9759 87.929 21.7569 88.006 21.5183C88.8378 22.4044 88.8378 22.4044 88.7176 23.0265C88.369 22.7215 88.1047 22.4903 87.7827 22.209ZM76.2433 5.88365C76.1482 6.02919 76.0001 6.12497 75.8644 6.2194C75.839 6.195 75.8131 6.17028 75.7902 6.14507C75.8706 5.94165 75.9568 5.72256 76.0648 5.44833C76.1358 5.57078 76.196 5.71428 76.2433 5.88365ZM75.1007 4.0746C75.0969 4.06814 75.093 4.0621 75.0889 4.05583C75.0923 4.05472 75.0955 4.0538 75.099 4.05267C75.0998 4.0603 75.1001 4.06677 75.1007 4.0746ZM42.0767 -13.8373C42.1546 -13.9347 42.2326 -14.0318 42.3105 -14.1292C42.4035 -14.0417 42.4969 -13.9544 42.59 -13.8669C42.6716 -13.6797 42.7341 -13.4965 42.7785 -13.3167C42.5447 -13.4901 42.3107 -13.6637 42.0767 -13.8373ZM31.1029 -0.453476C31.741 0.115564 31.1276 0.589595 30.8066 1.1459C29.9773 0.855656 29.9093 0.345621 30.4024 -0.307917C30.5167 -0.459297 30.9873 -0.556614 31.1029 -0.453476ZM44.1336 -13.2503C44.146 -13.1807 44.1583 -13.1103 44.1708 -13.0412C43.5032 -13.2293 43.5077 -13.2635 43.7512 -13.8772C43.8847 -13.658 44.0022 -13.4653 44.1336 -13.2503ZM41.7414 -14.5783C41.674 -14.4989 41.6065 -14.419 41.5391 -14.3396C41.4027 -14.4139 41.2307 -14.456 41.1387 -14.5708C41.0346 -14.7014 41.0019 -14.8975 40.9382 -15.0651C41.045 -15.1472 41.1515 -15.2295 41.2583 -15.3116C41.4194 -15.067 41.5804 -14.8226 41.7414 -14.5783ZM28.0619 9.08289C27.3701 7.76543 26.0712 7.12995 25.2677 5.93582C25.027 6.46349 24.8142 6.92995 24.5831 7.43666C23.9649 7.25118 23.4152 7.0859 22.8309 6.9106C22.4384 7.6158 22.1265 8.17569 21.8291 8.71052C21.231 8.76837 20.7504 8.46253 21.0153 8.03112C21.7351 6.85857 21.2751 6.11151 20.7167 5.44045C21.3713 5.06522 22.0507 4.85324 22.4753 4.3893C23.0584 3.75198 23.8558 3.76976 24.4722 3.06544C25.0735 2.37807 26.0851 2.73474 26.6987 3.20701C27.3916 3.74006 28.0563 4.41385 27.3987 5.59897C28.1697 6.06878 29.1629 4.99343 29.3786 6.09336C29.5331 7.12081 29.6877 8.14827 29.8488 9.21907C29.1252 9.95688 28.314 9.56341 28.0619 9.08289ZM36.4309 7.91799C37.0335 7.86404 37.6362 7.8101 38.285 7.7521C38.1867 8.28698 38.0953 8.78614 37.9581 9.53312C37.2868 9.1173 36.7485 8.7835 36.2098 8.44966C36.2836 8.27223 36.3573 8.09523 36.4309 7.91799ZM37.1448 16.71C36.9394 16.2838 35.8121 16.3517 35.0802 16.3704C33.6868 16.4061 33.6787 16.4589 33.2674 15.1447C33.2041 14.9417 33.1698 14.7252 33.123 14.5195C32.7353 14.5387 32.3563 14.5846 31.9887 14.5689C31.3564 14.5418 31.0223 14.3193 31.2975 13.495C31.4439 13.0571 31.3198 12.5592 31.3171 11.868C32.0521 12.0196 32.8927 12.0124 33.5194 12.3609C34.7197 13.0283 35.8685 13.8127 36.9096 14.7052C38.1189 15.7422 39.1893 16.9474 40.5537 18.3137C39.9038 18.5457 39.4673 18.8533 39.1749 18.7746C38.5266 18.6003 38.4581 17.9956 38.7904 17.247C38.1094 17.2946 37.5365 17.5233 37.1448 16.71ZM35.988 18.2884C36.0348 18.2038 36.0818 18.119 36.1286 18.0344C36.324 18.0745 36.5671 18.0576 36.7 18.1729C36.8072 18.2659 36.7819 18.5187 36.8882 19.0964C36.4084 18.6657 36.1982 18.4771 35.988 18.2884ZM36.6728 19.7845C37.6009 19.5178 38.3085 19.6095 39.0522 20.2982C38.575 20.6814 38.3066 20.897 37.9585 21.1763C37.4572 20.8606 36.7515 20.7689 36.6728 19.7845ZM41.653 20.4878C40.8647 20.627 40.074 20.6426 39.2887 20.5397C40.3008 20.1203 41.2059 18.7035 42.48 19.7593C42.1427 20.0681 41.9014 20.4439 41.653 20.4878ZM43.6146 21.9161C43.6344 21.6952 43.6483 21.54 43.6624 21.3847C43.7999 21.3977 44.0029 21.3566 44.0592 21.4369C44.1299 21.5383 44.081 21.7389 44.0838 21.8968C43.944 21.9026 43.8041 21.9083 43.6146 21.9161ZM54.3922 26.884C53.9925 26.6294 53.8266 26.2745 54.3988 25.6465C54.7213 25.8896 55.0559 26.1417 55.3501 26.3637C55.1014 27.0794 54.7551 27.1148 54.3922 26.884ZM48.3646 34.9799C49.3936 34.4208 49.3936 34.4208 49.5749 36.0019C49.0424 35.5523 48.7036 35.266 48.3646 34.9799ZM53.283 32.9816C53.7826 34.0132 54.17 34.8129 54.5671 35.633C52.8221 35.4965 52.3258 34.7175 53.283 32.9816ZM59.3304 32.3026C59.2765 31.1209 58.2643 31.0423 57.5938 30.5647C57.3686 30.4044 57.2234 30.1347 57.0312 29.9257C56.8662 29.7464 56.7226 29.4829 56.5076 29.4278C55.2913 29.116 55.2851 29.1334 55.5164 27.7081C56.0609 27.209 56.5374 27.3011 56.9696 27.6779C57.5394 28.1749 58.1215 28.6594 58.6544 29.1962C58.8899 29.4333 59.0252 29.7813 59.1902 30.0895C59.2743 30.2464 59.2837 30.5557 59.3949 30.5775C60.646 30.8211 60.3119 31.7402 59.9958 32.7053C59.7464 32.563 59.338 32.4737 59.3304 32.3026ZM56.6786 38.5864C56.1452 37.8695 55.7226 37.0566 55.223 36.2202C56.083 35.5081 56.5119 35.8133 56.857 36.1968C57.2562 36.6403 57.6482 37.1173 57.9013 37.6669C58.0035 37.8884 57.8185 38.4811 57.6014 38.6492C57.3946 38.8097 56.8183 38.7741 56.6786 38.5864ZM55.6672 49.4232C56.049 49.0158 56.2542 48.6523 56.5196 48.5471C56.946 48.3778 57.4458 48.2755 57.8443 48.3607C57.9993 48.394 58.0193 49.0078 57.9977 49.3665C57.9751 49.745 57.8289 50.1346 57.6486 50.8864C58.6822 50.3762 59.3663 50.0387 60.1714 49.6411C59.7739 50.7213 59.4264 51.6658 59.0108 52.7944C57.8361 51.6102 56.7735 50.5389 55.6672 49.4232ZM60.0162 53.6989C60.1197 53.5662 60.2232 53.4334 60.3267 53.3006C60.6471 53.5547 60.9675 53.8093 61.2879 54.0634C61.1841 54.1964 61.0806 54.3291 60.9771 54.4623C60.6565 54.2075 60.3364 53.9532 60.0162 53.6989ZM61.9138 52.2329C61.7743 52.1997 61.7586 51.8089 61.6734 51.5449C63.83 51.3466 63.8301 51.3466 64.2898 52.6385C63.4888 52.5115 62.6861 52.4158 61.9138 52.2329ZM62.0395 55.5693C62.0379 55.4641 62.0155 55.2756 62.0384 55.2661C62.2811 55.1656 62.5306 55.0932 62.7783 55.0132C62.7941 55.118 62.8102 55.223 62.8259 55.3282C62.5636 55.4085 62.3018 55.4889 62.0395 55.5693ZM72.8387 46.0975C71.6262 45.5236 70.3565 44.9443 70.4484 42.9104C70.812 43.0996 71.2432 43.1873 71.245 43.3468C71.2565 44.3745 71.9223 44.805 72.5864 45.2627C73.4804 45.8791 73.656 46.879 73.1061 48.3938C72.159 47.8539 72.8647 46.8939 72.8387 46.0975ZM64.4577 55.0677C64.5451 54.8673 64.6299 54.3571 64.8422 54.2571C65.1937 54.0914 65.7276 54.0363 66.0034 54.21C66.5031 54.525 66.8694 55.0423 67.2911 55.4753C67.2321 55.5352 67.1731 55.5945 67.1141 55.6544C66.28 55.4703 65.4463 55.2861 64.4577 55.0677ZM63.5725 57.1816C64.36 57.0067 64.9382 56.8717 65.1221 57.8403C65.1963 58.2308 65.8515 58.5338 66.3218 58.6414C67.1269 58.8252 67.1888 59.3385 67.0653 60.0878C65.5625 59.8507 63.7958 58.4085 63.5725 57.1816ZM68.8783 60.2509C68.109 59.322 69.2146 58.9578 69.4911 58.0269C70.0033 58.5467 70.3437 58.8921 70.8937 59.4502C69.9003 59.8447 69.3879 60.0483 68.8783 60.2509ZM70.2736 62.1595C69.7716 61.9567 69.9605 61.4986 71.0747 60.6057C71.1459 61.7174 72.6166 61.4826 72.4441 62.833C71.6543 62.5939 70.939 62.4281 70.2736 62.1595ZM71.5497 68.7484C71.4105 68.4607 71.271 68.1731 71.1318 67.8854C71.2781 67.8162 71.4248 67.7468 71.5711 67.6776C71.6438 67.9968 71.7168 68.316 71.7895 68.6352C71.7097 68.673 71.6297 68.7105 71.5497 68.7484ZM73.5805 64.7044C74.4257 64.7941 74.9609 64.7774 75.4298 64.9236C75.8079 65.0413 76.1058 65.3555 76.6272 65.7107C76.3559 66.1708 76.0546 66.681 75.7327 67.2266C74.257 67.2756 74.755 65.3978 73.5805 64.7044ZM71.0465 71.6323C71.0287 71.6237 71.1031 71.3626 71.1394 71.356C71.3962 71.3071 71.6542 71.2941 71.9118 71.2694C71.8345 71.4757 71.7571 71.6823 71.6797 71.8886C71.4663 71.807 71.249 71.7327 71.0465 71.6323ZM73.6488 70.5158C73.8536 71.2143 74.0473 71.8748 74.3374 72.8632C72.6056 71.9512 72.5765 71.8056 73.6488 70.5158ZM77.5482 68.6217C77.903 68.2326 78.2037 67.9031 78.6525 67.4107C78.8346 68.3193 78.9771 69.0304 79.1388 69.8385C78.2241 70.032 77.9526 69.3951 77.5482 68.6217ZM72.4956 76.6884C73.2982 75.9836 73.2982 75.9836 74.011 77.0974C73.1339 77.8007 73.0069 76.8587 72.4956 76.6884ZM74.9415 75.878C74.3596 75.8393 73.7018 75.7797 73.9841 74.6352C74.5442 74.4887 75.0699 74.3512 75.6485 74.1996C75.7921 74.6563 75.9194 75.0622 76.0884 75.6C75.6511 75.7139 75.2755 75.9003 74.9415 75.878ZM73.6828 78.4606C75.148 77.4833 75.9024 77.8501 77.0317 80.1234C75.7178 79.715 74.5102 79.4933 73.6828 78.4606ZM77.6977 77.4837C78.1817 77.7731 78.6032 78.0248 79.0939 78.3184C78.9273 78.6933 78.7728 79.0413 78.6346 79.3526C77.9885 79.3741 77.6695 78.7123 77.6977 77.4837ZM77.9707 82.8062C78.4215 82.427 78.8412 82.1743 79.1194 81.8118C79.4099 81.4335 79.5642 80.9487 79.7781 80.511C80.965 80.8643 80.965 80.8643 81.6638 82.3415C80.5153 82.4859 79.352 82.6325 77.9707 82.8062ZM83.2858 84.0331C83.0972 84.1052 82.757 84.0199 82.6698 83.8671C82.5846 83.7179 82.7365 83.3994 82.7845 83.155C83.0159 83.1914 83.2474 83.2278 83.605 83.2838C83.4735 83.6142 83.4147 83.9838 83.2858 84.0331ZM85.4318 91.7233C84.6595 91.6366 84.0657 91.1781 83.6511 89.9694C84.7865 90.3755 85.5941 90.6641 86.5932 91.0215C86.178 91.2861 85.7438 91.7584 85.4318 91.7233ZM90.2616 95.0449C91.4694 94.3849 91.4694 94.3849 91.992 95.2113C91.3743 95.1519 90.9071 95.107 90.2616 95.0449ZM98.4566 99.1536C98.4561 99.1535 98.4552 99.1534 98.4548 99.1534C98.9173 98.9 99.2568 98.0488 100.184 98.7201C99.4304 98.9091 98.9438 99.0315 98.4566 99.1536ZM103.442 103.169C102.975 102.921 102.529 102.635 102.074 102.366C102.142 102.284 102.211 102.201 102.279 102.119C103.443 102.177 104.607 102.235 105.767 102.293C104.84 103.792 104.717 103.844 103.442 103.169ZM104.834 104.237C105.445 104.22 105.903 104.065 106.105 104.23C106.692 104.71 107.177 105.318 107.702 105.877C107.612 105.978 107.522 106.079 107.432 106.18C106.481 105.814 105.644 105.287 104.834 104.237ZM105.022 108.119C104.715 107.968 104.483 107.68 104.22 107.449C104.284 107.298 104.347 107.147 104.41 106.995C104.828 107.079 105.273 107.11 105.649 107.277C105.767 107.329 105.698 107.745 105.715 107.994C105.479 108.044 105.185 108.2 105.022 108.119ZM161 119.01C160.999 119.01 160.999 119.009 160.998 119.008C160.728 118.817 160.392 118.68 160.215 118.416C160.143 118.308 160.207 118.095 160.37 117.864C160.365 117.888 160.361 117.91 160.357 117.933C160.53 118.127 160.7 118.33 160.871 118.535C160.914 118.693 160.957 118.852 161 119.01C161.02 118.928 161.04 118.844 161.061 118.76C161.393 119.154 161.73 119.54 162.099 119.849C162.547 120.226 162.947 120.61 163.307 121.013C162.509 120.321 161.754 119.665 161 119.01ZM142.251 130.189C141.92 129.97 141.189 130.163 141.466 129.33C140.948 129.264 140.229 129.966 139.903 129.086C140.421 128.756 140.93 128.432 141.479 128.082C141.483 128.553 141.487 128.909 141.49 129.265C142.235 128.869 142.628 129.236 142.834 129.846C142.982 130.287 143.017 130.785 143.114 131.318C142.912 131.352 142.755 131.412 142.618 131.394C141.861 131.295 142.658 130.456 142.251 130.189ZM140.707 131.421C140.669 131.031 140.63 130.641 140.591 130.251C141.233 130.065 141.336 130.422 140.707 131.421ZM143.284 128.222C142.955 128.147 142.638 128.038 142.444 127.981C142.36 127.213 142.295 126.622 142.231 126.037C143.944 126.542 143.944 126.542 144.363 128.404C143.957 128.337 143.615 128.297 143.284 128.222ZM141.594 125.687C141.21 126.052 140.801 126.443 140.242 126.976C139.986 126.683 139.739 126.389 139.479 126.108C139.319 125.935 139.141 125.619 138.969 125.645C137.622 125.847 137.578 124.916 137.52 123.811C138.972 123.543 140.534 121.978 141.625 123.928C141.389 124.078 141.211 124.191 141.036 124.303C141.208 124.73 141.381 125.16 141.594 125.687ZM144.321 121.352C144.38 120.506 143.95 120.065 143.44 119.583C143.21 119.365 143.299 118.785 143.36 118.34C143.997 118.98 144.319 119.884 145.384 119.819C145.261 120.45 145.138 121.079 144.944 122.072C144.611 121.703 144.308 121.54 144.321 121.352ZM118.73 116.921C118.889 116.926 119.142 117.35 119.081 117.49C118.932 117.828 118.665 118.207 118.365 118.384C118.122 118.527 117.762 118.398 117.237 118.385C117.525 117.873 117.645 117.507 117.882 117.28C118.101 117.07 118.463 116.912 118.73 116.921ZM155.64 115.647C155.096 115.275 154.822 114.568 154.305 114.037C154.266 114.045 154.223 114.052 154.183 114.06C154.239 114.015 154.299 113.969 154.349 113.926C155.118 114.968 156.069 114.609 157.047 113.722C157.286 115.068 157.048 115.483 156.06 115.602C155.921 115.619 155.78 115.632 155.64 115.647ZM146.018 117.768C145.978 117.881 145.874 117.956 145.699 118C145.476 118.056 145.249 118.107 145.015 118.15C144.758 117.757 144.57 117.286 144.132 117.156C144.398 116.461 144.577 115.991 144.784 115.45C144.805 115.453 144.825 115.457 144.846 115.46C144.988 115.574 145.126 115.684 145.258 115.791C145.308 116.153 145.434 116.443 145.729 116.915C145.779 116.995 145.822 117.069 145.86 117.138C145.855 117.338 145.923 117.549 146.018 117.768ZM147.498 118.995C147.547 118.887 147.595 118.782 147.644 118.675C147.754 118.784 147.856 118.916 147.932 119.066C147.794 119.046 147.651 119.024 147.498 118.995ZM144.426 113.22C144.411 113.213 144.395 113.207 144.379 113.201C144.084 113.045 143.785 112.886 143.425 112.696C143.112 113.235 142.467 113.001 141.744 112.521C141.718 112.328 141.712 112.123 141.723 111.908C142.37 112.217 142.645 112.143 142.827 111.766C143.262 111.923 143.654 112.171 143.965 112.48C143.941 112.5 143.92 112.518 143.895 112.538C144.084 112.78 144.255 113 144.426 113.22C144.451 113.229 144.477 113.24 144.502 113.249C144.521 113.295 144.537 113.342 144.554 113.388C144.501 113.329 144.442 113.266 144.368 113.197L144.412 113.219C144.424 113.225 144.435 113.23 144.435 113.23C144.432 113.227 144.429 113.223 144.426 113.22ZM145.694 113.188C146.449 112.363 146.865 112.706 147.414 113.275C146.503 114.237 146.159 113.735 145.694 113.188ZM144.617 114.329C144.596 114.307 144.578 114.29 144.556 114.266C144.587 114.219 144.626 114.175 144.663 114.131C144.653 114.195 144.638 114.261 144.617 114.329ZM141.992 113.381C142.095 113.351 142.246 113.369 142.475 113.468C142.551 113.77 142.626 114.068 142.71 114.399C142.412 114.098 142.168 113.762 141.992 113.381ZM143.514 115.047C143.459 115.029 143.409 115.007 143.373 114.979C143.254 114.888 143.139 114.794 143.028 114.698C143.189 114.814 143.35 114.93 143.514 115.047ZM144.226 114.993C144.205 115.014 144.176 115.031 144.143 115.045C144.155 115.005 144.166 114.968 144.179 114.924C144.201 114.942 144.221 114.958 144.242 114.975C144.237 114.981 144.232 114.987 144.226 114.993ZM152.616 111.94C152.823 111.954 153.002 111.967 153.217 111.982C153.245 111.844 153.273 111.704 153.302 111.562C153.321 111.599 153.343 111.636 153.362 111.673C153.456 111.862 153.563 112.068 153.708 112.251C154.039 112.668 154.387 113.077 154.73 113.487C154.61 113.615 154.477 113.749 154.324 113.895C154.327 113.899 154.33 113.902 154.333 113.906C154.067 113.939 153.797 113.971 153.501 114.008C153.191 113.284 152.903 112.61 152.616 111.94ZM153.521 110.487C154.991 111.454 155.534 111.99 155.305 112.655C155.102 112.371 154.894 112.105 154.656 111.899C154.155 111.465 153.816 111.045 153.502 110.577C153.508 110.547 153.514 110.518 153.521 110.487ZM137.592 122.122C137.908 122.623 137.627 123.042 137.08 123.313C136.537 123.072 136.46 122.616 136.792 122.114C136.877 121.987 137.498 121.972 137.592 122.122ZM148.807 119.261C148.69 119.212 148.562 119.18 148.429 119.151C148.382 119.009 148.339 118.882 148.302 118.771C148.562 118.602 148.821 118.507 148.979 118.313C149.214 118.027 149.106 117.809 148.497 117.372C149.558 117.174 149.808 118.429 150.751 118.475C150.392 119.029 150.137 119.422 149.799 119.945C149.443 119.692 149.159 119.407 148.807 119.261ZM149.457 113.05C149.477 112.927 149.495 112.814 149.514 112.707C149.53 112.712 149.546 112.716 149.562 112.72C149.546 112.708 149.533 112.694 149.518 112.681C149.756 111.274 149.898 111.146 151.102 110.471C151.042 111.277 150.903 112.028 150.235 112.589C150.003 112.424 149.899 112.523 149.667 112.775C149.703 112.815 149.739 112.856 149.776 112.897C149.676 112.95 149.572 113.002 149.457 113.05ZM114.751 114.515C114.18 114.383 113.542 114.269 113.132 113.907C112.856 113.664 112.92 113.017 112.832 112.551C112.93 112.489 113.028 112.426 113.126 112.363C113.849 112.867 114.571 113.371 115.405 113.952C115.126 114.201 114.875 114.544 114.751 114.515ZM109.258 119.112C110.828 117.55 111.171 117.422 112.018 118.139C111.509 118.62 111.036 119.138 110.499 119.555C109.831 120.073 109.372 119.93 109.258 119.112ZM115.433 114.982C116.27 115.289 117.097 115.594 117.924 115.898C117.885 116.022 117.846 116.146 117.806 116.27C117.381 116.237 116.956 116.204 116.351 116.158C116.567 116.603 116.721 116.921 116.88 117.25C115.376 117.944 115.128 117.826 115.129 116.494C115.129 116.247 115.358 115.14 115.433 114.982ZM112.351 119.328C112.638 119.921 112.859 120.378 113.085 120.844C112.673 121.528 111.323 120.657 111.706 122.25C110.164 121.28 110.171 121.256 112.351 119.328ZM114.523 120.415C114.215 120.372 113.617 120.452 113.28 120.191C112.993 119.968 113.005 119.353 112.829 118.71C113.365 118.735 113.696 118.67 113.934 118.78C114.385 118.987 114.76 119.336 115.208 119.552C116.257 120.056 116.503 120.899 115.883 122.67C115.373 121.826 114.981 121.174 114.523 120.415ZM111.705 124.251C110.946 125.45 110.946 125.45 109.358 125.568C110.416 123.775 110.416 123.775 112.972 122.698C113.584 123.485 114.196 124.275 114.807 125.064C114.766 125.16 114.725 125.257 114.685 125.353C113.695 124.987 112.705 124.621 111.705 124.251ZM118.658 120.255C119.597 120.885 119.872 121.61 119.666 122.727C118.977 122.108 118.201 121.67 118.658 120.255ZM113.93 127.577C114.081 126.984 114.172 126.632 114.3 126.13C114.659 126.367 114.917 126.537 115.384 126.845C114.815 127.132 114.472 127.305 113.93 127.577ZM118.311 124.926C117.332 125.098 118.114 124.052 117.692 123.783C118.473 123.497 118.912 123.66 118.852 124.39C118.838 124.565 118.503 124.892 118.311 124.926ZM122.47 122.379C122.208 123.603 122.423 124.302 123.571 124.503C124.02 124.582 124.253 125.394 124.45 125.995C123.182 125.574 122.428 124.577 121.726 123.555C121.511 123.242 121.545 122.685 122.47 122.379ZM117.208 127.471C118.246 126.184 118.285 126.172 119.331 126.817C118.521 127.067 118.012 127.223 117.208 127.471ZM120.555 126.258C121.321 125.924 121.875 125.48 122.257 125.561C122.92 125.703 122.995 126.438 123.019 127.175C122.004 127.528 121.439 127.068 120.555 126.258ZM117.543 131.043C117.936 130.65 118.236 130.351 118.599 129.987C118.676 130.22 118.799 130.393 118.751 130.482C118.526 130.893 118.287 131.351 117.543 131.043ZM128.443 125.221C128.536 125.331 128.628 125.441 128.72 125.551C128.367 125.99 128.014 126.428 127.661 126.866C127.591 126.071 127.57 125.335 128.443 125.221ZM122.842 131.211C122.822 131.189 123.018 130.844 123.113 130.83C123.623 130.755 123.913 130.957 123.74 132.031C123.288 131.633 123.047 131.439 122.842 131.211ZM124.715 134.526C124.932 133.455 124.529 133.091 123.709 132.853C124.146 132.204 124.521 131.645 124.908 131.069C126.598 131.681 127.189 133.203 127.556 134.892C126.919 135.46 126.4 135.922 125.87 136.394C124.956 136.133 124.56 135.294 124.715 134.526ZM134.216 131.979C134.419 132.002 134.625 132.014 134.963 132.041C135.011 131.54 135.052 131.122 135.095 130.674C134.101 131.004 133.819 130.804 133.773 129.905C133.744 129.342 133.664 128.79 133.591 128.077C132.932 128.381 132.533 128.564 132.083 128.772C132.158 129.459 132.225 130.067 132.292 130.673C132.18 130.755 132.069 130.836 131.957 130.917C131.671 130.696 131.095 130.412 131.144 130.263C131.551 129.028 130.657 128.595 130.195 127.887C130.002 127.591 129.905 127.219 129.769 126.892C130.482 126.268 130.847 126.672 131.182 127.087C132.131 128.26 132.125 128.265 133.382 126.983C133.998 127.088 134.616 127.193 135.231 127.298C135.825 128.156 136.442 129.072 137.084 129.966C137.692 130.812 138.144 131.718 137.893 132.987C138.452 133.134 138.989 133.275 139.526 133.416C139.503 133.532 139.48 133.647 139.458 133.762C138.543 133.783 137.629 133.803 136.717 133.823C136.636 133.408 136.575 133.099 136.522 132.829C136.111 132.585 135.73 133.074 135.486 134.143C135.016 134.171 134.656 134.179 134.295 134.221C134.138 134.239 133.975 134.368 133.821 134.377C132.824 134.434 132.064 133.798 132.231 133.066C132.423 132.224 133.1 131.854 134.216 131.979ZM131.091 140.978C130.39 139.109 129.77 137.198 129.119 135.303C129.234 135.218 129.35 135.134 129.465 135.049C130.641 135.546 130.966 136.909 131.786 137.77C132.645 138.673 131.811 140.27 132.692 141.191C131.851 141.778 131.319 141.586 131.091 140.978ZM133.932 136.438C134.438 136.115 134.726 135.932 135.148 135.663C135.044 136.584 134.648 136.547 133.932 136.438ZM136.905 139.292C136.684 139.047 136.461 138.799 136.169 138.474C136.833 137.909 137.369 137.453 138.087 136.843C138.287 137.106 138.719 137.386 138.691 137.69C138.598 138.702 137.7 138.873 136.905 139.292ZM140.001 134.703C140.716 135.589 139.666 136.541 139.988 137.721C139.497 137.337 139.225 137.239 139.131 137.033C138.511 135.666 137.252 135.429 135.912 135.308C135.756 135.294 135.603 135.231 135.471 135.154C135.397 135.111 135.369 134.992 135.259 134.801C136.173 134.395 136.781 135.115 137.536 135.049C138.347 134.977 139.164 134.824 140.001 134.703ZM144.809 128.15C146.018 127.723 146.572 128.228 146.552 129.601C145.001 130.098 145.522 128.548 144.809 128.15ZM150.391 126.84C150.347 126.791 150.303 126.742 150.26 126.693C150.21 126.73 150.16 126.767 150.111 126.804C150.194 126.89 150.276 126.975 150.36 127.06C150.314 127.323 150.25 127.59 150.262 127.823C149.011 128.275 148.736 128.163 148.292 126.956C148.684 126.579 149.097 126.181 149.484 125.809C150.337 125.944 150.441 126.367 150.391 126.84ZM148.488 122.354C147.432 122.469 147.432 122.469 146.437 120.872C146.728 120.857 146.969 120.856 147.188 120.864C147.654 121.257 147.99 121.405 148.348 121.423C148.299 121.334 148.253 121.251 148.21 121.173C148.438 121.402 148.509 121.77 148.488 122.354ZM154.625 118.793C153.414 119.184 152.581 118.896 151.735 118.142C151.063 117.543 150.118 117.264 149.286 116.857C149.029 116.731 148.772 116.605 148.547 116.452C148.306 116.008 148.133 115.577 147.911 115.137C147.92 115.008 147.937 114.872 147.973 114.719C148.598 114.319 148.973 114.323 149.244 114.505C149.334 114.863 149.418 115.192 149.47 115.503C149.592 116.232 149.625 116.28 150.651 116.872C150.489 116.497 150.324 116.117 150.139 115.689C150.236 115.788 150.344 115.87 150.475 115.92C150.532 115.862 150.592 115.794 150.655 115.72C150.891 115.822 151.142 115.93 151.474 116.073C151.245 115.879 151.038 115.689 150.842 115.505C150.995 115.335 151.166 115.165 151.361 115.054C151.412 115.024 151.469 114.997 151.528 114.97C151.954 115.273 152.369 115.537 152.776 115.773C152.781 115.845 152.787 115.919 152.792 115.986C152.798 116.08 152.43 116.348 152.228 116.387C151.539 116.523 151.953 116.964 151.86 117.264C151.875 117.268 151.89 117.273 151.906 117.278C151.854 117.559 151.802 117.84 151.748 118.133C152.585 118.756 153.102 118.582 153.561 118.352C153.765 118.249 153.843 118.039 153.662 117.72C153.937 117.754 154.199 117.771 154.503 117.671C154.744 118.007 154.984 118.342 155.22 118.671C155.041 118.686 154.848 118.72 154.625 118.793ZM156.698 120.195C156.804 120.235 156.91 120.275 157.017 120.315C156.982 120.145 157.008 119.914 156.901 119.804C156.708 119.604 156.51 119.408 156.314 119.21C156.198 119.019 156.06 118.878 155.896 118.787C155.496 118.388 155.095 117.991 154.693 117.594C154.815 117.536 154.943 117.463 155.084 117.359C155.394 117.129 155.791 117.045 156.211 117.014C156.266 117.021 156.322 117.033 156.376 117.038C156.372 117.027 156.367 117.016 156.363 117.005C156.84 116.983 157.336 117.015 157.759 116.969C158.035 117.738 158.226 118.273 158.482 118.987C157.949 118.957 157.482 118.931 156.979 118.902C156.739 120.8 159 120.811 159.084 122.424C158.106 122.244 157.047 121.237 156.698 120.195ZM160.113 124.554C160.264 124.52 160.472 124.555 160.693 124.598C160.734 124.664 160.776 124.732 160.821 124.804C160.49 124.763 160.273 124.671 160.113 124.554ZM161.877 130.545C161.709 129.964 161.484 129.185 161.228 128.298C160.151 128.21 159.154 127.876 158.906 126.527C158.871 126.336 158.555 126.131 158.342 126.132C157.293 126.133 156.85 125.611 156.669 124.856C157.094 125.272 157.551 125.642 158.12 125.687C157.599 125.029 157.091 124.71 156.596 124.446C156.573 124.245 156.556 124.038 156.552 123.819C156.55 123.744 156.549 123.67 156.548 123.597C156.614 123.648 156.681 123.7 156.746 123.751C156.768 123.694 156.788 123.636 156.809 123.579C156.722 123.49 156.634 123.401 156.546 123.312C156.546 123.196 156.546 123.099 156.545 123.049C156.712 123.114 156.894 123.185 157.094 123.263C157.33 123.493 157.594 123.711 157.832 123.93C157.866 124.235 158.042 124.528 158.386 124.672C158.071 124.935 157.263 123.765 157.088 124.375C157.91 125.007 158.532 125.213 159.115 125.21C159.364 125.209 159.776 125.411 159.873 125.228C160.152 125.459 160.443 125.637 160.92 125.37C161.265 126.333 161.917 127.018 162.679 127.602C162.384 128.96 163.508 129.215 164.114 129.872C163.456 130.07 162.788 130.271 161.877 130.545ZM162.697 131.247C162.796 131.153 162.896 131.06 162.996 130.967C163.547 131.297 164.098 131.628 164.754 132.022C164.24 132.617 163.798 133.127 163.31 133.692C162.485 133.149 162.848 132.094 162.697 131.247ZM168.486 129.83C168.151 129.924 167.772 130.147 167.493 130.08C167.126 129.992 166.839 129.676 166.398 129.378C167.083 128.485 167.737 128.598 168.312 128.951C168.489 129.059 168.434 129.527 168.486 129.83ZM169.135 126.82C168.721 127.049 168.289 127.287 167.571 127.685C168.156 126.706 168.564 126.023 169.154 125.036C169.536 125.953 169.82 126.634 170.103 127.315C170.02 127.379 169.937 127.444 169.854 127.509C169.625 127.29 169.396 127.07 169.135 126.82ZM167.675 120.843C168.163 120.668 168.654 120.492 169.226 120.287C169.23 120.293 169.319 120.42 169.417 120.538C170.658 122.02 170.664 122.018 171.184 124.291C171.388 125.181 171.565 126.08 171.754 126.975C171.648 127.03 171.543 127.086 171.437 127.142C170.182 125.043 168.928 122.944 167.675 120.843ZM167.368 123.493C167.481 123.113 167.664 122.701 167.69 122.32C168.08 122.645 168.471 122.971 168.904 123.331C168.538 123.871 168.259 124.284 167.969 124.711C167.219 124.504 167.209 124.06 167.352 123.547C167.362 123.543 167.374 123.542 167.383 123.537C167.378 123.523 167.373 123.508 167.368 123.493ZM165.372 123.299C165.361 123.323 165.351 123.344 165.34 123.368C166.312 124.108 167.197 124.971 166.906 126.656C166.315 125.802 165.725 124.948 165.035 123.951C164.55 124.332 164.09 124.694 163.633 125.053C164.43 126.338 166.641 125.843 166.462 127.94C166.065 128.302 165.67 128.661 165.249 129.044C165.408 129.42 165.568 129.8 165.728 130.179C165.292 129.79 164.412 130.788 164.202 129.914C164.349 129.901 164.515 129.887 164.907 129.855C164.515 129.292 164.195 128.86 163.902 128.407C163.465 127.732 162.649 127.07 162.704 126.351C162.817 124.888 162.035 124.042 161.552 122.979C161.235 122.28 160.687 122.179 160.037 122.778C159.393 121.798 158.632 120.983 159.749 119.626C160.184 119.826 160.644 119.998 161.086 120.2C161.025 120.493 160.969 120.761 160.91 121.042C161.822 121.863 162.622 122.95 163.699 123.209C163.749 123.233 163.796 123.256 163.856 123.284C163.853 123.271 163.85 123.261 163.847 123.249C163.849 123.249 163.851 123.25 163.853 123.25C163.85 123.242 163.845 123.235 163.841 123.227C163.76 122.905 163.699 122.66 163.64 122.423C163.583 122.483 163.534 122.534 163.49 122.582C163.094 121.941 162.576 121.342 162.016 120.731C162.621 121.18 163.107 121.797 163.642 122.344C163.75 122.146 163.855 121.953 163.935 121.806C164.009 121.912 164.088 122.014 164.158 122.123C164.499 122.653 164.861 123.062 165.372 123.299ZM165.406 114.208C165.432 114.417 165.458 114.626 165.479 114.794C164.651 115.39 163.818 115.991 162.921 116.637C162.789 116.365 162.657 116.093 162.521 115.812C163.332 114.956 164.241 114.265 165.406 114.208ZM160.924 115.42C160.915 115.494 160.882 115.582 160.839 115.665C160.787 115.517 160.715 115.369 160.625 115.221C160.788 115.299 160.932 115.358 160.924 115.42ZM162.546 105.789C162.407 106.899 163.175 107.4 164.021 108.203C161.827 108.47 162.238 106.692 161.779 105.546C162.047 105.627 162.557 105.703 162.546 105.789ZM161.09 98.7577C161.066 98.1886 161.181 97.749 161.555 97.3448C161.795 97.4307 162.03 97.5935 162.273 97.8088C162.278 98.0764 162.282 98.3354 162.286 98.624C161.845 98.6735 161.5 98.712 161.09 98.7577ZM165.635 94.7444C164.426 96.0188 165.732 96.8258 165.607 98.0231C165.197 97.9945 164.827 97.969 164.478 97.9444C164.4 97.8583 164.32 97.7764 164.238 97.6976C163.739 95.6085 163.866 95.4012 165.635 94.7444ZM162.548 94.9097C162.007 94.3255 162.223 93.6291 162.462 92.8947C163.623 93.5893 163.633 93.7744 162.548 94.9097ZM161.517 89.079C162.248 90.0351 160.683 91.1432 161.453 92.0121C160.288 92.2668 159.883 91.8939 160.152 90.9949C160.245 90.6868 160.363 90.384 160.473 90.0795C160.798 89.7686 161.123 89.457 161.517 89.079ZM157.214 87.704C156.913 88.2926 156.696 88.7186 156.493 89.1168C155.394 88.9643 155.603 88.2721 155.87 87.5534C156.251 87.5963 156.639 87.6396 157.214 87.704ZM155.763 83.8073C156.938 84.7497 156.984 86.1348 155.889 87.4586C155.966 86.8442 156.061 86.2246 156.174 85.5005C155.81 84.934 155.415 85.3053 154.953 85.8106C154.557 86.2452 154.304 87.0441 153.335 86.7134C154.367 85.8477 154.404 84.3259 155.763 83.8073ZM153.068 82.1012C152.471 82.3646 152.073 82.5405 151.644 82.7301C151.423 82.273 151.225 81.8656 151.012 81.426C152.07 80.6876 152.425 81.4399 153.068 82.1012ZM107.838 24.1493C107.926 24.3759 108.037 24.7054 107.935 24.8986C107.712 25.321 107.362 25.6851 106.837 26.3681C106.871 25.6074 106.844 25.1134 106.937 24.6259C106.978 24.4112 107.242 24.1789 107.447 24.019C107.519 23.9617 107.798 24.0485 107.838 24.1493ZM98.792 29.7693C98.8321 29.8252 98.8692 29.883 98.9083 29.9396C98.7318 29.8281 98.5457 29.7255 98.3364 29.6447C98.3365 29.397 98.2514 29.1494 98.1107 28.9006C98.3482 29.1819 98.5768 29.4706 98.792 29.7693ZM101.72 20.7893C100.461 19.9008 100.461 19.9008 101.37 18.6769C101.962 19.1837 102.239 19.7517 101.72 20.7893ZM98.9071 16.6408C98.5856 16.2385 98.1164 16.0283 98.3981 15.2699C99.2234 15.361 99.4295 15.7299 98.9071 16.6408ZM95.9726 5.53174C96.0423 5.44422 96.2594 5.47726 96.9626 5.36817C96.4992 5.96691 96.2058 6.34559 96.0682 6.5231C96.4637 7.33931 96.7109 7.99049 97.0711 8.5535C97.4157 9.09198 97.7211 9.75412 98.6766 9.3718C98.8451 9.30424 99.1536 9.82672 99.4042 10.1041C99.3259 10.1494 99.2485 10.2023 99.1686 10.2197C99.0681 10.2416 98.9655 10.2171 98.7982 10.2104C98.487 11.0406 99.0527 11.3767 99.4004 11.8706C99.7917 12.426 100.405 13.0205 99.3797 13.9811C99.1864 13.7155 98.8841 13.4866 98.812 13.1682C98.5348 11.9435 97.2106 11.4054 97.2269 9.98569C97.2276 9.92285 96.7328 9.98216 96.5159 9.89064C95.4885 9.45757 95.1304 6.58834 95.9726 5.53174ZM93.7933 9.29641C94.43 10.2317 95.0266 11.2035 95.7215 12.086C96.0526 12.5065 96.5379 12.8138 97.0139 13.0687C97.5135 13.3366 98.0734 13.4903 97.8259 14.4704C96.1594 13.9138 94.7125 13.1461 93.9411 11.5859C93.6429 10.9836 93.8266 10.0698 93.7933 9.29641ZM86.9205 13.6122C87.2911 14.4475 87.7428 15.1213 87.9349 16.075C88.1158 16.9725 88.7873 17.7526 89.4062 18.4168C90.766 19.8758 92.0996 21.3478 93.1301 23.1031C93.1835 23.1943 93.2251 23.3543 93.2992 23.3613C94.8627 23.5033 94.9096 25.0263 95.483 26.0772C95.3169 25.9083 95.1506 25.7379 94.9849 25.5705C94.6346 25.5172 94.304 25.467 94.0563 25.4295C94.0286 25.6215 94.0063 25.7765 93.984 25.9315C93.9165 25.8919 93.849 25.8519 93.7814 25.8123C93.672 25.5466 93.5626 25.2809 93.4353 24.9725C93.6745 24.9318 93.9074 24.8922 94.2403 24.8357C93.2361 23.957 92.7901 24.3853 91.9639 23.9155C91.8229 23.538 91.656 23.0909 91.4576 22.5594C91.3003 22.5063 91.1482 22.4553 90.9954 22.4041C91.0028 22.2461 91.0025 22.0642 90.9971 21.848C90.8353 21.9879 90.6832 22.1195 90.5334 22.249C90.4117 22.2082 90.2934 22.1684 90.1651 22.1252C89.9117 21.7917 89.553 21.4247 89.4101 21.1115C89.0651 20.3552 88.5729 19.7918 87.8795 19.3313C87.8557 19.0824 87.8338 18.8535 87.814 18.6477C86.6922 18.4471 86.2293 17.4433 85.6051 16.6374C85.4792 16.3045 85.3399 15.966 85.1515 15.6239C84.707 14.8167 84.1567 14.0206 83.5729 13.2274C83.9411 13.3977 84.3733 13.4857 84.5952 13.7808C85.326 14.7528 86.0429 14.1393 86.9205 13.6122ZM86.7676 12.1746C86.6095 12.4533 86.4516 12.7318 86.2937 13.0102C86.1931 12.955 86.0923 12.8996 85.9917 12.8444C86.1576 12.5702 86.3236 12.2961 86.4893 12.0217C86.5821 12.0728 86.6748 12.1235 86.7676 12.1746ZM83.4779 8.89734C83.4494 9.14085 83.4208 9.38393 83.3923 9.62744C83.2695 9.64039 83.1465 9.6531 83.0237 9.66605C83.0328 9.43098 83.0285 9.19538 83.0698 8.96165C83.0742 8.93494 83.3358 8.91832 83.4779 8.89734ZM83.023 10.9198C83.6399 11.151 84.3818 11.0475 84.5028 12.1508C83.9489 12.1202 83.4747 12.0941 82.9448 12.0645C82.9316 12.182 82.9328 12.2836 82.9396 12.3789C82.8051 12.2018 82.671 12.0248 82.5358 11.8479C82.0158 11.1685 81.5747 10.4643 81.1175 9.77036C81.0474 9.66376 80.9794 9.55585 80.9121 9.44826C80.9788 9.46051 81.0389 9.47791 81.0815 9.50467C81.7591 9.93569 82.2874 10.644 83.023 10.9198ZM78.8692 7.54826C78.8641 7.54319 78.8584 7.53738 78.8533 7.53231C78.5586 7.24394 78.2665 6.95235 77.9713 6.66436C78.1798 6.50848 78.4291 6.34169 78.7296 6.15551C78.774 6.65199 78.9208 7.12082 78.8692 7.54826ZM75.0583 3.51499C74.8974 3.42396 74.7386 3.33363 74.5829 3.24569C74.3404 2.85743 74.0938 2.46335 73.8018 1.99584C74.8257 2.47235 74.9707 2.54257 75.0583 3.51499ZM80.8776 -3.65616C80.4383 -3.94692 80.0898 -4.1779 79.6297 -4.48207C79.8941 -4.9481 80.1328 -5.36926 80.3558 -5.76285C81.6869 -5.43447 80.5443 -4.36675 80.8776 -3.65616ZM68.5742 -4.41987C68.436 -4.45558 68.308 -4.48869 68.1846 -4.52058C68.1643 -4.5714 68.1434 -4.62337 68.1212 -4.67975C68.0571 -4.84034 67.9932 -4.96212 67.9273 -5.05469C68.1897 -5.10467 68.2926 -4.92309 68.5742 -4.41987ZM66.5088 -5.8472C66.5232 -5.94246 66.5353 -6.03868 66.5079 -6.15375C66.4631 -6.3412 66.3742 -6.61496 66.2209 -6.77461C66.1917 -6.80504 66.1667 -6.82741 66.141 -6.85187C66.2597 -6.96458 66.3785 -7.07729 66.4977 -7.19038C66.9847 -6.68213 66.7721 -6.25997 66.5088 -5.8472ZM65.8469 -7.89548C65.3512 -7.94748 64.9565 -7.8782 64.6267 -7.69433C64.4762 -7.8913 64.3207 -8.09577 64.1617 -8.30577C64.3631 -8.31696 64.5398 -8.3463 64.701 -8.4223C65.0388 -8.58168 65.2687 -9.08898 65.7107 -9.65136C65.7597 -9.02116 65.7981 -8.52587 65.8469 -7.89548ZM64.3206 -11.3723C64.4824 -11.1167 64.5979 -10.8255 64.8205 -10.3661C63.9895 -10.5084 63.6923 -10.8019 63.8732 -11.6015C64.0897 -11.4959 64.2564 -11.4737 64.3206 -11.3723ZM61.6909 -14.1117C61.9414 -13.8946 62.2026 -13.6684 62.4752 -13.4322C62.306 -12.6322 62.1375 -11.8368 61.9636 -11.0146C61.5847 -11.4783 61.1409 -11.8795 60.4964 -12.0678C60.3708 -11.9295 60.3937 -11.7353 60.5216 -11.4817C60.4614 -11.52 60.4041 -11.5601 60.3332 -11.5919C60.0353 -11.7267 59.9106 -11.969 59.9124 -12.2453C59.9916 -12.3784 60.0456 -12.527 60.0324 -12.7245C60.1469 -12.9625 60.3319 -13.199 60.5841 -13.3985C60.9016 -13.6492 61.2599 -13.8371 61.6909 -14.1117ZM59.512 -13.2714C59.1228 -13.3922 58.7846 -13.4972 58.4285 -13.6079C58.398 -14.2368 58.6313 -14.3623 59.6378 -14.8704C59.8866 -14.519 60.1316 -14.1659 60.4834 -13.6591C60.1276 -13.5172 59.8115 -13.391 59.512 -13.2714ZM61.804 -15.0134C61.2661 -15.2699 60.9617 -15.4154 60.6631 -15.5576C60.9274 -15.7629 61.1976 -15.9752 61.608 -16.2984C61.6747 -15.863 61.7194 -15.569 61.804 -15.0134ZM59.2528 -15.616C59.7461 -15.8035 60.3844 -16.7974 60.6229 -15.5692C60.1833 -15.5726 59.7625 -15.5383 59.6293 -14.9379C59.5036 -15.1633 59.378 -15.3891 59.2528 -15.616ZM55.403 -16.4019C55.5065 -16.1352 55.6458 -15.9106 55.8277 -15.731C55.5294 -15.6143 55.2372 -15.5 54.9262 -15.3786C55.1082 -15.7409 55.2863 -16.0794 55.403 -16.4019ZM42.5796 -17.1382C43.1265 -16.5244 44.0421 -16.2742 44.6104 -15.6223C44.7316 -15.3729 44.8781 -15.1177 45.0207 -14.8646C45.0778 -14.663 45.1127 -14.4362 45.1147 -14.1732C44.7767 -14.3548 44.4987 -14.4362 44.3118 -14.6177C43.8047 -15.1107 43.5725 -15.992 42.467 -15.5507C42.2924 -15.4808 41.9158 -16.2641 41.5219 -16.8051C42.0367 -16.9758 42.4906 -17.2383 42.5796 -17.1382ZM39.2918 -18.4952C38.1052 -17.7816 38.1052 -17.7816 36.9957 -18.2557C38.2194 -19.0218 38.2194 -19.0218 39.2918 -18.4952ZM22.0042 -7.92277C22.3661 -7.78428 22.7639 -7.70761 23.0891 -7.51561C24.0065 -6.97385 24.8943 -6.38501 25.8909 -5.75279C24.6755 -4.89171 23.6133 -4.13905 22.4212 -3.29457C22.3945 -2.54899 22.3639 -1.69421 22.3333 -0.829239C21.1814 -0.483406 20.2702 -0.718874 19.5859 -1.37694C19.211 -1.73726 18.9911 -2.33942 18.873 -2.89685C18.7564 -3.44591 18.8556 -4.07616 18.8618 -4.8748C19.157 -4.51148 19.3892 -4.2253 19.8589 -3.64673C20.0152 -4.51743 20.1067 -5.02855 20.2345 -5.74302C20.8406 -5.04367 21.3786 -4.42257 21.9145 -3.80414C22.4887 -4.34219 23.0616 -4.87929 23.6373 -5.41848C23.0382 -6.18764 22.2294 -5.94847 21.3696 -5.41673C21.1564 -5.85699 20.9735 -6.23454 20.7985 -6.59609C21.2043 -7.05215 21.5991 -7.49651 21.9941 -7.94018C21.9969 -7.93407 22.0006 -7.92831 22.0042 -7.92277ZM38.6441 -27.9501C38.1382 -27.9571 38.038 -28.2571 38.4216 -28.9443C38.7035 -28.7366 38.8992 -28.5923 39.2113 -28.3625C38.955 -28.1689 38.7826 -27.9485 38.6441 -27.9501ZM18.8771 -10.7175C19.0443 -10.4307 19.3305 -10.0683 19.6175 -10.0583C20.9743 -10.0114 21.3676 -8.89928 21.9573 -7.99504C21.2285 -8.30454 20.7619 -9.29327 19.6277 -8.61267C19.5071 -8.5403 19.1113 -8.89811 18.955 -9.14299C18.7719 -9.42998 18.711 -9.81238 18.5952 -10.1586C17.7597 -9.68213 17.163 -8.73964 16.1988 -9.01223C15.881 -10.0433 17.0891 -10.007 17.2641 -10.6312C17.4398 -11.2585 17.556 -11.8953 17.7881 -12.9261C18.2273 -12.0201 18.5135 -11.341 18.8771 -10.7175ZM23.3058 -20.7509C23.2127 -20.5426 23.1616 -20.2855 23.013 -20.1409C22.8914 -20.0227 22.6537 -20.0393 22.2369 -19.9422C22.4921 -20.3901 22.5845 -20.6711 22.7673 -20.8255C22.8683 -20.9105 23.1214 -20.7826 23.3058 -20.7509Z" fill="#FFC107"/>
</svg>
