<svg width="150" height="192" viewBox="0 0 150 192" fill="none" xmlns="http://www.w3.org/2000/svg">
<path d="M11.2518 -9.06905C12.8242 -8.02514 12.8136 -7.30826 11.2182 -5.96297C10.9607 -5.74579 10.6258 -5.47478 10.5494 -5.19522C10.2242 -4.00367 9.38323 -4.01015 8.48448 -4.04926C9.43132 -2.46419 9.34764 -2.22576 7.66543 -1.63519C7.3094 -1.51015 6.92084 -1.58109 6.55142 -1.49661C5.99302 -1.36819 5.54 -1.0884 5.56184 -0.269937C6.39077 -0.193716 7.09308 0.10907 6.97823 1.22461C6.23751 2.28903 5.49244 3.35871 4.91008 4.19525C3.77671 4.91762 2.81576 5.53035 1.77402 6.19436C1.89027 7.00005 2.00071 7.76528 2.1032 8.4759C1.70322 8.63523 1.29769 8.79702 0.607585 9.07166C2.25173 11.2826 2.54012 13.9068 2.80151 16.4645C3.7246 17.1656 4.60539 17.8347 5.62243 18.6077C5.44058 17.9922 5.31936 17.5817 5.15258 17.0167C5.85175 17.0982 6.41544 17.3481 6.91143 17.1864C8.29207 16.7355 9.15965 17.1224 9.5638 18.4323C10.9164 17.7959 12.0632 17.547 12.7654 18.9246C11.2823 19.474 11.2877 19.4755 10.65 21.1822C10.5808 21.3672 10.4343 21.5653 10.2788 21.6875C9.39901 22.3773 9.70334 23.0209 10.073 23.6336C10.6911 24.6578 11.3416 25.6582 11.9655 26.6479C12.6035 26.6198 13.2369 26.6716 13.8631 26.546C14.8301 26.3521 15.1241 26.8414 15.1087 27.6926C15.0932 28.5621 15.3741 29.1799 16.0559 29.6232C16.2752 29.7658 16.2471 30.2759 16.3957 30.8733C15.766 30.5809 15.4661 30.4417 15.1035 30.2733C14.9373 32.1314 16.1737 31.6048 17.129 31.4776C17.2142 32.0754 17.2822 32.5545 17.3543 33.0605C16.9416 33.0907 16.6598 33.1111 16.1933 33.1449C16.8491 33.9492 17.3676 34.5853 18.1152 35.5025C18.095 34.7 18.0858 34.3262 18.0793 34.0659C18.8709 33.9747 19.7063 33.6962 20.3996 33.8469C21.1955 34.02 21.8654 34.5742 22.7229 35.0339C22.5093 35.9995 22.2776 37.0479 22.0371 38.1356C22.9969 37.6 23.8633 37.1163 24.707 36.6456C25.5017 38.1321 25.5037 38.1287 27.3677 38.8407C27.5344 38.9045 27.6773 39.0397 27.8018 39.1724C28.8238 40.2603 29.8389 41.3554 30.9457 42.5448C31.4931 42.3032 32.15 42.0137 33.0493 41.6171C32.892 42.3955 32.7543 43.0791 32.6511 43.5902C33.0325 44.7658 34.4881 44.5269 34.8258 45.8362C35.2019 47.2962 34.5325 48.1736 33.4655 49.0164C33.5102 50.3773 33.5533 51.6781 33.5954 52.9643C34.8624 52.7926 35.9038 52.6515 37.0782 52.4926C36.814 52.0686 36.5743 51.6831 36.3674 51.3511C35.8995 51.6112 35.5707 51.7941 34.9548 52.1363C35.1581 50.9228 35.3588 49.9954 35.4551 49.0721C35.5536 48.1271 35.457 47.1834 35.6163 46.2448C35.7748 45.312 34.8612 44.4765 35.7695 43.4055C36.9556 44.4997 36.7154 46.146 36.947 47.5455C37.1034 48.4903 37.3609 48.9274 38.0234 48.7169C38.4977 47.5564 38.8714 46.6425 39.2451 45.7281C39.2446 45.7178 39.2437 45.7076 39.2431 45.6973C39.2429 45.697 39.2425 45.6965 39.2419 45.6964C39.2425 45.6965 39.2427 45.6967 39.2431 45.6973C39.1935 44.9225 39.1443 44.1475 39.0936 43.3557C40.1779 43.1237 39.9034 44.4331 40.6432 44.8278C40.8914 44.3478 41.1352 43.8759 41.4231 43.3196C42.1965 45.8959 43.1638 47.1608 45.4935 48.7271C45.6455 48.8295 45.8314 48.919 45.9182 49.0736C46.5624 50.2207 47.185 51.3828 47.8783 52.6572C47.3302 53.0065 46.8425 53.3175 46.3138 53.6544C45.8322 52.9456 45.4313 52.2832 44.9626 51.6822C44.2654 50.7876 43.6254 49.8469 42.3237 49.6741C41.9271 49.6216 41.5064 49.0388 41.4055 48.5806C41.1658 47.4912 40.4676 46.8444 39.7636 46.1925C40.3135 47.1449 39.119 48.5163 39.4708 49.6433C40.5987 49.2613 41.4985 49.3871 41.9158 50.5464C42.0053 50.7944 42.3507 50.915 42.5888 51.0793C43.7824 51.9052 43.7605 52.3201 42.4485 53.6789C41.653 53.481 40.8552 53.2822 40.0574 53.0838C39.8022 53.2787 39.5469 53.4735 39.2914 53.6681C41.8489 53.464 39.9495 55.4128 40.7351 56.0115C41.3891 55.7308 41.9557 55.4874 42.4617 55.2702C42.7864 56.0467 43.044 56.6621 43.3486 57.3893C42.468 57.6435 41.8281 58.2521 41.5072 59.305C42.2512 58.7665 42.9955 58.2282 43.7473 57.684C44.5555 58.3086 45.2626 58.7963 45.9009 59.3652C46.5336 59.9286 47.0971 60.5737 47.6719 61.1632C48.1914 61.1385 48.7196 61.1137 49.2479 61.0888C49.2692 61.2248 49.2905 61.3608 49.3118 61.4967C49.1296 61.613 48.7858 61.7632 48.7897 61.8397C48.8438 62.8586 48.8962 63.8849 49.0755 64.8657C49.1166 65.0906 49.637 65.15 49.9366 65.2856C50.0007 65.18 50.0645 65.074 50.1286 64.9683C49.867 64.4282 49.6053 63.888 49.2796 63.2152C51.8833 64.4696 54.551 68.7721 54.4236 71.3648C53.1153 71.5435 52.7606 70.5245 52.3104 69.6531C51.9421 68.9401 51.6758 68.1287 50.4329 68.1038C50.2785 70.1049 51.384 71.2536 52.0961 72.4483C51.9266 73.2746 51.7159 74.0002 51.6585 74.7147C51.632 75.0456 51.8093 75.5299 52.0555 75.6487C53.9936 76.5848 54.9284 78.6538 56.628 79.8657C57.6159 80.5702 58.0106 81.7288 57.5827 83.2681C58.5292 83.0384 59.4387 82.8224 59.552 84.1795C59.5817 84.5345 60.0758 84.8218 60.4204 85.0464C61.3896 85.6788 62.392 86.2624 63.5075 86.9427C62.7299 87.4382 62.1155 87.8298 61.45 88.2542C61.9124 89.6544 63.5091 89.2068 64.2027 90.2115C64.4981 89.6979 64.6919 89.3605 64.8959 89.0058C65.0191 89.177 66.8934 93.5623 66.9125 93.6887C66.2373 93.6878 65.5431 93.6871 64.8492 93.6862C64.8012 93.8636 64.7538 94.041 64.7061 94.2182C65.8517 94.1771 66.5806 95.047 67.7643 95.0086C68.2776 94.9921 68.892 95.2632 69.2007 95.6441C70.0154 96.6497 70.6879 97.7864 71.4746 98.9567C70.2459 98.6942 69.5172 97.9112 69.0134 96.7567C68.3938 97.2028 67.8502 97.5945 67.2604 98.0193C66.6835 97.3997 66.1649 96.8432 65.6468 96.2863C65.5105 96.3378 65.3742 96.3899 65.2382 96.4412C65.1846 97.0994 65.1312 97.757 65.0733 98.4673C64.7078 98.7897 64.2993 99.1499 63.5593 99.8029C64.9775 99.9302 66.2525 99.726 67.1125 100.208C68.0475 100.732 68.5969 101.893 69.459 102.954C68.6263 103.215 68.083 103.385 67.4589 103.581C67.6299 104.029 67.7774 104.408 67.9182 104.79C68.0525 105.154 68.0829 105.627 68.327 105.869C69.2065 106.739 70.2498 107.462 70.0513 109.075C70.0349 109.207 70.251 109.336 70.4181 109.537C70.7227 108.998 70.9929 108.521 71.3221 107.939C71.9912 108.236 72.8089 107.899 73.2165 108.864C73.48 109.487 74.236 109.9 74.8782 110.213C75.8768 110.699 76.918 111.045 76.1377 112.682C76.0982 112.765 76.3348 112.957 76.4497 113.102C77.5027 111.509 77.9935 111.457 79.4123 112.929C78.7939 113.323 78.2287 113.683 77.6925 114.025C78.2075 114.437 78.7073 114.671 78.9794 115.086C79.6659 116.134 80.5506 116.401 81.7742 115.702C82.768 115.135 83.6202 115.588 83.9771 116.204C84.8055 117.634 86.2423 118.06 87.5335 118.761C87.7185 118.861 87.8399 119.07 87.9907 119.229C87.9337 119.363 87.877 119.496 87.82 119.629C86.4965 119.641 85.2458 119.365 84.0731 118.7C83.3871 119.137 82.7653 119.534 82.2426 119.867C81.6078 119.345 81.1075 118.934 80.6074 118.523C80.5027 118.649 80.3977 118.775 80.2929 118.901C81.0422 120.097 82.0996 120.946 83.3584 121.591C83.7655 121.799 84.1262 122.11 84.4523 122.435C85.0955 123.076 85.6992 123.759 86.3491 124.456C86.026 124.55 85.6208 124.669 85.2116 124.788C85.4527 125.022 85.6608 125.332 85.9588 125.434C87.0912 125.821 88.2477 126.157 89.4214 126.437C89.6503 126.492 90.167 126.273 90.2613 126.07C90.8737 124.753 91.3174 125.441 91.721 125.96C91.976 126.288 92.1094 126.725 92.3178 127.156C91.9351 127.624 91.6029 128.031 91.2729 128.435C92.4691 128.635 93.6579 128.863 94.8646 129.024C95.6004 129.122 96.0984 129.371 95.7739 130.293C95.4713 131.154 94.8931 131.276 94.1767 131.089C93.4797 130.907 92.7485 130.82 91.6164 130.615C91.8754 131.354 91.9297 131.748 92.1287 132.018C92.4106 132.401 93.1022 132.657 93.0895 133.029C93.0302 134.737 94.1822 134.247 95.0417 134.327C95.2111 133.211 95.3597 132.232 95.5051 131.274C96.5606 131.243 97.7839 130.329 98.6052 131.656C97.8385 132.309 97.0647 132.969 95.9778 133.896C95.9605 133.962 95.8244 134.477 95.6762 135.037C96.0908 135.419 96.549 135.741 96.8862 136.173C97.4848 136.939 96.1604 136.91 96.1875 137.633C97.0247 137.733 97.8884 137.837 99.0492 137.977C99.2471 138.495 99.5328 139.243 99.778 139.884C100.633 140.097 101.583 140.321 102.521 140.574C103.168 140.749 103.775 140.895 104.04 139.734C103.417 139.324 102.775 138.902 102.152 138.492C102.355 137.969 102.522 137.541 102.747 136.96C101.978 136.948 101.367 136.937 100.876 136.929C99.8555 135.947 101.885 135.715 101.519 134.92C100.514 135.314 99.5272 135.701 98.5696 136.077C98.2506 135.177 98.009 134.496 97.7525 133.774C98.4974 132.988 99.2533 132.377 100.336 132.642C100.655 132.72 101.098 132.478 101.479 132.349C103.011 131.827 103.012 131.822 103.848 133.216C103.066 133.081 102.274 132.755 101.458 133.843C102.285 134.664 103.113 135.498 103.953 136.319C104.562 136.913 105.158 137.423 106.224 137.206C106.838 137.081 107.474 137.415 108.325 137.588C107.676 138.387 107.281 138.871 106.754 139.519C107.413 139.899 108.041 140.261 108.668 140.624C109.311 140.165 109.857 140.23 110.031 140.926C110.191 141.565 109.667 141.71 109.172 141.74C109.579 143.381 110.636 144.412 112.067 145.196C112.638 144.369 113.267 144.22 114.068 144.663C114.568 144.938 115.266 144.865 115.845 145.028C117.795 145.576 119.372 146.599 118.495 148.829C117.577 148.141 116.677 147.327 115.644 146.727C114.405 146.008 113.707 147.719 112.625 147.864C112.634 148.025 112.642 148.185 112.651 148.346C113.293 148.316 113.935 148.286 114.843 148.244C114.804 148.716 114.768 149.243 114.714 149.771C114.65 150.407 114.57 151.045 114.479 151.844C114.137 152.061 113.687 152.348 113.235 152.636C113.779 153.694 113.779 153.694 115.335 152.781C115.808 153.044 116.316 153.326 117.101 153.762C116.348 154.317 115.826 154.705 115.302 155.088C114.753 155.488 114.201 155.884 113.463 156.417C116.038 157.115 116.431 159.694 118.074 161.516C116.763 160.673 116.409 161.809 115.999 162.406C115.144 162.656 114.491 161.593 113.641 162.823C114.071 163.128 114.517 163.407 114.92 163.74C115.241 164.005 115.723 164.28 115.757 164.645C115.828 165.42 116.308 165.682 116.77 166.092C117.398 166.65 118.244 167.305 118.305 168.083C118.374 168.948 118.755 169.323 119.206 169.789C120.139 170.751 121.063 171.722 121.958 172.656C123.639 172.285 124.648 172.854 124.948 174.339C124.985 174.524 124.76 174.805 124.598 175.177C124.056 174.887 123.616 174.651 123.066 174.356C122.898 174.929 122.785 175.316 122.626 175.858C123.514 175.695 124.33 175.549 124.354 176.708C124.358 176.892 124.684 177.124 124.905 177.146C125.659 177.219 125.736 177.802 125.718 178.411C125.681 179.653 126.046 180.648 126.854 181.436C127.233 181.805 126.967 182.373 127 182.821C127.093 184.061 125.626 183.874 125.483 184.894C126.113 184.827 126.664 184.769 127.504 184.679C126.558 186.022 127.177 186.828 127.65 187.678C127.796 187.941 128.141 188.243 128.07 188.451C127.487 190.151 128.764 190.631 129.515 191.462C129.438 190.616 129.361 189.77 129.285 188.924C128.579 187.69 128.581 187.679 129.698 186.529C128.257 184.526 128.445 182.011 128.509 179.671C129.447 179.361 130.249 179.096 131.07 178.824C130.571 177.144 130.571 177.144 128.484 176.891C128.343 176.118 128.201 175.341 128.056 174.542C129.282 173.953 129.453 175.361 130.33 175.491C130.13 174.858 129.774 174.409 129.436 173.945C128.828 173.111 128.913 172.843 130.147 171.817C130.422 172.189 130.698 172.563 130.942 172.893C131.534 172.741 132.023 172.616 132.633 172.459C132.658 173.114 132.535 173.722 132.739 174.112C132.914 174.446 133.46 174.531 133.864 174.738C132.446 175.73 132.499 175.681 133.424 176.809C133.822 177.293 133.94 178.036 134.205 178.651C134.392 179.084 134.611 179.497 134.876 180.044C135.299 179.55 135.536 179.198 135.839 178.934C136.784 178.109 137.878 177.952 138.691 178.664C139.926 179.747 140.242 181.307 140.195 182.887C139.047 183.082 138.137 183.237 137.087 183.415C137.227 183.939 137.323 184.297 137.419 184.654L137.365 184.624C137.368 184.64 137.372 184.655 137.375 184.671C137.384 184.667 137.394 184.664 137.403 184.66C138.019 185.262 138.695 185.811 139.225 186.49C139.807 187.234 139.23 187.653 138.497 187.92C138.595 188.39 138.694 188.86 138.834 189.533C139.487 189.015 140.118 188.748 140.303 188.326C140.939 186.869 139.784 185.975 139.445 184.772C140.301 184.284 141.085 183.608 141.069 185.175C141.067 185.368 141.378 185.528 141.565 185.677C142.274 186.239 143.212 186.626 143.659 187.378C144.652 189.047 145.989 189.127 147.742 188.268C148.147 188.07 148.59 187.99 148.774 187.931C149.034 187.324 149.221 186.888 149.404 186.46C149.405 186.462 149.406 186.464 149.408 186.466C149.608 185.968 149.809 185.468 150.023 184.933C150.687 185.248 151.319 185.548 151.951 185.847C151.466 184.717 150.489 183.999 150.587 182.815C151.293 182.091 151.972 181.586 152.389 180.926C153.027 179.916 153.484 178.798 154.075 177.614C155.015 178.777 155.015 178.777 153.051 180.841C154.074 181.029 154.94 181.189 156.084 181.399C154.924 182.555 155.736 183.13 156.019 183.805C156.402 184.719 157.334 184.669 158.554 184.989C157.912 183.936 158.152 182.701 156.779 182.894C156.654 181.932 156.53 180.972 156.39 179.884C156.929 179.681 157.387 179.508 157.783 179.359C157.653 180.238 157.536 181.023 157.423 181.783C159.283 182.007 160.6 181.174 161.632 179.878C161.565 177.753 161.471 175.761 161.454 173.757C161.447 172.906 161.181 172.529 160.202 172.797C160.175 173.181 160.176 173.567 160.112 173.952C160.064 174.235 160.009 174.611 159.824 174.781C158.956 175.584 160.079 175.126 160.054 175.304C160.001 175.685 159.864 176.066 159.762 176.448C160.879 177.012 161.354 177.943 160.773 178.628C160.272 178.678 159.717 178.733 159.146 178.79C158.99 178.222 158.859 177.747 158.757 177.373C158.053 177.674 157.416 177.946 156.199 178.465C157.079 176.003 155.262 174.58 156.161 172.124C156.99 172.609 157.63 172.984 158.267 173.358C159.068 171.415 160.038 170.901 161.424 171.696C162.192 172.136 162.961 172.574 163.733 173.005C163.939 173.12 164.3 173.143 164.353 173.318C164.801 174.808 165.107 176.42 164.209 177.968C163.927 178.453 163.652 178.793 163.758 179.271C164.08 180.725 164.228 182.222 164.248 183.775C163.836 184.201 163.418 184.634 162.873 185.199C163.331 185.511 163.697 186.003 163.992 185.919C164.994 185.633 165.226 186.238 165.476 186.927C165.493 186.975 165.672 186.939 165.775 186.942C165.752 186.695 165.729 186.448 165.704 186.178C167.032 186.246 167.146 186.29 169.057 187.441C170.222 188.143 170.62 188.002 171.217 186.609C171.345 186.311 171.327 185.965 171.408 185.429C172.358 185.424 173.197 185.419 174.024 185.414C174.222 184.497 173.797 182.722 173.308 182.498C173.048 182.664 172.775 182.838 172.514 183.004C171.888 182.417 171.897 181.099 170.521 181.606C170.455 182.873 171.31 183.514 172.108 184.309C170.107 185.605 170.175 183.003 168.832 183.204C169.048 182.429 169.311 181.825 169.349 181.241C169.379 180.779 169.215 180.28 168.993 179.903C168.259 178.654 169.098 176.409 167.105 175.956C167.026 175.938 167.01 175.73 166.965 175.61C166.439 174.194 165.914 172.779 165.506 171.679C165.908 170.933 166.415 170.387 166.38 169.973C166.308 169.092 165.489 169.742 164.937 169.886C164.899 169.749 164.861 169.611 164.822 169.474C165.411 168.873 166 168.273 166.776 167.481C167.277 168.516 167.642 169.269 168.099 170.213C168.957 170.262 170.396 169.827 170.566 171.715C171.627 171.274 172.549 170.891 173.736 170.398C173.269 171.363 172.98 171.96 172.651 172.64C172.099 172.395 171.652 172.197 170.919 171.873C171.087 172.485 171.165 172.769 171.244 173.052C169.97 173.401 169.927 172.137 169.228 171.182C168.832 172.376 168.552 173.221 168.204 174.272C168.818 174.047 169.246 173.89 169.697 173.724C169.985 174.102 170.278 174.488 170.571 174.873C170.998 174.725 171.425 174.577 171.833 174.436C173.016 176.307 174.998 177.585 174.494 180.269C176.014 181.291 177.445 182.252 178.803 183.165C179.722 182.476 180.395 181.972 181.407 181.214C179.534 180.976 179.473 179.481 179.565 178.342C179.65 177.296 179.416 176.697 178.757 176.309C178.09 175.917 177.573 175.149 176.434 175.689C175.678 176.047 175.294 175.475 175.682 174.606C176.136 173.589 176.126 172.894 175.144 172.53C174.991 172.474 174.751 172.268 174.777 172.207C175.444 170.638 173.725 170.418 173.731 169.643C172.855 169.284 172.044 169.197 171.624 168.723C170.955 167.969 172.246 167.553 172.438 166.964C172.159 166.309 171.913 165.73 171.686 165.196C171.067 165.124 170.495 165.057 169.904 164.988C169.881 166.156 171.758 166.775 170.014 168.466C169.491 167.024 169.032 165.762 168.68 164.791C167.745 164.751 167.14 164.725 166.535 164.699C166.541 164.57 166.547 164.441 166.552 164.311C167.149 163.931 167.745 163.551 168.511 163.063C167.711 162.619 167.084 162.113 166.344 161.905C165.627 161.704 164.793 161.809 164.025 161.781C164.244 160.927 164.397 160.333 164.549 159.742C165.645 159.265 166.68 159.232 167.258 160.032C167.894 160.913 168.482 161.161 169.65 160.763C169.657 160.761 169.662 160.76 169.669 160.757C170.185 161.342 170.325 161.388 171.031 161.612C170.591 161.276 170.246 161.012 169.847 160.707C170.878 160.415 171.167 160.845 171.245 162.112C171.265 162.442 171.158 163.018 171.296 163.069C172.602 163.548 172.31 165.176 173.073 166.023C173.273 166.246 173.423 166.587 173.681 166.671C174.686 166.997 175.284 167.737 175.825 168.604C176.076 169.005 176.546 169.242 176.929 169.537C177.487 169.967 178.061 170.376 178.612 170.814C178.676 170.865 178.634 171.049 178.641 171.172C178.425 171.283 178.21 171.395 178.01 171.498C178.111 173.375 179.576 174.11 180.405 175.201C181.724 175.087 182.897 174.985 184.355 174.859C183.037 173.539 184.795 172.871 184.829 171.85C186.084 171.949 186.858 172.411 187.297 173.461C187.557 174.083 187.931 175.014 188.421 175.06C190.194 175.226 189.981 176.711 189.895 177.855C189.815 178.914 190.461 179.288 190.734 179.674C190.359 180.484 189.886 181.091 189.873 181.638C189.857 182.34 190.474 182.43 191.276 182.238C190.199 180.442 192.1 180.058 192.918 179.069C192.463 178.879 191.882 178.799 191.875 178.608C191.816 177.024 190.59 176.148 190.221 174.693C189.902 173.426 189.332 171.799 187.6 171.567C187.428 171.544 187.361 171.118 187.176 170.738C188.854 170.333 189.455 171.941 190.765 171.82C191.378 173.155 192.543 173.349 193.927 173.132C194.062 173.111 194.198 173.32 194.415 173.484C194.034 174.026 193.687 174.521 193.365 174.979C193.889 176.581 195.574 177.266 196.108 178.95C196.024 178.322 195.941 177.694 195.862 177.094C196.736 176.905 197.522 176.734 198.323 176.56C198.246 175.955 198.193 175.537 198.124 174.984C199.058 174.953 199.801 174.929 200.535 174.904C200.565 173.119 200.505 173.039 199.165 172.141C198.978 172.016 198.968 171.633 198.88 171.364C198.356 171.34 197.723 171.471 197.358 171.22C196.527 170.646 195.797 170.457 194.701 171.055C193.705 171.598 192.671 171.128 192.161 170.226C191.586 169.21 191.596 168.599 192.261 166.422C192.489 166.768 192.676 167.053 192.862 167.335C192.329 166.407 193.997 165.086 192.807 164.232C192.558 164.65 192.326 165.038 191.822 165.883C191.782 164.545 191.319 163.931 191.564 162.855C191.738 162.092 190.936 161.248 190.621 160.412C190.54 160.198 190.692 159.869 190.664 159.613C190.628 159.293 190.587 158.938 190.425 158.697C189.692 157.602 188.916 156.541 188.081 155.365C187.625 156.088 187.174 156.802 186.644 157.644C186.543 157.662 186.281 157.665 186.043 157.765C185.78 157.875 185.538 158.073 185.263 158.249C185.54 158.539 185.747 158.756 185.952 158.971C185.825 159.247 185.696 159.525 185.572 159.794C184.941 159.679 184.635 159.626 184.336 159.925C184.059 159.614 183.813 159.293 183.582 158.965C183.112 157.995 182.664 157.071 182.142 155.992C182.765 156.212 183.112 156.334 183.607 156.509C183.198 155.521 182.894 154.785 182.499 153.832C183.404 153.857 184.052 153.875 184.765 153.894C184.772 153.116 183.925 152.214 185.379 151.511C185.911 152.422 186.451 153.348 187.063 154.397C188.493 151.456 187.287 149.759 185.734 147.987C185.166 148.506 184.61 149.014 183.846 149.712C184.088 147.633 182.026 148.181 181.384 146.817C181.863 146.363 182.353 145.899 182.856 145.424C184.124 147.18 184.124 147.18 184.616 146.874C183.759 145.386 182.962 143.834 182.013 142.405C181.216 141.206 181.386 139.356 179.947 138.59C179.761 138.491 179.697 138.034 179.729 137.737C179.785 137.228 179.92 136.743 179.192 136.852C179.205 136.482 179.218 136.113 179.23 135.768C177.927 135.55 177.909 136.815 177.228 137.562C177.896 137.654 178.413 137.726 179.051 137.814C178.867 138.421 178.724 138.889 178.455 139.772C177.471 138.189 176.697 136.943 176.006 135.832C176.429 135.199 176.695 134.799 176.951 134.415C178.007 134.351 179.024 134.288 180.128 134.22C180.054 133.723 179.993 133.309 179.937 132.925C180.165 132.764 180.382 132.642 180.592 132.548C180.645 132.598 180.697 132.647 180.753 132.7C180.755 132.625 180.757 132.555 180.759 132.483C181.146 132.343 181.505 132.325 181.845 132.433C182.082 132.732 182.232 132.911 182.36 132.997C182.089 133.311 181.753 133.632 181.792 133.814C182.016 134.877 182.32 135.921 182.721 136.902C182.953 137.468 183.472 137.583 184.184 137.312C184.863 137.054 185.608 136.968 186.305 136.957C187.345 136.942 187.926 137.666 187.48 138.584C186.752 140.083 187.162 141.056 188.019 141.986C188.154 142.133 188.09 142.493 188.098 142.758C188.139 144.029 189.321 144.541 190.373 143.731C190.603 143.553 190.805 143.331 191.02 143.129C191.093 143.173 191.167 143.216 191.24 143.26C190.893 144.034 190.546 144.807 190.26 145.446C191.012 146.055 191.507 146.455 191.956 146.819C193.329 145.956 191.519 143.85 193.729 143.482C195.352 144.884 195.045 146.078 192.725 147.413C193.298 148.784 193.816 150.19 194.466 151.511C194.792 152.174 195.521 151.802 196.086 150.724C195.547 149.514 193.461 149.081 194.89 146.528C195.281 147.639 195.566 148.449 195.93 149.483C196.3 149.248 196.898 149.066 197.044 148.729C197.315 148.106 196.777 148.044 196.31 147.952C196.147 147.919 196.119 147.455 195.951 146.956C196.411 147.131 196.658 147.138 196.739 147.27C198.003 149.325 199.277 151.376 200.465 153.487C200.66 153.834 200.451 154.466 200.425 155.035C202.495 154.993 201.265 156.817 201.44 157.869C199.672 157.041 198.598 155.841 199.102 153.358C199.287 152.448 198.818 151.303 197.589 151.19C197.081 152.011 196.648 152.711 196.131 153.549C197.707 153.949 197.669 155.261 197.633 156.699C196.945 156.294 196.349 155.945 195.819 155.633C195.356 156.812 194.958 157.826 194.51 158.966C194.709 159.305 194.988 159.778 195.297 160.303C194.866 160.336 194.523 160.362 194.153 160.39C194.465 161.86 195.731 161.335 196.529 161.276C197.302 161.219 198.243 160.615 198.901 159.999C200.167 158.812 200.435 158.666 201.21 159.927C201.911 161.069 202.419 162.357 203.042 163.646C202.916 163.813 202.714 164.08 202.63 164.191C202.941 165.076 203.216 165.862 203.486 166.633C201.733 167.563 202.159 165.425 201.138 165.253C200.706 166.402 201.649 166.557 201.962 167.053C202.308 167.603 202.91 167.956 203.382 168.379C203.081 170.856 203.163 171.023 204.66 171.204C205.171 170.617 205.651 170.067 206.111 169.539C205.969 168.992 205.812 168.39 205.554 167.402C206.562 167.859 207.154 168.126 207.89 168.459C208.463 167.573 208.855 166.547 209.556 166C210.28 165.434 211.303 165.333 212.409 164.955C211.828 164.451 211.415 164.005 210.919 163.684C210.416 163.359 209.855 162.944 209.274 162.961C208.713 162.977 208.094 163.494 207.418 163.832C207.316 163.117 207.238 162.406 207.11 161.711C206.972 160.964 206.691 160.446 205.769 160.482C204.577 160.529 204.077 159.84 204.504 158.672C204.863 157.689 204.748 157.114 203.98 156.674C203.624 156.471 203.354 156.129 202.881 155.7C203.334 155.258 203.762 154.589 204.05 154.61C204.684 154.656 205.378 154.906 205.81 155.333C206.448 155.964 206.748 156.983 207.528 156.986C207.96 156.111 208.356 155.309 208.925 154.156C208.206 154.543 207.89 154.713 207.576 154.882C207.374 154.465 207.187 154.078 206.999 153.69C206.417 153.739 205.835 153.788 205.254 153.836C205.238 153.723 205.222 153.609 205.206 153.496C205.472 153.372 205.738 153.247 206.132 153.063C206.467 152.593 205.323 151.89 206.375 151.375C206.156 150.949 206.016 150.438 205.701 150.115C203.091 147.441 200.413 144.838 197.84 142.126C197.291 141.548 196.814 141.613 196.163 141.908C195.908 142.462 195.658 143.007 195.406 143.551C194.6 143.428 194.266 143.063 194.596 142.301C195.342 140.577 196.992 139.426 198.871 139.341C198.515 138.588 198.214 138.059 197.172 138.35C196.615 138.505 195.992 138.174 195.418 138.01C195.335 137.986 195.365 137.67 195.331 137.397C195.914 137.201 196.448 137.022 197.231 136.76C196.942 136.018 196.721 135.45 196.346 134.488C195.983 135.278 195.834 135.571 195.715 135.872C195.579 136.219 195.47 136.573 195.256 137.195C193.536 135.863 193.942 133.894 193.874 132.017C193.384 132.33 193.012 132.567 192.421 132.944C192.077 132.235 191.339 131.484 191.523 130.942C192.03 129.44 191.077 129.235 190.341 128.773C189.704 128.374 189.042 128.013 188.398 127.64C188.552 128.642 188.596 129.689 188.887 130.619C189.189 131.584 189.729 132.435 190.212 133.43C188.752 133.661 188.786 133.641 188.457 132.881C188.044 131.925 187.754 130.807 187.076 130.116C186.059 129.08 186.368 127.415 185.55 126.318C185.383 126.093 185.682 125.461 185.76 125.05C187.423 124.673 186.711 126.291 187.332 126.909C187.736 126.797 188.2 126.667 188.556 126.568C188.958 124.593 187.42 124.176 186.772 123.086C186.352 123.913 185.958 124.321 185.585 123.291C184.587 122.771 183.589 122.251 182.625 121.749C182.577 122.105 182.509 122.615 182.378 123.601C180.925 122.137 180.302 120.589 179.873 118.995C179.255 118.751 178.673 118.522 177.895 118.214C178.382 119.581 177.351 120.152 176.586 120.643C176.909 121.31 177.17 121.85 177.43 122.386C177.006 122.404 176.583 122.421 176.179 122.437C175.86 121.78 175.472 121.196 175.282 120.525C175.098 119.874 174.88 119.08 175.092 118.44C175.72 116.538 175.168 115.18 174.152 113.948C174.09 113.872 173.963 113.857 173.865 113.814C173.662 114.092 173.459 114.37 173.239 114.67C172.642 114.308 172.094 113.977 171.525 113.633C170.577 114.653 169.725 115.569 168.869 116.488C167.792 115.82 167.585 114.977 168.471 114.557C169.41 114.112 169.607 113.411 169.991 112.664C170.186 112.284 170.57 111.795 170.904 111.707C171.887 111.449 172.022 110.713 172.481 109.665C170.993 110.283 169.805 110.776 168.771 111.205C168.164 110.918 167.709 110.512 167.203 110.525C166.809 110.534 166.353 111.066 165.958 111.342C165.75 110.912 165.64 110.173 165.319 110.11C163.81 109.816 164.387 108.966 164.976 108.063C165.279 107.599 165.703 107.147 165.073 106.552C164.759 107.086 164.479 107.56 164.11 108.186C163.614 107.913 162.89 107.776 162.85 107.446C162.679 106.042 161.6 105.447 160.886 104.541C159.405 102.66 157.804 100.883 156.384 98.9512C155.804 98.1629 155.077 98.26 154.337 98.443C152.165 94.4689 150.654 92.7282 147.046 89.9736C146.525 88.4386 145.894 86.8876 144.177 85.1584C143.974 85.3197 143.8 85.4574 143.654 85.5731C143.437 85.4337 143.233 85.3027 143.032 85.1744C142.393 84.578 141.654 84.0815 141.441 83.0901C141.65 82.7107 141.871 82.3102 142.182 81.747C140.333 81.6442 139.337 80.6529 138.755 79.0998C138.513 78.4537 138.07 77.9159 137.727 77.3226C137.12 76.2715 136.519 75.2162 135.825 74.0065C135.847 74.0016 135.591 74.0983 135.346 74.1043C133.113 74.156 133.114 74.1513 133.743 71.8061C134.013 70.802 132.846 69.1892 132.037 69.372C131.676 69.7713 131.342 70.1405 130.982 70.5396C130.867 70.3021 130.704 70.1416 130.719 69.9712C130.92 67.7281 130.191 66.3036 127.899 66.3475C126.946 66.3658 126.86 65.5055 126.934 65.0144C127.088 63.9908 126.582 63.275 126.51 62.4111C126.364 60.6664 125.426 60.1564 124.032 60.3668C123.625 59.7787 123.313 59.3281 123.153 59.096C123.14 58.0021 123.28 57.095 123.082 56.3301C122.859 55.4697 122.319 54.7455 121.938 53.9484C121.389 52.8005 120.47 52.1723 119.24 51.9392C117.466 51.6031 117.139 51.1329 116.984 49.356C116.832 47.6002 116.547 45.8766 116.308 44.0518C116.361 44.0218 116.68 43.8406 117 43.6592C115.796 43.3294 114.582 43.1892 114.08 41.8588C113.67 42.5301 113.365 43.0292 112.856 43.8619C112.556 43.0611 112.144 42.5537 112.274 42.1647C112.45 41.6327 113.037 41.1909 113.8 40.2984C112.716 40.7004 112.077 40.9367 111.217 41.2558C110.9 40.321 110.592 39.4084 110.283 38.4937C111.007 37.8107 111.612 37.2402 112.501 36.4021C111.539 36.2899 110.836 36.0948 110.119 36.1672C109.697 36.2099 109.254 36.6771 108.719 37.0185C106.925 36.4147 106.552 34.5524 105.959 32.9145C105.814 32.5123 105.889 31.7424 106.165 31.4433C106.445 31.14 107.099 31.2106 107.589 31.1164C107.674 29.7218 107.152 28.5057 106.495 28.6008C106.286 28.9103 106.07 29.2305 105.851 29.5562C104.982 29.1316 104.936 28.3675 105.026 27.5323C105.176 27.2601 105.483 26.8602 105.417 26.7643C104.811 25.8774 104.319 24.8035 102.997 25.0032C103.085 24.5989 103.271 24.1362 103.185 24.08C102.432 23.5917 102.536 22.759 102.607 21.9487C102.696 20.944 102.542 20.1537 101.564 19.8102C101.262 19.7045 101.086 19.3114 100.852 19.0481C101.138 18.5417 101.369 18.1312 101.444 17.9985C98.9868 14.3005 96.9847 10.4548 93.8873 7.48162C94.6168 8.76946 94.0361 10.1566 93.7362 11.5288C93.4089 10.1285 92.8673 8.8176 93.2973 7.19747C93.4402 6.65921 93.4238 5.73493 93.1273 5.56781C92.286 5.094 92.5377 4.26258 92.5085 3.45504C91.2366 3.52676 91.0397 1.65919 89.5422 2.09405C89.4003 2.13541 88.9819 1.60004 89.0425 1.39452C89.5657 -0.371337 88.0756 -0.9696 87.5837 -2.13205C87.4415 -2.46862 86.8727 -2.55767 86.3175 -2.85908C86.5982 0.0781173 86.5982 0.0781387 85.2542 0.846773C85.6541 -0.411011 85.9785 -1.57902 85.1822 -2.51247C84.5619 -3.24008 83.8254 -3.91867 84.4907 -5.24355C84.6059 -5.47282 84.28 -5.96992 84.0562 -6.25034C83.4924 -6.95647 82.8705 -7.60932 82.2674 -8.28851C81.2662 -7.14086 81.7876 -6.3829 82.2761 -5.78653C81.5171 -5.06546 80.894 -4.47377 80.0108 -3.63525C80.351 -4.77208 80.5773 -5.52749 80.8274 -6.36332C80.0649 -6.47869 79.467 -6.56895 78.9344 -6.6493C78.5735 -6.153 78.2012 -5.64128 77.8294 -5.1295C77.7085 -5.16864 77.5874 -5.20755 77.4662 -5.24647C77.4763 -6.19325 77.4861 -7.13983 77.4964 -8.12419C76.0243 -8.05934 75.9664 -6.74242 75.3452 -6.12132C76.5055 -3.16842 78.9014 -1.50825 80.7973 0.491362C80.0041 1.35757 79.3266 2.09795 78.592 2.90015C79.6569 3.96019 80.65 4.94848 81.3451 5.64063C82.2877 5.67597 82.8552 5.69726 83.3318 5.71546C83.6245 5.19468 83.9102 4.68644 84.2042 4.16319C84.1759 4.17495 82.904 4.71188 82.8233 4.74581C82.4163 3.62673 83.3106 3.40625 84.0414 2.91074C84.8871 4.5209 86.4172 5.65715 85.5435 8.14753C86.2463 8.03619 86.7391 8.03431 87.1982 7.86679C87.7776 7.65549 88.3139 7.36971 88.7172 8.15698C88.4178 8.46681 88.0471 8.71838 87.8787 9.05571C87.6503 9.51371 87.3164 10.2356 87.4804 10.5004C88.3728 11.9431 89.4043 13.2795 90.3484 14.5971C90.7635 15.7422 91.2327 16.8432 91.5608 18.0069C91.804 18.8699 92.3553 19.0012 93.1253 18.865C93.3788 19.1438 93.625 19.4175 93.8129 19.6267C94.2914 19.1773 94.6288 18.8603 95.2278 18.2977C95.3206 19.1058 95.3444 19.6681 95.4544 20.1987C95.7282 21.5209 95.7116 23.1267 96.4378 24.0525C97.0756 24.8656 97.8315 25.5942 98.321 26.5604C98.1061 26.7308 97.8909 26.9015 97.6341 27.105C97.3488 26.7326 97.0798 26.3817 96.7671 25.9735C96.5145 26.4916 96.3516 26.826 96.2276 27.0804C95.4058 26.2577 94.5786 25.5403 93.876 24.7042C92.1744 22.6789 90.6253 20.522 88.5065 18.898C87.7402 18.3109 87.3099 17.2105 86.9063 16.2409C86.6242 15.5636 86.2736 15.2435 85.5462 15.2856C85.4313 15.2924 85.3382 15.0537 85.2127 14.9012C85.6778 14.7238 86.0623 14.5771 86.6162 14.3655C86.0989 13.6751 85.6983 13.1398 85.2979 12.6054C85.5192 12.0555 85.7404 11.5049 85.9981 10.863C85.5554 10.8403 85.2599 10.8251 85.0503 10.8144C84.7044 11.6102 84.414 12.2786 84.1171 12.9608C83.8124 12.824 83.6038 12.769 83.6121 12.7274C83.6681 12.4403 83.733 12.1412 83.8629 11.8738C84.4209 10.7239 85.0088 9.43417 84.2675 8.49858C83.7578 7.85514 83.4822 7.27851 83.697 6.4291C82.9461 7.00341 82.2952 7.50118 81.716 7.94444C80.5634 6.9664 79.3791 6.31076 78.6674 5.2697C77.7604 3.94281 76.264 3.21782 75.6825 1.55383C75.0625 -0.219585 73.934 -1.50288 71.5651 -0.805535C71.5996 -1.56496 71.6276 -2.18499 71.6511 -2.70226C70.7508 -3.49421 68.3081 -2.22165 69.2456 -4.91112C67.4815 -4.53001 67.5461 -6.39362 66.5933 -6.89281C65.4113 -7.51185 66.4416 -9.35252 65.2114 -10.0519C65.2209 -9.58714 65.2267 -9.30058 65.2325 -9.0135C64.6173 -9.24844 64.2759 -9.70954 63.9012 -10.1372C63.6272 -10.4496 63.3408 -10.7641 63.0042 -10.9982C62.2222 -11.5412 61.3314 -11.9633 61.5067 -13.2786C61.5353 -13.4928 61.3105 -13.9072 61.2365 -13.8879C59.9972 -13.5673 60.2935 -15.1212 59.504 -15.3311C59.3382 -15.375 59.2124 -15.5268 59.0068 -15.6722C58.6264 -15.4031 58.2492 -15.1366 57.818 -14.8312C58.1922 -14.4162 58.4928 -14.0829 58.8196 -13.7204C57.9885 -13.1331 57.4687 -13.274 56.9862 -13.7959C56.6158 -14.1965 56.2172 -14.7857 55.736 -14.8182C53.9108 -14.9408 52.4133 -15.7022 50.9298 -16.5421C50.862 -16.5805 50.6933 -16.4541 50.4515 -16.3554C50.444 -15.1598 50.4363 -13.9219 50.4276 -12.5334C52.2671 -11.432 54.224 -10.2077 55.3604 -8.00145C55.6066 -7.52368 56.1938 -7.28562 56.5503 -6.86624C57.2724 -6.01719 57.8558 -5.09745 57.2302 -3.71004C57.1455 -3.52225 57.2331 -3.27183 57.2633 -3.04218C56.3566 -2.35518 55.6108 -1.0589 54.3286 -1.74163C54.3089 -1.77404 54.2893 -1.80697 54.2697 -1.83938C54.3789 -2.37392 54.4903 -2.91948 54.6453 -3.67925C54.4474 -3.60169 54.264 -3.53023 54.0832 -3.45949C54.0826 -3.46324 54.0818 -3.46729 54.0813 -3.47104C53.639 -3.86526 53.265 -4.24761 52.9015 -4.53793C52.9428 -4.93386 52.8602 -5.31409 52.5482 -5.68903C52.4027 -5.8635 52.3795 -6.22637 52.4277 -6.49706C52.6097 -7.51567 52.0022 -7.32181 51.4862 -7.28308C50.8178 -6.56053 51.1052 -5.31449 49.7894 -5.0607C49.3376 -6.19584 49.0236 -7.46514 48.3767 -8.4748C47.7363 -9.47365 46.7597 -10.2103 45.9302 -11.0622C45.7879 -10.9583 45.6457 -10.8544 45.5035 -10.7505C45.8826 -9.72713 46.1687 -8.64063 46.6672 -7.69825C47.1583 -6.76969 47.9126 -6.02261 48.457 -5.12531C48.7423 -4.65507 48.9226 -4.25461 49.4993 -3.98025C50.183 -3.65505 50.7344 -2.89943 50.8134 -1.89245C49.6919 -1.86181 49.7303 -1.90676 49.3069 -2.28286C49.1951 -2.3819 49.0799 -2.47794 48.9677 -2.57676C48.7131 -2.9759 48.4253 -3.35337 48.0528 -3.67977C47.8693 -3.72062 47.7139 -3.73561 47.5738 -3.75505C47.2237 -4.03951 46.8743 -4.32495 46.5093 -4.58889C46.0601 -4.91401 45.7424 -5.16842 45.5416 -5.80284C45.1182 -7.14037 43.9969 -7.96966 42.8446 -8.57163C41.9818 -9.02259 41.1786 -9.31363 41.281 -10.588C41.3019 -10.8505 41.0261 -11.1381 40.8152 -11.3312C40.2409 -11.8564 39.701 -12.4754 39.009 -12.7956C38.3387 -13.106 37.496 -13.0906 36.6761 -13.2272C37.1452 -15.3632 35.7009 -15.5348 34.2119 -15.6435C34.2909 -16.3219 34.3568 -16.8886 34.4794 -17.9461C35.5202 -17.2291 36.2056 -16.6815 36.963 -16.2518C38.2962 -15.4946 39.4564 -14.1251 41.4362 -15.3778C41.649 -15.5125 42.0274 -15.5932 42.1925 -15.4902C43.7187 -14.539 45.0482 -15.1546 46.3259 -16.5718C46.4459 -16.7047 46.693 -16.7144 46.9908 -16.8198C47.6501 -15.7907 48.5251 -15.7785 49.5392 -16.8459C49.49 -17.4816 49.5199 -18.0956 48.638 -18.1816C48.2108 -18.2233 47.6413 -18.7022 47.5954 -19.1092C47.5258 -19.7242 47.8575 -20.4495 48.011 -21.0958C46.6659 -20.4344 45.3405 -20.4881 44.8129 -21.406C44.1756 -22.5144 43.6698 -23.7169 42.9989 -25.1024C41.457 -23.5691 41.6045 -25.6654 40.6309 -25.8498C40.4094 -25.2437 40.2113 -24.7007 39.9328 -23.9378C39.4839 -24.1821 39.0049 -24.2663 38.8261 -24.5701C38.062 -25.8699 39.5633 -27.028 39.7771 -28.2933C38.4409 -27.774 37.2215 -27.3 35.7518 -26.7292C35.6904 -26.5774 35.4901 -26.081 35.3795 -25.8075C36.3097 -25.0931 37.1003 -24.4857 37.8392 -23.918C37.5663 -22.7297 37.3272 -21.6877 37.0416 -20.4441C36.3384 -20.7312 35.655 -20.9804 35.0007 -21.2846C34.1129 -21.6974 33.2333 -22.1286 32.3757 -22.5944C31.1107 -23.2821 29.9513 -22.7347 28.7351 -21.8419C29.3618 -20.0461 31.0563 -18.9968 31.1222 -16.8338C29.9582 -16.4892 29.196 -16.5885 28.711 -17.6935C28.3732 -18.4635 27.7672 -19.1002 27.1806 -19.6879C26.6467 -20.2231 25.7291 -19.8872 25.5021 -19.0295C25.2376 -18.0314 25.2056 -17.0005 25.0341 -15.6905C25.8243 -16.1945 26.2537 -16.468 26.7881 -16.8084C26.7275 -15.5723 28.1075 -14.9593 27.366 -13.5526C26.3261 -13.3291 25.5839 -13.5679 25.3296 -14.6863C25.2982 -14.8243 24.921 -14.8273 24.6875 -14.898C24.6801 -14.2041 24.674 -13.6237 24.6664 -12.9367C23.4586 -12.4357 22.3603 -11.9799 20.9679 -11.4024C21.2706 -12.3784 21.4756 -13.0382 21.6799 -13.6969C21.4143 -13.7949 21.1304 -13.9003 20.8825 -13.9919C20.7682 -13.9356 20.6853 -13.9219 20.6504 -13.8736C20.3173 -13.4154 19.9946 -12.9499 19.6642 -12.4896C18.6119 -11.0222 17.8064 -10.8667 16.639 -11.8847C16.3233 -12.1599 15.9734 -12.3944 15.7014 -12.6003C14.0778 -11.5654 12.5134 -10.5682 10.921 -9.55334C11.1165 -9.26119 11.1605 -9.12978 11.2518 -9.06905ZM83.1522 120.819C84.2427 120.027 84.8958 119.903 85.3643 120.624C85.2922 120.81 85.2195 120.995 85.1477 121.18C84.5718 121.076 83.9959 120.972 83.1522 120.819ZM127.93 176.522C127.746 176.641 127.562 176.761 127.378 176.88C127.069 176.428 126.76 175.975 126.451 175.523C126.565 175.418 126.68 175.312 126.794 175.207C127.173 175.645 127.552 176.084 127.93 176.522ZM149.369 186.404C148.757 186.528 148.155 186.634 148.616 185.287C148.932 185.756 149.153 186.084 149.369 186.404ZM172.6 173.214C172.852 173.635 173.104 174.057 173.421 174.588C172.553 174.321 172.553 174.321 172.229 173.405C172.352 173.342 172.476 173.278 172.6 173.214ZM190.857 169.828C190.122 169.206 190.47 168.5 191.031 167.821C190.977 168.45 190.922 169.079 190.857 169.828ZM203.729 148.871C204.524 149.992 203.898 151.042 203.583 152.125C202.2 152.065 202.245 151.074 202.269 150.171C202.293 149.316 202.926 149.051 203.729 148.871ZM200.25 145.147C200.484 147.21 200.707 149.173 200.977 151.557C198.789 149.958 199.604 147.428 198.951 145.477C199.442 145.352 199.806 145.26 200.25 145.147ZM198.029 147.08C196.396 145.802 196.361 145.593 197.405 143.58C199.189 144.23 198.008 145.794 198.029 147.08ZM192.069 136.36C191.443 136.617 190.867 136.854 190.053 137.188C190.199 136.569 190.307 136.076 190.431 135.585C190.565 135.054 190.714 134.526 190.862 133.971C192.196 134.234 191.893 135.576 192.069 136.36ZM185.739 133.906C185.651 134.199 185.439 134.469 185.274 134.748C185.133 134.664 184.873 134.599 184.873 134.493C184.874 134.222 184.989 133.934 185.12 133.407C185.451 133.665 185.766 133.817 185.739 133.906ZM87.7767 4.26139C87.3411 3.84145 86.9881 3.32942 86.6025 2.85412C85.5379 1.54246 85.6072 1.33304 87.802 0.193914C87.1909 2.19584 89.6426 2.61533 88.7789 4.7843C88.4226 4.60584 88.0331 4.50796 87.7767 4.26139ZM89.7052 5.93976C89.7482 5.7752 90.1472 5.50894 90.3119 5.53589C91.0444 5.65647 91.1074 6.17184 90.7012 7.00808C89.9049 7.01268 89.5012 6.72422 89.7052 5.93976ZM93.0573 14.4659C94.3518 15.1409 93.8522 16.5242 94.1202 17.4278C93.7521 17.9414 93.4335 18.3864 93.1217 18.8346C92.3267 17.5762 92.8018 16.1034 93.0573 14.4659ZM8.52407 7.18739C9.93184 6.62782 10.3112 6.99005 10.2012 7.98338C10.0571 8.14305 9.91318 8.30304 9.76955 8.46278C9.40684 8.09129 9.04361 7.71976 8.52407 7.18739ZM14.317 14.521C15.5147 14.291 16.4206 14.1172 17.3268 13.9431C16.4752 15.0557 15.5572 15.3592 14.317 14.521ZM15.273 13.241C15.2045 13.0973 15.4229 12.7735 15.514 12.5297C15.7493 12.6472 16.0024 12.7419 16.2046 12.9016C16.2437 12.9324 16.085 13.2181 15.9444 13.5678C15.6794 13.4525 15.3585 13.4209 15.273 13.241ZM18.1228 13.4904C18.1044 12.5756 18.0378 11.7669 18.0943 10.9481C18.1209 10.5633 18.3123 10.0957 18.5702 9.79072C18.6998 9.63766 19.2718 9.62926 19.4277 9.78713C20.7398 11.1144 22.0022 12.4955 23.4327 14.0244C22.6859 14.5006 22.1772 14.8248 21.574 15.2091C20.7094 14.0602 19.9337 12.7709 18.1228 13.4904ZM80.4907 24.9079C80.338 25.2007 80.0433 25.4679 79.7624 25.7361C79.5903 25.525 79.4175 25.3124 79.2463 25.1019C79.4812 25.4139 79.5389 25.6746 79.5666 25.9291C79.5206 25.9758 79.4753 26.0228 79.4334 26.0699C78.4867 25.0343 78.3329 24.4709 79.2481 23.68C79.2503 23.6834 79.2523 23.686 79.2545 23.6894C79.3829 23.9033 79.6713 24.1344 79.8968 24.339C80.1016 24.5247 80.2936 24.7176 80.4907 24.9079ZM83.6092 28.4873C84.2112 29.3101 84.7133 30.0465 84.6488 30.6642C86.3041 32.0955 86.3115 32.108 86.099 33.0563C85.792 32.7892 85.4748 32.5133 84.967 32.0716C85.3656 32.7688 85.6223 33.2174 85.9851 33.8519C85.4221 33.4283 84.9806 33.1898 84.7051 32.8659C84.3424 32.4392 84.1008 31.9452 83.825 31.4811C83.5962 31.0965 83.4595 30.6283 83.1668 30.346C82.4356 29.6412 81.6528 29.0029 80.8844 28.3459C81.352 27.8946 81.8295 27.4427 82.1776 26.9077C82.1984 26.8756 82.2398 26.8489 82.2885 26.8249C82.7465 27.3636 83.1897 27.9139 83.6092 28.4873ZM94.2865 48.7721C94.3511 49.1611 94.2145 49.4432 94.1614 49.7701C94.0576 49.7191 93.9537 49.6681 93.8495 49.6174C93.6679 49.2063 93.5454 48.7953 93.288 48.3843C93.0458 47.9974 92.837 47.6834 93.16 47.6444C93.2678 47.6315 93.5433 47.7447 93.6424 47.8585C93.898 48.1515 94.2511 48.5586 94.2865 48.7721ZM114.564 135.42C114.305 135.44 114.026 135.516 113.792 135.462C113.631 135.425 113.531 135.208 113.403 135.072C113.464 134.98 113.524 134.888 113.585 134.797C113.934 134.887 114.283 134.978 114.632 135.068C114.609 135.185 114.587 135.302 114.564 135.42ZM66.6525 84.4208C66.5164 84.1394 66.3413 83.9029 66.3851 83.8487C66.7109 83.4448 67.0804 83.0771 67.4358 82.6979C67.5233 82.8066 67.6106 82.9149 67.6982 83.0236C67.3741 83.4561 67.0508 83.8884 66.6525 84.4208ZM83.5559 35.8853C83.53 35.9158 83.5044 35.9465 83.4757 35.974C82.591 35.4391 82.2793 35.2459 82.5142 34.6377C82.8853 35.0944 83.2972 35.5014 83.5559 35.8853ZM85.9623 39.447C86.0719 39.5811 86.2027 39.7056 86.3791 39.8933C85.825 39.7577 85.441 39.4478 85.0906 39.0016C85.0192 38.7311 84.9591 38.4475 84.9056 38.1527C85.2577 38.5844 85.609 39.0162 85.9623 39.447ZM87.6928 41.7904C87.5068 41.7361 87.3207 41.6823 87.1347 41.628C87.0884 41.4984 87.0423 41.3691 86.9644 41.1523C87.1823 41.2576 87.355 41.3134 87.5175 41.4329C87.5869 41.4836 87.635 41.667 87.6928 41.7904ZM97.6686 51.8402C96.9649 50.9511 96.9649 50.951 97.4614 50.5812C97.5259 50.9736 97.5907 51.3664 97.6686 51.8402ZM104.992 57.1502C104.915 57.3923 104.836 57.642 104.748 57.9176C104.328 57.8756 104.035 57.3976 103.68 56.848C103.936 56.6809 104.212 56.5014 104.498 56.3143C104.726 56.6373 104.888 56.9161 104.992 57.1502ZM114.434 64.6383C114.391 64.6955 114.334 64.725 114.27 64.7047C114.033 64.6305 113.584 64.2706 113.387 64.0007C113.386 63.9995 113.386 63.9984 113.385 63.9972C113.933 63.8762 114.16 64.0142 114.434 64.6383ZM119.715 74.5411C119.358 74.3037 119.096 74.1498 118.926 74.0401C119.066 74.0122 119.208 73.9845 119.346 73.9572C119.398 74.113 119.503 74.2985 119.715 74.5411ZM122.414 72.4349C122.311 72.0314 122.712 71.8146 121.959 71.1694C122.013 71.0648 122.037 70.8343 122.126 70.8763C122.478 71.0427 122.834 71.2159 123.192 71.4055C122.88 71.8185 122.64 72.1355 122.414 72.4349ZM113.826 65.7117C113.444 65.7049 113.189 65.6719 113.012 65.5862C112.95 65.5384 112.889 65.4953 112.827 65.4509C112.703 65.3127 112.637 65.105 112.583 64.7966C112.997 65.1019 113.412 65.407 113.826 65.7117ZM107.669 62.928C107.429 62.5592 106.829 62.036 107.273 61.8193C107.63 62.219 107.975 62.6051 108.476 63.1662C108.099 63.0593 107.716 63.0007 107.669 62.928ZM101.557 56.6264C101.389 56.1735 101.22 55.7202 101.024 55.1942C101.279 55.1346 101.464 55.0909 101.682 55.04C102.465 56.1828 101.704 56.1849 101.557 56.6264ZM103.747 54.9354C103.795 54.9014 103.841 54.8682 103.893 54.8309C103.567 54.58 103.267 54.3485 102.821 54.0057C102.721 53.5246 102.901 53.2811 103.741 53.8912C103.919 54.4044 104.192 54.9692 103.747 54.9354ZM93.5335 54.9141C93.4219 54.6689 93.4745 54.4747 93.7847 54.3419C93.8496 54.6124 93.9022 54.8335 93.9498 55.0314C93.8151 54.9931 93.6751 54.954 93.5335 54.9141ZM71.2243 64.4713C71.0109 63.8771 70.7331 63.2382 70.6709 62.724C70.669 62.7101 70.6639 62.6963 70.6622 62.6827C71.3965 63.3681 71.4664 63.6558 71.319 64.7031C71.2824 64.6221 71.2511 64.5459 71.2243 64.4713ZM82.3579 33.6157C81.79 33.4702 81.4775 32.9982 81.2044 32.4061C81.6019 32.7261 82.0006 33.0471 82.5631 33.5001C82.4943 33.5397 82.4259 33.5786 82.3579 33.6157ZM81.7421 30.2836C81.9537 30.5567 82.1704 30.8365 82.5029 31.2658C81.612 30.7253 81.5952 30.7141 81.7421 30.2836ZM80.7083 29.3289C80.3245 29.8702 80.0525 29.9897 79.6994 29.7025C79.9877 29.2337 80.389 28.8258 80.8059 28.4216C81.0059 28.8066 81.2751 29.1603 81.4868 29.5096C81.6311 29.7481 81.6406 29.9818 81.7035 30.2173C81.3695 29.9193 81.0356 29.6213 80.7083 29.3289ZM76.814 23.1606C77.4266 24.146 76.1417 24.1543 76.0053 24.9721C74.9725 23.5019 76.4571 23.6434 76.814 23.1606ZM32.7963 28.2108C33.2583 28.0415 34.1043 27.9345 34.2121 28.1622C34.709 29.2098 35.7664 29.0797 36.6171 29.3861C36.7722 29.4421 36.8819 29.599 37.2317 29.8945C36.0783 30.5276 35.2349 30.6915 34.3995 30.2936C33.6512 29.9373 32.9008 29.5854 31.9713 29.1467C32.2459 28.8189 32.4826 28.3258 32.7963 28.2108ZM38.5927 32.0004C38.6538 31.9888 38.7294 32.405 38.8376 32.7466C38.1438 32.8509 37.5843 32.9347 36.9139 33.0354C37.2053 31.9469 37.9853 32.117 38.5927 32.0004ZM40.5933 35.2609C40.492 35.4203 40.1626 35.4432 39.9384 35.5291C39.8988 35.0521 39.8597 34.5753 39.8087 33.9607C40.6754 34.197 41.0751 34.5018 40.5933 35.2609ZM70.7792 64.6789C70.4069 64.5124 70.1858 64.3034 70.0982 64.008C70.3212 64.2273 70.5469 64.4501 70.7792 64.6789ZM92.3378 46.251C92.5528 46.0262 91.3895 44.7691 92.5741 45.2523C93.2134 46.135 92.6115 46.0703 92.3378 46.251ZM93.4508 44.7493C94.0977 44.4264 94.4605 44.693 94.9454 45.6119C94.4574 45.3301 94.1084 45.1286 93.4508 44.7493ZM90.0179 43.344C89.7171 42.5928 88.9104 41.5673 89.563 41.2044C90.0356 42.1825 90.4558 43.0521 90.9219 44.0165C90.5217 44.1479 90.1877 43.7676 90.0179 43.344ZM91.1909 41.8928C91.2804 41.6162 91.3646 41.3563 91.4559 41.073C92.4432 42.1248 92.4432 42.1248 92.3006 42.8632C91.8867 42.5012 91.573 42.2268 91.1909 41.8928ZM77.4947 22.5161C77.3818 22.6888 77.206 22.8025 77.0448 22.9146C77.0148 22.8856 76.9839 22.8563 76.9569 22.8264C77.0522 22.5849 77.1546 22.3249 77.2827 21.9994C77.367 22.1447 77.4385 22.3151 77.4947 22.5161ZM76.1385 20.3689C76.1339 20.3612 76.1293 20.3541 76.1244 20.3466C76.1285 20.3453 76.1323 20.3442 76.1364 20.3429C76.1374 20.3519 76.1378 20.3596 76.1385 20.3689ZM36.9418 -0.890978C37.0342 -1.00657 37.1269 -1.12189 37.2193 -1.23747C37.3297 -1.13361 37.4405 -1.02994 37.551 -0.926079C37.6479 -0.703959 37.722 -0.48652 37.7748 -0.273043C37.4973 -0.478825 37.2196 -0.684908 36.9418 -0.890978ZM23.9168 14.9945C24.6743 15.6699 23.9462 16.2325 23.5652 16.8928C22.5809 16.5483 22.5001 15.9429 23.0855 15.1672C23.221 14.9876 23.7797 14.8721 23.9168 14.9945ZM39.3831 -0.194258C39.3979 -0.111696 39.4125 -0.0281193 39.4273 0.0539136C38.635 -0.169272 38.6403 -0.209884 38.9292 -0.938356C39.0877 -0.678127 39.2272 -0.449436 39.3831 -0.194258ZM36.5439 -1.77042C36.4638 -1.67618 36.3837 -1.58144 36.3037 -1.4872C36.1418 -1.57533 35.9376 -1.6253 35.8285 -1.76161C35.7049 -1.91654 35.6661 -2.14936 35.5905 -2.34831C35.7172 -2.44571 35.8437 -2.54341 35.9704 -2.64082C36.1617 -2.3505 36.3528 -2.06045 36.5439 -1.77042ZM20.3074 26.3133C19.4863 24.7496 17.9447 23.9953 16.991 22.578C16.7053 23.2043 16.4527 23.758 16.1785 24.3594C15.4446 24.1392 14.7923 23.9431 14.0988 23.735C13.6328 24.572 13.2627 25.2365 12.9096 25.8713C12.1998 25.94 11.6293 25.577 11.9438 25.0649C12.7981 23.6732 12.2522 22.7865 11.5894 21.99C12.3663 21.5447 13.1727 21.2931 13.6766 20.7424C14.3687 19.986 15.3152 20.0071 16.0468 19.1711C16.7605 18.3553 17.9612 18.7786 18.6895 19.3392C19.5119 19.9718 20.3008 20.7716 19.5204 22.1782C20.4354 22.7358 21.6142 21.4595 21.8703 22.765C22.0537 23.9845 22.2371 25.204 22.4283 26.475C21.5695 27.3507 20.6066 26.8836 20.3074 26.3133ZM30.2407 24.9307C30.956 24.8666 31.6713 24.8026 32.4414 24.7338C32.3248 25.3686 32.2162 25.9611 32.0534 26.8477C31.2567 26.3542 30.6177 25.958 29.9783 25.5617C30.0659 25.3511 30.1534 25.1411 30.2407 24.9307ZM31.0881 35.366C30.8443 34.8602 29.5063 34.9408 28.6376 34.963C26.9837 35.0053 26.9741 35.0681 26.486 33.5082C26.4109 33.2672 26.3701 33.0102 26.3146 32.7661C25.8544 32.7889 25.4045 32.8434 24.9682 32.8247C24.2177 32.7926 23.8212 32.5285 24.1479 31.5501C24.3216 31.0304 24.1743 30.4394 24.1711 29.619C25.0435 29.799 26.0412 29.7904 26.785 30.204C28.2097 30.9962 29.5733 31.9272 30.8089 32.9865C32.2442 34.2173 33.5147 35.6478 35.1342 37.2695C34.3627 37.5449 33.8447 37.91 33.4976 37.8166C32.7282 37.6096 32.6468 36.8919 33.0413 36.0034C32.233 36.0599 31.553 36.3314 31.0881 35.366ZM29.715 37.2395C29.7706 37.1391 29.8264 37.0384 29.882 36.938C30.1138 36.9856 30.4024 36.9656 30.5601 37.1024C30.6874 37.2128 30.6574 37.5128 30.7835 38.1985C30.214 37.6873 29.9645 37.4634 29.715 37.2395ZM30.5278 39.0152C31.6294 38.6986 32.4693 38.8075 33.352 39.6249C32.7856 40.0797 32.467 40.3357 32.0539 40.6672C31.4588 40.2925 30.6213 40.1836 30.5278 39.0152ZM36.4389 39.85C35.5033 40.0151 34.5648 40.0337 33.6327 39.9116C34.834 39.4138 35.9082 37.7321 37.4205 38.9853C37.0201 39.3518 36.7338 39.7979 36.4389 39.85ZM38.7671 41.5452C38.7906 41.283 38.8071 41.0989 38.8239 40.9145C38.9871 40.93 39.228 40.8811 39.2948 40.9764C39.3788 41.0968 39.3207 41.3349 39.3241 41.5223C39.1581 41.5291 38.9921 41.5359 38.7671 41.5452ZM51.5592 47.4417C51.0849 47.1395 50.8879 46.7183 51.5671 45.9729C51.9498 46.2614 52.347 46.5606 52.6962 46.8242C52.401 47.6736 51.99 47.7156 51.5592 47.4417ZM44.405 57.0508C45.6263 56.3872 45.6263 56.3872 45.8415 58.2638C45.2095 57.7302 44.8074 57.3904 44.405 57.0508ZM50.2427 54.679C50.8357 55.9034 51.2956 56.8526 51.7668 57.826C49.6957 57.664 49.1066 56.7393 50.2427 54.679ZM57.4204 53.873C57.3564 52.4706 56.1551 52.3772 55.3593 51.8104C55.092 51.6201 54.9196 51.3 54.6915 51.0519C54.4956 50.8392 54.3252 50.5264 54.0701 50.4609C52.6264 50.0909 52.6191 50.1116 52.8936 48.4199C53.5399 47.8274 54.1054 47.9368 54.6184 48.3839C55.2946 48.9738 55.9856 49.5489 56.6182 50.186C56.8976 50.4675 57.0582 50.8805 57.2541 51.2464C57.3539 51.4325 57.365 51.7997 57.497 51.8255C58.982 52.1147 58.5854 53.2056 58.2102 54.351C57.9142 54.1821 57.4295 54.0761 57.4204 53.873ZM54.2731 61.3315C53.6399 60.4805 53.1383 59.5157 52.5453 58.523C53.5661 57.6778 54.0751 58.04 54.4848 58.4952C54.9585 59.0216 55.4239 59.5878 55.7243 60.24C55.8456 60.503 55.626 61.2064 55.3683 61.4059C55.1228 61.5965 54.4388 61.5542 54.2731 61.3315ZM53.0725 74.1938C53.5258 73.7102 53.7693 73.2788 54.0842 73.1539C54.5903 72.953 55.1837 72.8315 55.6566 72.9327C55.8405 72.9722 55.8643 73.7007 55.8387 74.1264C55.8118 74.5757 55.6384 75.0381 55.4244 75.9305C56.6511 75.3249 57.463 74.9243 58.4187 74.4524C57.9469 75.7345 57.5345 76.8556 57.0411 78.1951C55.6468 76.7896 54.3856 75.518 53.0725 74.1938ZM58.2345 79.2687C58.3573 79.1111 58.4801 78.9535 58.603 78.7959C58.9833 79.0976 59.3635 79.3997 59.7438 79.7013C59.6207 79.8591 59.4978 80.0167 59.3749 80.1748C58.9945 79.8724 58.6145 79.5705 58.2345 79.2687ZM60.4867 77.5287C60.3212 77.4893 60.3026 77.0254 60.2014 76.7121C62.7612 76.4767 62.7612 76.4767 63.3068 78.0101C62.3561 77.8593 61.4034 77.7457 60.4867 77.5287ZM60.6359 81.4886C60.634 81.3637 60.6075 81.1401 60.6347 81.1287C60.9227 81.0095 61.2189 80.9235 61.5128 80.8287C61.5316 80.953 61.5506 81.0777 61.5694 81.2025C61.258 81.2979 60.9472 81.3933 60.6359 81.4886ZM73.4537 70.2464C72.0145 69.5653 70.5075 68.8777 70.6165 66.4636C71.0482 66.6882 71.5599 66.7923 71.562 66.9816C71.5758 68.2014 72.3659 68.7123 73.1542 69.2556C74.2153 69.9872 74.4237 71.174 73.7711 72.972C72.647 72.3312 73.4846 71.1917 73.4537 70.2464ZM63.5061 80.8933C63.6099 80.6555 63.7106 80.0499 63.9625 79.9312C64.3797 79.7346 65.0134 79.6691 65.3408 79.8753C65.9338 80.2492 66.3686 80.8632 66.8691 81.3771C66.7991 81.4481 66.7291 81.5186 66.659 81.5896C65.6691 81.3712 64.6795 81.1525 63.5061 80.8933ZM62.4554 83.4023C63.3902 83.1947 64.0764 83.0345 64.2947 84.1842C64.3828 84.6476 65.1604 85.0073 65.7187 85.135C66.6742 85.3531 66.7477 85.9623 66.6011 86.8517C64.8174 86.5704 62.7205 84.8586 62.4554 83.4023ZM68.753 87.0454C67.8399 85.9428 69.1522 85.5106 69.4803 84.4056C70.0883 85.0226 70.4923 85.4325 71.1451 86.095C69.9661 86.5632 69.3579 86.8049 68.753 87.0454ZM70.4091 89.3106C69.8133 89.0699 70.0375 88.5262 71.3599 87.4664C71.4444 88.786 73.1901 88.5073 72.9852 90.11C72.0478 89.8263 71.1988 89.6295 70.4091 89.3106ZM71.9237 97.1312C71.7585 96.7896 71.5929 96.4483 71.4277 96.1068C71.6014 96.0246 71.7754 95.9423 71.9492 95.8602C72.0354 96.239 72.1221 96.6179 72.2083 96.9967C72.1136 97.0416 72.0187 97.0861 71.9237 97.1312ZM74.3341 92.3312C75.3373 92.4377 75.9725 92.4179 76.5291 92.5914C76.9778 92.7311 77.3314 93.1041 77.9503 93.5257C77.6282 94.0718 77.2706 94.6773 76.8886 95.3249C75.1371 95.383 75.7281 93.1543 74.3341 92.3312ZM71.3265 100.554C71.3054 100.544 71.3937 100.234 71.4367 100.226C71.7416 100.168 72.0478 100.153 72.3535 100.123C72.2617 100.368 72.1699 100.613 72.078 100.858C71.8247 100.761 71.5668 100.673 71.3265 100.554ZM74.4152 99.2289C74.6582 100.058 74.8881 100.842 75.2324 102.015C73.177 100.933 73.1424 100.76 74.4152 99.2289ZM79.0435 96.9807C79.4645 96.5189 79.8214 96.1279 80.3542 95.5434C80.5703 96.6218 80.7394 97.4658 80.9313 98.425C79.8457 98.6547 79.5234 97.8987 79.0435 96.9807ZM73.0464 106.555C73.999 105.719 73.999 105.719 74.8451 107.041C73.804 107.875 73.6533 106.757 73.0464 106.555ZM75.9495 105.593C75.2588 105.547 74.4781 105.477 74.8132 104.118C75.4779 103.944 76.1019 103.781 76.7887 103.601C76.9591 104.143 77.1102 104.625 77.3107 105.263C76.7917 105.399 76.346 105.62 75.9495 105.593ZM74.4556 108.659C76.1945 107.499 77.09 107.934 78.4304 110.632C76.8709 110.147 75.4376 109.884 74.4556 108.659ZM79.2208 107.499C79.7953 107.843 80.2956 108.141 80.8781 108.49C80.6803 108.935 80.4969 109.348 80.3328 109.717C79.566 109.743 79.1874 108.957 79.2208 107.499ZM79.5449 113.816C80.08 113.366 80.5781 113.066 80.9082 112.636C81.2531 112.187 81.4363 111.612 81.6901 111.092C83.0988 111.512 83.0988 111.512 83.9283 113.265C82.5652 113.436 81.1843 113.61 79.5449 113.816ZM85.8535 115.273C85.6296 115.358 85.2258 115.257 85.1223 115.076C85.0211 114.899 85.2015 114.521 85.2584 114.231C85.5332 114.274 85.8079 114.317 86.2323 114.383C86.0762 114.776 86.0064 115.214 85.8535 115.273ZM88.4006 124.4C87.4839 124.297 86.7791 123.753 86.2871 122.319C87.6346 122.801 88.5931 123.143 89.779 123.567C89.2863 123.881 88.7709 124.442 88.4006 124.4ZM94.1331 128.343C95.5667 127.559 95.5667 127.559 96.187 128.54C95.4538 128.47 94.8992 128.416 94.1331 128.343ZM103.86 133.219C103.859 133.219 103.858 133.219 103.858 133.219C104.407 132.918 104.81 131.908 105.91 132.705C105.016 132.929 104.438 133.075 103.86 133.219ZM109.778 137.985C109.223 137.691 108.694 137.351 108.153 137.032C108.235 136.934 108.316 136.837 108.397 136.739C109.778 136.808 111.16 136.877 112.537 136.945C111.437 138.725 111.29 138.786 109.778 137.985ZM111.43 139.253C112.155 139.233 112.698 139.049 112.938 139.244C113.635 139.814 114.21 140.537 114.833 141.2C114.727 141.32 114.62 141.44 114.513 141.56C113.384 141.125 112.39 140.5 111.43 139.253ZM111.652 143.861C111.288 143.681 111.013 143.34 110.701 143.066C110.776 142.886 110.851 142.706 110.926 142.527C111.422 142.626 111.951 142.663 112.397 142.861C112.536 142.923 112.455 143.417 112.474 143.713C112.195 143.771 111.846 143.956 111.652 143.861ZM178.094 156.788C178.093 156.787 178.092 156.786 178.091 156.785C177.77 156.559 177.372 156.396 177.161 156.082C177.076 155.955 177.153 155.701 177.345 155.428C177.34 155.455 177.335 155.482 177.33 155.51C177.535 155.739 177.738 155.98 177.94 156.223C177.991 156.411 178.042 156.599 178.094 156.788C178.117 156.69 178.141 156.591 178.165 156.491C178.559 156.958 178.96 157.416 179.397 157.783C179.93 158.23 180.404 158.687 180.832 159.165C179.885 158.343 178.989 157.565 178.094 156.788ZM155.84 170.055C155.447 169.796 154.579 170.025 154.908 169.036C154.294 168.958 153.44 169.791 153.053 168.747C153.668 168.355 154.272 167.971 154.923 167.555C154.929 168.114 154.933 168.537 154.937 168.959C155.822 168.49 156.287 168.924 156.532 169.649C156.708 170.172 156.75 170.763 156.864 171.396C156.624 171.436 156.438 171.508 156.276 171.486C155.377 171.368 156.323 170.373 155.84 170.055ZM154.008 171.518C153.962 171.055 153.916 170.592 153.87 170.13C154.631 169.909 154.754 170.333 154.008 171.518ZM157.066 167.721C156.676 167.632 156.299 167.503 156.069 167.435C155.969 166.523 155.892 165.822 155.816 165.127C157.849 165.727 157.849 165.727 158.347 167.938C157.865 167.858 157.459 167.81 157.066 167.721ZM155.06 164.713C154.605 165.146 154.119 165.609 153.455 166.242C153.152 165.895 152.859 165.546 152.55 165.212C152.36 165.007 152.148 164.631 151.945 164.662C150.346 164.902 150.294 163.797 150.225 162.485C151.948 162.168 153.802 160.31 155.097 162.624C154.817 162.803 154.606 162.937 154.399 163.069C154.602 163.576 154.808 164.086 155.06 164.713ZM158.297 159.567C158.367 158.563 157.857 158.04 157.252 157.468C156.978 157.209 157.085 156.52 157.156 155.993C157.912 156.751 158.294 157.825 159.559 157.747C159.413 158.496 159.267 159.243 159.036 160.422C158.641 159.984 158.282 159.79 158.297 159.567ZM127.923 154.307C128.112 154.313 128.412 154.817 128.339 154.984C128.162 155.385 127.845 155.835 127.49 156.044C127.201 156.214 126.774 156.061 126.15 156.045C126.492 155.437 126.635 155.003 126.917 154.733C127.176 154.485 127.606 154.297 127.923 154.307ZM171.732 152.796C171.086 152.355 170.761 151.515 170.147 150.885C170.1 150.894 170.05 150.903 170.003 150.911C170.069 150.858 170.14 150.804 170.199 150.753C171.112 151.989 172.241 151.563 173.402 150.511C173.685 152.109 173.403 152.601 172.231 152.742C172.065 152.762 171.898 152.778 171.732 152.796ZM160.311 155.313C160.264 155.448 160.14 155.536 159.933 155.588C159.668 155.655 159.398 155.716 159.121 155.767C158.816 155.3 158.592 154.741 158.073 154.587C158.388 153.761 158.601 153.205 158.846 152.562C158.872 152.566 158.895 152.57 158.92 152.574C159.089 152.709 159.252 152.84 159.409 152.966C159.469 153.397 159.618 153.74 159.969 154.301C160.028 154.395 160.079 154.483 160.124 154.566C160.118 154.802 160.198 155.053 160.311 155.313ZM162.067 156.77C162.126 156.642 162.183 156.517 162.241 156.39C162.372 156.519 162.493 156.676 162.583 156.854C162.419 156.83 162.249 156.804 162.067 156.77ZM158.422 149.914C158.403 149.907 158.385 149.9 158.366 149.892C158.015 149.707 157.661 149.519 157.234 149.294C156.861 149.932 156.097 149.655 155.238 149.085C155.208 148.856 155.201 148.613 155.213 148.358C155.981 148.725 156.307 148.636 156.524 148.189C157.041 148.375 157.505 148.67 157.874 149.037C157.845 149.061 157.821 149.081 157.791 149.106C158.015 149.393 158.219 149.654 158.422 149.914C158.451 149.926 158.482 149.938 158.511 149.95C158.535 150.004 158.553 150.059 158.573 150.114C158.511 150.044 158.44 149.97 158.353 149.887L158.405 149.914C158.42 149.921 158.432 149.927 158.432 149.927C158.429 149.923 158.425 149.919 158.422 149.914ZM159.927 149.877C160.823 148.898 161.317 149.305 161.968 149.981C160.887 151.122 160.478 150.526 159.927 149.877ZM158.648 151.231C158.623 151.205 158.601 151.185 158.575 151.156C158.613 151.1 158.659 151.049 158.703 150.997C158.692 151.073 158.673 151.151 158.648 151.231ZM155.532 150.107C155.655 150.07 155.834 150.092 156.106 150.209C156.197 150.568 156.286 150.922 156.384 151.314C156.032 150.957 155.741 150.558 155.532 150.107ZM157.339 152.084C157.274 152.062 157.215 152.036 157.171 152.003C157.03 151.895 156.894 151.783 156.762 151.669C156.953 151.807 157.145 151.944 157.339 152.084ZM158.185 152.019C158.159 152.044 158.125 152.064 158.086 152.082C158.1 152.034 158.113 151.99 158.128 151.938C158.154 151.958 158.178 151.977 158.204 151.998C158.197 152.005 158.191 152.013 158.185 152.019ZM168.142 148.396C168.388 148.413 168.601 148.428 168.856 148.446C168.889 148.282 168.923 148.116 168.957 147.947C168.979 147.991 169.005 148.035 169.027 148.079C169.139 148.303 169.267 148.548 169.439 148.764C169.832 149.259 170.245 149.745 170.652 150.232C170.509 150.384 170.352 150.543 170.169 150.716C170.173 150.721 170.177 150.724 170.18 150.729C169.865 150.768 169.544 150.807 169.193 150.85C168.825 149.991 168.483 149.191 168.142 148.396ZM169.216 146.671C170.962 147.819 171.606 148.455 171.334 149.244C171.093 148.908 170.846 148.591 170.564 148.347C169.969 147.832 169.566 147.334 169.194 146.778C169.202 146.742 169.209 146.708 169.216 146.671ZM150.31 160.481C150.685 161.076 150.351 161.573 149.702 161.895C149.059 161.609 148.966 161.067 149.361 160.471C149.461 160.32 150.199 160.303 150.31 160.481ZM163.622 157.085C163.482 157.027 163.331 156.989 163.173 156.955C163.117 156.786 163.066 156.635 163.023 156.504C163.33 156.303 163.638 156.19 163.826 155.961C164.105 155.621 163.977 155.362 163.254 154.843C164.513 154.608 164.81 156.098 165.928 156.152C165.502 156.81 165.2 157.276 164.798 157.897C164.376 157.596 164.04 157.259 163.622 157.085ZM164.393 149.713C164.417 149.567 164.438 149.433 164.46 149.306C164.479 149.312 164.498 149.316 164.517 149.322C164.499 149.307 164.483 149.291 164.465 149.276C164.748 147.606 164.917 147.453 166.345 146.652C166.274 147.609 166.109 148.5 165.316 149.166C165.041 148.97 164.918 149.088 164.642 149.386C164.685 149.435 164.728 149.483 164.771 149.531C164.653 149.594 164.53 149.656 164.393 149.713ZM123.2 151.452C122.522 151.296 121.765 151.16 121.278 150.731C120.951 150.442 121.026 149.675 120.922 149.122C121.038 149.047 121.155 148.973 121.271 148.898C122.129 149.496 122.987 150.094 123.976 150.783C123.645 151.079 123.347 151.486 123.2 151.452ZM116.68 156.908C118.544 155.055 118.951 154.902 119.956 155.754C119.352 156.324 118.791 156.939 118.153 157.434C117.36 158.049 116.816 157.88 116.68 156.908ZM124.009 152.006C125.003 152.371 125.984 152.733 126.966 153.093C126.919 153.241 126.873 153.388 126.826 153.535C126.322 153.496 125.817 153.457 125.099 153.402C125.355 153.931 125.538 154.308 125.727 154.699C123.942 155.522 123.648 155.382 123.649 153.801C123.649 153.508 123.92 152.195 124.009 152.006ZM120.351 157.165C120.692 157.868 120.954 158.411 121.222 158.964C120.734 159.776 119.131 158.743 119.586 160.633C117.756 159.481 117.764 159.454 120.351 157.165ZM122.929 158.455C122.563 158.404 121.854 158.499 121.454 158.189C121.113 157.924 121.127 157.195 120.919 156.431C121.555 156.461 121.947 156.384 122.23 156.514C122.766 156.76 123.21 157.175 123.742 157.43C124.988 158.029 125.279 159.029 124.543 161.132C123.939 160.13 123.472 159.356 122.929 158.455ZM119.584 163.008C118.683 164.431 118.683 164.431 116.798 164.572C118.054 162.443 118.054 162.443 121.089 161.164C121.815 162.099 122.541 163.036 123.266 163.973C123.218 164.087 123.17 164.202 123.122 164.316C121.947 163.881 120.772 163.447 119.584 163.008ZM127.838 158.266C128.952 159.013 129.279 159.874 129.034 161.199C128.216 160.464 127.295 159.944 127.838 158.266ZM122.225 166.956C122.405 166.252 122.512 165.833 122.665 165.238C123.091 165.519 123.396 165.721 123.951 166.087C123.275 166.427 122.868 166.632 122.225 166.956ZM127.425 163.809C126.263 164.014 127.191 162.772 126.69 162.452C127.618 162.113 128.139 162.306 128.068 163.173C128.051 163.381 127.653 163.768 127.425 163.809ZM132.362 160.786C132.051 162.239 132.306 163.068 133.668 163.307C134.201 163.401 134.477 164.365 134.712 165.077C133.207 164.578 132.312 163.395 131.478 162.181C131.224 161.811 131.264 161.149 132.362 160.786ZM126.117 166.83C127.348 165.302 127.395 165.288 128.636 166.053C127.675 166.35 127.07 166.536 126.117 166.83ZM130.088 165.39C130.998 164.993 131.656 164.466 132.109 164.563C132.896 164.731 132.985 165.603 133.014 166.478C131.809 166.898 131.138 166.351 130.088 165.39ZM126.513 171.07C126.981 170.603 127.336 170.248 127.768 169.817C127.859 170.093 128.005 170.298 127.948 170.404C127.681 170.891 127.397 171.435 126.513 171.07ZM139.451 164.16C139.561 164.29 139.671 164.42 139.78 164.551C139.361 165.071 138.942 165.592 138.523 166.112C138.44 165.168 138.415 164.294 139.451 164.16ZM132.803 171.268C132.779 171.242 133.012 170.833 133.125 170.817C133.73 170.727 134.074 170.967 133.87 172.242C133.333 171.769 133.047 171.539 132.803 171.268ZM135.027 175.204C135.284 173.933 134.805 173.5 133.833 173.218C134.35 172.447 134.796 171.784 135.256 171.1C137.262 171.827 137.963 173.633 138.398 175.638C137.642 176.311 137.026 176.86 136.397 177.42C135.313 177.111 134.842 176.115 135.027 175.204ZM146.303 172.181C146.544 172.208 146.789 172.221 147.19 172.255C147.247 171.659 147.295 171.164 147.347 170.632C146.166 171.023 145.832 170.786 145.777 169.719C145.743 169.05 145.648 168.395 145.561 167.55C144.779 167.909 144.306 168.127 143.771 168.374C143.861 169.19 143.94 169.91 144.019 170.631C143.887 170.727 143.754 170.823 143.622 170.92C143.282 170.657 142.599 170.321 142.657 170.144C143.14 168.678 142.079 168.164 141.531 167.324C141.302 166.972 141.187 166.53 141.025 166.142C141.871 165.402 142.304 165.882 142.702 166.374C143.828 167.766 143.822 167.773 145.313 166.251C146.045 166.375 146.778 166.5 147.508 166.624C148.214 167.643 148.945 168.73 149.708 169.792C150.429 170.796 150.966 171.87 150.667 173.377C151.331 173.552 151.969 173.719 152.606 173.886C152.579 174.023 152.552 174.16 152.525 174.297C151.439 174.321 150.354 174.345 149.272 174.369C149.175 173.876 149.104 173.51 149.041 173.189C148.553 172.899 148.1 173.48 147.811 174.749C147.253 174.782 146.826 174.791 146.397 174.841C146.211 174.862 146.017 175.016 145.834 175.026C144.65 175.094 143.749 174.339 143.947 173.47C144.175 172.471 144.978 172.032 146.303 172.181ZM142.595 182.862C141.763 180.644 141.027 178.375 140.253 176.125C140.39 176.025 140.527 175.925 140.664 175.824C142.06 176.414 142.446 178.031 143.419 179.053C144.439 180.125 143.449 182.021 144.494 183.115C143.496 183.811 142.865 183.583 142.595 182.862ZM145.966 177.473C146.567 177.09 146.908 176.872 147.41 176.552C147.286 177.646 146.816 177.603 145.966 177.473ZM149.495 180.861C149.233 180.57 148.967 180.275 148.621 179.89C149.41 179.218 150.046 178.677 150.897 177.953C151.135 178.266 151.648 178.597 151.614 178.959C151.505 180.16 150.439 180.363 149.495 180.861ZM153.17 175.413C154.018 176.465 152.772 177.595 153.155 178.996C152.572 178.54 152.248 178.424 152.137 178.179C151.401 176.557 149.906 176.275 148.316 176.131C148.131 176.115 147.949 176.04 147.793 175.949C147.705 175.897 147.672 175.757 147.541 175.53C148.626 175.047 149.347 175.903 150.243 175.824C151.207 175.739 152.176 175.557 153.17 175.413ZM158.876 167.635C160.311 167.129 160.969 167.729 160.945 169.358C159.104 169.948 159.722 168.108 158.876 167.635ZM165.501 166.08C165.449 166.022 165.398 165.965 165.346 165.906C165.287 165.95 165.227 165.994 165.169 166.038C165.267 166.14 165.365 166.241 165.464 166.342C165.41 166.654 165.334 166.971 165.348 167.247C163.863 167.784 163.537 167.651 163.01 166.218C163.475 165.771 163.965 165.299 164.425 164.857C165.438 165.018 165.561 165.519 165.501 166.08ZM163.243 160.757C161.989 160.893 161.989 160.893 160.808 158.998C161.154 158.979 161.44 158.979 161.7 158.988C162.253 159.455 162.652 159.63 163.076 159.652C163.018 159.546 162.964 159.448 162.912 159.354C163.183 159.626 163.267 160.063 163.243 160.757ZM170.526 156.529C169.09 156.994 168.101 156.652 167.096 155.757C166.3 155.046 165.177 154.715 164.19 154.232C163.885 154.082 163.58 153.933 163.313 153.751C163.027 153.224 162.822 152.713 162.558 152.19C162.569 152.037 162.589 151.876 162.632 151.695C163.374 151.22 163.818 151.224 164.14 151.44C164.246 151.866 164.346 152.256 164.408 152.625C164.553 153.49 164.592 153.547 165.81 154.25C165.618 153.805 165.422 153.353 165.203 152.846C165.317 152.963 165.446 153.06 165.602 153.12C165.669 153.051 165.74 152.97 165.815 152.883C166.095 153.003 166.393 153.131 166.787 153.301C166.516 153.072 166.269 152.846 166.037 152.627C166.218 152.425 166.421 152.224 166.653 152.091C166.714 152.056 166.781 152.024 166.851 151.992C167.357 152.352 167.849 152.666 168.332 152.945C168.338 153.031 168.345 153.118 168.351 153.198C168.359 153.31 167.921 153.628 167.682 153.674C166.864 153.835 167.355 154.359 167.245 154.715C167.263 154.72 167.281 154.726 167.299 154.731C167.238 155.066 167.176 155.398 167.112 155.746C168.106 156.486 168.719 156.28 169.264 156.006C169.506 155.884 169.598 155.635 169.384 155.257C169.711 155.297 170.022 155.317 170.383 155.198C170.669 155.597 170.953 155.994 171.233 156.384C171.021 156.402 170.791 156.443 170.526 156.529ZM172.987 158.194C173.113 158.241 173.239 158.288 173.366 158.336C173.325 158.134 173.355 157.86 173.229 157.73C173 157.492 172.765 157.26 172.532 157.025C172.394 156.798 172.23 156.631 172.035 156.522C171.561 156.049 171.084 155.578 170.608 155.106C170.752 155.038 170.904 154.951 171.071 154.827C171.439 154.554 171.911 154.455 172.41 154.418C172.475 154.426 172.541 154.44 172.605 154.447C172.6 154.433 172.595 154.421 172.59 154.408C173.156 154.382 173.745 154.419 174.247 154.365C174.574 155.278 174.801 155.912 175.104 156.76C174.472 156.724 173.918 156.693 173.321 156.66C173.036 158.912 175.72 158.925 175.82 160.84C174.658 160.626 173.402 159.43 172.987 158.194ZM177.04 163.368C177.22 163.328 177.467 163.369 177.729 163.42C177.778 163.498 177.827 163.579 177.881 163.664C177.488 163.615 177.23 163.506 177.04 163.368ZM179.134 170.479C178.935 169.789 178.668 168.865 178.364 167.811C177.086 167.707 175.902 167.31 175.608 165.709C175.566 165.483 175.192 165.24 174.939 165.24C173.694 165.242 173.168 164.623 172.953 163.726C173.458 164.22 173.999 164.658 174.675 164.712C174.057 163.931 173.453 163.553 172.867 163.239C172.838 163.001 172.819 162.755 172.814 162.495C172.812 162.406 172.811 162.318 172.81 162.232C172.888 162.293 172.967 162.354 173.045 162.415C173.07 162.346 173.095 162.279 173.12 162.21C173.016 162.105 172.911 161.999 172.807 161.893C172.807 161.755 172.806 161.641 172.806 161.582C173.004 161.659 173.221 161.743 173.457 161.835C173.738 162.109 174.05 162.367 174.333 162.627C174.374 162.989 174.583 163.337 174.991 163.508C174.617 163.82 173.658 162.432 173.45 163.155C174.426 163.905 175.164 164.15 175.856 164.146C176.151 164.145 176.64 164.385 176.756 164.168C177.086 164.441 177.432 164.652 177.998 164.336C178.408 165.479 179.182 166.292 180.086 166.985C179.736 168.597 181.07 168.9 181.79 169.679C181.008 169.915 180.216 170.153 179.134 170.479ZM180.107 171.311C180.226 171.201 180.344 171.09 180.463 170.979C181.116 171.371 181.77 171.764 182.549 172.231C181.939 172.937 181.415 173.544 180.835 174.213C179.856 173.569 180.287 172.317 180.107 171.311ZM186.979 169.63C186.582 169.741 186.131 170.006 185.8 169.926C185.365 169.822 185.024 169.447 184.501 169.093C185.313 168.033 186.09 168.167 186.772 168.586C186.982 168.715 186.918 169.27 186.979 169.63ZM187.749 166.057C187.257 166.329 186.745 166.612 185.893 167.084C186.587 165.922 187.071 165.112 187.772 163.939C188.225 165.028 188.562 165.836 188.898 166.644C188.799 166.721 188.701 166.798 188.602 166.875C188.331 166.614 188.059 166.354 187.749 166.057ZM186.016 158.963C186.595 158.755 187.178 158.546 187.857 158.303C187.862 158.31 187.967 158.461 188.084 158.601C189.557 160.36 189.563 160.358 190.181 163.056C190.423 164.111 190.633 165.179 190.858 166.241C190.732 166.307 190.607 166.373 190.481 166.439C188.992 163.948 187.503 161.457 186.016 158.963ZM185.652 162.108C185.785 161.658 186.003 161.168 186.034 160.716C186.497 161.102 186.961 161.488 187.475 161.916C187.041 162.557 186.709 163.047 186.365 163.554C185.475 163.308 185.463 162.781 185.633 162.172C185.644 162.167 185.658 162.167 185.67 162.16C185.664 162.143 185.658 162.126 185.652 162.108ZM183.282 161.878C183.269 161.907 183.258 161.931 183.244 161.96C184.398 162.838 185.449 163.862 185.103 165.863C184.402 164.849 183.701 163.835 182.883 162.652C182.307 163.104 181.761 163.534 181.219 163.96C182.165 165.485 184.789 164.898 184.577 167.386C184.105 167.816 183.636 168.242 183.137 168.696C183.325 169.143 183.515 169.594 183.705 170.044C183.187 169.583 182.144 170.767 181.894 169.73C182.069 169.714 182.266 169.697 182.731 169.659C182.265 168.991 181.886 168.479 181.538 167.941C181.019 167.139 180.051 166.353 180.117 165.5C180.25 163.764 179.322 162.76 178.749 161.498C178.373 160.669 177.722 160.548 176.951 161.26C176.187 160.096 175.283 159.13 176.609 157.518C177.125 157.755 177.671 157.96 178.195 158.199C178.123 158.547 178.056 158.866 177.987 159.199C179.07 160.174 180.019 161.464 181.297 161.771C181.356 161.799 181.412 161.827 181.483 161.86C181.479 161.845 181.476 161.833 181.472 161.818C181.475 161.819 181.477 161.82 181.48 161.82C181.476 161.811 181.47 161.802 181.466 161.793C181.37 161.41 181.297 161.119 181.227 160.838C181.159 160.909 181.101 160.97 181.049 161.027C180.579 160.267 179.964 159.555 179.299 158.829C180.017 159.363 180.594 160.095 181.23 160.745C181.358 160.509 181.482 160.28 181.577 160.106C181.665 160.231 181.759 160.353 181.842 160.482C182.246 161.111 182.676 161.596 183.282 161.878ZM183.323 151.088C183.354 151.335 183.385 151.584 183.409 151.783C182.427 152.491 181.438 153.204 180.373 153.97C180.217 153.648 180.061 153.325 179.899 152.992C180.861 151.976 181.941 151.155 183.323 151.088ZM178.003 152.527C177.993 152.614 177.953 152.719 177.902 152.817C177.841 152.642 177.755 152.466 177.648 152.29C177.842 152.382 178.013 152.453 178.003 152.527ZM179.928 141.095C179.763 142.412 180.675 143.007 181.68 143.96C179.075 144.277 179.563 142.167 179.019 140.807C179.337 140.903 179.941 140.994 179.928 141.095ZM178.201 132.75C178.172 132.074 178.308 131.552 178.752 131.073C179.038 131.174 179.316 131.368 179.605 131.623C179.61 131.941 179.615 132.248 179.62 132.591C179.096 132.65 178.687 132.695 178.201 132.75ZM183.595 127.986C182.16 129.499 183.71 130.457 183.561 131.878C183.075 131.844 182.636 131.813 182.222 131.784C182.129 131.682 182.034 131.585 181.937 131.491C181.344 129.012 181.495 128.766 183.595 127.986ZM179.93 128.182C179.289 127.489 179.545 126.662 179.829 125.791C181.207 126.615 181.218 126.835 179.93 128.182ZM178.708 121.262C179.575 122.397 177.718 123.712 178.632 124.743C177.248 125.045 176.768 124.603 177.088 123.536C177.197 123.17 177.338 122.811 177.468 122.449C177.853 122.08 178.239 121.71 178.708 121.262ZM173.599 119.63C173.243 120.328 172.985 120.834 172.744 121.307C171.44 121.126 171.688 120.304 172.005 119.451C172.457 119.502 172.917 119.553 173.599 119.63ZM171.878 115.005C173.272 116.123 173.326 117.767 172.027 119.339C172.118 118.609 172.232 117.874 172.365 117.014C171.934 116.342 171.464 116.783 170.917 117.382C170.446 117.898 170.146 118.847 168.996 118.454C170.221 117.427 170.264 115.62 171.878 115.005ZM168.679 112.98C167.97 113.292 167.498 113.501 166.989 113.726C166.726 113.184 166.492 112.7 166.239 112.178C167.494 111.302 167.916 112.195 168.679 112.98ZM114.994 44.1959C115.1 44.4648 115.232 44.8558 115.11 45.0852C114.846 45.5865 114.43 46.0187 113.806 46.8294C113.847 45.9265 113.815 45.3401 113.925 44.7615C113.974 44.5067 114.287 44.231 114.53 44.0412C114.617 43.9732 114.947 44.0762 114.994 44.1959ZM104.258 50.8663C104.306 50.9326 104.35 51.0012 104.396 51.0685C104.187 50.936 103.966 50.8143 103.717 50.7184C103.717 50.4244 103.616 50.1305 103.449 49.8353C103.731 50.1692 104.003 50.5117 104.258 50.8663ZM107.734 40.2077C106.239 39.1532 106.239 39.1532 107.317 37.7006C108.02 38.3022 108.349 38.9763 107.734 40.2077ZM104.395 35.2839C104.013 34.8064 103.456 34.5569 103.79 33.6568C104.77 33.7648 105.015 34.2027 104.395 35.2839ZM100.912 22.0984C100.994 21.9945 101.252 22.0338 102.087 21.9043C101.537 22.6149 101.188 23.0644 101.025 23.2751C101.495 24.2438 101.788 25.0167 102.215 25.685C102.624 26.3241 102.987 27.11 104.121 26.6562C104.321 26.576 104.687 27.1962 104.985 27.5254C104.892 27.5791 104.8 27.6419 104.705 27.6626C104.586 27.6886 104.464 27.6596 104.265 27.6516C103.896 28.637 104.567 29.0359 104.98 29.6221C105.444 30.2812 106.172 30.9869 104.956 32.1271C104.726 31.8118 104.367 31.5402 104.282 31.1622C103.953 29.7085 102.381 29.07 102.4 27.3849C102.401 27.3103 101.814 27.3807 101.556 27.272C100.337 26.758 99.912 23.3525 100.912 22.0984ZM98.325 26.5667C99.0807 27.6769 99.7888 28.8303 100.614 29.8777C101.007 30.3768 101.583 30.7415 102.148 31.0442C102.74 31.3621 103.405 31.5445 103.111 32.7079C101.133 32.0472 99.416 31.136 98.5003 29.2842C98.1464 28.5693 98.3645 27.4847 98.325 26.5667ZM90.1676 31.6892C90.6074 32.6806 91.1436 33.4804 91.3715 34.6123C91.5863 35.6776 92.3832 36.6036 93.1178 37.3918C94.7318 39.1236 96.3147 40.8707 97.5378 42.9541C97.6012 43.0624 97.6506 43.2523 97.7384 43.2605C99.5942 43.4291 99.6499 45.2368 100.331 46.4842C100.133 46.2836 99.9359 46.0814 99.7393 45.8827C99.3235 45.8194 98.9311 45.7599 98.6371 45.7153C98.6042 45.9432 98.5777 46.1272 98.5513 46.3111C98.4711 46.2641 98.391 46.2166 98.3108 46.1696C98.181 45.8543 98.0512 45.539 97.9 45.1729C98.184 45.1246 98.4604 45.0776 98.8555 45.0105C97.6636 43.9676 97.1342 44.476 96.1536 43.9184C95.9863 43.4703 95.7882 42.9396 95.5527 42.3088C95.3659 42.2457 95.1854 42.1852 95.0041 42.1244C95.0128 41.9369 95.0125 41.721 95.0061 41.4643C94.8141 41.6305 94.6335 41.7867 94.4557 41.9403C94.3112 41.892 94.1709 41.8446 94.0186 41.7935C93.7178 41.3975 93.2921 40.962 93.1224 40.5902C92.713 39.6925 92.1288 39.0238 91.3057 38.4773C91.2776 38.1819 91.2515 37.9102 91.2281 37.6659C89.8966 37.4278 89.3471 36.2364 88.6063 35.2798C88.4569 34.8848 88.2914 34.483 88.0679 34.0769C87.5403 33.1188 86.8872 32.1739 86.1942 31.2325C86.6313 31.4346 87.1443 31.5391 87.4076 31.8893C88.275 33.043 89.1258 32.3149 90.1676 31.6892ZM89.986 29.983C89.7983 30.3137 89.611 30.6442 89.4236 30.9747C89.3042 30.9092 89.1845 30.8434 89.0651 30.7779C89.2621 30.4525 89.459 30.1271 89.6558 29.8014C89.7658 29.8621 89.876 29.9223 89.986 29.983ZM86.0815 26.0931C86.0476 26.3821 86.0137 26.6706 85.9798 26.9596C85.8341 26.975 85.6881 26.9901 85.5424 27.0055C85.5532 26.7265 85.5481 26.4468 85.5971 26.1694C85.6023 26.1377 85.9127 26.118 86.0815 26.0931ZM85.5416 28.4936C86.2737 28.7679 87.1543 28.6452 87.2979 29.9547C86.6405 29.9183 86.0776 29.8874 85.4487 29.8522C85.433 29.9917 85.4344 30.1123 85.4425 30.2254C85.2829 30.0152 85.1237 29.8051 84.9633 29.5952C84.3461 28.7888 83.8226 27.953 83.2799 27.1293C83.1967 27.0027 83.116 26.8747 83.0361 26.747C83.1153 26.7615 83.1866 26.7822 83.2371 26.8139C84.0414 27.3255 84.6685 28.1662 85.5416 28.4936ZM80.6114 24.4918C80.6053 24.4858 80.5985 24.4789 80.5924 24.4729C80.2427 24.1306 79.896 23.7846 79.5456 23.4427C79.7931 23.2577 80.089 23.0597 80.4456 22.8388C80.4984 23.4281 80.6726 23.9845 80.6114 24.4918ZM76.0881 19.7047C75.8971 19.5967 75.7087 19.4895 75.5238 19.3851C75.2361 18.9242 74.9434 18.4565 74.5968 17.9016C75.812 18.4672 75.9842 18.5505 76.0881 19.7047ZM82.9951 11.1932C82.4737 10.8481 82.06 10.5739 81.514 10.2129C81.8278 9.65974 82.1111 9.15987 82.3758 8.6927C83.9557 9.08246 82.5995 10.3498 82.9951 11.1932ZM68.3921 10.2867C68.228 10.2443 68.0761 10.205 67.9296 10.1672C67.9055 10.1069 67.8808 10.0452 67.8543 9.97825C67.7783 9.78765 67.7025 9.6431 67.6243 9.53324C67.9356 9.47392 68.0578 9.68943 68.3921 10.2867ZM65.9406 8.59259C65.9577 8.47952 65.9721 8.36531 65.9396 8.22875C65.8863 8.00625 65.7809 7.68133 65.5989 7.49183C65.5642 7.45572 65.5346 7.42916 65.504 7.40014C65.645 7.26635 65.7859 7.13258 65.9274 6.99836C66.5055 7.6016 66.2531 8.10266 65.9406 8.59259ZM65.1549 6.16145C64.5667 6.09973 64.0981 6.18197 63.7067 6.4002C63.5281 6.16642 63.3435 5.92372 63.1548 5.67448C63.3939 5.66119 63.6036 5.62638 63.7949 5.53618C64.1959 5.34699 64.4687 4.74487 64.9933 4.07737C65.0515 4.82537 65.0971 5.41323 65.1549 6.16145ZM63.3433 2.03482C63.5354 2.33812 63.6725 2.68379 63.9367 3.22901C62.9504 3.06018 62.5977 2.71176 62.8124 1.76268C63.0693 1.88808 63.2672 1.91443 63.3433 2.03482ZM60.2222 -1.21668C60.5196 -0.958993 60.8295 -0.690521 61.153 -0.41014C60.9522 0.539348 60.7523 1.48341 60.5459 2.45928C60.0961 1.90899 59.5694 1.43282 58.8044 1.20934C58.6553 1.37339 58.6825 1.60394 58.8343 1.9049C58.7629 1.85951 58.6949 1.81193 58.6107 1.77416C58.2571 1.61418 58.1091 1.32657 58.1112 0.998641C58.2052 0.840648 58.2694 0.66425 58.2537 0.429841C58.3896 0.147389 58.6092 -0.133389 58.9085 -0.370125C59.2854 -0.667742 59.7106 -0.890752 60.2222 -1.21668ZM57.636 -0.219327C57.1741 -0.362734 56.7727 -0.487307 56.35 -0.618745C56.3138 -1.36508 56.5907 -1.51413 57.7853 -2.11717C58.0806 -1.70012 58.3714 -1.28099 58.789 -0.679443C58.3666 -0.511057 57.9915 -0.361285 57.636 -0.219327ZM60.3564 -2.28696C59.7179 -2.59131 59.3567 -2.76406 59.0023 -2.93281C59.3159 -3.17645 59.6366 -3.42843 60.1238 -3.81208C60.2029 -3.29526 60.256 -2.94631 60.3564 -2.28696ZM57.3283 -3.00209C57.9139 -3.2247 58.6715 -4.40432 58.9546 -2.94661C58.4328 -2.95066 57.9333 -2.9099 57.7752 -2.19732C57.6261 -2.46481 57.477 -2.73281 57.3283 -3.00209ZM52.759 -3.93494C52.8819 -3.61837 53.0472 -3.35176 53.263 -3.13861C52.909 -3.00016 52.5622 -2.86451 52.193 -2.7203C52.409 -3.15038 52.6204 -3.55209 52.759 -3.93494ZM37.5388 -4.80886C38.1879 -4.08033 39.2746 -3.78341 39.9491 -3.00966C40.0929 -2.71364 40.2669 -2.41074 40.4361 -2.11026C40.5038 -1.87098 40.5452 -1.60182 40.5476 -1.28964C40.1464 -1.50521 39.8165 -1.60177 39.5947 -1.81724C38.9928 -2.4024 38.7172 -3.4484 37.4051 -2.92461C37.1979 -2.84164 36.7509 -3.77131 36.2833 -4.41348C36.8943 -4.61614 37.433 -4.92766 37.5388 -4.80886ZM33.6364 -6.41949C32.228 -5.57257 32.228 -5.57257 30.9112 -6.13519C32.3635 -7.04453 32.3635 -7.04451 33.6364 -6.41949ZM13.1175 6.12907C13.5471 6.29345 14.0191 6.38444 14.4051 6.61234C15.494 7.25536 16.5478 7.95426 17.7307 8.70464C16.2881 9.72667 15.0273 10.62 13.6124 11.6223C13.5807 12.5073 13.5444 13.5218 13.5081 14.5485C12.1409 14.9589 11.0594 14.6795 10.2472 13.8984C9.80224 13.4707 9.54116 12.756 9.40105 12.0944C9.26261 11.4427 9.38039 10.6947 9.38772 9.74674C9.73805 10.178 10.0137 10.5176 10.5712 11.2043C10.7567 10.1709 10.8654 9.56425 11.0171 8.71625C11.7364 9.54631 12.375 10.2835 13.0111 11.0175C13.6926 10.3789 14.3726 9.74142 15.0558 9.10143C14.3448 8.18853 13.3848 8.47239 12.3643 9.10353C12.1112 8.58098 11.8942 8.13284 11.6864 7.70373C12.1681 7.16241 12.6367 6.635 13.1055 6.1084C13.1088 6.11564 13.1133 6.1225 13.1175 6.12907ZM32.8676 -17.6417C32.2672 -17.6499 32.1482 -18.006 32.6036 -18.8217C32.9381 -18.5752 33.1704 -18.4039 33.5409 -18.1312C33.2366 -17.9013 33.032 -17.6397 32.8676 -17.6417ZM9.40586 2.81192C9.60438 3.15231 9.94406 3.58249 10.2847 3.59439C11.8951 3.65001 12.3619 4.97002 13.0618 6.04329C12.1968 5.67593 11.6429 4.5024 10.2968 5.31021C10.1536 5.39612 9.68388 4.97142 9.4984 4.68076C9.28098 4.34013 9.20881 3.88626 9.07135 3.47532C8.07966 4.04086 7.37141 5.15952 6.22698 4.83597C5.84977 3.61223 7.28374 3.65523 7.49136 2.91434C7.69995 2.16988 7.83788 1.41405 8.11335 0.190567C8.63461 1.26593 8.97434 2.07191 9.40586 2.81192ZM14.6624 -9.09683C14.5519 -8.84961 14.4912 -8.54446 14.3148 -8.37273C14.1705 -8.23255 13.8884 -8.25218 13.3936 -8.13693C13.6966 -8.66852 13.8063 -9.0021 14.0233 -9.18538C14.1431 -9.28626 14.4435 -9.13442 14.6624 -9.09683Z" fill="#FFC107"/>
</svg>
