<svg width="264" height="206" viewBox="0 0 264 206" fill="none" xmlns="http://www.w3.org/2000/svg">
<path d="M229.331 -128.169C228.13 -125.629 227.072 -125.491 224.748 -127.553C224.373 -127.885 223.902 -128.321 223.474 -128.373C221.649 -128.597 221.478 -129.837 221.343 -131.169C219.211 -129.435 218.841 -129.507 217.611 -131.859C217.35 -132.356 217.371 -132.944 217.168 -133.47C216.859 -134.265 216.35 -134.872 215.149 -134.665C215.214 -133.427 214.919 -132.328 213.25 -132.258C211.524 -133.121 209.788 -133.989 208.431 -134.668C207.124 -136.182 206.015 -137.467 204.813 -138.859C203.652 -138.515 202.548 -138.188 201.523 -137.885C201.202 -138.44 200.877 -139.003 200.325 -139.96C197.42 -137.064 193.616 -136.077 189.904 -135.143C189.069 -133.633 188.272 -132.192 187.352 -130.528C188.219 -130.928 188.798 -131.195 189.595 -131.562C189.624 -130.514 189.377 -129.63 189.722 -128.934C190.682 -126.997 190.298 -125.636 188.455 -124.76C189.682 -122.903 190.295 -121.267 188.416 -119.938C187.289 -122.005 187.288 -121.996 184.637 -122.57C184.349 -122.632 184.026 -122.805 183.813 -123.008C182.608 -124.157 181.725 -123.57 180.902 -122.894C179.525 -121.764 178.191 -120.592 176.867 -119.46C177.045 -118.526 177.105 -117.582 177.424 -116.687C177.917 -115.304 177.259 -114.766 176.002 -114.606C174.717 -114.442 173.868 -113.896 173.361 -112.796C173.198 -112.443 172.44 -112.375 171.592 -112.028C171.888 -113.018 172.028 -113.49 172.199 -114.06C169.426 -113.907 170.467 -112.198 170.859 -110.818C169.997 -110.564 169.305 -110.361 168.575 -110.147C168.442 -110.748 168.352 -111.159 168.202 -111.839C167.158 -110.7 166.332 -109.8 165.141 -108.502C166.319 -108.704 166.868 -108.798 167.25 -108.863C167.554 -107.717 168.143 -106.545 168.07 -105.492C167.985 -104.282 167.313 -103.177 166.819 -101.815C165.351 -101.922 163.757 -102.039 162.103 -102.16C163.098 -100.861 163.996 -99.6883 164.87 -98.5463C162.851 -97.0569 162.856 -97.0548 162.207 -94.1561C162.149 -93.8968 161.98 -93.6573 161.811 -93.4454C160.428 -91.7066 159.032 -89.9764 157.517 -88.091C157.99 -87.3363 158.558 -86.4306 159.335 -85.1908C158.154 -85.2557 157.118 -85.312 156.343 -85.3544C154.693 -84.5406 155.357 -82.4474 153.5 -81.6692C151.43 -80.8021 149.994 -81.6002 148.524 -82.9914C146.528 -82.6338 144.621 -82.2914 142.736 -81.9537C143.26 -80.124 143.691 -78.62 144.177 -76.924C144.745 -77.4041 145.262 -77.8399 145.706 -78.2159C145.223 -78.8494 144.883 -79.2945 144.247 -80.1285C146.078 -80.0892 147.487 -79.9924 148.868 -80.0484C150.281 -80.1059 151.651 -80.4505 153.068 -80.4171C154.476 -80.3836 155.511 -81.9086 157.283 -80.8001C155.926 -78.8182 153.449 -78.8191 151.437 -78.1779C150.079 -77.745 149.49 -77.2719 149.942 -76.3411C151.753 -75.8911 153.18 -75.5365 154.607 -75.182C154.622 -75.1851 154.637 -75.1885 154.652 -75.1915C154.652 -75.1919 154.653 -75.1927 154.653 -75.1935C154.653 -75.1927 154.653 -75.1923 154.652 -75.1915C155.783 -75.4307 156.914 -75.6695 158.07 -75.9138C158.644 -74.3662 156.656 -74.4899 156.233 -73.3154C156.993 -73.0526 157.741 -72.7947 158.622 -72.4899C154.993 -70.7981 153.336 -69.102 151.529 -65.3341C151.41 -65.0883 151.318 -64.7952 151.109 -64.6341C149.557 -63.4393 147.979 -62.273 146.25 -60.9783C145.618 -61.7109 145.055 -62.3626 144.446 -63.0693C145.387 -63.9308 146.276 -64.6634 147.061 -65.4827C148.23 -66.7016 149.478 -67.8461 149.454 -69.8007C149.446 -70.3963 150.214 -71.141 150.868 -71.3878C152.421 -71.9745 153.225 -73.1417 154.034 -74.3187C152.749 -73.3044 150.472 -74.77 148.888 -74.0101C149.692 -72.4305 149.7 -71.0779 148.081 -70.2147C147.735 -70.0297 147.632 -69.495 147.441 -69.1089C146.48 -67.1735 145.864 -67.1168 143.581 -68.7584C143.702 -69.9727 143.824 -71.1905 143.945 -72.4083C143.603 -72.7426 143.261 -73.0768 142.92 -73.4115C143.769 -69.6877 140.491 -72.068 139.777 -70.7823C140.331 -69.879 140.811 -69.0965 141.239 -68.3976C140.165 -67.7528 139.314 -67.2414 138.308 -66.6369C137.745 -67.8797 136.711 -68.6918 135.091 -68.9389C136.044 -67.9582 136.996 -66.9772 137.959 -65.9863C137.212 -64.6618 136.645 -63.5156 135.944 -62.4532C135.25 -61.4003 134.42 -60.432 133.675 -59.4589C133.823 -58.6988 133.973 -57.9259 134.123 -57.153C133.927 -57.0925 133.731 -57.032 133.535 -56.9714C133.325 -57.2149 133.03 -57.6892 132.918 -57.667C131.429 -57.3689 129.928 -57.0716 128.522 -56.5973C128.199 -56.4886 128.223 -55.7091 128.088 -55.2387C128.257 -55.1669 128.427 -55.0956 128.596 -55.0238C129.336 -55.5251 130.076 -56.0263 130.997 -56.6504C129.707 -52.5457 123.941 -47.6933 120.094 -47.3252C119.55 -49.2143 120.975 -49.9552 122.163 -50.8053C123.134 -51.5008 124.272 -52.067 124.042 -53.9033C121.061 -53.7018 119.606 -51.827 117.999 -50.5217C116.745 -50.5943 115.631 -50.7492 114.566 -50.6805C114.073 -50.6485 113.398 -50.2835 113.275 -49.8954C112.312 -46.8396 109.464 -45.0189 108.043 -42.2553C107.217 -40.6489 105.595 -39.819 103.236 -40.1193C103.777 -38.7743 104.29 -37.4807 102.315 -37.0229C101.799 -36.903 101.481 -36.1135 101.224 -35.5577C100.5 -33.9943 99.8555 -32.3926 99.0925 -30.6033C98.1958 -31.6427 97.4873 -32.4638 96.7193 -33.3532C94.7557 -32.3718 95.7574 -30.1156 94.4261 -28.8785C95.246 -28.5533 95.7846 -28.3402 96.3509 -28.1157C96.1252 -27.8975 90.0667 -24.1962 89.8844 -24.1409C89.7411 -25.1358 89.5932 -26.1586 89.4458 -27.181C89.1742 -27.2137 88.9027 -27.2456 88.6315 -27.2778C88.9376 -25.5989 87.8123 -24.3386 88.1228 -22.6031C88.257 -21.8505 87.9893 -20.8872 87.4945 -20.3508C86.1876 -18.935 84.6573 -17.7006 83.102 -16.2907C83.2252 -18.1572 84.2226 -19.3985 85.8153 -20.3882C85.0252 -21.2053 84.3317 -21.9222 83.5793 -22.7C84.3685 -23.6826 85.0771 -24.566 85.7864 -25.4486C85.6813 -25.6383 85.5754 -25.828 85.4707 -26.0174C84.4896 -25.9552 83.5093 -25.8929 82.4506 -25.8259C81.8972 -26.2952 81.2789 -26.8197 80.1584 -27.77C80.2749 -25.6533 80.849 -23.8189 80.3238 -22.4487C79.7526 -20.9589 78.1598 -19.9007 76.7805 -18.4029C76.2175 -19.5738 75.8506 -20.3378 75.4288 -21.2152C74.8047 -20.8672 74.2791 -20.5687 73.7463 -20.2794C73.2393 -20.0035 72.5483 -19.8573 72.2447 -19.4459C71.1511 -17.9636 70.3102 -16.2717 67.891 -16.2183C67.6922 -16.2141 67.5496 -15.8682 67.2892 -15.5789C68.1478 -15.2456 68.9092 -14.9499 69.8372 -14.5897C69.5434 -13.5404 70.2139 -12.408 68.8804 -11.6006C68.0184 -11.0788 67.5727 -9.87661 67.2498 -8.86354C66.7473 -7.28819 66.4615 -5.68016 63.8822 -6.47865C63.7512 -6.51897 63.5186 -6.12927 63.3305 -5.92898C65.9023 -4.71918 66.0839 -4.00722 64.2208 -1.60174C63.5074 -2.4282 62.8554 -3.18369 62.2369 -3.90025C61.7406 -3.0533 61.5021 -2.26666 60.9491 -1.7768C59.5537 -0.540997 59.3489 0.819679 60.6412 2.47235C61.6905 3.81467 61.2049 5.16739 60.3738 5.82527C58.4444 7.35234 58.1249 9.56031 57.3703 11.6125C57.262 11.9066 56.98 12.1303 56.7779 12.3865C56.5692 12.3311 56.3609 12.2761 56.1522 12.2207C55.8512 10.2736 55.99 8.37185 56.7178 6.50175C55.9267 5.58486 55.2094 4.75384 54.6064 4.05522C55.2388 3.00832 55.7372 2.18308 56.236 1.35822C56.0277 1.23095 55.819 1.1033 55.6106 0.976028C54.0092 2.33633 52.9863 4.07595 52.3062 6.06861C52.0861 6.71298 51.7049 7.3111 51.2966 7.8612C50.4909 8.94601 49.6143 9.98183 48.7267 11.0886C48.5179 10.633 48.2566 10.0615 47.9924 9.48422C47.6999 9.8896 47.2878 10.2626 47.2017 10.7234C46.8747 12.4745 46.6268 14.2504 46.4658 16.0395C46.4344 16.3884 46.8679 17.1027 47.1874 17.1981C49.2592 17.8178 48.3402 18.619 47.6617 19.3249C47.2329 19.7709 46.6177 20.0612 46.0282 20.4605C45.2562 19.9971 44.5861 19.5949 43.9204 19.1953C43.8818 21.0005 43.8007 22.8007 43.8224 24.6128C43.836 25.7177 43.5758 26.5048 42.1475 26.2245C40.8151 25.9632 40.5102 25.1377 40.6321 24.0423C40.7507 22.9765 40.7233 21.8804 40.7818 20.1688C39.7495 20.7086 39.1803 20.8732 38.8248 21.2243C38.321 21.7217 38.0929 22.7953 37.542 22.8565C35.0127 23.1353 35.9818 24.7273 36.0482 26.0107C37.7284 26.0209 39.2018 26.0301 40.6446 26.0388C40.9176 27.587 42.5259 29.1932 40.7474 30.6875C39.6202 29.6982 38.4819 28.6998 36.8837 27.2973C36.7828 27.2859 35.9947 27.1959 35.1376 27.0977C34.6644 27.7903 34.2878 28.5344 33.7242 29.1236C32.7234 30.1698 32.4824 28.2125 31.4237 28.4074C31.4549 29.6623 31.4869 30.9569 31.5297 32.697C30.8101 33.0995 29.7694 33.6806 28.8777 34.1793C28.7464 35.4848 28.6208 36.932 28.4483 38.3685C28.3293 39.3585 28.2446 40.2841 30.0123 40.4261C30.4824 39.42 30.9665 38.3841 31.4362 37.3783C32.2505 37.5657 32.9175 37.7193 33.8205 37.9269C33.6745 36.7902 33.5591 35.8883 33.4658 35.1628C34.694 33.4495 35.4698 36.3895 36.5625 35.6793C35.7667 34.2838 34.9849 32.9132 34.2269 31.5829C35.4835 30.9202 36.4354 30.4182 37.4441 29.8856C38.7608 30.8145 39.823 31.7971 39.6656 33.4482C39.6193 33.9357 40.0698 34.537 40.3424 35.0698C41.4392 37.2155 41.4466 37.2157 39.5721 38.7451C39.6039 37.565 39.9139 36.328 38.1374 35.3595C37.1044 36.7531 36.0537 38.1525 35.0246 39.5659C34.279 40.5903 33.6566 41.5776 34.2046 43.1008C34.5204 43.9793 34.1642 44.9873 34.0917 46.279C32.7761 45.4935 31.9773 45.0159 30.9101 44.3785C30.4916 45.4302 30.0926 46.4328 29.6932 47.4351C30.5073 48.2835 30.528 49.1015 29.5406 49.507C28.6334 49.8797 28.307 49.1394 28.1563 48.4167C25.826 49.3679 24.535 51.1459 23.6865 53.4216C25.0271 54.0865 25.3809 54.9801 24.9011 56.2554C24.6018 57.0507 24.859 58.0641 24.7432 58.9523C24.3538 61.9425 23.1854 64.4838 19.7123 63.6699C20.5297 62.1702 21.5355 60.67 22.1976 59.0193C22.9915 57.0397 20.3211 56.3784 19.8749 54.8164C19.6404 54.8634 19.4059 54.9105 19.1714 54.9575C19.3528 55.8967 19.5347 56.8364 19.7916 58.1646C19.0872 58.2081 18.3039 58.268 17.5146 58.3025C16.5626 58.3439 15.6066 58.364 14.4101 58.4001C14.0163 57.9438 13.4974 57.3424 12.9758 56.7384C11.5339 57.7662 11.5339 57.7662 13.213 59.8625C12.9272 60.616 12.6201 61.4251 12.1459 62.6737C11.1667 61.684 10.4836 60.9983 9.80738 60.3079C9.10014 59.5854 8.39861 58.8578 7.45515 57.8847C6.97933 61.8278 3.26353 62.9598 0.931848 65.7702C1.89269 63.6584 0.142604 63.3796 -0.823587 62.9045C-1.37564 61.6984 0.0503234 60.5078 -1.94351 59.5191C-2.30079 60.2193 -2.61693 60.9353 -3.02044 61.6004C-3.34174 62.1296 -3.6439 62.8993 -4.17512 63.0273C-5.30058 63.2982 -5.58459 64.0617 -6.08963 64.8303C-6.77567 65.8753 -7.55934 67.2612 -8.69207 67.519C-9.95204 67.8056 -10.4225 68.4469 -11.0124 69.2119C-12.2298 70.7917 -13.4623 72.3609 -14.6461 73.8809C-13.739 76.2763 -14.3608 77.8857 -16.4846 78.646C-16.7496 78.7406 -17.212 78.4696 -17.7945 78.3103C-17.4826 77.4494 -17.2295 76.7499 -16.9136 75.8769C-17.793 75.7528 -18.3882 75.6688 -19.2208 75.5514C-18.7894 76.8238 -18.4001 77.9949 -20.102 78.2782C-20.3723 78.3236 -20.6442 78.8545 -20.6286 79.1837C-20.5749 80.3111 -21.4173 80.5495 -22.3179 80.6531C-24.1566 80.8647 -25.5441 81.6165 -26.5312 82.9749C-26.994 83.6121 -27.8878 83.3425 -28.5399 83.4879C-30.3469 83.8896 -30.3867 81.6897 -31.92 81.6977C-31.6863 82.611 -31.4819 83.4103 -31.1701 84.6281C-33.3503 83.5219 -34.4046 84.6073 -35.5567 85.4866C-35.9123 85.7577 -36.2828 86.3311 -36.6043 86.2712C-39.2342 85.7765 -39.6677 87.7604 -40.7306 89.0446C-39.5011 88.7501 -38.2712 88.456 -37.0413 88.1618C-35.3753 86.8573 -35.3582 86.8577 -33.424 88.2572C-30.7829 85.7052 -27.0372 85.4419 -23.5767 85.0354C-22.9185 86.3507 -22.3562 87.4746 -21.78 88.6269C-19.4124 87.5304 -19.4124 87.5304 -19.4869 84.4017C-18.378 84.0281 -17.2629 83.6529 -16.1174 83.2673C-14.9874 84.9479 -17.0251 85.5015 -17.0275 86.8217C-16.139 86.3907 -15.5538 85.7704 -14.9429 85.1732C-13.8432 84.0984 -13.4302 84.1661 -11.655 85.7641C-12.1439 86.2491 -12.636 86.7365 -13.0694 87.1659C-12.7191 88.0059 -12.4295 88.6988 -12.0682 89.5647C-13.0278 89.7411 -13.9495 89.6913 -14.4795 90.0746C-14.9353 90.4042 -14.9429 91.2271 -15.1608 91.8667C-16.9273 89.9895 -16.8434 90.0569 -18.306 91.6622C-18.9347 92.3526 -20.0037 92.686 -20.8521 93.2079C-21.4497 93.5751 -22.0117 93.9863 -22.7606 94.494C-21.9423 95.0115 -21.373 95.2861 -20.9185 95.6759C-19.5012 96.8906 -19.0348 98.4681 -19.9105 99.8191C-21.2403 101.871 -23.4713 102.67 -25.8089 102.94C-26.3425 101.291 -26.7654 99.9832 -27.2536 98.4746C-27.9952 98.7936 -28.5012 99.0112 -29.0071 99.2288L-28.9744 99.143C-28.9968 99.1512 -29.0187 99.1599 -29.0411 99.1681C-29.0338 99.1812 -29.0265 99.1942 -29.0189 99.2069C-29.7743 100.244 -30.4379 101.357 -31.3246 102.284C-32.2962 103.3 -33.0372 102.54 -33.5873 101.518C-34.2582 101.763 -34.9295 102.009 -35.8908 102.36C-34.9885 103.211 -34.4595 104.084 -33.7977 104.265C-31.5147 104.89 -30.4459 102.996 -28.7467 102.24C-27.844 103.396 -26.6795 104.405 -28.992 104.717C-29.2761 104.756 -29.4462 105.249 -29.6254 105.557C-30.3011 106.721 -30.6707 108.186 -31.6822 109.006C-33.9275 110.826 -33.7597 112.814 -32.1184 115.212C-31.7393 115.765 -31.5263 116.401 -31.4007 116.66C-30.4505 116.912 -29.7685 117.094 -29.0986 117.272C-29.1009 117.275 -29.1035 117.277 -29.1058 117.279C-28.3288 117.468 -27.5499 117.656 -26.7155 117.857C-27.037 118.903 -27.3432 119.898 -27.6495 120.894C-26.0875 119.937 -25.2403 118.343 -23.4741 118.233C-22.2574 119.118 -21.3678 120.01 -20.3052 120.483C-18.6805 121.206 -16.9359 121.641 -15.0651 122.257C-16.576 123.891 -16.576 123.891 -20.0383 121.44C-20.0965 122.987 -20.1457 124.298 -20.2104 126.029C-22.1623 124.567 -22.8351 125.887 -23.7689 126.448C-25.0335 127.208 -24.7598 128.571 -24.9693 130.436C-23.5558 129.266 -21.6842 129.354 -22.2638 127.372C-20.8735 126.983 -19.4859 126.594 -17.9129 126.154C-17.4977 126.905 -17.1452 127.542 -16.8399 128.094C-18.164 128.09 -19.3455 128.087 -20.4889 128.083C-20.4194 130.872 -18.9103 132.632 -16.7797 133.875C-13.664 133.32 -10.7498 132.756 -7.80019 132.301C-6.54832 132.107 -6.05054 131.635 -6.65539 130.251C-7.22652 130.293 -7.7952 130.377 -8.37528 130.365C-8.80257 130.356 -9.36843 130.355 -9.65911 130.119C-11.0275 129.012 -10.1131 130.569 -10.3804 130.571C-10.9524 130.573 -11.5426 130.454 -12.1281 130.385C-12.719 132.151 -13.9896 133.051 -15.1228 132.341C-15.3036 131.615 -15.5039 130.809 -15.7106 129.979C-14.9067 129.628 -14.2352 129.334 -13.7066 129.103C-14.3003 128.13 -14.838 127.25 -15.8638 125.569C-12.0479 126.337 -10.3413 123.355 -6.52927 124.153C-7.06746 125.479 -7.48271 126.501 -7.89574 127.519C-4.8625 128.284 -3.89728 129.602 -4.77124 131.815C-5.25484 133.04 -5.73448 134.267 -6.20436 135.497C-6.32908 135.824 -6.2865 136.361 -6.53313 136.477C-8.63125 137.456 -10.9412 138.253 -13.4131 137.262C-14.1884 136.951 -14.7486 136.619 -15.4301 136.877C-17.5032 137.663 -19.6765 138.203 -21.96 138.564C-22.676 138.049 -23.4043 137.526 -24.3524 136.844C-24.7146 137.585 -25.3602 138.23 -25.1733 138.647C-24.5379 140.063 -25.3785 140.533 -26.3401 141.049C-26.4074 141.085 -26.3164 141.34 -26.2983 141.494C-25.9388 141.407 -25.58 141.32 -25.1876 141.225C-25.0031 143.195 -25.044 143.373 -26.3303 146.436C-27.1145 148.302 -26.8205 148.858 -24.6407 149.439C-24.1752 149.563 -23.6694 149.463 -22.8618 149.467C-22.6503 150.865 -22.4629 152.101 -22.2786 153.318C-20.8861 153.413 -18.3615 152.406 -18.1362 151.638C-18.4367 151.29 -18.7511 150.926 -19.0524 150.576C-18.3222 149.528 -16.3775 149.259 -17.4197 147.34C-19.3007 147.516 -20.062 148.911 -21.0622 150.259C-23.4003 147.588 -19.5523 147.13 -20.1359 145.194C-18.9485 145.347 -18.0025 145.605 -17.1331 145.536C-16.4464 145.481 -15.747 145.133 -15.2385 144.725C-13.5567 143.375 -10.069 144.13 -9.82861 141.097C-9.81877 140.976 -9.51634 140.908 -9.34886 140.817C-7.37642 139.739 -5.40397 138.662 -3.87094 137.825C-2.68533 138.257 -1.77333 138.886 -1.17046 138.747C0.112619 138.451 -1.02171 137.384 -1.3513 136.602C-1.15728 136.516 -0.963264 136.431 -0.76924 136.345C0.242238 137.083 1.25334 137.822 2.58579 138.795C1.16889 139.755 0.137691 140.454 -1.15587 141.331C-1.04306 142.604 -0.093722 144.631 -2.83887 145.286C-1.96211 146.755 -1.20065 148.031 -0.219911 149.674C-1.74039 149.193 -2.68178 148.896 -3.75425 148.557C-3.51245 147.69 -3.31647 146.989 -2.99565 145.84C-3.86189 146.22 -4.26306 146.395 -4.66384 146.571C-5.45018 144.769 -3.5982 144.435 -2.34029 143.201C-4.18391 142.874 -5.48997 142.643 -7.11319 142.354C-6.64906 143.212 -6.32578 143.808 -5.98507 144.437C-6.4806 144.943 -6.98526 145.457 -7.49032 145.971C-7.181 146.568 -6.87166 147.165 -6.57532 147.737C-9.07868 149.88 -10.5359 153.074 -14.5982 152.907C-15.7778 155.366 -16.8871 157.679 -17.9413 159.876C-16.7294 161.082 -15.8419 161.965 -14.508 163.293C-14.5601 160.484 -12.3701 160.073 -10.6722 159.965C-9.11404 159.865 -8.28052 159.392 -7.85116 158.337C-7.41664 157.271 -6.39616 156.345 -7.4358 154.782C-8.12568 153.746 -7.36514 153.058 -6.00176 153.444C-4.40575 153.894 -3.38408 153.73 -3.05886 152.206C-3.00839 151.968 -2.75733 151.57 -2.6604 151.596C-0.206433 152.241 -0.251615 149.662 0.891432 149.505C1.23286 148.138 1.187 146.925 1.79526 146.203C2.76204 145.057 3.65275 146.869 4.562 147.026C5.46654 146.475 6.26714 145.987 7.00482 145.538C6.97797 144.612 6.95373 143.754 6.92854 142.869C5.20304 143.085 4.69394 145.984 1.82951 143.777C3.84038 142.697 5.60152 141.751 6.95734 141.023C6.81569 139.637 6.72418 138.74 6.63267 137.844C6.82385 137.825 7.01542 137.806 7.20698 137.786C7.89484 138.584 8.58268 139.38 9.46621 140.404C9.94875 139.13 10.5597 138.099 10.7071 136.963C10.8503 135.865 10.5158 134.659 10.3931 133.52C11.6976 133.66 12.6059 133.758 13.5092 133.855C14.4468 135.368 14.7175 136.886 13.6622 137.909C12.5007 139.035 12.262 139.954 13.0988 141.589C13.1037 141.599 13.1057 141.606 13.111 141.616C12.3601 142.502 12.3232 142.718 12.1441 143.806C12.5445 143.086 12.8591 142.521 13.2229 141.868C13.8739 143.323 13.3033 143.841 11.4532 144.228C10.9719 144.329 10.0995 144.294 10.0544 144.509C9.62916 146.535 7.16825 146.454 6.08325 147.76C5.79835 148.102 5.32704 148.396 5.2594 148.794C4.99498 150.344 4.0329 151.384 2.87142 152.367C2.3344 152.822 2.08647 153.566 1.73383 154.193C1.21986 155.107 0.740908 156.041 0.212767 156.946C0.152056 157.051 -0.128991 157.03 -0.308127 157.067C-0.518467 156.772 -0.728785 156.479 -0.923896 156.206C-3.66699 156.757 -4.43536 159.074 -5.86499 160.528C-5.41423 162.447 -5.01311 164.153 -4.5149 166.273C-2.85267 164.05 -1.49134 166.495 0.0202775 166.327C0.142761 168.197 -0.371975 169.437 -1.82498 170.309C-2.68482 170.825 -3.97644 171.575 -3.9386 172.306C-3.8029 174.955 -6.03738 174.959 -7.74127 175.077C-9.3175 175.186 -9.73062 176.219 -10.2406 176.704C-11.514 176.325 -12.5098 175.758 -13.3183 175.857C-14.3563 175.984 -14.3559 176.911 -13.9012 178.052C-11.4859 176.08 -10.5131 178.798 -8.88024 179.792C-8.69847 179.08 -8.70556 178.207 -8.42491 178.155C-6.10465 177.73 -5.07755 175.735 -3.01172 174.881C-1.21513 174.138 1.05964 172.95 1.03027 170.348C1.02747 170.091 1.64088 169.9 2.16182 169.547C3.11804 171.931 0.877637 173.162 1.337 175.066C-0.499369 176.255 -0.535109 178.013 0.0819913 180.005C0.142124 180.199 -0.137491 180.444 -0.33274 180.799C-1.21238 180.355 -2.01581 179.949 -2.75952 179.574C-5.00787 180.688 -5.65565 183.317 -8.02142 184.465C-7.11446 184.208 -6.20712 183.951 -5.34072 183.705C-4.87367 184.952 -4.45401 186.073 -4.02612 187.216C-3.15109 186.974 -2.54689 186.806 -1.7468 186.585C-1.50098 187.954 -1.30546 189.044 -1.11254 190.12C1.52358 189.782 1.62934 189.675 2.66441 187.509C2.80909 187.206 3.37092 187.11 3.74734 186.922C3.67083 186.145 3.34248 185.241 3.63449 184.65C4.3016 183.302 4.42261 182.186 3.30727 180.7C2.29393 179.349 2.76508 177.725 3.98451 176.78C5.35799 175.716 6.25981 175.599 9.60982 176.112C9.148 176.522 8.76895 176.859 8.39332 177.193C9.6469 176.209 11.9502 178.383 12.9533 176.447C12.2844 176.17 11.6621 175.911 10.3089 175.349C12.2714 175.004 13.0767 174.19 14.7148 174.32C15.8768 174.413 16.9481 173.051 18.1114 172.407C18.4099 172.242 18.9265 172.396 19.2979 172.299C19.7613 172.178 20.276 172.041 20.5966 171.752C22.0525 170.437 23.4486 169.066 25.0028 167.584C23.8398 167.067 22.6902 166.556 21.3366 165.955C21.288 165.811 21.2277 165.425 21.0302 165.096C20.8117 164.732 20.4677 164.419 20.1497 164.05C19.7813 164.521 19.5063 164.872 19.2332 165.221C18.8002 165.092 18.3629 164.962 17.9402 164.837C17.9741 163.883 17.9863 163.42 17.4812 163.044C17.8799 162.57 18.3008 162.139 18.7339 161.727C20.0619 160.827 21.3275 159.97 22.805 158.969C22.6147 159.935 22.5088 160.472 22.3581 161.238C23.7253 160.424 24.7441 159.817 26.0633 159.031C26.2214 160.37 26.3341 161.329 26.4586 162.384C27.6059 162.227 28.7532 160.786 30.1001 162.777C28.8721 163.755 27.6246 164.749 26.2105 165.876C30.8493 167.353 33.09 165.212 35.3687 162.545C34.4815 161.819 33.6144 161.109 32.4222 160.133C35.537 160.043 34.2875 157.123 36.1598 155.885C36.9298 156.493 37.7185 157.116 38.5273 157.756C36.2111 159.999 36.2111 159.999 36.7681 160.659C38.7764 159.078 40.8916 157.571 42.7931 155.866C44.3884 154.435 47.1503 154.289 47.9702 152.005C48.077 151.709 48.7358 151.517 49.1801 151.501C49.9431 151.473 50.6859 151.568 50.3696 150.52C50.917 150.46 51.4641 150.399 51.9751 150.343C52.0165 148.377 50.1482 148.621 48.9028 147.779C48.9096 148.783 48.915 149.559 48.9216 150.519C47.9878 150.377 47.2684 150.267 45.9097 150.06C48.0312 148.27 49.6997 146.863 51.1884 145.608C52.2119 146.095 52.8582 146.402 53.4785 146.696C53.8003 148.238 54.1104 149.722 54.4469 151.334C55.1644 151.119 55.7598 150.941 56.3135 150.775C56.5998 151.077 56.8272 151.371 57.0095 151.66C56.9473 151.749 56.8866 151.835 56.8202 151.929C56.9322 151.916 57.0353 151.904 57.1415 151.892C57.4306 152.431 57.5343 152.957 57.4477 153.481C57.0586 153.893 56.8274 154.153 56.7273 154.36C56.2076 154.028 55.6615 153.603 55.402 153.698C53.8843 154.256 52.4107 154.928 51.0526 155.73C50.2686 156.192 50.2097 156.981 50.7614 157.972C51.2876 158.917 51.5743 159.997 51.7389 161.021C51.9846 162.549 51.0425 163.561 49.5952 163.101C47.2306 162.35 45.8848 163.163 44.6986 164.624C44.5108 164.855 43.9667 164.837 43.5777 164.906C41.7151 165.239 41.2143 167.09 42.6331 168.466C42.9434 168.767 43.3145 169.017 43.6577 169.29C43.6089 169.407 43.5609 169.525 43.5125 169.643C42.2981 169.298 41.0844 168.952 40.0819 168.667C39.3456 169.906 38.8621 170.72 38.4229 171.46C39.9884 173.298 42.7033 170.18 43.7185 173.357C42.0017 176.048 40.1765 175.851 37.7127 172.72C35.8154 173.858 33.8559 174.923 32.0486 176.164C31.1413 176.786 31.8466 177.78 33.5558 178.382C35.2222 177.329 35.4131 174.162 39.4803 175.719C37.9278 176.534 36.796 177.127 35.3499 177.885C35.7763 178.38 36.1718 179.223 36.6995 179.365C37.6755 179.63 37.6513 178.825 37.6878 178.117C37.7004 177.87 38.3782 177.729 39.0771 177.375C38.9175 178.09 38.9608 178.455 38.784 178.603C36.0268 180.906 33.2796 183.223 30.4234 185.425C29.9551 185.786 28.9791 185.613 28.1341 185.698C28.6412 188.739 25.6895 187.318 24.1772 187.8C25.0176 185.019 26.5555 183.18 30.3211 183.39C31.7016 183.466 33.2888 182.53 33.1912 180.696C31.8732 180.124 30.7482 179.636 29.4035 179.053C29.152 181.461 27.211 181.686 25.0853 181.941C25.5335 180.841 25.9207 179.888 26.2659 179.041C24.4306 178.612 22.851 178.242 21.0759 177.827C20.6193 178.193 19.9825 178.704 19.2742 179.273C19.1336 178.644 19.0219 178.145 18.9007 177.605C16.8028 178.381 17.8469 180.133 18.1055 181.297C18.3558 182.422 19.446 183.68 20.4957 184.517C22.5157 186.128 22.7882 186.491 21.0957 187.903C19.5644 189.181 17.775 190.205 16.0106 191.4C15.7377 191.249 15.3 191.009 15.1199 190.909C13.882 191.556 12.7833 192.131 11.7053 192.694C9.959 190.31 13.2006 190.48 13.2344 188.939C11.4497 188.548 11.423 189.972 10.7594 190.538C10.024 191.166 9.63231 192.128 9.11132 192.914C5.39724 193.003 5.16856 193.159 5.22291 195.403C6.19664 196.03 7.11126 196.619 7.98765 197.183C8.76254 196.857 9.61602 196.496 11.0152 195.906C10.5591 197.488 10.2918 198.418 9.95906 199.573C11.3873 200.227 12.9828 200.585 13.9394 201.5C14.9285 202.445 15.2965 203.93 16.0895 205.478C16.7085 204.515 17.2759 203.811 17.6427 203.011C18.014 202.2 18.5046 201.286 18.3554 200.433C18.211 199.61 17.3175 198.809 16.6751 197.886C17.7055 197.583 18.7373 197.314 19.7331 196.977C20.8034 196.614 21.5064 196.089 21.2559 194.739C20.932 192.992 21.8396 192.109 23.6509 192.486C25.1772 192.805 25.9983 192.512 26.4818 191.286C26.7056 190.719 27.1517 190.247 27.6812 189.459C28.4303 190.031 29.5071 190.519 29.5381 190.946C29.6069 191.891 29.3867 192.967 28.8504 193.694C28.0578 194.769 26.6209 195.431 26.7835 196.58C28.1653 197.029 29.4317 197.44 31.2526 198.031C30.5275 197.055 30.2094 196.626 29.8928 196.2C30.4647 195.813 30.9949 195.453 31.5254 195.094C31.3289 194.248 31.1323 193.4 30.9358 192.554C31.0992 192.507 31.2633 192.459 31.4267 192.412C31.6673 192.777 31.9075 193.142 32.2642 193.683C33.0281 194.075 33.8176 192.239 34.803 193.679C35.3836 193.265 36.1051 192.949 36.5142 192.415C39.8933 187.997 43.1548 183.494 46.5974 179.122C47.3321 178.19 47.1332 177.501 46.559 176.605C45.6888 176.348 44.8327 176.096 43.9766 175.842C43.9855 174.628 44.4513 174.059 45.6447 174.381C48.3449 175.11 50.3939 177.295 50.9211 180.044C51.9542 179.359 52.6693 178.801 52.0175 177.328C51.6691 176.542 52.0241 175.552 52.1424 174.672C52.1595 174.545 52.6315 174.521 53.0272 174.412C53.4399 175.229 53.8178 175.977 54.3721 177.074C55.4038 176.489 56.1932 176.042 57.5301 175.283C56.288 174.919 55.8249 174.761 55.3551 174.651C54.8153 174.525 54.2698 174.44 53.3075 174.259C54.9014 171.439 57.8898 171.615 60.6398 171.113C60.0743 170.458 59.6455 169.961 58.9628 169.17C59.9331 168.512 60.8814 167.264 61.7194 167.418C64.0404 167.843 64.138 166.396 64.6613 165.212C65.1131 164.188 65.5025 163.135 65.9145 162.106C64.4705 162.548 62.9374 162.838 61.6296 163.466C60.2737 164.117 59.1354 165.096 57.7725 166.02C57.1193 163.919 57.156 163.965 58.2054 163.318C59.526 162.504 61.11 161.837 61.9828 160.69C63.2917 158.97 65.8105 159.068 67.2505 157.628C67.5457 157.333 68.5417 157.639 69.1641 157.666C70.0765 160.034 67.54 159.332 66.7616 160.38C67.014 160.95 67.3043 161.606 67.5269 162.11C70.5225 162.279 70.807 159.924 72.2742 158.735C70.966 158.294 70.28 157.801 71.7177 157.031C72.2698 155.449 72.8215 153.866 73.355 152.339C72.82 152.345 72.0534 152.354 70.574 152.372C72.4182 149.918 74.5661 148.668 76.8213 147.695C77.0482 146.732 77.262 145.826 77.5484 144.613C75.639 145.623 74.5769 144.227 73.6896 143.205C72.7764 143.824 72.0359 144.325 71.3024 144.822C71.1853 144.202 71.0694 143.583 70.9584 142.99C71.8586 142.38 72.6353 141.684 73.5833 141.26C74.5033 140.849 75.6256 140.357 76.6145 140.532C79.5507 141.05 81.4336 139.946 83.0308 138.185C83.1291 138.077 83.1235 137.887 83.1657 137.734C82.7128 137.493 82.2604 137.254 81.7714 136.995C82.1756 136.037 82.5458 135.159 82.9304 134.247C81.2255 133.069 79.6938 132.01 78.1558 130.947C78.9091 129.216 80.1069 128.731 80.9153 129.946C81.7726 131.233 82.847 131.374 84.0301 131.779C84.631 131.985 85.4341 132.445 85.6354 132.919C86.2265 134.312 87.3392 134.353 88.9815 134.804C87.7528 132.745 86.7712 131.1 85.9174 129.669C86.2102 128.714 86.7108 127.956 86.5837 127.213C86.4846 126.635 85.6041 126.077 85.1122 125.554C85.7013 125.155 86.7663 124.835 86.7901 124.349C86.9 122.063 88.276 122.731 89.7323 123.405C90.4812 123.752 91.2383 124.28 91.98 123.224C91.1258 122.875 90.3675 122.565 89.365 122.156C89.6617 121.367 89.7082 120.271 90.1861 120.14C92.218 119.587 92.8632 117.871 94.0447 116.625C96.4978 114.039 98.7719 111.301 101.314 108.794C102.351 107.771 102.052 106.721 101.624 105.67C107.012 101.618 109.253 99.0194 112.537 93.1122C114.687 92.0161 116.837 90.754 119.016 87.8541C118.735 87.5892 118.495 87.3631 118.293 87.1727C118.452 86.8227 118.601 86.4938 118.747 86.1713C119.488 85.101 120.061 83.9058 121.476 83.3796C122.08 83.6064 122.717 83.8465 123.614 84.184C123.369 81.4375 124.616 79.7579 126.779 78.5674C127.679 78.0721 128.376 77.3052 129.177 76.6728C130.595 75.5523 132.021 74.4406 133.654 73.1597C133.666 73.1909 133.469 72.8345 133.407 72.4752C132.852 69.1966 132.859 69.1965 136.449 69.6208C137.986 69.8028 140.112 67.7379 139.669 66.5847C139.004 66.1388 138.388 65.7265 137.723 65.281C138.048 65.0607 138.25 64.7866 138.504 64.7723C141.852 64.5878 143.794 63.2085 143.238 59.8414C143.006 58.4411 144.255 58.1295 144.995 58.133C146.536 58.1408 147.482 57.2422 148.739 56.9506C151.278 56.3622 151.828 54.8705 151.219 52.8612C151.998 52.136 152.595 51.5804 152.903 51.2943C154.512 51.0414 155.878 51.0529 156.962 50.5964C158.182 50.0833 159.133 49.1325 160.226 48.401C161.799 47.3464 162.527 45.8571 162.607 43.9955C162.722 41.3108 163.345 40.7277 165.929 40.1189C168.483 39.5173 170.961 38.7281 173.598 37.9857C173.654 38.0571 173.989 38.4888 174.325 38.9199C174.553 37.0761 174.499 35.2577 176.351 34.2336C175.274 33.7725 174.474 33.4302 173.138 32.8588C174.253 32.245 174.912 31.5305 175.513 31.6373C176.335 31.7829 177.111 32.5529 178.59 33.4861C177.765 31.9746 177.28 31.0845 176.625 29.8853C177.935 29.2191 179.213 28.5687 180.494 27.9175C181.656 28.8385 182.626 29.6074 184.051 30.7368C184.01 29.2952 184.147 28.2177 183.887 27.1779C183.733 26.5652 182.95 26.0127 182.332 25.2969C182.837 22.5246 185.501 21.5759 187.787 20.3525C188.348 20.0517 189.498 19.9971 189.998 20.3397C190.505 20.6867 190.541 21.6657 190.785 22.3673C192.858 22.1943 194.537 21.1645 194.256 20.2165C193.755 19.975 193.238 19.7261 192.711 19.4724C193.15 18.1013 194.266 17.8698 195.515 17.8228C195.949 17.986 196.603 18.3525 196.731 18.2355C197.907 17.152 199.384 16.1962 198.806 14.2916C199.421 14.3347 200.142 14.5101 200.206 14.3707C200.764 13.1575 202.013 13.1312 203.222 13.0629C204.721 12.9779 205.853 12.5824 206.149 11.0675C206.24 10.6 206.781 10.2572 207.119 9.85477C207.926 10.1678 208.581 10.4211 208.792 10.5029C213.713 6.0899 218.949 2.31604 222.665 -2.88447C220.925 -1.5336 218.757 -2.09181 216.671 -2.23944C218.664 -3.02172 220.479 -4.10059 222.957 -3.81448C223.781 -3.71944 225.139 -3.94172 225.322 -4.41431C225.839 -5.75527 227.118 -5.56274 228.302 -5.77893C227.923 -7.63734 230.632 -8.32772 229.671 -10.4406C229.579 -10.6407 230.278 -11.3719 230.594 -11.3266C233.308 -10.9344 233.869 -13.258 235.477 -14.2318C235.942 -14.5134 235.951 -15.3705 236.276 -16.253C232.009 -15.2098 232.009 -15.2098 230.589 -17.0249C232.527 -16.7054 234.318 -16.478 235.522 -17.8512C236.461 -18.921 237.303 -20.1515 239.397 -19.4553C239.76 -19.3349 240.422 -19.9215 240.787 -20.3113C241.707 -21.2933 242.535 -22.3494 243.406 -23.3836C241.501 -24.6123 240.496 -23.6818 239.722 -22.8343C238.497 -23.7979 237.492 -24.5889 236.067 -25.7102C237.815 -25.4527 238.976 -25.2814 240.261 -25.0921C240.268 -26.2402 240.273 -27.1404 240.277 -27.9422C239.468 -28.3675 238.635 -28.8062 237.801 -29.2442C237.833 -29.4307 237.864 -29.6175 237.895 -29.8043C239.292 -29.9924 240.689 -30.1809 242.141 -30.3768C241.73 -32.5315 239.778 -32.3345 238.73 -33.1165C234.628 -30.7741 232.696 -26.8885 230.157 -23.6668C228.711 -24.6497 227.475 -25.489 226.135 -26.3992C224.802 -24.6032 223.559 -22.9284 222.689 -21.7559C222.839 -20.3597 222.929 -19.5191 223.004 -18.8131C223.834 -18.4936 224.644 -18.1817 225.478 -17.8607C225.455 -17.8999 224.391 -19.6585 224.324 -19.7702C225.885 -20.6096 226.402 -19.3394 227.288 -18.369C225.097 -16.7781 223.752 -14.2803 219.896 -15.0335C220.21 -14.0221 220.319 -13.2965 220.664 -12.6561C221.099 -11.8478 221.635 -11.119 220.562 -10.356C220.041 -10.7308 219.591 -11.2228 219.058 -11.3987C218.335 -11.637 217.2 -11.974 216.845 -11.6757C214.911 -10.0518 213.163 -8.24572 211.424 -6.57235C209.826 -5.71536 208.305 -4.78814 206.661 -4.0553C205.442 -3.5119 205.367 -2.67166 205.732 -1.56649C205.376 -1.13331 205.026 -0.711899 204.758 -0.390201C205.522 0.218294 206.062 0.647407 207.019 1.40917C205.848 1.71913 205.025 1.87471 204.267 2.15058C202.378 2.83737 200.009 3.15713 198.8 4.42545C197.739 5.53946 196.828 6.80915 195.51 7.73746C195.212 7.45743 194.915 7.177 194.56 6.84224C195.047 6.34213 195.507 5.87063 196.041 5.32248C195.224 5.06137 194.696 4.89315 194.295 4.76497C195.331 3.37793 196.21 2.0055 197.291 0.791184C199.91 -2.14968 202.755 -4.89413 204.694 -8.36371C205.394 -9.61843 206.923 -10.4883 208.265 -11.2908C209.202 -11.8515 209.598 -12.4367 209.381 -13.4992C209.346 -13.6671 209.678 -13.8553 209.875 -14.0729C210.236 -13.4258 210.535 -12.8909 210.965 -12.1201C211.872 -13.0303 212.574 -13.7352 213.276 -14.4396C214.133 -14.2314 214.992 -14.0237 215.993 -13.7816C215.931 -14.4387 215.89 -14.8773 215.861 -15.1883C214.614 -15.5273 213.568 -15.8118 212.499 -16.1029C212.635 -16.5811 212.671 -16.9002 212.734 -16.8969C213.169 -16.8759 213.624 -16.8445 214.046 -16.7105C215.859 -16.135 217.885 -15.5454 219.105 -16.838C219.943 -17.7269 220.734 -18.2564 222.031 -18.1222C221.024 -19.1052 220.151 -19.9574 219.374 -20.7156C220.568 -22.6233 221.28 -24.5086 222.661 -25.7802C224.421 -27.4008 225.168 -29.7606 227.495 -30.9741C229.975 -32.2677 231.623 -34.2053 230.088 -37.5456C231.214 -37.6576 232.134 -37.7492 232.901 -37.8255C233.874 -39.3216 231.476 -42.6472 235.639 -41.8427C234.699 -44.3599 237.459 -44.6642 237.99 -46.1749C238.648 -48.049 241.581 -46.9258 242.347 -48.888C241.665 -48.7743 241.244 -48.7043 240.822 -48.6342C241.036 -49.5909 241.642 -50.1927 242.192 -50.8364C242.594 -51.307 242.995 -51.7964 243.268 -52.3424C243.901 -53.6108 244.331 -55.0136 246.307 -55.0373C246.628 -55.0411 247.191 -55.4612 247.146 -55.566C246.408 -57.3231 248.761 -57.2197 248.901 -58.4277C248.93 -58.6814 249.127 -58.8993 249.297 -59.2333C248.819 -59.736 248.345 -60.2346 247.803 -60.8043C247.272 -60.1641 246.845 -59.6498 246.381 -59.0907C245.338 -60.1891 245.434 -60.9851 246.1 -61.8077C246.61 -62.4393 247.393 -63.1529 247.337 -63.8687C247.127 -66.5837 247.928 -68.9532 248.847 -71.3186C248.889 -71.4268 248.666 -71.6482 248.469 -71.9832C246.706 -71.7379 244.881 -71.4838 242.834 -71.199C241.605 -68.2529 240.221 -65.1077 237.215 -62.9606C236.564 -62.4955 236.339 -61.5793 235.798 -60.9642C234.701 -59.7185 233.472 -58.6619 231.294 -59.2859C230.999 -59.3706 230.649 -59.1877 230.317 -59.094C229.11 -60.2825 227.041 -61.1033 227.772 -63.1386C227.815 -63.1745 227.86 -63.2104 227.903 -63.2463C228.714 -63.1999 229.542 -63.1528 230.694 -63.0874C230.537 -63.3623 230.393 -63.6172 230.25 -63.8683C230.255 -63.87 230.261 -63.872 230.266 -63.8737C230.752 -64.6096 231.235 -65.2426 231.585 -65.8404C232.177 -65.8644 232.72 -66.0676 233.205 -66.6077C233.431 -66.8593 233.961 -66.9713 234.37 -66.9583C235.909 -66.9086 235.494 -67.762 235.326 -68.5139C234.118 -69.3437 232.344 -68.6532 231.688 -70.5371C233.264 -71.4461 235.066 -72.1808 236.415 -73.3503C237.749 -74.5079 238.625 -76.1044 239.702 -77.5091C239.518 -77.6963 239.335 -77.8836 239.151 -78.0708C237.725 -77.2929 236.186 -76.6385 234.904 -75.7021C233.642 -74.7796 232.703 -73.5081 231.498 -72.5138C230.866 -71.9928 230.315 -71.6413 230.034 -70.7329C229.702 -69.6559 228.707 -68.6817 227.24 -68.3494C226.955 -69.9949 227.029 -69.948 227.492 -70.6523C227.614 -70.8384 227.731 -71.0286 227.853 -71.215C228.386 -71.6757 228.881 -72.1806 229.281 -72.7993C229.302 -73.0784 229.291 -73.3106 229.29 -73.5212C229.634 -74.0979 229.979 -74.6739 230.29 -75.2681C230.673 -75.9995 230.979 -76.5222 231.871 -76.954C233.75 -77.8644 234.732 -79.6942 235.371 -81.5208C235.851 -82.8885 236.107 -84.1341 238.007 -84.2564C238.398 -84.2819 238.762 -84.7498 239.002 -85.102C239.652 -86.0607 240.448 -86.9887 240.772 -88.0768C241.085 -89.1308 240.882 -90.3689 240.907 -91.606C244.155 -91.3729 244.098 -93.5375 243.939 -95.7542C244.955 -95.7834 245.804 -95.8078 247.388 -95.8539C246.555 -94.1669 245.895 -93.0397 245.425 -91.8319C244.595 -89.7055 242.826 -87.7027 245.096 -85.0547C245.34 -84.77 245.54 -84.2299 245.424 -83.9647C244.35 -81.5124 245.542 -79.6858 247.903 -78.1074C248.125 -77.959 248.192 -77.5971 248.411 -77.1809C247.037 -75.9891 247.206 -74.6974 248.996 -73.4324C249.922 -73.6411 250.833 -73.7287 250.771 -75.0463C250.741 -75.6845 251.324 -76.6262 251.914 -76.7811C252.805 -77.0155 253.944 -76.6824 254.929 -76.5948C253.667 -78.4346 253.462 -80.3986 254.701 -81.3726C256.197 -82.5491 257.86 -83.5521 259.757 -84.8375C257.168 -86.7802 260.288 -87.0123 260.351 -88.4861C259.41 -88.6824 258.568 -88.8579 257.384 -89.1046C257.648 -89.8183 257.669 -90.542 258.078 -90.8706C259.829 -92.2749 261.857 -90.3116 263.767 -90.2678C262.716 -92.125 261.756 -93.8198 260.6 -95.8624C260.363 -95.9203 259.589 -96.1089 259.162 -96.2132C258.309 -94.6898 257.584 -93.3949 256.906 -92.1846C255.097 -92.3319 253.511 -92.4607 251.618 -92.6149C251.89 -93.7123 252.11 -94.7726 252.418 -95.8016C252.836 -97.198 253.283 -98.5863 253.785 -99.9495C254.527 -101.961 253.472 -103.551 251.896 -105.151C249.385 -103.843 248.202 -101.122 245.03 -100.561C244.273 -102.202 244.255 -103.346 245.779 -104.297C246.841 -104.96 247.649 -105.99 248.389 -106.98C249.063 -107.881 248.372 -109.161 247.06 -109.311C245.533 -109.487 244.007 -109.313 242.04 -109.285C242.952 -108.229 243.447 -107.655 244.063 -106.941C242.229 -106.765 241.622 -104.6 239.391 -105.391C238.839 -106.875 239.031 -108.02 240.624 -108.634C240.821 -108.71 240.744 -109.266 240.799 -109.625C239.775 -109.488 238.918 -109.372 237.905 -109.236C236.908 -110.908 236.001 -112.428 234.851 -114.356C236.354 -114.119 237.37 -113.959 238.384 -113.799C238.472 -114.211 238.566 -114.652 238.648 -115.037C238.54 -115.193 238.503 -115.312 238.424 -115.353C237.678 -115.746 236.923 -116.121 236.174 -116.509C233.786 -117.745 233.385 -118.898 234.634 -120.836C234.972 -121.36 235.242 -121.926 235.487 -122.371C233.614 -124.541 231.81 -126.632 229.974 -128.76C229.585 -128.409 229.401 -128.317 229.331 -128.169ZM53.3987 5.59945C54.7998 7.03604 55.1225 7.97153 54.1594 8.81644C53.8708 8.74996 53.5822 8.6827 53.294 8.61661C53.3246 7.74582 53.3545 6.87506 53.3987 5.59945ZM-19.0615 83.5073C-19.2766 83.2616 -19.4921 83.0164 -19.7076 82.7703C-19.1074 82.2177 -18.5071 81.6658 -17.9065 81.1135C-17.7269 81.2596 -17.547 81.4054 -17.3675 81.5515C-17.9321 82.2037 -18.4968 82.8559 -19.0615 83.5073ZM-29.0238 117.209C-29.3375 116.334 -29.6226 115.469 -27.5386 115.859C-28.1619 116.426 -28.5976 116.822 -29.0238 117.209ZM-4.6113 148.605C-5.17774 149.066 -5.74455 149.527 -6.45878 150.109C-6.25195 148.772 -6.25194 148.772 -4.97307 148.098C-4.85288 148.267 -4.73189 148.436 -4.6113 148.605ZM4.29049 174.774C5.04941 173.558 6.16473 173.92 7.28494 174.6C6.34642 174.655 5.40831 174.709 4.29049 174.774ZM37.9245 189.244C36.4426 190.656 34.762 189.958 33.098 189.726C32.8901 187.675 34.3594 187.529 35.6952 187.372C36.9605 187.223 37.4872 188.1 37.9245 189.244ZM42.6633 183.32C39.675 184.107 36.8308 184.856 33.3765 185.765C35.2629 182.199 39.1648 182.858 41.8998 181.476C42.1887 182.174 42.4026 182.69 42.6633 183.32ZM39.3396 180.463C40.8727 177.784 41.1738 177.687 44.3624 178.792C43.7868 181.561 41.2298 180.156 39.3396 180.463ZM53.8555 169.384C53.3418 168.517 52.8697 167.72 52.2023 166.592C53.1461 166.674 53.8961 166.728 54.6458 166.806C55.456 166.889 56.2662 166.994 57.1151 167.095C57.0147 169.115 54.9714 168.957 53.8555 169.384ZM56.1128 159.533C55.6625 159.466 55.219 159.211 54.7729 159.029C54.8656 158.803 54.9068 158.406 55.0621 158.384C55.4612 158.326 55.9112 158.435 56.7154 158.514C56.4065 159.058 56.25 159.554 56.1128 159.533ZM226.099 -12.5768C226.625 -13.3086 227.303 -13.9383 227.921 -14.6083C229.625 -16.4578 229.948 -16.4006 232.097 -13.4116C229.017 -13.8826 228.924 -10.1809 225.544 -10.9883C225.73 -11.5515 225.791 -12.1462 226.099 -12.5768ZM224.04 -9.37591C224.292 -9.34787 224.77 -8.81717 224.765 -8.56876C224.745 -7.46387 223.999 -7.26057 222.68 -7.67957C222.502 -8.85174 222.841 -9.50836 224.04 -9.37591ZM212.198 -2.60986C211.481 -0.558126 209.337 -0.9975 208.063 -0.409028C207.227 -0.841141 206.504 -1.21505 205.776 -1.57836C207.46 -3.01931 209.731 -2.63508 212.198 -2.60986ZM204.798 -128.702C205.924 -126.748 205.472 -126.112 203.985 -126.061C203.719 -126.239 203.452 -126.417 203.186 -126.594C203.655 -127.208 204.125 -127.823 204.798 -128.702ZM195.236 -118.596C195.832 -116.881 196.282 -115.584 196.733 -114.286C194.911 -115.302 194.267 -116.589 195.236 -118.596ZM197.327 -117.462C197.524 -117.594 198.047 -117.341 198.426 -117.259C198.304 -116.888 198.218 -116.494 198.026 -116.162C197.989 -116.098 197.534 -116.271 196.989 -116.403C197.102 -116.818 197.08 -117.297 197.327 -117.462ZM197.57 -113.21C198.914 -113.433 200.091 -113.705 201.309 -113.797C201.882 -113.841 202.612 -113.659 203.116 -113.344C203.37 -113.186 203.505 -112.345 203.305 -112.082C201.631 -109.864 199.868 -107.709 197.922 -105.273C197.06 -106.271 196.474 -106.951 195.778 -107.758C197.285 -109.278 199.018 -110.697 197.57 -113.21ZM194.121 -18.8838C193.657 -19.046 193.2 -19.4229 192.745 -19.7792C193.019 -20.0781 193.295 -20.3782 193.569 -20.6756C193.159 -20.2626 192.788 -20.1217 192.419 -20.0264C192.34 -20.0841 192.261 -20.1408 192.183 -20.1923C193.506 -21.809 194.303 -22.1564 195.664 -20.9777C195.659 -20.9738 195.656 -20.9702 195.651 -20.9663C195.364 -20.7312 195.085 -20.2569 194.832 -19.8807C194.602 -19.5393 194.359 -19.215 194.121 -18.8838ZM189.517 -13.5224C188.434 -12.4592 187.457 -11.5616 186.533 -11.5243C184.779 -8.77875 184.762 -8.76519 183.32 -8.87493C183.647 -9.38444 183.986 -9.91089 184.528 -10.7538C183.586 -10.0169 182.98 -9.54267 182.123 -8.8722C182.627 -9.79234 182.883 -10.4939 183.301 -10.9692C183.852 -11.595 184.528 -12.0568 185.153 -12.5626C185.67 -12.9821 186.331 -13.2839 186.684 -13.7757C187.565 -15.0039 188.338 -16.294 189.141 -17.5669C189.906 -16.9747 190.674 -16.3682 191.537 -15.9701C191.589 -15.9464 191.637 -15.891 191.683 -15.8244C190.987 -15.0342 190.272 -14.2634 189.517 -13.5224ZM161.923 6.55586C161.364 6.73457 160.919 6.59373 160.426 6.58565C160.479 6.42168 160.532 6.25771 160.584 6.09337C161.151 5.73768 161.73 5.46914 162.28 5.00188C162.798 4.56213 163.216 4.18711 163.343 4.65462C163.385 4.81072 163.277 5.24087 163.131 5.41112C162.754 5.85058 162.23 6.45795 161.923 6.55586ZM38.6236 55.0051C38.5377 54.6268 38.3669 54.2333 38.3961 53.8763C38.4165 53.6311 38.7143 53.437 38.8877 53.2203C39.0357 53.2898 39.1836 53.3593 39.3316 53.4288C39.2731 53.9624 39.2146 54.4961 39.1561 55.029C38.9787 55.0211 38.8014 55.0133 38.6236 55.0051ZM103.482 -26.5109C103.867 -26.7718 104.178 -27.0804 104.267 -27.0275C104.932 -26.6341 105.553 -26.1686 106.188 -25.7264C106.047 -25.5741 105.906 -25.4223 105.764 -25.27C105.058 -25.6547 104.352 -26.0383 103.482 -26.5109ZM178.607 -12.0149C178.557 -12.0465 178.506 -12.0777 178.459 -12.114C179.057 -13.532 179.275 -14.0326 180.221 -13.817C179.628 -13.1724 179.117 -12.4782 178.607 -12.0149ZM173.876 -7.70629C173.702 -7.516 173.546 -7.29659 173.308 -6.99652C173.389 -7.84195 173.763 -8.47411 174.345 -9.08583C174.728 -9.24913 175.133 -9.39848 175.556 -9.54047C174.996 -8.92919 174.435 -8.31907 173.876 -7.70629ZM170.795 -4.65446C170.835 -4.94018 170.874 -5.22586 170.914 -5.51157C171.095 -5.60756 171.276 -5.70315 171.579 -5.86432C171.47 -5.52079 171.425 -5.25439 171.284 -4.98944C171.224 -4.87624 170.964 -4.76614 170.795 -4.65446ZM158.128 12.1961C159.287 10.9688 159.287 10.9688 159.939 11.6209C159.374 11.8001 158.81 11.9797 158.128 12.1961ZM151.876 24.1236C151.503 24.062 151.118 23.9984 150.693 23.9286C150.665 23.3004 151.306 22.7667 152.04 22.1257C152.341 22.4674 152.664 22.8343 153.001 23.2165C152.574 23.6209 152.198 23.9196 151.876 24.1236ZM142.869 39.6388C142.775 39.5871 142.72 39.5095 142.736 39.4108C142.795 39.0462 143.228 38.3067 143.584 37.9594C143.585 37.9578 143.587 37.957 143.588 37.9554C143.884 38.7364 143.73 39.1011 142.869 39.6388ZM129.412 49.5406C129.686 48.9639 129.856 48.5452 129.981 48.2708C130.053 48.4714 130.124 48.6743 130.194 48.8722C129.975 48.9818 129.724 49.1768 129.412 49.5406ZM133.094 53.0661C133.666 52.8277 134.072 53.372 134.861 52.1235C135.026 52.181 135.371 52.1666 135.328 52.3074C135.159 52.8617 134.98 53.4232 134.777 53.9907C134.102 53.62 133.584 53.335 133.094 53.0661ZM141.157 38.9729C141.085 38.4078 141.079 38.0263 141.167 37.7461C141.225 37.645 141.275 37.5457 141.327 37.4451C141.504 37.2326 141.796 37.0915 142.239 36.9448C141.878 37.6209 141.517 38.2975 141.157 38.9729ZM143.938 29.3054C144.43 28.8736 145.072 27.877 145.487 28.4849C144.974 29.0966 144.479 29.6871 143.76 30.5458C143.837 29.9671 143.841 29.3907 143.938 29.3054ZM151.911 18.951C152.542 18.6052 153.174 18.2591 153.907 17.8578C154.049 18.2212 154.153 18.4844 154.275 18.7943C152.759 20.1935 152.593 19.0724 151.911 18.951ZM154.872 21.8139C154.932 21.8771 154.991 21.938 155.057 22.0065C155.357 21.4727 155.633 20.9807 156.043 20.2514C156.73 19.9996 157.127 20.2137 156.409 21.5812C155.691 21.9533 154.917 22.477 154.872 21.8139ZM152.713 6.76348C153.051 6.54639 153.348 6.58236 153.61 7.01083C153.226 7.16442 152.911 7.28932 152.63 7.40183C152.657 7.19527 152.685 6.98055 152.713 6.76348ZM133.851 -24.0528C134.681 -24.4946 135.562 -25.0409 136.307 -25.2426C136.327 -25.2485 136.346 -25.259 136.366 -25.2645C135.513 -24.0356 135.104 -23.871 133.53 -23.8637C133.641 -23.9349 133.747 -23.9974 133.851 -24.0528ZM181.694 -14.2663C181.786 -15.1342 182.415 -15.6956 183.228 -16.2249C182.842 -15.5707 182.455 -14.9146 181.908 -13.9888C181.835 -14.0816 181.763 -14.1742 181.694 -14.2663ZM186.47 -15.8879C186.113 -15.5177 185.748 -15.1383 185.187 -14.5565C185.792 -15.9849 185.805 -16.012 186.47 -15.8879ZM187.655 -17.6155C186.775 -18.0649 186.541 -18.4399 186.889 -19.0218C187.641 -18.6975 188.328 -18.1937 189.013 -17.6663C188.488 -17.289 188.025 -16.8166 187.556 -16.43C187.235 -16.1662 186.893 -16.1021 186.56 -15.959C186.927 -16.5148 187.295 -17.0707 187.655 -17.6155ZM195.907 -24.6748C194.587 -23.5611 194.299 -25.4522 193.065 -25.4778C195.01 -27.3145 195.119 -25.0971 195.907 -24.6748ZM179.03 -88.4377C179.379 -87.7935 179.718 -86.57 179.406 -86.3624C177.969 -85.4059 178.387 -83.8759 178.118 -82.557C178.069 -82.3166 177.861 -82.1213 177.501 -81.5427C176.321 -83.1061 175.899 -84.3134 176.306 -85.6294C176.67 -86.8082 177.028 -87.989 177.475 -89.4525C178.017 -89.1182 178.794 -88.8753 179.03 -88.4377ZM174.69 -79.0862C174.721 -78.9986 174.124 -78.7981 173.644 -78.5655C173.341 -79.5652 173.098 -80.3714 172.806 -81.3375C174.472 -81.1416 174.388 -79.9561 174.69 -79.0862ZM170.316 -75.44C170.059 -75.555 169.955 -76.0354 169.781 -76.3472C170.475 -76.5079 171.169 -76.6677 172.063 -76.8746C171.901 -75.5471 171.538 -74.893 170.316 -75.44ZM133.45 -24.6641C133.615 -25.2482 133.876 -25.6187 134.292 -25.8111C134.017 -25.4356 133.737 -25.0554 133.45 -24.6641ZM165.219 3.14462C165.597 3.41323 167.199 1.42992 166.741 3.27868C165.578 4.40965 165.544 3.50917 165.219 3.14462ZM167.67 4.46231C168.284 5.34605 167.97 5.93771 166.72 6.84902C167.03 6.06978 167.252 5.51237 167.67 4.46231ZM169.004 -0.89619C170.047 -1.5003 171.384 -2.9086 172.059 -2.02498C170.719 -1.11914 169.528 -0.313619 168.208 0.579767C167.928 0.0183819 168.417 -0.5552 169.004 -0.89619ZM171.394 0.520782C171.82 0.593247 172.221 0.661573 172.658 0.735374C171.32 2.41531 171.32 2.41529 170.202 2.3635C170.647 1.67621 170.984 1.15524 171.394 0.520782ZM197.003 -23.8104C196.724 -23.9396 196.519 -24.1742 196.319 -24.3876C196.355 -24.4381 196.392 -24.4898 196.43 -24.5361C196.806 -24.4474 197.211 -24.3523 197.718 -24.2334C197.522 -24.078 197.287 -23.9362 197.003 -23.8104ZM199.875 -26.2686C199.885 -26.277 199.895 -26.2853 199.905 -26.2941C199.908 -26.2883 199.91 -26.2829 199.913 -26.2771C199.9 -26.2738 199.889 -26.2716 199.875 -26.2686ZM222.791 -88.5698C222.981 -88.4585 223.171 -88.3468 223.361 -88.2354C223.232 -88.0504 223.103 -87.8649 222.973 -87.6799C222.667 -87.4895 222.362 -87.3338 222.059 -87.2103C222.303 -87.6632 222.547 -88.1165 222.791 -88.5698ZM196.597 -104.352C195.764 -103.092 194.779 -104.044 193.725 -104.463C194.021 -105.987 194.896 -106.236 196.164 -105.54C196.458 -105.379 196.748 -104.58 196.597 -104.352ZM222.288 -84.824C222.17 -84.7845 222.05 -84.7451 221.932 -84.7057C222.091 -85.9208 222.152 -85.9216 223.287 -85.6522C222.938 -85.3629 222.631 -85.1084 222.288 -84.824ZM224.001 -89.3446C223.845 -89.4423 223.689 -89.54 223.533 -89.6377C223.628 -89.8951 223.658 -90.2066 223.835 -90.3966C224.037 -90.6119 224.371 -90.719 224.648 -90.873C224.819 -90.7072 224.99 -90.5418 225.161 -90.376C224.774 -90.032 224.388 -89.6883 224.001 -89.3446ZM179.148 -107.243C181.276 -108.788 182.056 -111.22 183.94 -112.929C182.956 -113.216 182.086 -113.469 181.141 -113.744C181.309 -114.873 181.458 -115.876 181.615 -116.942C180.282 -117.449 179.224 -117.852 178.213 -118.236C177.96 -119.267 178.372 -120.185 179.194 -119.832C181.428 -118.871 182.617 -119.866 183.648 -121.013C184.471 -119.964 185.014 -118.83 185.933 -118.205C187.196 -117.348 187.368 -115.949 188.756 -115.051C190.111 -114.174 189.745 -112.315 189.075 -111.122C188.32 -109.774 187.311 -108.441 185.071 -109.289C184.446 -107.821 186.579 -106.358 184.711 -105.701C182.953 -105.169 181.196 -104.638 179.365 -104.084C177.891 -105.161 178.372 -106.68 179.148 -107.243ZM183.315 -92.9058C183.562 -91.8658 183.81 -90.8257 184.077 -89.706C183.116 -89.7417 182.22 -89.7746 180.879 -89.8243C181.435 -91.1039 181.882 -92.1301 182.329 -93.1571C182.658 -93.0732 182.986 -92.9893 183.315 -92.9058ZM168.123 -89.4202C168.816 -89.8878 168.411 -91.8416 168.192 -93.1167C167.775 -95.5439 167.68 -95.5446 169.874 -96.5982C170.212 -96.7605 170.582 -96.8757 170.93 -97.0098C170.798 -97.6828 170.621 -98.3339 170.555 -98.9807C170.441 -100.093 170.746 -100.734 172.257 -100.462C173.06 -100.318 173.899 -100.662 175.107 -100.842C175.029 -99.5185 175.255 -98.0505 174.805 -96.866C173.944 -94.5974 172.865 -92.3891 171.569 -90.3416C170.063 -87.9633 168.228 -85.785 166.187 -83.0515C165.616 -84.129 164.967 -84.8138 165.03 -85.3453C165.17 -86.523 166.21 -86.7968 167.603 -86.4062C167.347 -87.5848 166.801 -88.5283 168.123 -89.4202ZM165.069 -91.0413C165.229 -90.981 165.389 -90.9203 165.549 -90.86C165.528 -90.5083 165.62 -90.0874 165.452 -89.8258C165.317 -89.6146 164.868 -89.5944 163.885 -89.2617C164.516 -90.2102 164.793 -90.6258 165.069 -91.0413ZM162.627 -89.4632C163.33 -87.9083 163.35 -86.6476 162.335 -85.172C161.543 -85.909 161.098 -86.3234 160.521 -86.8609C160.945 -87.8179 160.926 -89.075 162.627 -89.4632ZM162.665 -80.5763C162.221 -81.9192 161.992 -83.2977 161.973 -84.6971C162.963 -83.0341 165.671 -81.8121 164.149 -79.3156C163.523 -79.8268 162.805 -80.153 162.665 -80.5763ZM160.667 -76.7829C161.058 -76.8045 161.333 -76.8197 161.608 -76.8346C161.62 -76.5908 161.744 -76.2464 161.618 -76.1275C161.458 -75.9779 161.095 -76.0125 160.82 -75.9673C160.774 -76.2104 160.729 -76.4535 160.667 -76.7829ZM154.723 -56.6738C155.066 -57.4374 155.644 -57.8178 156.888 -56.9771C156.545 -56.3515 156.189 -55.7022 155.876 -55.1313C154.561 -55.384 154.411 -55.9805 154.723 -56.6738ZM139.033 -65.1532C140.272 -63.4962 140.272 -63.4962 137.554 -62.7769C138.205 -63.8222 138.619 -64.4875 139.033 -65.1532ZM143.779 -57.0617C142.102 -55.9255 140.802 -55.0447 139.469 -54.1417C139.264 -57.2276 140.5 -58.2936 143.779 -57.0617ZM146.505 -46.6605C148.557 -47.0554 148.437 -48.8451 149.101 -50.1391C149.325 -50.5737 149.759 -50.8963 150.076 -51.2855C150.347 -51.6196 150.771 -51.9377 150.813 -52.3276C151.049 -54.5338 151.017 -54.5401 153.568 -54.4984C154.579 -53.6733 154.539 -52.8167 153.99 -51.9652C153.266 -50.8425 152.567 -49.7012 151.764 -48.6328C151.41 -48.1608 150.836 -47.8357 150.339 -47.4686C150.086 -47.2817 149.547 -47.1866 149.538 -46.9867C149.43 -44.737 147.738 -45.0873 145.97 -45.3945C146.155 -45.8668 146.207 -46.6036 146.505 -46.6605ZM134.842 -49.6981C135.96 -50.8133 137.274 -51.759 138.609 -52.8454C140.073 -51.5229 139.649 -50.6953 139.066 -49.9942C138.392 -49.1835 137.658 -48.3765 136.761 -47.7942C136.4 -47.5591 135.317 -47.7317 134.968 -48.0686C134.634 -48.3894 134.55 -49.4062 134.842 -49.6981ZM115.637 -48.7091C116.446 -48.1451 117.134 -47.8789 117.386 -47.4416C117.79 -46.7391 118.096 -45.8911 118.049 -45.1727C118.03 -44.8932 116.962 -44.7021 116.329 -44.6485C115.661 -44.5918 114.943 -44.7482 113.582 -44.8721C114.738 -43.1947 115.502 -42.0845 116.402 -40.7779C114.412 -41.198 112.672 -41.5653 110.593 -42.0049C112.365 -44.3602 113.967 -46.4908 115.637 -48.7091ZM109.267 -40.0167C109.526 -39.8695 109.784 -39.7223 110.043 -39.5751C109.68 -38.9502 109.316 -38.3253 108.953 -37.7004C108.695 -37.8479 108.436 -37.9951 108.177 -38.1423C108.541 -38.7676 108.904 -39.3921 109.267 -40.0167ZM112.313 -37.0718C112.336 -37.3241 113.015 -37.4509 113.455 -37.6671C114.351 -33.9466 114.351 -33.9466 112.209 -32.8141C112.227 -34.247 112.19 -35.6748 112.313 -37.0718ZM106.512 -36.003C106.695 -36.0326 107.019 -36.1196 107.042 -36.082C107.279 -35.6833 107.469 -35.2653 107.672 -34.8527C107.493 -34.7983 107.313 -34.7436 107.133 -34.6892C106.926 -35.1274 106.719 -35.5648 106.512 -36.003ZM125.821 -19.5304C126.516 -21.7966 127.206 -24.1641 130.786 -24.5211C130.547 -23.8371 130.504 -23.0608 130.225 -23.0172C128.431 -22.7354 127.848 -21.4618 127.217 -20.1841C126.367 -18.4641 124.663 -17.9026 121.874 -18.4785C122.577 -20.2719 124.435 -19.2823 125.821 -19.5304ZM108.004 -31.9024C108.377 -31.8004 109.29 -31.7819 109.519 -31.4363C109.898 -30.8638 110.131 -29.9443 109.897 -29.4178C109.473 -28.464 108.662 -27.6919 108.012 -26.8443C107.893 -26.9323 107.774 -27.0203 107.654 -27.1083C107.764 -28.6134 107.874 -30.1182 108.004 -31.9024ZM104.083 -32.9123C104.589 -31.5797 104.972 -30.6031 103.325 -30.035C102.661 -29.8059 102.298 -28.5833 102.23 -27.7335C102.113 -26.2791 101.231 -26.0402 99.8897 -26.0654C99.9219 -28.7534 101.994 -32.2095 104.083 -32.9123ZM100.066 -22.8538C101.494 -24.4354 102.412 -22.5948 104.111 -22.3483C103.332 -21.3204 102.815 -20.6374 101.979 -19.5336C101.036 -21.1701 100.55 -22.0143 100.066 -22.8538ZM97.0838 -19.9284C97.3106 -20.8578 98.1597 -20.644 100.004 -18.9232C98.0787 -18.5158 98.8635 -16.0039 96.4585 -15.962C96.6755 -17.4038 96.7834 -18.6967 97.0838 -19.9284ZM85.8875 -16.0205C86.3552 -16.3372 86.8226 -16.6542 87.2903 -16.9709C87.4485 -16.7326 87.6071 -16.4938 87.7654 -16.2555C87.2258 -16.0473 86.6862 -15.8383 86.1466 -15.6301C86.0602 -15.76 85.9743 -15.8903 85.8875 -16.0205ZM93.4754 -13.4987C93.5336 -11.9979 93.6989 -11.0664 93.5627 -10.2093C93.4531 -9.51836 92.9794 -8.91751 92.4911 -7.91528C91.6176 -8.27273 90.6488 -8.66972 89.613 -9.09364C89.1518 -11.6615 92.5618 -11.2686 93.4754 -13.4987ZM80.717 -16.1665C80.7275 -16.1998 81.203 -16.1362 81.2238 -16.0744C81.3746 -15.6377 81.4631 -15.19 81.5717 -14.7458C81.1914 -14.8286 80.8103 -14.9113 80.43 -14.9941C80.5183 -15.3881 80.593 -15.7869 80.717 -16.1665ZM83.3314 -11.9004C82.1622 -11.3647 81.0566 -10.8579 79.4022 -10.0992C80.556 -13.3592 80.8033 -13.4473 83.3314 -11.9004ZM87.6356 -5.56417C88.4061 -5.04285 89.0588 -4.60099 90.0339 -3.94143C88.4917 -3.39188 87.2845 -2.96183 85.9127 -2.47345C85.3416 -4.02344 86.3861 -4.66027 87.6356 -5.56417ZM72.245 -12.3462C73.6816 -11.1222 73.6816 -11.1222 71.9155 -9.59237C70.4625 -10.947 72.0774 -11.4088 72.245 -12.3462ZM74.2843 -8.27564C74.204 -9.30298 74.1409 -10.4682 76.2139 -10.2659C76.6126 -9.32391 76.9868 -8.43968 77.399 -7.46648C76.637 -7.09922 75.9596 -6.7734 75.0623 -6.34105C74.7519 -7.07665 74.3304 -7.68592 74.2843 -8.27564ZM69.4483 -9.81927C71.53 -7.50617 71.0807 -6.09363 67.3931 -3.5406C67.7729 -5.94186 67.8531 -8.10973 69.4483 -9.81927ZM72.1782 -3.04785C71.7953 -2.12794 71.4624 -1.32686 71.074 -0.394013C70.3761 -0.590066 69.7282 -0.77163 69.1488 -0.934081C68.9467 -2.0583 70.0227 -2.78438 72.1782 -3.04785ZM62.9412 -1.21601C63.7188 -0.524226 64.2676 0.145257 64.972 0.539359C65.7076 0.951074 66.5944 1.0976 67.4142 1.36022C67.0985 3.52538 67.0985 3.52537 64.6934 5.12326C64.1486 3.15182 63.5963 1.1549 62.9412 -1.21601ZM62.1484 8.38977C61.9742 8.07833 62.0368 7.46181 62.2818 7.2704C62.5211 7.0834 63.1165 7.26807 63.5561 7.28974C63.5514 7.70371 63.5467 8.11768 63.5398 8.75711C62.9285 8.61128 62.2672 8.60251 62.1484 8.38977ZM49.2479 14.0989C49.2029 12.7265 49.8535 11.5716 51.8615 10.5391C51.4404 12.6276 51.1411 14.1131 50.7706 15.9511C50.2023 15.2925 49.266 14.6535 49.2479 14.0989ZM44.669 23.3891C46.1304 25.3332 46.1303 25.3332 44.8184 26.4572C44.765 25.3621 44.7247 24.5336 44.669 23.3891ZM39.5702 38.7638C39.5701 38.763 39.5701 38.7615 39.5701 38.7607C40.1309 39.5049 41.7055 39.8819 40.7677 41.6741C40.2454 40.4045 39.9076 39.5847 39.5702 38.7638ZM33.818 48.5036C34.1322 47.6228 34.5196 46.7712 34.8741 45.9063C35.0352 46.005 35.1963 46.1038 35.3577 46.2022C35.5525 48.2522 35.7468 50.3027 35.9414 52.3457C33.0838 51.1063 32.9621 50.9038 33.818 48.5036ZM32.3045 51.2089C32.4889 52.2729 32.8776 53.0333 32.6404 53.4285C31.9504 54.5777 31.0097 55.5803 30.1666 56.6406C29.9671 56.5089 29.7672 56.3776 29.5678 56.2458C29.9662 54.4901 30.6737 52.8913 32.3045 51.2089ZM25.5641 52.5244C25.7503 51.9495 26.1948 51.4713 26.5315 50.9531C26.8124 51.0252 27.093 51.0969 27.3736 51.1686C27.3341 51.9214 27.3926 52.7079 27.1969 53.4069C27.1352 53.6262 26.3907 53.6115 25.9586 53.7043C25.8125 53.3048 25.4649 52.8304 25.5641 52.5244ZM20.7652 153.176C20.7664 153.174 20.7675 153.173 20.7686 153.171C21.0334 152.65 21.1879 152.028 21.6053 151.651C21.7742 151.498 22.1641 151.557 22.6085 151.782C22.5668 151.78 22.5264 151.778 22.4844 151.777C22.1904 152.128 21.878 152.478 21.5642 152.829C21.2981 152.944 21.0317 153.06 20.7652 153.176C20.9148 153.19 21.0658 153.204 21.2181 153.218C20.614 153.898 20.0256 154.587 19.5783 155.31C19.0337 156.19 18.4632 156.986 17.8501 157.719C18.8579 156.148 19.8123 154.661 20.7652 153.176ZM-3.55111 123.237C-3.25384 122.602 -3.77647 121.373 -2.24958 121.645C-2.26661 120.724 -3.67597 119.644 -2.22166 118.851C-1.51229 119.673 -0.816462 120.479 -0.0644592 121.35C-0.887138 121.478 -1.50842 121.575 -2.13007 121.672C-1.24855 122.874 -1.78914 123.653 -2.80443 124.168C-3.53754 124.54 -4.39858 124.728 -5.30686 125.033C-5.41685 124.688 -5.56307 124.429 -5.56597 124.185C-5.58439 122.837 -3.91563 124.016 -3.55111 123.237ZM-6.09877 120.851C-5.42692 120.684 -4.75469 120.517 -4.08362 120.35C-3.59463 121.425 -4.19273 121.696 -6.09877 120.851ZM0.150871 124.542C0.197598 123.948 0.307539 123.366 0.357465 123.012C1.67958 122.67 2.69599 122.406 3.70313 122.145C3.2552 125.269 3.2552 125.269 0.105672 126.475C0.119633 125.749 0.103847 125.14 0.150871 124.542ZM4.15222 120.942C3.41663 120.365 2.62925 119.748 1.55533 118.906C2.00155 118.384 2.45274 117.878 2.87789 117.352C3.14026 117.028 3.64755 116.635 3.55887 116.342C2.86242 114.039 4.47933 113.724 6.39675 113.342C7.23435 115.813 10.3681 118.145 7.23681 120.549C6.91401 120.175 6.67052 119.893 6.43102 119.615C5.72784 120.025 5.02082 120.436 4.15222 120.942ZM12.4268 124.608C13.9214 124.496 14.5818 123.632 15.2949 122.618C15.6177 122.159 16.6555 122.168 17.4477 122.161C16.4923 123.437 14.9925 124.23 15.378 126.077C14.2428 126.022 13.1116 125.967 11.3259 125.88C11.8866 125.204 12.0947 124.633 12.4268 124.608ZM13.6628 78.7335C13.6944 79.0134 13.0164 79.5639 12.7561 79.4917C12.127 79.3175 11.3963 78.9469 11.0114 78.4678C10.6999 78.0797 10.8326 77.4177 10.7227 76.4952C11.6917 76.8681 12.3623 76.9854 12.8196 77.3429C13.2413 77.6723 13.6104 78.2648 13.6628 78.7335ZM25.2816 142.948C25.7935 141.902 26.9611 141.243 27.7569 140.203C27.7341 140.137 27.7096 140.064 27.6872 139.997C27.78 140.083 27.8756 140.176 27.9624 140.252C26.3371 141.863 27.2067 143.433 29.006 144.918C26.7127 145.678 25.9273 145.367 25.4681 143.671C25.4027 143.431 25.3431 143.188 25.2816 142.948ZM19.1248 126.663C18.9168 126.622 18.7598 126.459 18.6385 126.165C18.4831 125.789 18.3357 125.404 18.2013 125.007C18.8245 124.458 19.5991 124.008 19.7153 123.209C20.9988 123.497 21.8646 123.691 22.8635 123.915C22.8635 123.953 22.8627 123.989 22.8624 124.027C22.6996 124.304 22.5418 124.573 22.3892 124.831C21.7678 125.011 21.2937 125.304 20.543 125.941C20.4162 126.049 20.2978 126.143 20.1857 126.227C19.8361 126.269 19.4842 126.44 19.1248 126.663ZM17.3554 129.562C17.5572 129.622 17.7528 129.679 17.9522 129.738C17.791 129.957 17.5853 130.169 17.3422 130.34C17.3423 130.093 17.3438 129.837 17.3554 129.562ZM26.6732 122.722C26.6803 122.694 26.6871 122.664 26.6938 122.635C26.8918 122.079 27.0923 121.516 27.3331 120.839C26.3123 120.427 26.5573 119.241 27.2127 117.854C27.543 117.761 27.8995 117.698 28.278 117.661C27.9026 118.872 28.1029 119.333 28.808 119.557C28.6444 120.357 28.3095 121.105 27.848 121.727C27.8068 121.69 27.7715 121.659 27.7287 121.62C27.3543 122.011 27.0134 122.367 26.6732 122.722C26.6625 122.768 26.6511 122.816 26.6404 122.862C26.5656 122.908 26.4879 122.947 26.4111 122.988C26.5009 122.882 26.5959 122.761 26.6985 122.614L26.6707 122.697C26.663 122.72 26.6564 122.74 26.6564 122.74C26.6618 122.734 26.6675 122.728 26.6732 122.722ZM27.0505 124.931C28.6859 126.042 28.1919 126.856 27.3358 127.961C25.4225 126.613 26.2128 125.883 27.0505 124.931ZM24.7821 123.337C24.8146 123.295 24.8403 123.259 24.877 123.214C24.967 123.258 25.0525 123.315 25.1391 123.368C25.0245 123.368 24.9053 123.357 24.7821 123.337ZM25.7705 118.507C25.8508 118.679 25.8573 118.947 25.7421 119.374C25.2329 119.584 24.7309 119.791 24.1747 120.021C24.6248 119.425 25.1496 118.911 25.7705 118.507ZM23.2454 121.592C23.2639 121.492 23.2894 121.399 23.3287 121.328C23.4574 121.097 23.5926 120.872 23.7324 120.653C23.5708 120.964 23.4092 121.276 23.2454 121.592ZM23.5217 122.824C23.4798 122.791 23.4423 122.745 23.4085 122.692C23.4822 122.702 23.5496 122.712 23.6299 122.724C23.6048 122.766 23.5819 122.805 23.5568 122.848C23.5457 122.839 23.5324 122.832 23.5217 122.824ZM30.9947 136.716C31.022 137.083 31.0455 137.399 31.0738 137.778C31.3229 137.792 31.5746 137.806 31.8298 137.821C31.7697 137.863 31.7113 137.91 31.6512 137.953C31.344 138.165 31.0119 138.405 30.7292 138.705C30.0844 139.39 29.4569 140.103 28.8281 140.807C28.5732 140.629 28.3055 140.431 28.011 140.2C28.0049 140.207 28 140.213 27.9935 140.218C27.8691 139.762 27.7429 139.298 27.6042 138.79C28.7914 138.064 29.8957 137.389 30.9947 136.716ZM33.7651 137.929C32.4491 140.746 31.6492 141.831 30.4287 141.6C30.873 141.173 31.2862 140.741 31.5851 140.274C32.2169 139.287 32.864 138.586 33.6025 137.919C33.6574 137.923 33.7087 137.926 33.7651 137.929ZM9.36819 113.038C8.5717 113.717 7.76756 113.332 7.15433 112.445C7.43814 111.436 8.2158 111.184 9.17882 111.638C9.42261 111.752 9.60596 112.836 9.36819 113.038ZM17.2241 131.92C17.2797 131.702 17.3043 131.47 17.3201 131.231C17.5562 131.112 17.768 131.005 17.9518 130.913C18.3135 131.323 18.5469 131.751 18.9248 131.98C19.4847 132.317 19.8386 132.073 20.4479 130.897C21.0649 132.702 18.9328 133.458 19.0936 135.118C18.0327 134.631 17.2811 134.286 16.2803 133.827C16.6332 133.141 17.0578 132.573 17.2241 131.92ZM28.2502 131.476C28.4698 131.479 28.672 131.483 28.8641 131.487C28.86 131.517 28.8568 131.545 28.8527 131.575C28.8711 131.545 28.8908 131.518 28.9096 131.488C31.4306 131.547 31.6914 131.763 33.1785 133.695C31.7532 133.795 30.4051 133.743 29.2534 132.718C29.484 132.271 29.2832 132.115 28.7847 131.772C28.7226 131.847 28.6611 131.92 28.599 131.994C28.4809 131.834 28.3635 131.665 28.2502 131.476ZM16.8569 71.1635C16.9413 70.1319 16.9789 68.9877 17.5072 68.1782C17.862 67.6339 19.0092 67.5809 19.8016 67.3082C19.9363 67.4639 20.071 67.6195 20.206 67.7748C19.5092 69.167 18.8119 70.5589 18.0081 72.1644C17.5016 71.74 16.8384 71.3885 16.8569 71.1635ZM7.4211 62.7288C10.5513 65.077 10.8634 65.6446 9.82417 67.3069C8.85482 66.5396 7.82835 65.8446 6.96251 65.0113C5.88637 63.9758 6.01918 63.1374 7.4211 62.7288ZM16.2143 72.4745C15.8891 74.0173 15.5673 75.5406 15.2463 77.0638C15.0194 77.0267 14.7928 76.99 14.5658 76.9529C14.5147 76.2009 14.464 75.4492 14.3913 74.3797C13.6674 74.8702 13.1502 75.2209 12.6155 75.5829C11.0205 73.1296 11.1629 72.6664 13.4928 72.3288C13.9247 72.2663 15.9174 72.3841 16.2143 72.4745ZM7.83009 68.1914C6.86672 68.8443 6.12321 69.348 5.36592 69.8613C4.06594 69.3152 5.24404 66.7328 2.55686 67.8079C3.86131 64.8656 3.90379 64.8713 7.83009 68.1914ZM6.48193 72.2666C6.47907 71.7168 6.18661 70.6917 6.5573 70.0371C6.87484 69.4769 7.95268 69.3414 9.03227 68.8706C9.1244 69.8141 9.32262 70.3761 9.19187 70.8208C8.94448 71.662 8.42841 72.4064 8.16619 73.244C7.55114 75.2077 6.13988 75.8516 2.88521 75.218C4.23178 74.1126 5.27169 73.2599 6.48193 72.2666ZM-0.9419 68.3147C-3.23179 67.2927 -3.23178 67.2927 -3.84291 64.5462C-0.437482 65.9398 -0.437486 65.9399 2.09615 70.1362C0.874755 71.4064 -0.350147 72.6762 -1.57466 73.9457C-1.75325 73.8994 -1.93225 73.8527 -2.11084 73.8064C-1.72208 71.9828 -1.33449 70.1589 -0.9419 68.3147ZM7.81363 79.457C6.95183 81.2581 5.75364 81.9243 3.74907 81.8483C4.65562 80.485 5.22454 79.0167 7.81363 79.457ZM-6.19195 73.0522C-5.11653 73.1663 -4.47695 73.2342 -3.56667 73.3309C-3.89 74.0194 -4.12195 74.5125 -4.54228 75.408C-5.18812 74.4856 -5.57738 73.9301 -6.19195 73.0522ZM-0.440588 80.0375C-0.992044 78.3701 1.03604 79.4706 1.39997 78.6642C2.09926 79.9581 1.9258 80.7674 0.633049 80.8484C0.323738 80.8679 -0.332134 80.3651 -0.440588 80.0375ZM5.07064 86.6626C2.86364 86.516 1.69682 87.0691 1.63603 89.127C1.6125 89.9323 0.251493 90.546 -0.747444 91.0447C-0.335213 88.7208 1.21663 87.1478 2.82547 85.6599C3.31704 85.2055 4.30001 85.1223 5.07064 86.6626ZM-5.17189 78.7578C-2.65791 80.2439 -2.62657 80.3097 -3.48737 82.3028C-4.13079 80.9498 -4.53454 80.0996 -5.17189 78.7578ZM-2.19938 84.2998C-1.42009 85.5555 -0.502482 86.411 -0.547956 87.0994C-0.626465 88.2949 -1.89279 88.6128 -3.17573 88.8431C-4.05168 87.1578 -3.39061 86.0524 -2.19938 84.2998ZM-11.3333 80.2512C-10.5454 80.8394 -9.94584 81.2867 -9.21795 81.8303C-9.60516 82.0232 -9.87628 82.2832 -10.0443 82.2211C-10.8192 81.9323 -11.6818 81.6309 -11.3333 80.2512ZM1.62057 97.8293C1.4517 98.0191 1.28324 98.2084 1.11397 98.3978C0.257877 97.8919 -0.598601 97.3865 -1.4547 96.8806C-0.0813074 96.555 1.19984 96.332 1.62057 97.8293ZM-10.2771 89.5593C-10.2438 89.519 -9.59166 89.7747 -9.54271 89.9372C-9.28111 90.8095 -9.56139 91.3674 -11.4825 91.3394C-10.9017 90.4471 -10.6241 89.9771 -10.2771 89.5593ZM-15.5984 93.6793C-13.6705 93.786 -13.1361 92.9876 -12.928 91.494C-11.6821 92.0918 -10.6101 92.6059 -9.504 93.1367C-10.1446 96.2477 -12.6545 97.6675 -15.5147 98.7389C-16.6691 97.7692 -17.6098 96.9791 -18.5691 96.1735C-18.3467 94.5093 -16.9792 93.6028 -15.5984 93.6793ZM-8.72682 109.642C-8.71479 110.004 -8.68292 110.367 -8.64561 110.965C-7.75621 110.922 -7.01587 110.886 -6.22119 110.848C-7.0514 109.193 -6.77274 108.65 -5.21324 108.341C-4.23576 108.146 -3.29045 107.866 -2.06361 107.557C-2.76128 106.483 -3.18368 105.831 -3.66111 105.097C-4.84408 105.404 -5.88909 105.675 -6.93333 105.946C-7.10379 105.772 -7.27386 105.597 -7.44433 105.423C-7.13021 104.866 -6.78065 103.788 -6.50836 103.836C-4.24511 104.232 -3.71479 102.558 -2.59535 101.572C-2.1266 101.159 -1.49999 100.894 -0.96242 100.573C0.309142 101.66 -0.304901 102.401 -0.944126 103.093C-2.7539 105.051 -2.76535 105.042 -0.203092 106.913C-0.229931 108.017 -0.256317 109.125 -0.282826 110.227C-1.63234 111.484 -3.07786 112.795 -4.47745 114.146C-5.80203 115.425 -7.2701 116.446 -9.55419 116.329C-9.66882 117.344 -9.7785 118.319 -9.88857 119.293C-10.0963 119.283 -10.3033 119.272 -10.511 119.262C-10.7792 117.668 -11.0473 116.075 -11.3145 114.485C-10.6091 114.238 -10.0853 114.054 -9.62511 113.892C-9.30336 113.111 -10.2558 112.569 -12.1875 112.415C-12.3557 111.6 -12.4609 110.973 -12.6258 110.351C-12.6972 110.082 -12.965 109.829 -13.0197 109.562C-13.3731 107.833 -12.4541 106.343 -11.1321 106.448C-9.61153 106.57 -8.79266 107.659 -8.72682 109.642ZM-25.2568 106.47C-22.1676 104.768 -18.9827 103.198 -15.8351 101.576C-15.6579 101.756 -15.4807 101.937 -15.3035 102.117C-15.8731 104.3 -18.1727 105.215 -19.4698 106.867C-20.8305 108.6 -23.8354 107.547 -25.2224 109.322C-26.462 108.002 -26.2611 107.022 -25.2568 106.47ZM-16.5951 110.281C-15.9024 111.084 -15.5087 111.54 -14.9301 112.21C-16.5678 112.262 -16.6042 111.561 -16.5951 110.281ZM-20.8299 116.206C-20.4575 115.758 -20.0798 115.303 -19.5869 114.71C-18.4287 115.728 -17.4952 116.549 -16.2455 117.648C-16.6559 118.066 -17.0341 118.892 -17.5737 118.921C-19.3671 119.016 -19.8949 117.49 -20.8299 116.206ZM-12.0171 120.452C-13.3848 121.928 -15.3158 120.333 -17.2979 121.197C-16.7514 120.241 -16.6495 119.74 -16.3122 119.523C-14.0811 118.091 -13.9858 115.829 -14.1152 113.455C-14.1305 113.179 -14.0597 112.895 -13.9585 112.646C-13.9017 112.505 -13.7017 112.426 -13.3959 112.185C-12.4522 113.679 -13.5579 114.926 -13.2494 116.229C-12.9174 117.63 -12.4415 119.018 -12.0171 120.452ZM0.664695 127.191C1.7189 129.196 0.976066 130.294 -1.42898 130.607C-2.69301 128.023 0.149535 128.538 0.664695 127.191ZM4.37569 136.617C4.44995 136.528 4.52423 136.44 4.59887 136.351C4.52143 136.273 4.44398 136.195 4.36654 136.118C4.23839 136.285 4.11021 136.452 3.98205 136.619C3.51116 136.606 3.02831 136.561 2.62393 136.642C1.51507 134.57 1.64097 134.061 3.63855 132.977C4.39654 133.566 5.19719 134.187 5.94766 134.769C5.92795 136.296 5.21519 136.585 4.37569 136.617ZM11.7343 132.149C11.2648 130.331 11.2648 130.331 13.8038 128.185C13.9052 128.691 13.9671 129.112 14.0088 129.496C13.4404 130.412 13.2669 131.036 13.3267 131.667C13.4701 131.558 13.6032 131.458 13.7297 131.361C13.3871 131.819 12.7618 132.036 11.7343 132.149ZM19.5235 141.973C18.5312 139.956 18.8221 138.425 19.9265 136.754C20.8027 135.428 21.0498 133.703 21.5496 132.146C21.7048 131.664 21.8585 131.183 22.07 130.75C22.7849 130.216 23.4942 129.804 24.2074 129.303C24.4356 129.287 24.6768 129.281 24.9533 129.306C25.812 130.297 25.9003 130.953 25.6514 131.473C25.0474 131.721 24.4939 131.952 23.9632 132.122C22.72 132.522 22.6442 132.591 21.8698 134.536C22.485 134.157 23.1083 133.772 23.8083 133.34C23.6609 133.534 23.5449 133.745 23.4898 133.986C23.6055 134.071 23.7411 134.158 23.8853 134.25C23.768 134.688 23.6431 135.154 23.478 135.772C23.7575 135.323 24.0374 134.911 24.3093 134.523C24.6459 134.746 24.986 135.001 25.231 135.314C25.2953 135.396 25.3579 135.489 25.4194 135.585C24.9979 136.407 24.6414 137.2 24.3331 137.971C24.2082 137.999 24.0809 138.028 23.9653 138.053C23.8017 138.089 23.2398 137.513 23.1193 137.17C22.7072 135.999 22.0412 136.835 21.4933 136.75C21.4896 136.777 21.4844 136.805 21.4807 136.833C20.9747 136.814 20.4714 136.795 19.9448 136.775C19.0683 138.398 19.5037 139.256 20.0241 140C20.2546 140.331 20.6427 140.413 21.1534 140.017C21.1643 140.507 21.201 140.969 21.454 141.475C20.9274 141.982 20.4031 142.486 19.8883 142.982C19.8164 142.673 19.7067 142.344 19.5235 141.973ZM17.5985 145.954C17.5557 146.15 17.5137 146.345 17.4709 146.543C17.759 146.439 18.169 146.424 18.3343 146.211C18.6357 145.822 18.9272 145.427 19.2231 145.033C19.5281 144.781 19.7394 144.504 19.8571 144.194C20.452 143.393 21.0446 142.59 21.6371 141.788C21.7692 141.986 21.9298 142.191 22.1479 142.41C22.6289 142.894 22.8765 143.568 23.037 144.295C23.0391 144.392 23.0327 144.492 23.0371 144.588C23.0556 144.578 23.0728 144.568 23.0913 144.557C23.2509 145.386 23.3217 146.261 23.5103 146.99C22.235 147.667 21.3493 148.137 20.1647 148.766C20.082 147.827 20.0091 147.003 19.9306 146.117C16.5514 146.18 17.1069 150.137 14.308 150.695C14.3748 148.938 15.8666 146.83 17.5985 145.954ZM10.8454 153.035C10.9434 153.291 10.9351 153.664 10.9164 154.061C10.8114 154.149 10.7038 154.239 10.5889 154.336C10.577 153.748 10.6826 153.344 10.8454 153.035ZM0.818812 157.644C1.79217 157.203 3.09691 156.612 4.58369 155.937C4.46356 154.033 4.79427 152.203 7.08912 151.426C7.41359 151.316 7.69173 150.713 7.6367 150.34C7.36732 148.507 8.16708 147.6 9.44209 147.09C8.82182 147.94 8.29262 148.832 8.35773 149.838C9.37572 148.761 9.80454 147.79 10.1409 146.859C10.4852 146.766 10.8437 146.684 11.2251 146.621C11.3556 146.599 11.4857 146.579 11.612 146.559C11.5394 146.687 11.466 146.817 11.3933 146.944C11.4991 146.967 11.6045 146.988 11.7103 147.011C11.8437 146.835 11.9771 146.658 12.1105 146.482C12.3135 146.452 12.4824 146.427 12.5692 146.414C12.4981 146.722 12.4202 147.059 12.3356 147.427C11.9925 147.9 11.6786 148.415 11.3565 148.887C10.8329 149.026 10.3646 149.407 10.1996 150.046C9.65989 149.562 11.4999 147.851 10.3898 147.7C9.49336 149.299 9.29084 150.438 9.44482 151.456C9.5105 151.891 9.26198 152.663 9.60623 152.787C9.27402 153.333 9.0372 153.887 9.6249 154.654C8.02799 155.502 6.99759 156.816 6.16934 158.297C3.72049 158.127 3.55922 160.157 2.56583 161.385C2.05138 160.284 1.53079 159.168 0.818812 157.644ZM-0.198989 159.256C-0.0103927 159.406 0.178202 159.557 0.366413 159.708C-0.071259 160.755 -0.509306 161.802 -1.03088 163.051C-2.2019 162.302 -3.20702 161.66 -4.31816 160.951C-3.57911 159.369 -1.64175 159.736 -0.198989 159.256ZM3.75121 169.018C3.50212 168.457 3.01614 167.85 3.06206 167.345C3.12244 166.682 3.60117 166.099 4.01049 165.253C5.74664 166.222 5.71584 167.395 5.24499 168.49C5.09989 168.827 4.26838 168.851 3.75121 169.018ZM9.18035 169.387C8.67447 168.721 8.1474 168.027 7.2696 166.872C9.12941 167.646 10.4273 168.186 12.3048 168.966C10.7972 169.868 9.67953 170.537 8.56143 171.205C8.42692 171.076 8.29241 170.948 8.1579 170.819C8.4835 170.364 8.80873 169.907 9.18035 169.387ZM19.2596 165.313C19.6897 166.122 20.1222 166.935 20.6256 167.884C20.6172 167.892 20.4172 168.08 20.2362 168.282C17.9599 170.829 17.9651 170.838 14.1229 172.327C12.6198 172.909 11.092 173.448 9.57552 174.006C9.45139 173.835 9.32728 173.665 9.20275 173.494C12.5532 170.766 15.9037 168.039 19.2596 165.313ZM14.5479 165.451C15.2398 165.551 16.0081 165.766 16.6797 165.715C16.2107 166.48 15.7413 167.246 15.2209 168.095C14.1838 167.593 13.3914 167.21 12.5702 166.812C12.7419 165.448 13.5163 165.317 14.4492 165.437C14.4589 165.453 14.4629 165.473 14.4745 165.488C14.4983 165.476 14.5233 165.463 14.5479 165.451ZM14.3783 161.911C14.3333 161.898 14.295 161.886 14.2492 161.873C13.2039 163.76 11.9205 165.528 8.89883 165.448C10.2423 164.197 11.5857 162.947 13.1529 161.489C12.363 160.737 11.6136 160.025 10.8698 159.318C8.82486 161.038 10.2532 164.778 6.54154 164.998C5.80734 164.395 5.07865 163.796 4.3029 163.159C3.68522 163.532 3.06218 163.908 2.43876 164.285C3.00825 163.423 1.03919 162.139 2.51377 161.549C2.5748 161.803 2.64157 162.09 2.79792 162.766C3.68174 161.937 4.35525 161.269 5.07279 160.641C6.14318 159.705 7.09294 158.11 8.3642 158.024C10.9498 157.848 12.231 156.265 13.9667 155.151C15.1072 154.419 15.1455 153.435 13.9318 152.451C15.4824 151.076 16.7124 149.537 19.3704 151.145C19.1321 151.956 18.9471 152.804 18.7075 153.628C18.1798 153.596 17.6961 153.566 17.1902 153.535C15.9857 155.34 14.2888 157.014 14.1107 158.963C14.0816 159.056 14.0535 159.145 14.0194 159.256C14.0406 159.248 14.0583 159.24 14.0787 159.232C14.0788 159.236 14.0773 159.239 14.0774 159.243C14.0905 159.235 14.1023 159.225 14.1149 159.217C14.6581 158.993 15.0707 158.824 15.4698 158.66C15.351 158.575 15.2484 158.502 15.1541 158.439C16.173 157.582 17.0896 156.525 18.0158 155.389C17.3842 156.561 16.4288 157.568 15.6082 158.644C15.9826 158.782 16.3465 158.916 16.6231 159.018C16.4578 159.176 16.2989 159.34 16.1261 159.49C15.286 160.22 14.6633 160.957 14.3783 161.911ZM30.2835 159.657C29.925 159.756 29.5657 159.854 29.2775 159.934C28.0244 158.638 26.7622 157.334 25.4041 155.93C25.8458 155.631 26.2886 155.331 26.7445 155.022C28.4471 156.221 29.8881 157.635 30.2835 159.657ZM27.0229 152.129C26.8923 152.132 26.7295 152.096 26.5733 152.042C26.8185 151.914 27.059 151.751 27.2954 151.555C27.2009 151.86 27.1336 152.127 27.0229 152.129ZM44.2761 152.514C42.3004 152.553 41.62 154.025 40.4308 155.708C39.4064 151.94 42.619 152.206 44.506 151.112C44.4325 151.601 44.4287 152.511 44.2761 152.514ZM56.2004 148.18C57.1893 147.993 57.9871 148.081 58.7889 148.632C58.7001 149.075 58.4751 149.526 58.1605 150.007C57.6938 150.082 57.2419 150.155 56.7384 150.237C56.5395 149.477 56.3845 148.884 56.2004 148.18ZM64.3743 155.106C61.8382 153.315 60.7595 155.804 58.6341 155.89C58.5797 155.166 58.5303 154.513 58.4844 153.896C58.6151 153.738 58.738 153.577 58.855 153.414C62.3807 152.009 62.7757 152.179 64.3743 155.106ZM63.2995 149.749C64.1835 148.655 65.4562 148.856 66.8011 149.087C65.882 151.294 65.5608 151.357 63.2995 149.749ZM73.2325 146.464C71.7468 147.985 69.411 145.531 68.0876 147.098C67.3457 145.125 67.8947 144.322 69.5352 144.565C70.0974 144.647 70.6571 144.778 71.2172 144.892C71.8436 145.381 72.4712 145.87 73.2325 146.464ZM74.5415 138.588C73.436 138.213 72.6358 137.941 71.8877 137.687C71.8748 135.728 73.1384 135.917 74.4631 136.202C74.485 136.878 74.5079 137.567 74.5415 138.588ZM80.9861 135.061C79.637 137.354 77.2268 137.787 74.6335 136.21C75.7274 136.188 76.8351 136.197 78.1299 136.21C79.028 135.43 78.278 134.833 77.2771 134.155C76.4163 133.572 74.955 133.333 75.2868 131.555C77.063 133.139 79.7332 132.816 80.9861 135.061ZM83.2832 129.914C82.6708 128.938 82.262 128.286 81.8214 127.584C82.5641 127.081 83.2264 126.632 83.9408 126.148C85.501 127.809 84.276 128.622 83.2832 129.914ZM173.104 36.0812C172.731 36.294 172.183 36.5719 171.819 36.4425C171.024 36.16 170.298 35.6404 168.97 34.8956C170.309 34.7612 171.166 34.5885 172.042 34.6272C172.427 34.6438 172.901 35.0471 173.233 35.3641C173.351 35.477 173.27 35.9863 173.104 36.0812ZM160.976 21.6946C160.888 21.7789 160.797 21.8586 160.708 21.9413C160.858 21.6043 160.99 21.2528 161.078 20.8662C161.511 20.8033 161.922 20.5916 162.321 20.2822C161.89 20.7691 161.443 21.2424 160.976 21.6946ZM177.423 24.5297C178.656 22.102 178.656 22.102 181.027 23.3791C180.291 24.5432 179.369 25.172 177.423 24.5297ZM183.961 18.5552C184.582 17.8905 184.83 17.0167 186.228 17.3162C186.279 18.7826 185.686 19.2367 183.961 18.5552ZM202.638 10.5972C202.809 10.6969 202.806 11.0848 203.176 12.2866C202.011 11.6288 201.275 11.2121 200.929 11.0166C199.603 11.9159 198.527 12.5138 197.634 13.2869C196.78 14.0264 195.7 14.7289 196.612 16.3023C196.773 16.5798 195.938 17.2522 195.517 17.761C195.418 17.6356 195.305 17.5137 195.255 17.3783C195.191 17.2084 195.207 17.0226 195.177 16.7283C193.646 16.3955 193.202 17.4702 192.427 18.2038C191.555 19.0293 190.672 20.2525 188.731 18.7047C189.147 18.299 189.47 17.7123 190.008 17.5052C192.079 16.7089 192.683 14.2565 195.17 13.9238C195.28 13.909 195.05 13.059 195.155 12.6564C195.651 10.7497 200.576 9.39354 202.638 10.5972ZM195.501 7.74465C194.028 9.09601 192.48 10.3864 191.114 11.826C190.463 12.5119 190.049 13.4386 189.725 14.3359C189.383 15.2775 189.257 16.2957 187.48 16.1122C188.03 13.0568 189.004 10.3315 191.535 8.58557C192.513 7.91096 194.157 7.99965 195.501 7.74465ZM186.206 -3.17437C184.84 -2.3138 183.777 -1.35252 182.158 -0.774116C180.634 -0.229243 179.441 1.14328 178.438 2.3944C176.232 5.14335 173.998 7.84983 171.191 10.0983C171.045 10.2149 170.776 10.3284 170.783 10.4596C170.932 13.2296 168.281 13.6991 166.589 14.9693C166.843 14.6359 167.098 14.3016 167.349 13.9694C167.353 13.3432 167.356 12.7524 167.359 12.3098C167.016 12.3101 166.739 12.3106 166.463 12.3111C166.515 12.1829 166.568 12.0547 166.62 11.9265C167.056 11.6677 167.493 11.4088 168 11.1076C168.132 11.5156 168.261 11.9127 168.444 12.4804C169.725 10.5009 168.863 9.82998 169.474 8.2659C170.098 7.92335 170.837 7.5177 171.716 7.03562C171.769 6.74691 171.819 6.46798 171.87 6.18787C172.148 6.16053 172.466 6.1137 172.843 6.04927C172.557 5.80202 172.288 5.56955 172.024 5.34049C172.064 5.11734 172.104 4.9004 172.146 4.66515C172.665 4.13717 173.215 3.41655 173.727 3.08692C174.961 2.29135 175.821 1.28739 176.45 -0.0423625C176.879 -0.147161 177.274 -0.243847 177.629 -0.33072C177.694 -2.34324 179.331 -3.40818 180.582 -4.70461C181.132 -5.00942 181.688 -5.33928 182.238 -5.75563C183.537 -6.73831 184.789 -7.90303 186.027 -9.12575C185.823 -8.43856 185.779 -7.66039 185.319 -7.1974C183.806 -5.67225 185.061 -4.57488 186.206 -3.17437ZM188.681 -3.80765C188.153 -4.0132 187.626 -4.21837 187.099 -4.42353C187.17 -4.61354 187.241 -4.8039 187.312 -4.99391C187.834 -4.77346 188.355 -4.55309 188.877 -4.33304C188.812 -4.15792 188.746 -3.98279 188.681 -3.80765ZM193.574 -10.3936C193.141 -10.3816 192.709 -10.3696 192.276 -10.3576C192.222 -10.569 192.168 -10.7808 192.114 -10.9922C192.528 -11.0361 192.939 -11.1036 193.358 -11.0908C193.406 -11.0899 193.501 -10.6369 193.574 -10.3936ZM189.922 -10.6744C189.675 -9.537 190.044 -8.26598 188.146 -7.77369C188.059 -8.74998 187.984 -9.58585 187.901 -10.5199C187.692 -10.5131 187.514 -10.4851 187.349 -10.449C187.625 -10.7292 187.9 -11.0087 188.175 -11.2902C189.231 -12.3722 190.35 -13.3227 191.447 -14.2987C191.615 -14.4484 191.787 -14.5947 191.958 -14.7399C191.953 -14.6201 191.938 -14.5105 191.902 -14.4293C191.321 -13.1348 190.217 -12.0308 189.922 -10.6744ZM194.76 -18.7953C194.768 -18.8056 194.776 -18.817 194.784 -18.8273C195.213 -19.416 195.649 -20.0008 196.077 -20.5902C196.403 -20.2653 196.758 -19.8719 197.16 -19.394C196.303 -19.1898 195.521 -18.814 194.76 -18.7953ZM200.843 -26.4852C200.961 -26.7897 201.078 -27.0903 201.193 -27.385C201.81 -27.9077 202.436 -28.4391 203.179 -29.0687C202.607 -27.1572 202.521 -26.8857 200.843 -26.4852ZM214.862 -18.1348C215.259 -18.9769 215.574 -19.6451 215.989 -20.5268C216.871 -20.1831 217.668 -19.873 218.413 -19.5832C218.178 -17.1722 216.02 -18.8984 214.862 -18.1348ZM213.067 -39.8418C213.094 -40.0927 213.12 -40.3248 213.144 -40.5488C213.228 -40.5972 213.313 -40.6469 213.406 -40.7002C213.671 -40.8531 213.867 -40.9957 214.012 -41.1345C214.167 -40.6885 213.875 -40.4623 213.067 -39.8418ZM215.037 -43.8165C215.207 -43.8155 215.379 -43.8188 215.573 -43.896C215.889 -44.0221 216.345 -44.2472 216.586 -44.5559C216.631 -44.6148 216.664 -44.664 216.7 -44.7153C216.928 -44.5364 217.155 -44.3574 217.383 -44.1777C216.618 -43.1968 215.826 -43.4611 215.037 -43.8165ZM218.45 -45.4951C218.415 -46.375 218.193 -47.0476 217.788 -47.5775C218.094 -47.8907 218.412 -48.2146 218.739 -48.5461C218.81 -48.1967 218.906 -47.8953 219.08 -47.6328C219.444 -47.0826 220.39 -46.8098 221.486 -46.18C220.396 -45.934 219.54 -45.7408 218.45 -45.4951ZM224.141 -49.0487C223.735 -48.7007 223.256 -48.4246 222.509 -47.9185C222.546 -49.4077 222.984 -50.002 224.428 -49.8892C224.298 -49.4838 224.302 -49.1866 224.141 -49.0487ZM228.262 -54.3437C227.946 -53.8504 227.617 -53.3362 227.273 -52.7995C225.832 -52.8918 224.398 -52.9839 222.916 -53.0788C223.63 -53.8593 224.219 -54.7374 224.384 -55.9122C224.11 -56.0968 223.777 -56.0072 223.366 -55.719C223.417 -55.834 223.473 -55.9444 223.51 -56.0765C223.67 -56.6318 224.062 -56.9115 224.546 -56.9786C224.799 -56.874 225.072 -56.8173 225.414 -56.8907C225.86 -56.751 226.32 -56.4877 226.733 -56.0975C227.252 -55.6061 227.672 -55.0275 228.262 -54.3437ZM226.238 -57.9398C226.35 -58.651 226.448 -59.2691 226.551 -59.9199C227.643 -60.1333 227.922 -59.7573 229.066 -58.1267C228.515 -57.6023 227.96 -57.084 227.163 -56.3398C226.825 -56.926 226.524 -57.4465 226.238 -57.9398ZM229.867 -54.3755C230.179 -55.3813 230.356 -55.9505 230.529 -56.5088C230.955 -56.099 231.395 -55.6805 232.064 -55.0451C231.32 -54.8178 230.817 -54.6647 229.867 -54.3755ZM230.272 -58.9897C230.725 -58.1747 232.625 -57.3115 230.539 -56.582C230.433 -57.3516 230.266 -58.0786 229.182 -58.1587C229.544 -58.4358 229.907 -58.7129 230.272 -58.9897ZM230.666 -65.921C230.226 -65.6722 229.869 -65.3715 229.601 -65.0078C229.321 -65.4996 229.047 -65.9814 228.756 -66.4944C229.436 -66.2684 230.073 -66.0431 230.666 -65.921ZM228.691 -88.5304C227.757 -87.418 227.552 -85.7534 226.557 -84.5938C226.152 -84.3185 225.743 -83.9973 225.336 -83.6835C224.998 -83.5325 224.611 -83.4138 224.151 -83.3433C224.383 -83.9806 224.454 -84.4873 224.724 -84.8603C225.457 -85.8725 226.939 -86.5027 225.886 -88.3234C225.72 -88.6108 226.993 -89.4686 227.839 -90.2951C228.269 -89.4385 228.843 -88.7117 228.691 -88.5304ZM230.227 -94.6246C228.677 -96.5178 228.677 -96.5178 229.224 -98.5783C230.875 -96.6337 230.875 -96.6337 230.227 -94.6246ZM207.342 -122.162C207.192 -121.494 207.159 -120.779 206.906 -120.162C206.192 -118.42 205.388 -116.717 204.536 -114.814C202.721 -116.72 201.135 -118.386 199.355 -120.255C198.045 -120.112 196.542 -119.948 195.022 -119.782C194.124 -121.708 194.304 -123.361 195.281 -124.725C195.815 -125.472 196.812 -126.01 197.757 -126.358C198.687 -126.702 199.815 -126.689 201.213 -126.881C200.652 -126.273 200.211 -125.794 199.319 -124.825C200.881 -124.773 201.798 -124.743 203.08 -124.702C202.011 -123.464 201.062 -122.365 200.117 -121.271C201.204 -120.404 202.289 -119.539 203.378 -118.669C204.571 -119.913 203.947 -121.266 202.798 -122.634C203.514 -123.119 204.127 -123.535 204.715 -123.933C205.616 -123.339 206.493 -122.762 207.369 -122.184C207.36 -122.178 207.35 -122.17 207.342 -122.162ZM246.594 -98.1631C246.478 -99.0494 246.977 -99.301 248.276 -98.805C247.985 -98.2594 247.782 -97.8804 247.46 -97.2762C247.056 -97.6752 246.627 -97.9205 246.594 -98.1631ZM211.433 -128.341C210.974 -127.976 210.413 -127.383 210.468 -126.879C210.732 -124.494 208.887 -123.524 207.456 -122.263C207.812 -123.616 209.422 -124.683 207.943 -126.493C207.786 -126.686 208.311 -127.469 208.699 -127.804C209.154 -128.197 209.808 -128.401 210.384 -128.692C209.338 -130.031 207.538 -130.835 207.769 -132.59C209.491 -133.408 209.735 -131.287 210.871 -131.14C212.013 -130.992 213.156 -130.951 215.017 -130.807C213.545 -129.809 212.43 -129.135 211.433 -128.341ZM230.103 -123.15C229.715 -123.26 229.253 -123.284 228.962 -123.507C228.724 -123.69 228.693 -124.11 228.417 -124.814C229.265 -124.481 229.78 -124.391 230.097 -124.111C230.271 -123.956 230.112 -123.481 230.103 -123.15Z" fill="#FFC107"/>
</svg>
