<svg width="652" height="440" viewBox="0 0 652 440" fill="none" xmlns="http://www.w3.org/2000/svg">
<path d="M577.533 -68.9287C574.966 -63.4967 572.702 -63.2013 567.733 -67.6107C566.93 -68.3224 565.923 -69.2531 565.007 -69.3656C561.104 -69.8437 560.739 -72.4961 560.45 -75.3455C555.891 -71.6359 555.102 -71.7902 552.47 -76.819C551.913 -77.8833 551.958 -79.1399 551.522 -80.265C550.862 -81.9653 549.773 -83.2641 547.204 -82.8201C547.344 -80.1737 546.712 -77.8224 543.145 -77.6728C539.452 -79.5183 535.741 -81.3751 532.838 -82.8263C530.043 -86.0656 527.672 -88.812 525.103 -91.7894C522.618 -91.0539 520.258 -90.3551 518.066 -89.7064C517.381 -90.8934 516.685 -92.0968 515.503 -94.145C509.292 -87.9517 501.157 -85.84 493.219 -83.8439C491.434 -80.6143 489.729 -77.5328 487.76 -73.9743C489.616 -74.8294 490.854 -75.3995 492.557 -76.184C492.621 -73.944 492.092 -72.0536 492.829 -70.5652C494.883 -66.4223 494.062 -63.5118 490.12 -61.638C492.745 -57.6687 494.055 -54.1698 490.037 -51.3261C487.626 -55.7464 487.624 -55.7289 481.955 -56.9553C481.34 -57.0884 480.649 -57.4591 480.193 -57.8931C477.616 -60.3485 475.728 -59.0946 473.968 -57.6491C471.024 -55.2324 468.171 -52.7246 465.339 -50.3053C465.72 -48.3081 465.848 -46.2889 466.53 -44.3738C467.584 -41.4162 466.178 -40.2658 463.489 -39.9239C460.743 -39.5741 458.925 -38.4058 457.841 -36.0547C457.493 -35.2985 455.873 -35.1532 454.059 -34.4112C454.691 -36.529 454.992 -37.5377 455.357 -38.7572C449.426 -38.4289 451.652 -34.7752 452.491 -31.8238C450.647 -31.2814 449.169 -30.8475 447.608 -30.3885C447.323 -31.6747 447.13 -32.5531 446.81 -34.0072C444.576 -31.5725 442.81 -29.6473 440.263 -26.8718C442.782 -27.3031 443.956 -27.5037 444.773 -27.6434C445.423 -25.1915 446.683 -22.6872 446.526 -20.4342C446.346 -17.8474 444.907 -15.4829 443.852 -12.5707C440.712 -12.8009 437.303 -13.0502 433.766 -13.3092C435.893 -10.5309 437.815 -8.02323 439.684 -5.58094C435.366 -2.39596 435.377 -2.39133 433.989 3.8074C433.864 4.36188 433.504 4.87413 433.143 5.32734C430.184 9.04578 427.199 12.7457 423.96 16.7777C424.972 18.3915 426.185 20.3284 427.847 22.9796C425.323 22.8409 423.106 22.7206 421.449 22.6298C417.92 24.3701 419.34 28.8465 415.37 30.5106C410.943 32.3649 407.872 30.6582 404.727 27.6831C400.46 28.4478 396.382 29.1801 392.35 29.9023C393.472 33.815 394.393 37.0313 395.432 40.6582C396.647 39.6316 397.752 38.6996 398.702 37.8955C397.669 36.5406 396.942 35.5888 395.581 33.8054C399.497 33.8893 402.511 34.0965 405.464 33.9766C408.486 33.8537 411.415 33.1168 414.445 33.1882C417.456 33.2599 419.669 29.9987 423.46 32.3691C420.557 36.6074 415.26 36.6054 410.957 37.9767C408.053 38.9025 406.794 39.9143 407.761 41.9047C411.634 42.8671 414.684 43.6253 417.737 44.3834C417.769 44.3769 417.8 44.3696 417.833 44.3631C417.833 44.3622 417.835 44.3606 417.835 44.3589C417.835 44.3606 417.834 44.3613 417.833 44.3631C420.251 43.8516 422.67 43.341 425.141 42.8184C426.369 46.128 422.118 45.8635 421.214 48.3752C422.84 48.9371 424.438 49.4887 426.323 50.1405C418.561 53.7584 415.019 57.3855 411.153 65.4432C410.9 65.9689 410.703 66.5955 410.256 66.9401C406.938 69.4952 403.562 71.9894 399.865 74.7579C398.514 73.1913 397.31 71.7976 396.006 70.2865C398.019 68.4441 399.922 66.8774 401.6 65.1253C404.099 62.5187 406.769 60.0713 406.717 55.8914C406.7 54.6177 408.343 53.0251 409.74 52.4973C413.063 51.2427 414.78 48.7467 416.511 46.2297C413.763 48.3987 408.895 45.2645 405.506 46.8896C407.226 50.2675 407.242 53.16 403.782 55.0061C403.041 55.4017 402.82 56.5451 402.411 57.3708C400.357 61.5095 399.039 61.6308 394.157 58.1204C394.416 55.5236 394.677 52.9193 394.936 50.315C394.205 49.6002 393.474 48.8853 392.744 48.1697C394.559 56.133 387.549 51.0427 386.023 53.7921C387.207 55.7239 388.234 57.3972 389.15 58.8918C386.853 60.2707 385.032 61.3644 382.881 62.6571C381.676 59.9995 379.466 58.2626 376.001 57.7344C378.039 59.8315 380.076 61.9294 382.135 64.0485C380.538 66.8809 379.326 69.332 377.826 71.6038C376.341 73.8555 374.567 75.9263 372.974 78.0074C373.29 79.6328 373.61 81.2855 373.931 82.9383C373.512 83.0678 373.093 83.1972 372.675 83.3267C372.225 82.8061 371.594 81.7917 371.355 81.8392C368.17 82.4768 364.96 83.1124 361.953 84.1267C361.263 84.3593 361.315 86.0261 361.025 87.0321C361.387 87.1856 361.75 87.3382 362.112 87.4916C363.694 86.4197 365.276 85.3477 367.246 84.0132C364.488 92.791 352.157 103.168 343.93 103.955C342.768 99.9153 345.815 98.3308 348.354 96.5128C350.431 95.0255 352.865 93.8149 352.374 89.8878C345.999 90.3187 342.887 94.328 339.45 97.1193C336.769 96.964 334.387 96.6329 332.109 96.7798C331.054 96.8481 329.61 97.6287 329.349 98.4587C327.288 104.993 321.199 108.887 318.16 114.797C316.394 118.232 312.925 120.007 307.879 119.365C309.037 122.241 310.134 125.008 305.911 125.987C304.806 126.243 304.127 127.931 303.578 129.12C302.03 132.463 300.651 135.888 299.019 139.715C297.101 137.492 295.586 135.736 293.944 133.834C289.745 135.933 291.887 140.758 289.04 143.403C290.793 144.099 291.945 144.554 293.156 145.035C292.673 145.501 279.717 153.416 279.328 153.534C279.021 151.407 278.705 149.22 278.39 147.033C277.809 146.963 277.228 146.895 276.648 146.826C277.303 150.417 274.896 153.112 275.56 156.823C275.847 158.433 275.275 160.493 274.217 161.64C271.422 164.667 268.149 167.307 264.823 170.322C265.087 166.331 267.22 163.676 270.626 161.56C268.936 159.812 267.453 158.279 265.844 156.616C267.532 154.515 269.047 152.626 270.564 150.738C270.339 150.332 270.113 149.927 269.889 149.522C267.791 149.655 265.694 149.788 263.43 149.931C262.247 148.928 260.925 147.806 258.528 145.774C258.778 150.3 260.005 154.223 258.882 157.153C257.661 160.339 254.255 162.602 251.305 165.805C250.101 163.301 249.316 161.668 248.414 159.791C247.08 160.535 245.956 161.174 244.816 161.792C243.732 162.382 242.254 162.695 241.605 163.575C239.266 166.745 237.468 170.363 232.295 170.477C231.869 170.486 231.565 171.226 231.008 171.844C232.844 172.557 234.472 173.189 236.457 173.96C235.828 176.204 237.262 178.625 234.411 180.352C232.567 181.468 231.614 184.039 230.923 186.205C229.849 189.574 229.238 193.013 223.722 191.305C223.442 191.219 222.944 192.052 222.542 192.481C228.042 195.068 228.43 196.59 224.446 201.734C222.92 199.967 221.526 198.351 220.204 196.819C219.142 198.63 218.632 200.313 217.45 201.36C214.465 204.003 214.028 206.913 216.791 210.447C219.035 213.317 217.997 216.21 216.219 217.617C212.093 220.883 211.41 225.604 209.796 229.993C209.565 230.622 208.961 231.1 208.529 231.648C208.083 231.53 207.638 231.412 207.191 231.294C206.548 227.13 206.844 223.063 208.401 219.064C206.709 217.103 205.175 215.326 203.886 213.832C205.238 211.593 206.304 209.828 207.37 208.064C206.925 207.792 206.479 207.519 206.033 207.247C202.609 210.156 200.421 213.876 198.967 218.137C198.496 219.515 197.681 220.795 196.808 221.971C195.085 224.291 193.21 226.506 191.312 228.873C190.866 227.898 190.307 226.676 189.742 225.442C189.116 226.309 188.235 227.106 188.051 228.092C187.352 231.836 186.821 235.634 186.477 239.46C186.41 240.206 187.337 241.734 188.02 241.938C192.451 243.263 190.485 244.976 189.034 246.486C188.117 247.44 186.802 248.061 185.541 248.914C183.89 247.924 182.457 247.063 181.034 246.209C180.951 250.069 180.778 253.919 180.824 257.794C180.853 260.157 180.297 261.84 177.242 261.241C174.393 260.682 173.741 258.917 174.002 256.574C174.255 254.295 174.197 251.951 174.322 248.291C172.114 249.445 170.897 249.797 170.137 250.548C169.059 251.612 168.572 253.907 167.394 254.038C161.985 254.635 164.057 258.039 164.199 260.783C167.792 260.805 170.943 260.825 174.028 260.844C174.612 264.154 178.052 267.589 174.248 270.785C171.838 268.669 169.403 266.534 165.986 263.535C165.77 263.511 164.085 263.318 162.252 263.108C161.24 264.589 160.435 266.18 159.229 267.44C157.089 269.678 156.574 265.492 154.31 265.909C154.376 268.593 154.445 271.361 154.536 275.082C152.997 275.943 150.772 277.186 148.865 278.252C148.584 281.044 148.316 284.139 147.947 287.211C147.692 289.328 147.511 291.307 151.291 291.611C152.297 289.459 153.332 287.244 154.336 285.093C156.078 285.494 157.504 285.822 159.435 286.266C159.123 283.835 158.876 281.907 158.677 280.355C161.303 276.691 162.962 282.978 165.299 281.46C163.597 278.475 161.925 275.544 160.304 272.7C162.991 271.282 165.027 270.209 167.184 269.07C170 271.056 172.271 273.158 171.935 276.689C171.836 277.731 172.799 279.017 173.382 280.156C175.728 284.745 175.744 284.745 171.735 288.016C171.803 285.492 172.466 282.847 168.667 280.776C166.458 283.756 164.211 286.749 162.01 289.771C160.416 291.962 159.085 294.073 160.257 297.331C160.932 299.209 160.17 301.365 160.015 304.127C157.202 302.447 155.493 301.426 153.211 300.063C152.316 302.312 151.463 304.456 150.609 306.6C152.35 308.414 152.394 310.163 150.283 311.03C148.343 311.827 147.645 310.244 147.322 308.699C142.339 310.733 139.578 314.535 137.764 319.402C140.63 320.824 141.387 322.735 140.361 325.462C139.721 327.162 140.271 329.33 140.023 331.229C139.191 337.623 136.692 343.058 129.265 341.318C131.013 338.111 133.164 334.902 134.58 331.372C136.277 327.139 130.567 325.725 129.612 322.384C129.111 322.485 128.61 322.586 128.108 322.686C128.496 324.695 128.885 326.704 129.434 329.545C127.928 329.638 126.253 329.766 124.565 329.839C122.529 329.928 120.485 329.971 117.926 330.048C117.084 329.072 115.974 327.786 114.859 326.495C111.775 328.692 111.775 328.692 115.366 333.175C114.755 334.787 114.098 336.517 113.084 339.187C110.99 337.071 109.529 335.604 108.083 334.128C106.571 332.583 105.071 331.027 103.053 328.946C102.035 337.378 94.0892 339.799 89.1029 345.809C91.1577 341.293 87.4151 340.697 85.3489 339.681C84.1683 337.101 87.2178 334.555 82.954 332.441C82.1899 333.938 81.5139 335.47 80.651 336.892C79.9638 338.024 79.3177 339.67 78.1817 339.943C75.7749 340.523 75.1675 342.155 74.0875 343.799C72.6204 346.034 70.9445 348.997 68.5222 349.549C65.8277 350.162 64.8216 351.533 63.5603 353.169C60.9567 356.547 58.3211 359.903 55.7896 363.154C57.7294 368.276 56.3996 371.718 51.8578 373.344C51.2912 373.546 50.3023 372.967 49.0567 372.626C49.7237 370.785 50.265 369.289 50.9405 367.422C49.0599 367.157 47.787 366.977 46.0065 366.726C46.9292 369.447 47.7616 371.952 44.1221 372.557C43.5441 372.654 42.9626 373.79 42.996 374.494C43.1108 376.905 41.3092 377.414 39.3834 377.636C35.4514 378.089 32.4841 379.696 30.3732 382.601C29.3835 383.964 27.4722 383.387 26.0777 383.698C22.2134 384.557 22.1283 379.853 18.8493 379.87C19.3491 381.823 19.7863 383.532 20.453 386.137C15.7907 383.771 13.536 386.092 11.0724 387.973C10.3119 388.552 9.51959 389.778 8.83205 389.65C3.20802 388.592 2.28098 392.835 0.00792833 395.581C2.63719 394.951 5.26731 394.322 7.89742 393.693C11.4602 390.904 11.4967 390.904 15.6331 393.897C21.2811 388.44 29.2913 387.877 36.6915 387.008C38.099 389.82 39.3015 392.224 40.5336 394.688C45.5969 392.343 45.5969 392.343 45.4376 385.652C47.8089 384.854 50.1935 384.051 52.6432 383.227C55.0597 386.821 50.7021 388.004 50.697 390.828C52.597 389.906 53.8484 388.579 55.1548 387.302C57.5065 385.004 58.3896 385.149 62.1861 388.566C61.1404 389.603 60.0882 390.645 59.1613 391.564C59.9104 393.36 60.5297 394.842 61.3024 396.693C59.2503 397.071 57.2793 396.964 56.1458 397.784C55.1711 398.489 55.1549 400.248 54.6889 401.616C50.9112 397.602 51.0905 397.746 47.9629 401.179C46.6183 402.655 44.3324 403.368 42.518 404.484C41.2401 405.27 40.0381 406.149 38.4367 407.235C40.1865 408.342 41.4042 408.929 42.3761 409.762C45.407 412.36 46.4043 415.733 44.5316 418.622C41.6879 423.011 36.9169 424.72 31.9179 425.295C30.7769 421.77 29.8726 418.973 28.8285 415.747C27.2426 416.429 26.1605 416.895 25.0785 417.36L25.1485 417.177C25.1007 417.194 25.0537 417.213 25.0059 417.23C25.0215 417.258 25.037 417.286 25.0534 417.313C23.438 419.531 22.0189 421.911 20.1226 423.894C18.0449 426.066 16.4602 424.44 15.2839 422.256C13.8491 422.78 12.4135 423.305 10.3578 424.057C12.2875 425.876 13.4187 427.742 14.834 428.13C19.716 429.466 22.0018 425.416 25.6355 423.799C27.5658 426.271 30.0563 428.429 25.1108 429.097C24.5034 429.179 24.1396 430.235 23.7565 430.893C22.3114 433.382 21.521 436.515 19.3579 438.268C14.5564 442.161 14.9152 446.412 18.4251 451.54C19.2358 452.723 19.6913 454.082 19.9599 454.636C21.9918 455.176 23.4504 455.565 24.883 455.946C24.8781 455.951 24.8723 455.956 24.8675 455.961C26.5291 456.365 28.1949 456.766 29.9792 457.196C29.2917 459.433 28.6368 461.562 27.9819 463.691C31.3221 461.645 33.1338 458.235 36.9109 458C39.5129 459.894 41.4153 461.801 43.6875 462.811C47.1621 464.358 50.8927 465.288 54.8934 466.605C51.6624 470.1 51.6624 470.1 44.2583 464.858C44.1339 468.168 44.0287 470.97 43.8903 474.671C39.7162 471.546 38.2775 474.368 36.2805 475.569C33.5761 477.194 34.1614 480.108 33.7134 484.097C36.7363 481.594 40.7385 481.783 39.4991 477.544C42.4722 476.712 45.4396 475.88 48.8035 474.939C49.6914 476.545 50.4453 477.908 51.0981 479.088C48.2665 479.08 45.7399 479.073 43.2947 479.065C43.4434 485.028 46.6706 488.794 51.2269 491.45C57.8898 490.265 64.1218 489.058 70.4295 488.084C73.1066 487.671 74.1711 486.661 72.8776 483.701C71.6563 483.792 70.4401 483.971 69.1996 483.944C68.2859 483.925 67.0758 483.922 66.4542 483.42C63.528 481.052 65.4833 484.38 64.9116 484.384C63.6885 484.39 62.4264 484.135 61.1742 483.986C59.9105 487.765 57.1935 489.689 54.77 488.171C54.3835 486.618 53.9551 484.894 53.5132 483.12C55.2323 482.369 56.6682 481.74 57.7986 481.246C56.529 479.165 55.3792 477.283 53.1854 473.689C61.3459 475.33 64.9954 468.954 73.1473 470.661C71.9964 473.495 71.1084 475.682 70.2251 477.859C76.7117 479.495 78.7758 482.313 76.9069 487.045C75.8727 489.665 74.847 492.288 73.8422 494.92C73.5754 495.62 73.6665 496.768 73.1391 497.014C68.6522 499.109 63.7124 500.813 58.4263 498.694C56.7682 498.029 55.5704 497.318 54.1129 497.871C49.6795 499.552 45.032 500.705 40.1487 501.478C38.6175 500.378 37.0602 499.258 35.0328 497.801C34.2581 499.386 32.8774 500.764 33.2771 501.655C34.636 504.683 32.8384 505.688 30.7819 506.792C30.6381 506.869 30.8327 507.415 30.8713 507.743C31.6402 507.557 32.4075 507.371 33.2466 507.168C33.6411 511.381 33.5537 511.763 30.8029 518.312C29.1258 522.302 29.7547 523.492 34.4162 524.735C35.4117 525 36.4932 524.785 38.2204 524.794C38.6726 527.784 39.0733 530.426 39.4674 533.03C42.4452 533.232 47.8442 531.078 48.3259 529.438C47.6833 528.693 47.0109 527.914 46.3666 527.167C47.9283 524.925 52.087 524.35 49.8582 520.246C45.8356 520.621 44.2076 523.606 42.0688 526.488C37.0687 520.775 45.2977 519.797 44.0496 515.657C46.5888 515.983 48.6119 516.536 50.4711 516.387C51.9396 516.271 53.4352 515.525 54.5227 514.653C58.1191 511.767 65.5776 513.381 66.0917 506.895C66.1128 506.637 66.7595 506.491 67.1176 506.296C71.3357 503.991 75.5538 501.687 78.8322 499.897C81.3676 500.821 83.3179 502.167 84.6071 501.869C87.351 501.236 84.9252 498.954 84.2204 497.283C84.6353 497.099 85.0502 496.916 85.4651 496.733C87.6282 498.312 89.7904 499.892 92.6398 501.972C89.6098 504.026 87.4046 505.519 84.6383 507.394C84.8796 510.119 86.9097 514.452 81.0392 515.853C82.9142 518.995 84.5426 521.723 86.6399 525.236C83.3883 524.209 81.3752 523.572 79.0817 522.848C79.5988 520.995 80.0179 519.496 80.704 517.037C78.8515 517.85 77.9936 518.225 77.1365 518.602C75.455 514.749 79.4154 514.034 82.1054 511.394C78.1629 510.696 75.3699 510.2 71.8986 509.584C72.8911 511.417 73.5825 512.693 74.3111 514.038C73.2514 515.119 72.1722 516.218 71.0921 517.319C71.7536 518.595 72.4151 519.872 73.0489 521.094C67.6954 525.678 64.5791 532.508 55.8919 532.151C53.3694 537.408 50.9972 542.356 48.7427 547.053C51.3345 549.633 53.2324 551.522 56.0848 554.362C55.9734 548.353 60.6567 547.475 64.2876 547.243C67.6198 547.031 69.4023 546.018 70.3205 543.764C71.2497 541.483 73.432 539.502 71.2087 536.161C69.7334 533.944 71.3598 532.474 74.2754 533.298C77.6885 534.262 79.8733 533.911 80.5688 530.651C80.6767 530.142 81.2136 529.292 81.4209 529.347C86.6687 530.726 86.5721 525.212 89.0165 524.875C89.7466 521.952 89.6485 519.357 90.9493 517.814C93.0167 515.363 94.9215 519.238 96.8659 519.574C98.8003 518.396 100.512 517.353 102.09 516.392C102.032 514.412 101.981 512.577 101.927 510.685C98.2368 511.147 97.1481 517.345 91.0225 512.625C95.3228 510.316 99.089 508.294 101.988 506.737C101.685 503.773 101.49 501.856 101.294 499.938C101.703 499.897 102.113 499.857 102.522 499.815C103.993 501.52 105.464 503.224 107.354 505.413C108.385 502.688 109.692 500.484 110.007 498.055C110.313 495.706 109.598 493.127 109.336 490.692C112.125 490.992 114.068 491.201 116 491.408C118.004 494.644 118.584 497.89 116.327 500.077C113.843 502.485 113.332 504.451 115.122 507.947C115.132 507.969 115.137 507.985 115.148 508.005C113.542 509.899 113.463 510.362 113.08 512.688C113.936 511.148 114.609 509.94 115.387 508.543C116.779 511.656 115.559 512.763 111.603 513.591C110.574 513.806 108.708 513.732 108.611 514.191C107.702 518.524 102.439 518.351 100.119 521.143C99.5099 521.876 98.502 522.503 98.3573 523.354C97.7919 526.671 95.7345 528.893 93.2507 530.996C92.1022 531.969 91.572 533.56 90.8179 534.901C89.7188 536.855 88.6946 538.852 87.5651 540.789C87.4353 541.012 86.8343 540.967 86.4512 541.046C86.0014 540.417 85.5516 539.789 85.1344 539.205C79.2683 540.384 77.6252 545.338 74.5679 548.448C75.5318 552.551 76.3896 556.201 77.455 560.735C81.0097 555.98 83.9209 561.209 87.1535 560.85C87.4154 564.848 86.3147 567.501 83.2074 569.365C81.3687 570.467 78.6065 572.071 78.6875 573.636C78.9777 579.3 74.1992 579.31 70.5555 579.562C67.1847 579.795 66.3013 582.003 65.2107 583.039C62.4874 582.23 60.358 581.017 58.629 581.228C56.4092 581.5 56.4102 583.483 57.3825 585.923C62.5477 581.707 64.6278 587.519 68.1198 589.644C68.5085 588.122 68.4934 586.254 69.0935 586.144C74.0554 585.235 76.2518 580.969 80.6696 579.141C84.5116 577.553 89.3762 575.013 89.3134 569.449C89.3074 568.898 90.6191 568.49 91.7332 567.735C93.7781 572.833 88.987 575.466 89.9693 579.537C86.0422 582.08 85.9658 585.839 87.2855 590.099C87.4141 590.515 86.8161 591.039 86.3986 591.797C84.5175 590.848 82.7993 589.98 81.2089 589.177C76.4008 591.56 75.0156 597.182 69.9564 599.637C71.8959 599.087 73.8362 598.537 75.689 598.011C76.6878 600.679 77.5853 603.076 78.5003 605.52C80.3716 605.002 81.6636 604.643 83.3746 604.17C83.9003 607.098 84.3184 609.429 84.731 611.731C90.3683 611.007 90.5945 610.779 92.808 606.147C93.1174 605.5 94.3188 605.293 95.1238 604.891C94.9602 603.229 94.258 601.296 94.8825 600.032C96.3091 597.15 96.5679 594.764 94.1827 591.586C92.0157 588.698 93.0233 585.224 95.631 583.203C98.5682 580.927 100.497 580.677 107.661 581.773C106.673 582.651 105.862 583.372 105.059 584.086C107.74 581.983 112.666 586.632 114.811 582.492C113.38 581.898 112.049 581.345 109.156 580.143C113.353 579.406 115.075 577.664 118.578 577.943C121.063 578.142 123.354 575.229 125.841 573.852C126.48 573.498 127.584 573.828 128.379 573.62C129.37 573.362 130.47 573.069 131.156 572.45C134.269 569.639 137.255 566.706 140.578 563.537C138.091 562.432 135.633 561.339 132.738 560.054C132.634 559.746 132.505 558.921 132.083 558.217C131.616 557.437 130.88 556.768 130.2 555.98C129.412 556.988 128.824 557.737 128.24 558.485C127.314 558.208 126.379 557.93 125.475 557.663C125.548 555.622 125.574 554.633 124.494 553.828C125.346 552.816 126.246 551.893 127.172 551.013C130.012 549.088 132.719 547.255 135.878 545.114C135.471 547.179 135.245 548.328 134.923 549.967C137.847 548.226 140.025 546.929 142.846 545.248C143.185 548.11 143.425 550.16 143.692 552.416C146.145 552.082 148.599 548.999 151.479 553.257C148.853 555.35 146.185 557.476 143.161 559.885C153.081 563.044 157.873 558.465 162.746 552.762C160.849 551.209 158.994 549.691 156.445 547.604C163.106 547.411 160.434 541.167 164.438 538.518C166.084 539.819 167.771 541.152 169.501 542.519C164.547 547.318 164.547 547.318 165.739 548.729C170.033 545.347 174.557 542.125 178.623 538.478C182.034 535.418 187.941 535.106 189.694 530.222C189.923 529.588 191.332 529.177 192.282 529.144C193.913 529.084 195.502 529.288 194.825 527.045C195.996 526.917 197.166 526.788 198.259 526.668C198.347 522.464 194.352 522.986 191.689 521.185C191.703 523.332 191.715 524.991 191.729 527.044C189.732 526.74 188.193 526.505 185.288 526.062C189.825 522.235 193.393 519.226 196.576 516.541C198.765 517.582 200.147 518.239 201.474 518.869C202.162 522.166 202.825 525.34 203.545 528.787C205.079 528.327 206.352 527.946 207.536 527.591C208.149 528.236 208.635 528.865 209.025 529.484C208.892 529.674 208.762 529.859 208.62 530.06C208.859 530.032 209.08 530.006 209.307 529.979C209.925 531.133 210.147 532.257 209.962 533.378C209.13 534.26 208.635 534.815 208.421 535.257C207.31 534.549 206.142 533.638 205.587 533.842C202.342 535.035 199.19 536.473 196.286 538.187C194.609 539.176 194.483 540.863 195.663 542.983C196.789 545.003 197.402 547.312 197.754 549.503C198.279 552.771 196.264 554.933 193.169 553.95C188.113 552.344 185.235 554.083 182.698 557.208C182.296 557.702 181.133 557.663 180.301 557.811C176.318 558.522 175.247 562.48 178.281 565.423C178.944 566.067 179.738 566.601 180.472 567.185C180.368 567.437 180.265 567.688 180.161 567.94C177.564 567.202 174.969 566.463 172.825 565.854C171.25 568.503 170.217 570.245 169.277 571.826C172.625 575.756 178.431 569.09 180.602 575.883C176.931 581.637 173.027 581.217 167.759 574.521C163.701 576.954 159.511 579.232 155.646 581.885C153.706 583.216 155.214 585.341 158.869 586.628C162.433 584.376 162.841 577.604 171.539 580.935C168.219 582.676 165.798 583.946 162.706 585.567C163.618 586.624 164.463 588.427 165.592 588.732C167.679 589.298 167.627 587.575 167.705 586.062C167.732 585.533 169.182 585.233 170.676 584.476C170.335 586.004 170.428 586.784 170.05 587.101C164.153 592.027 158.278 596.981 152.171 601.69C151.169 602.462 149.082 602.093 147.275 602.274C148.359 608.777 142.047 605.738 138.813 606.77C140.61 600.821 143.899 596.889 151.952 597.338C154.904 597.502 158.298 595.499 158.089 591.576C155.271 590.354 152.865 589.31 149.989 588.063C149.452 593.214 145.301 593.695 140.755 594.239C141.713 591.887 142.541 589.85 143.28 588.039C139.355 587.12 135.977 586.329 132.181 585.441C131.204 586.224 129.843 587.318 128.328 588.534C128.027 587.19 127.788 586.123 127.529 584.968C123.043 586.626 125.276 590.373 125.829 592.862C126.364 595.268 128.695 597.958 130.94 599.749C135.26 603.194 135.843 603.97 132.223 606.99C128.948 609.722 125.122 611.911 121.349 614.467C120.765 614.146 119.829 613.631 119.444 613.418C116.797 614.802 114.447 616.03 112.142 617.236C108.407 612.137 115.34 612.5 115.412 609.204C111.595 608.369 111.538 611.413 110.119 612.624C108.546 613.967 107.709 616.025 106.595 617.706C98.6521 617.895 98.1631 618.229 98.2793 623.028C100.362 624.369 102.318 625.629 104.192 626.835C105.849 626.137 107.674 625.366 110.666 624.103C109.691 627.487 109.119 629.475 108.408 631.945C111.462 633.345 114.874 634.109 116.92 636.066C119.035 638.087 119.822 641.264 121.517 644.574C122.841 642.513 124.055 641.009 124.839 639.298C125.633 637.564 126.682 635.608 126.363 633.786C126.054 632.025 124.144 630.312 122.77 628.339C124.973 627.69 127.18 627.115 129.309 626.394C131.598 625.619 133.101 624.494 132.566 621.607C131.873 617.873 133.814 615.983 137.687 616.791C140.951 617.472 142.707 616.845 143.741 614.224C144.22 613.011 145.174 612.003 146.306 610.317C147.908 611.541 150.211 612.583 150.277 613.498C150.424 615.518 149.953 617.819 148.807 619.374C147.112 621.673 144.039 623.087 144.386 625.546C147.342 626.505 150.05 627.385 153.944 628.648C152.393 626.561 151.713 625.644 151.036 624.733C152.259 623.905 153.393 623.136 154.527 622.368C154.107 620.558 153.686 618.746 153.266 616.936C153.616 616.834 153.967 616.733 154.316 616.631C154.831 617.412 155.344 618.192 156.107 619.35C157.741 620.189 159.429 616.262 161.536 619.34C162.778 618.455 164.321 617.781 165.195 616.638C172.422 607.19 179.396 597.562 186.759 588.212C188.33 586.217 187.904 584.746 186.676 582.829C184.815 582.28 182.985 581.74 181.154 581.198C181.173 578.601 182.169 577.383 184.721 578.072C190.495 579.632 194.877 584.303 196.005 590.182C198.214 588.717 199.743 587.525 198.349 584.375C197.604 582.693 198.363 580.576 198.616 578.695C198.653 578.422 199.662 578.373 200.508 578.14C201.391 579.887 202.199 581.486 203.385 583.833C205.591 582.581 207.279 581.624 210.138 580.002C207.482 579.223 206.491 578.886 205.487 578.651C204.332 578.38 203.166 578.199 201.108 577.811C204.517 571.782 210.907 572.157 216.788 571.083C215.579 569.682 214.662 568.62 213.202 566.929C215.277 565.522 217.305 562.853 219.097 563.182C224.06 564.092 224.269 560.997 225.388 558.465C226.354 556.276 227.187 554.024 228.068 551.824C224.98 552.767 221.701 553.387 218.905 554.73C216.005 556.123 213.571 558.217 210.656 560.193C209.259 555.699 209.338 555.797 211.582 554.414C214.406 552.674 217.794 551.248 219.66 548.795C222.459 545.116 227.845 545.326 230.925 542.247C231.556 541.616 233.686 542.27 235.017 542.328C236.968 547.393 231.544 545.89 229.879 548.131C230.419 549.351 231.04 550.754 231.516 551.83C237.922 552.192 238.531 547.156 241.668 544.613C238.871 543.671 237.404 542.617 240.478 540.969C241.659 537.586 242.839 534.202 243.979 530.936C242.835 530.95 241.196 530.969 238.032 531.007C241.976 525.759 246.569 523.086 251.392 521.004C251.877 518.945 252.334 517.007 252.947 514.414C248.864 516.574 246.593 513.589 244.695 511.403C242.742 512.727 241.159 513.799 239.59 514.862C239.34 513.535 239.092 512.211 238.854 510.943C240.779 509.639 242.44 508.15 244.468 507.243C246.435 506.365 248.835 505.312 250.95 505.686C257.229 506.794 261.256 504.434 264.671 500.668C264.881 500.437 264.869 500.03 264.96 499.703C263.991 499.188 263.024 498.676 261.978 498.122C262.842 496.073 263.634 494.197 264.456 492.247C260.81 489.727 257.535 487.463 254.246 485.189C255.857 481.488 258.418 480.451 260.147 483.048C261.98 485.802 264.278 486.102 266.808 486.969C268.093 487.409 269.81 488.394 270.241 489.407C271.505 492.385 273.885 492.472 277.397 493.438C274.769 489.034 272.67 485.518 270.844 482.457C271.47 480.414 272.541 478.792 272.269 477.204C272.057 475.968 270.174 474.776 269.122 473.657C270.382 472.804 272.659 472.119 272.71 471.08C272.945 466.191 275.888 467.619 279.002 469.061C280.604 469.803 282.223 470.931 283.809 468.674C281.982 467.928 280.361 467.265 278.217 466.389C278.851 464.702 278.951 462.358 279.973 462.08C284.318 460.897 285.698 457.226 288.224 454.562C293.47 449.032 298.333 443.176 303.769 437.814C305.987 435.627 305.348 433.382 304.432 431.135C315.956 422.469 320.747 416.912 327.771 404.28C332.368 401.936 336.964 399.237 341.625 393.035C341.024 392.469 340.51 391.985 340.079 391.578C340.418 390.83 340.737 390.126 341.05 389.437C342.636 387.148 343.861 384.592 346.887 383.467C348.178 383.952 349.541 384.465 351.458 385.187C350.934 379.313 353.6 375.722 358.226 373.176C360.15 372.117 361.642 370.477 363.354 369.124C366.387 366.728 369.435 364.351 372.929 361.611C372.954 361.678 372.532 360.916 372.401 360.148C371.214 353.136 371.229 353.136 378.906 354.044C382.193 354.433 386.739 350.017 385.792 347.551C384.369 346.597 383.052 345.716 381.63 344.763C382.325 344.292 382.757 343.706 383.3 343.675C390.459 343.28 394.612 340.331 393.423 333.13C392.929 330.136 395.6 329.469 397.18 329.477C400.476 329.494 402.499 327.572 405.187 326.948C410.617 325.69 411.794 322.5 410.491 318.203C412.158 316.652 413.435 315.464 414.092 314.852C417.533 314.312 420.454 314.336 422.773 313.36C425.381 312.263 427.415 310.229 429.752 308.665C433.117 306.41 434.674 303.225 434.845 299.244C435.09 293.503 436.422 292.256 441.949 290.954C447.41 289.667 452.709 287.98 458.349 286.392C458.468 286.545 459.185 287.468 459.903 288.39C460.39 284.447 460.275 280.558 464.236 278.368C461.933 277.382 460.221 276.65 457.364 275.428C459.749 274.115 461.159 272.588 462.444 272.816C464.201 273.127 465.862 274.774 469.024 276.77C467.26 273.537 466.223 271.634 464.823 269.069C467.623 267.645 470.356 266.254 473.096 264.861C475.58 266.831 477.655 268.475 480.703 270.89C480.615 267.807 480.907 265.503 480.351 263.28C480.023 261.969 478.348 260.788 477.027 259.257C478.106 253.328 483.802 251.3 488.691 248.684C489.891 248.04 492.351 247.924 493.42 248.656C494.504 249.398 494.581 251.492 495.103 252.992C499.535 252.622 503.127 250.42 502.526 248.393C501.455 247.876 500.348 247.344 499.221 246.801C500.16 243.869 502.546 243.374 505.218 243.274C506.145 243.623 507.546 244.406 507.818 244.156C510.334 241.839 513.491 239.795 512.256 235.722C513.57 235.815 515.113 236.19 515.251 235.892C516.444 233.297 519.115 233.241 521.7 233.095C524.906 232.913 527.325 232.067 527.959 228.828C528.153 227.828 529.311 227.095 530.033 226.234C531.76 226.904 533.159 227.445 533.612 227.62C544.135 218.183 555.332 210.113 563.279 198.991C559.556 201.88 554.92 200.686 550.46 200.371C554.721 198.698 558.602 196.391 563.904 197.003C565.665 197.206 568.569 196.73 568.96 195.72C570.067 192.852 572.801 193.264 575.332 192.802C574.523 188.827 580.316 187.351 578.26 182.833C578.064 182.405 579.559 180.841 580.234 180.938C586.037 181.777 587.239 176.808 590.675 174.725C591.671 174.123 591.69 172.29 592.385 170.403C583.261 172.634 583.261 172.634 580.223 168.752C584.369 169.435 588.197 169.922 590.773 166.985C592.781 164.697 594.581 162.066 599.06 163.555C599.835 163.812 601.252 162.558 602.032 161.724C603.998 159.624 605.77 157.366 607.633 155.154C603.559 152.526 601.41 154.516 599.755 156.329C597.135 154.268 594.986 152.577 591.939 150.179C595.677 150.729 598.16 151.096 600.908 151.5C600.922 149.045 600.932 147.12 600.941 145.406C599.212 144.496 597.429 143.558 595.646 142.621C595.714 142.222 595.781 141.823 595.848 141.423C598.836 141.021 601.822 140.618 604.928 140.199C604.049 135.591 599.874 136.013 597.632 134.34C588.861 139.349 584.73 147.659 579.299 154.548C576.207 152.446 573.564 150.652 570.7 148.705C567.848 152.546 565.19 156.128 563.328 158.635C563.649 161.621 563.842 163.418 564.004 164.928C565.778 165.611 567.51 166.278 569.294 166.965C569.244 166.881 566.969 163.12 566.825 162.881C570.164 161.086 571.269 163.803 573.165 165.878C568.48 169.28 565.602 174.621 557.356 173.011C558.029 175.174 558.26 176.725 558.999 178.095C559.93 179.823 561.076 181.382 558.781 183.013C557.668 182.212 556.705 181.16 555.565 180.784C554.018 180.274 551.59 179.553 550.831 180.191C546.695 183.664 542.958 187.526 539.24 191.105C535.823 192.937 532.57 194.92 529.054 196.488C526.447 197.65 526.286 199.446 527.068 201.81C526.306 202.736 525.556 203.637 524.983 204.325C526.619 205.627 527.772 206.544 529.819 208.173C527.316 208.836 525.555 209.169 523.934 209.759C519.894 211.227 514.828 211.911 512.244 214.624C509.975 217.006 508.026 219.721 505.206 221.706C504.571 221.107 503.935 220.508 503.176 219.792C504.218 218.722 505.2 217.714 506.343 216.542C504.595 215.984 503.467 215.624 502.608 215.35C504.824 212.383 506.704 209.449 509.016 206.852C514.617 200.563 520.701 194.694 524.846 187.274C526.344 184.591 529.614 182.731 532.483 181.014C534.488 179.815 535.335 178.564 534.869 176.292C534.795 175.933 535.505 175.53 535.928 175.065C536.699 176.449 537.338 177.593 538.258 179.241C540.196 177.295 541.699 175.787 543.199 174.281C545.033 174.726 546.869 175.17 549.009 175.688C548.878 174.283 548.79 173.345 548.728 172.68C546.062 171.955 543.823 171.346 541.538 170.724C541.829 169.701 541.907 169.019 542.042 169.026C542.972 169.071 543.944 169.138 544.846 169.424C548.724 170.655 553.057 171.916 555.665 169.152C557.458 167.251 559.148 166.118 561.923 166.406C559.769 164.303 557.903 162.481 556.241 160.86C558.793 156.78 560.316 152.748 563.269 150.029C567.034 146.563 568.632 141.517 573.607 138.922C578.91 136.155 582.435 132.012 579.152 124.869C581.561 124.629 583.527 124.433 585.167 124.27C587.249 121.071 582.12 113.959 591.023 115.679C589.014 110.296 594.914 109.646 596.05 106.415C597.458 102.407 603.729 104.809 605.369 100.613C603.909 100.856 603.009 101.006 602.107 101.156C602.565 99.1098 603.861 97.823 605.037 96.4465C605.895 95.44 606.755 94.3935 607.338 93.2258C608.69 90.5133 609.612 87.5134 613.836 87.4627C614.523 87.4546 615.726 86.5562 615.631 86.3322C614.053 82.5747 619.084 82.7958 619.384 80.2124C619.446 79.67 619.866 79.2039 620.23 78.4897C619.208 77.4146 618.195 76.3485 617.036 75.1301C615.9 76.4991 614.988 77.599 613.995 78.7946C611.764 76.4457 611.97 74.7434 613.393 72.9843C614.485 71.6337 616.158 70.1077 616.04 68.5769C615.59 62.7708 617.302 57.7037 619.268 52.6453C619.358 52.414 618.882 51.9405 618.46 51.224C614.69 51.7487 610.787 52.292 606.408 52.9011C603.782 59.2012 600.822 65.9273 594.393 70.5188C593 71.5135 592.52 73.4727 591.362 74.7882C589.018 77.4521 586.388 79.7116 581.73 78.3771C581.1 78.1962 580.351 78.5871 579.642 78.7876C577.062 76.2459 572.636 74.4908 574.199 70.1383C574.292 70.0614 574.387 69.9847 574.48 69.9079C576.214 70.007 577.984 70.1078 580.448 70.2477C580.113 69.6599 579.804 69.1147 579.498 68.5778C579.51 68.5742 579.522 68.5698 579.534 68.5662C580.573 66.9923 581.606 65.6389 582.354 64.3604C583.62 64.3092 584.78 63.8745 585.818 62.7195C586.301 62.1815 587.434 61.9419 588.309 61.9697C591.601 62.0761 590.712 60.2511 590.353 58.6431C587.771 56.8686 583.977 58.3453 582.574 54.3165C585.943 52.3727 589.798 50.8015 592.682 48.3005C595.535 45.8251 597.408 42.4108 599.712 39.407C599.319 39.0066 598.927 38.6061 598.534 38.2057C595.484 39.8692 592.192 41.2687 589.452 43.2713C586.752 45.2439 584.744 47.963 582.167 50.0893C580.816 51.2036 579.637 51.9553 579.037 53.8979C578.326 56.201 576.199 58.2844 573.062 58.9949C572.452 55.476 572.611 55.5765 573.602 54.0701C573.862 53.6723 574.112 53.2655 574.372 52.8668C575.513 51.8816 576.57 50.8019 577.428 49.4787C577.472 48.8819 577.448 48.3855 577.445 47.9351C578.181 46.7018 578.92 45.4701 579.584 44.1993C580.402 42.6351 581.058 41.5175 582.965 40.594C586.984 38.647 589.083 34.7342 590.451 30.828C591.476 27.9032 592.025 25.2395 596.086 24.9779C596.923 24.9234 597.702 23.9227 598.214 23.1696C599.605 21.1194 601.308 19.1349 601.999 16.8081C602.67 14.554 602.235 11.9064 602.29 9.26078C609.234 9.75923 609.112 5.13037 608.772 0.389806C610.945 0.327425 612.761 0.275172 616.149 0.176757C614.367 3.78438 612.956 6.19479 611.949 8.77767C610.175 13.3251 606.393 17.6081 611.247 23.2707C611.769 23.8795 612.197 25.0346 611.948 25.6017C609.651 30.8459 612.2 34.7521 617.25 38.1276C617.724 38.4448 617.868 39.2188 618.337 40.1088C615.397 42.6575 615.759 45.4197 619.587 48.125C621.567 47.6787 623.515 47.4914 623.382 44.6737C623.318 43.3088 624.565 41.295 625.826 40.9638C627.732 40.4625 630.169 41.1748 632.275 41.3623C629.575 37.4278 629.137 33.2279 631.786 31.145C634.986 28.6289 638.542 26.4841 642.6 23.7352C637.062 19.5806 643.734 19.0844 643.868 15.9326C641.857 15.5128 640.056 15.1376 637.525 14.6101C638.089 13.0838 638.135 11.5363 639.01 10.8335C642.754 7.83037 647.091 12.029 651.175 12.1226C648.926 8.15095 646.874 4.52668 644.402 0.158481C643.896 0.0347077 642.24 -0.368653 641.327 -0.591747C639.503 2.66608 637.952 5.43523 636.503 8.02349C632.634 7.70837 629.242 7.43291 625.193 7.10338C625.775 4.75647 626.247 2.48909 626.905 0.288444C627.798 -2.69758 628.754 -5.66662 629.828 -8.58171C631.414 -12.8824 629.158 -16.2838 625.788 -19.7061C620.418 -16.9083 617.889 -11.089 611.105 -9.88973C609.486 -13.3987 609.449 -15.8454 612.708 -17.8799C614.979 -19.2973 616.707 -21.4983 618.29 -23.6158C619.731 -25.5432 618.252 -28.2798 615.446 -28.6019C612.18 -28.9773 608.918 -28.6056 604.712 -28.5453C606.662 -26.2867 607.721 -25.0596 609.038 -23.5321C605.116 -23.1563 603.818 -18.5277 599.046 -20.2188C597.865 -23.3922 598.277 -25.8402 601.684 -27.154C602.104 -27.316 601.941 -28.5059 602.057 -29.2738C599.867 -28.9792 598.036 -28.732 595.868 -28.4412C593.736 -32.0164 591.797 -35.2676 589.339 -39.3893C592.553 -38.8831 594.725 -38.5399 596.894 -38.1983C597.081 -39.0799 597.283 -40.0225 597.458 -40.8457C597.228 -41.1798 597.147 -41.4348 596.979 -41.5226C595.382 -42.3619 593.768 -43.165 592.166 -43.9949C587.061 -46.6371 586.202 -49.1035 588.874 -53.248C589.596 -54.3688 590.174 -55.5787 590.698 -56.5299C586.693 -61.1702 582.835 -65.6417 578.907 -70.1931C578.077 -69.4431 577.683 -69.2444 577.533 -68.9287ZM201.303 217.134C204.299 220.206 204.989 222.207 202.93 224.014C202.313 223.872 201.695 223.728 201.079 223.586C201.145 221.724 201.209 219.862 201.303 217.134ZM46.3473 383.74C45.8873 383.214 45.4264 382.69 44.9655 382.164C46.2491 380.982 47.5327 379.802 48.8171 378.621C49.2011 378.933 49.5859 379.245 49.9699 379.557C48.7624 380.952 47.5549 382.347 46.3473 383.74ZM25.043 455.81C24.3721 453.94 23.7623 452.09 28.2189 452.924C26.8861 454.136 25.9543 454.982 25.043 455.81ZM77.2489 522.95C76.0376 523.936 74.8255 524.923 73.2981 526.167C73.7404 523.309 73.7404 523.309 76.4752 521.867C76.7323 522.227 76.991 522.589 77.2489 522.95ZM96.2853 578.914C97.9083 576.313 100.293 577.086 102.689 578.542C100.682 578.658 98.6758 578.775 96.2853 578.914ZM168.211 609.857C165.043 612.876 161.449 611.384 157.89 610.888C157.445 606.503 160.588 606.19 163.444 605.855C166.15 605.536 167.276 607.41 168.211 609.857ZM178.345 597.189C171.955 598.871 165.873 600.473 158.486 602.417C162.52 594.791 170.864 596.201 176.713 593.246C177.331 594.738 177.788 595.842 178.345 597.189ZM171.238 591.08C174.516 585.349 175.16 585.143 181.979 587.506C180.748 593.426 175.28 590.422 171.238 591.08ZM202.28 567.387C201.181 565.533 200.172 563.828 198.745 561.416C200.763 561.591 202.367 561.707 203.97 561.873C205.702 562.052 207.435 562.276 209.251 562.491C209.036 566.812 204.666 566.473 202.28 567.387ZM207.107 546.321C206.144 546.178 205.196 545.632 204.242 545.242C204.44 544.759 204.528 543.911 204.86 543.863C205.714 543.74 206.676 543.972 208.396 544.14C207.735 545.304 207.4 546.365 207.107 546.321ZM570.622 178.264C571.746 176.699 573.197 175.353 574.517 173.92C578.161 169.965 578.853 170.087 583.448 176.479C576.861 175.472 576.663 183.388 569.434 181.661C569.833 180.457 569.963 179.185 570.622 178.264ZM566.219 185.109C566.757 185.169 567.779 186.304 567.769 186.836C567.725 189.198 566.131 189.633 563.31 188.737C562.93 186.23 563.654 184.826 566.219 185.109ZM540.895 199.579C539.362 203.966 534.775 203.027 532.052 204.285C530.265 203.361 528.717 202.561 527.162 201.784C530.762 198.703 535.619 199.525 540.895 199.579ZM525.069 -70.069C527.477 -65.8906 526.51 -64.5293 523.33 -64.4204C522.761 -64.8013 522.191 -65.1814 521.622 -65.5606C522.626 -66.8736 523.63 -68.1882 525.069 -70.069ZM504.622 -48.4568C505.895 -44.7892 506.858 -42.015 507.822 -39.24C503.927 -41.4128 502.549 -44.1656 504.622 -48.4568ZM509.092 -46.032C509.513 -46.3137 510.634 -45.7742 511.443 -45.5988C511.181 -44.8036 510.999 -43.9629 510.589 -43.2527C510.509 -43.1155 509.537 -43.4844 508.37 -43.7669C508.612 -44.6546 508.565 -45.68 509.092 -46.032ZM509.613 -36.9399C512.487 -37.417 515.004 -37.9978 517.609 -38.1949C518.834 -38.2877 520.394 -37.8991 521.474 -37.2266C522.015 -36.8884 522.304 -35.0903 521.878 -34.5268C518.298 -29.7845 514.526 -25.1744 510.365 -19.9666C508.523 -22.1011 507.268 -23.5552 505.781 -25.2793C509.004 -28.5297 512.71 -31.5645 509.613 -36.9399ZM502.238 164.777C501.245 164.43 500.268 163.624 499.295 162.862C499.881 162.223 500.471 161.581 501.056 160.945C500.181 161.828 499.386 162.13 498.597 162.333C498.429 162.21 498.26 162.089 498.092 161.979C500.921 158.521 502.625 157.778 505.536 160.299C505.527 160.308 505.519 160.315 505.51 160.324C504.895 160.826 504.299 161.841 503.758 162.645C503.266 163.375 502.747 164.069 502.238 164.777ZM492.391 176.242C490.075 178.516 487.985 180.435 486.01 180.515C482.26 186.386 482.224 186.415 479.139 186.181C479.839 185.091 480.563 183.965 481.722 182.163C479.708 183.739 478.412 184.753 476.58 186.187C477.656 184.219 478.205 182.719 479.099 181.702C480.277 180.364 481.723 179.376 483.058 178.295C484.165 177.398 485.577 176.752 486.333 175.701C488.218 173.074 489.87 170.315 491.587 167.593C493.224 168.859 494.866 170.156 496.711 171.008C496.822 171.059 496.925 171.177 497.023 171.319C495.536 173.009 494.005 174.658 492.391 176.242ZM433.382 219.179C432.186 219.562 431.234 219.26 430.18 219.243C430.293 218.893 430.406 218.542 430.518 218.19C431.73 217.43 432.969 216.856 434.146 215.856C435.253 214.916 436.147 214.114 436.418 215.114C436.508 215.447 436.278 216.367 435.965 216.731C435.159 217.671 434.038 218.97 433.382 219.179ZM169.706 322.788C169.523 321.979 169.158 321.138 169.22 320.374C169.264 319.85 169.901 319.435 170.271 318.971C170.588 319.12 170.904 319.268 171.221 319.417C171.096 320.558 170.97 321.699 170.845 322.839C170.466 322.822 170.087 322.805 169.706 322.788ZM308.406 148.466C309.23 147.908 309.895 147.249 310.086 147.362C311.507 148.203 312.835 149.198 314.193 150.144C313.89 150.47 313.589 150.794 313.287 151.12C311.776 150.297 310.266 149.477 308.406 148.466ZM469.06 179.466C468.952 179.398 468.844 179.332 468.744 179.254C470.024 176.222 470.489 175.151 472.513 175.612C471.244 176.991 470.151 178.475 469.06 179.466ZM458.943 188.68C458.571 189.087 458.238 189.556 457.728 190.198C457.901 188.39 458.701 187.038 459.946 185.73C460.766 185.381 461.632 185.061 462.536 184.758C461.337 186.065 460.138 187.369 458.943 188.68ZM452.354 195.206C452.439 194.595 452.524 193.984 452.609 193.373C452.996 193.168 453.382 192.964 454.03 192.619C453.798 193.354 453.701 193.923 453.399 194.49C453.272 194.732 452.716 194.967 452.354 195.206ZM425.267 231.241C427.745 228.617 427.745 228.617 429.138 230.011C427.931 230.394 426.724 230.778 425.267 231.241ZM411.896 256.748C411.098 256.616 410.275 256.48 409.366 256.331C409.306 254.988 410.678 253.846 412.247 252.475C412.89 253.206 413.582 253.991 414.303 254.808C413.39 255.673 412.586 256.312 411.896 256.748ZM392.635 289.927C392.435 289.817 392.316 289.651 392.35 289.44C392.475 288.66 393.403 287.078 394.163 286.336C394.167 286.332 394.17 286.331 394.173 286.327C394.806 287.997 394.475 288.777 392.635 289.927ZM363.858 311.102C364.442 309.869 364.807 308.973 365.075 308.387C365.227 308.816 365.379 309.25 365.529 309.673C365.062 309.907 364.525 310.324 363.858 311.102ZM371.731 318.641C372.955 318.131 373.822 319.295 375.509 316.626C375.863 316.749 376.601 316.718 376.509 317.019C376.146 318.204 375.764 319.405 375.33 320.619C373.887 319.826 372.778 319.216 371.731 318.641ZM388.974 288.503C388.82 287.295 388.808 286.479 388.996 285.88C389.119 285.664 389.226 285.451 389.338 285.236C389.716 284.781 390.341 284.48 391.287 284.166C390.515 285.612 389.744 287.059 388.974 288.503ZM394.921 267.829C395.973 266.906 397.346 264.775 398.232 266.075C397.137 267.383 396.079 268.645 394.541 270.482C394.704 269.244 394.714 268.012 394.921 267.829ZM411.971 245.686C413.321 244.947 414.671 244.207 416.239 243.349C416.544 244.126 416.766 244.689 417.026 245.351C413.785 248.344 413.43 245.946 411.971 245.686ZM418.302 251.809C418.432 251.944 418.557 252.074 418.698 252.221C419.34 251.079 419.931 250.027 420.807 248.467C422.276 247.929 423.126 248.387 421.589 251.311C420.054 252.107 418.4 253.227 418.302 251.809ZM413.687 219.623C414.408 219.159 415.044 219.236 415.605 220.152C414.782 220.481 414.11 220.748 413.508 220.989C413.567 220.547 413.626 220.088 413.687 219.623ZM373.35 153.723C375.124 152.778 377.01 151.61 378.601 151.179C378.644 151.166 378.685 151.144 378.727 151.132C376.905 153.76 376.03 154.112 372.663 154.127C372.902 153.975 373.127 153.842 373.35 153.723ZM475.661 174.651C475.859 172.795 477.203 171.595 478.943 170.463C478.117 171.862 477.288 173.265 476.119 175.245C475.963 175.046 475.809 174.848 475.661 174.651ZM485.876 171.184C485.113 171.975 484.331 172.787 483.131 174.031C484.425 170.976 484.453 170.918 485.876 171.184ZM488.41 167.489C486.528 166.528 486.027 165.726 486.77 164.482C488.379 165.175 489.848 166.253 491.313 167.38C490.192 168.187 489.201 169.198 488.197 170.024C487.512 170.588 486.78 170.725 486.067 171.032C486.853 169.843 487.639 168.654 488.41 167.489ZM506.057 152.393C503.233 154.774 502.618 150.73 499.979 150.676C504.137 146.748 504.372 151.49 506.057 152.393ZM469.966 16.0361C470.711 17.4139 471.436 20.0302 470.768 20.4742C467.696 22.5197 468.59 25.7915 468.015 28.612C467.909 29.1262 467.465 29.5438 466.695 30.7812C464.172 27.4379 463.269 24.856 464.139 22.0416C464.919 19.521 465.683 16.9956 466.639 13.8661C467.798 14.5809 469.46 15.1004 469.966 16.0361ZM460.684 36.0344C460.749 36.2216 459.473 36.6504 458.446 37.1478C457.8 35.01 457.279 33.286 456.654 31.22C460.217 31.6389 460.039 34.1742 460.684 36.0344ZM451.33 43.8317C450.781 43.5858 450.558 42.5584 450.185 41.8916C451.669 41.5481 453.154 41.2063 455.067 40.7639C454.719 43.6028 453.942 45.0015 451.33 43.8317ZM372.492 152.416C372.846 151.167 373.403 150.374 374.293 149.963C373.705 150.766 373.106 151.579 372.492 152.416ZM440.431 211.885C441.238 212.459 444.664 208.218 443.685 212.171C441.198 214.59 441.126 212.664 440.431 211.885ZM445.672 214.702C446.986 216.592 446.312 217.858 443.64 219.806C444.304 218.14 444.779 216.948 445.672 214.702ZM448.525 203.243C450.754 201.951 453.615 198.94 455.057 200.829C452.192 202.767 449.646 204.489 446.821 206.4C446.224 205.199 447.268 203.972 448.525 203.243ZM453.635 206.273C454.547 206.428 455.405 206.575 456.339 206.732C453.478 210.325 453.478 210.325 451.086 210.214C452.037 208.744 452.758 207.63 453.635 206.273ZM508.399 154.241C507.803 153.965 507.365 153.463 506.938 153.007C507.015 152.899 507.093 152.788 507.175 152.69C507.98 152.879 508.846 153.082 509.93 153.337C509.511 153.669 509.007 153.972 508.399 154.241ZM514.542 148.985C514.564 148.967 514.584 148.949 514.606 148.93C514.612 148.942 514.617 148.954 514.623 148.966C514.595 148.973 514.571 148.978 514.542 148.985ZM563.548 15.7537C563.954 15.9918 564.36 16.2307 564.766 16.4688C564.49 16.8645 564.214 17.261 563.938 17.6567C563.282 18.0639 562.631 18.397 561.983 18.661C562.504 17.6925 563.026 16.7231 563.548 15.7537ZM507.531 -17.9969C505.751 -15.301 503.644 -17.3368 501.389 -18.2341C502.023 -21.493 503.894 -22.0252 506.606 -20.5367C507.234 -20.192 507.854 -18.485 507.531 -17.9969ZM562.472 23.7641C562.219 23.8485 561.962 23.9328 561.71 24.0171C562.05 21.4186 562.181 21.4168 564.608 21.993C563.861 22.6116 563.204 23.1558 562.472 23.7641ZM566.136 14.0967C565.802 13.8878 565.467 13.6789 565.133 13.47C565.337 12.9196 565.401 12.2534 565.78 11.8471C566.211 11.3866 566.927 11.1577 567.519 10.8284C567.884 11.1829 568.25 11.5365 568.615 11.891C567.788 12.6268 566.962 13.3618 566.136 14.0967ZM470.218 -24.1784C474.768 -27.4822 476.437 -32.6847 480.465 -36.3388C478.361 -36.9519 476.501 -37.4937 474.48 -38.082C474.837 -40.4947 475.156 -42.6399 475.494 -44.92C472.643 -46.0041 470.38 -46.8656 468.218 -47.6868C467.677 -49.8917 468.559 -51.8553 470.316 -51.0993C475.092 -49.046 477.635 -51.1724 479.841 -53.6256C481.6 -51.3821 482.762 -48.957 484.728 -47.6221C487.428 -45.7885 487.796 -42.7971 490.765 -40.8754C493.662 -39.0011 492.879 -35.0244 491.447 -32.4731C489.831 -29.592 487.673 -26.7401 482.884 -28.5538C481.547 -25.4153 486.108 -22.2869 482.113 -20.8815C478.355 -19.7447 474.597 -18.6079 470.681 -17.4227C467.528 -19.7269 468.558 -22.9743 470.218 -24.1784ZM479.128 6.48112C479.657 8.70529 480.187 10.9295 480.757 13.324C478.703 13.2476 476.787 13.1773 473.919 13.0709C475.109 10.3345 476.064 8.13999 477.019 5.9438C477.723 6.12315 478.425 6.30253 479.128 6.48112ZM446.641 13.9352C448.123 12.9352 447.255 8.75694 446.787 6.03031C445.896 0.839507 445.694 0.83805 450.384 -1.41502C451.109 -1.76215 451.9 -2.00843 452.643 -2.29528C452.36 -3.73444 451.982 -5.12675 451.841 -6.50993C451.598 -8.88903 452.249 -10.2592 455.481 -9.67866C457.198 -9.36974 458.992 -10.1047 461.575 -10.4908C461.408 -7.66001 461.892 -4.52064 460.93 -1.98772C459.088 2.86362 456.78 7.58616 454.009 11.9646C450.79 17.0507 446.866 21.7091 442.499 27.5545C441.278 25.2503 439.89 23.7858 440.026 22.6494C440.325 20.1307 442.549 19.5453 445.528 20.3806C444.98 17.8601 443.813 15.8424 446.641 13.9352ZM440.109 10.4684C440.451 10.5973 440.794 10.7272 441.136 10.8561C441.092 11.6083 441.288 12.5083 440.929 13.0678C440.639 13.5195 439.68 13.5625 437.578 14.2741C438.927 12.2457 439.518 11.357 440.109 10.4684ZM434.888 13.8432C436.39 17.1684 436.432 19.8643 434.262 23.0198C432.569 21.4439 431.617 20.5576 430.383 19.4081C431.291 17.3617 431.25 14.6733 434.888 13.8432ZM434.968 32.8478C434.019 29.9761 433.53 27.028 433.488 24.0354C435.607 27.5918 441.397 30.2051 438.142 35.5438C436.804 34.4506 435.267 33.7531 434.968 32.8478ZM430.695 40.9599C431.532 40.9137 432.119 40.8812 432.708 40.8494C432.734 41.3708 432.998 42.1073 432.729 42.3616C432.388 42.6814 431.611 42.6074 431.022 42.704C430.925 42.1842 430.827 41.6643 430.695 40.9599ZM417.984 83.9631C418.718 82.3301 419.955 81.5166 422.615 83.3145C421.881 84.6524 421.121 86.0408 420.45 87.2619C417.639 86.7213 417.318 85.4459 417.984 83.9631ZM384.431 65.8301C387.082 69.3734 387.082 69.3734 381.269 70.9117C382.66 68.6762 383.546 67.2535 384.431 65.8301ZM394.58 83.1337C390.994 85.5633 388.215 87.4471 385.364 89.3781C384.925 82.7789 387.568 80.4991 394.58 83.1337ZM400.41 105.377C404.799 104.532 404.542 100.705 405.963 97.9375C406.44 97.0082 407.369 96.3184 408.046 95.4861C408.627 94.7714 409.534 94.0913 409.623 93.2575C410.127 88.5396 410.059 88.526 415.514 88.6151C417.677 90.3796 417.591 92.2114 416.418 94.0325C414.87 96.4334 413.374 98.874 411.657 101.159C410.899 102.168 409.671 102.863 408.609 103.648C408.068 104.048 406.916 104.251 406.895 104.679C406.665 109.49 403.047 108.741 399.266 108.084C399.662 107.074 399.774 105.498 400.41 105.377ZM375.47 98.8807C377.86 96.4958 380.67 94.4735 383.526 92.1501C386.656 94.9784 385.749 96.748 384.503 98.2474C383.061 99.9811 381.491 101.707 379.574 102.952C378.801 103.455 376.484 103.086 375.738 102.365C375.025 101.679 374.844 99.505 375.47 98.8807ZM334.399 100.996C336.13 102.202 337.601 102.771 338.138 103.706C339.003 105.208 339.658 107.022 339.556 108.558C339.516 109.156 337.232 109.565 335.879 109.679C334.451 109.8 332.915 109.466 330.006 109.201C332.476 112.788 334.11 115.162 336.035 117.957C331.78 117.058 328.059 116.273 323.612 115.333C327.401 110.296 330.829 105.739 334.399 100.996ZM320.777 119.584C321.33 119.899 321.883 120.214 322.436 120.529C321.66 121.865 320.882 123.201 320.107 124.538C319.553 124.222 319 123.907 318.446 123.593C319.224 122.255 320.001 120.92 320.777 119.584ZM327.292 125.882C327.34 125.342 328.793 125.071 329.733 124.609C331.649 132.565 331.648 132.565 327.068 134.987C327.107 131.923 327.028 128.869 327.292 125.882ZM314.885 128.168C315.277 128.104 315.97 127.918 316.018 127.999C316.526 128.851 316.932 129.745 317.366 130.627C316.983 130.744 316.599 130.861 316.214 130.977C315.771 130.04 315.328 129.105 314.885 128.168ZM356.178 163.394C357.664 158.548 359.14 153.485 366.795 152.722C366.285 154.184 366.192 155.844 365.597 155.938C361.76 156.54 360.513 159.264 359.163 161.996C357.344 165.674 353.701 166.875 347.737 165.644C349.241 161.808 353.215 163.925 356.178 163.394ZM318.076 136.937C318.873 137.155 320.827 137.194 321.316 137.933C322.127 139.158 322.624 141.124 322.124 142.25C321.218 144.29 319.484 145.941 318.094 147.753C317.838 147.565 317.584 147.377 317.328 147.189C317.562 143.97 317.797 140.752 318.076 136.937ZM309.69 134.777C310.773 137.627 311.592 139.715 308.07 140.93C306.651 141.42 305.874 144.035 305.728 145.852C305.479 148.962 303.593 149.473 300.724 149.419C300.793 143.671 305.224 136.28 309.69 134.777ZM301.101 156.287C304.155 152.905 306.119 156.841 309.75 157.368C308.085 159.566 306.979 161.027 305.191 163.387C303.176 159.888 302.135 158.082 301.101 156.287ZM294.723 162.543C295.208 160.555 297.024 161.013 300.969 164.693C296.851 165.564 298.529 170.936 293.386 171.025C293.85 167.942 294.081 165.177 294.723 162.543ZM270.78 170.9C271.78 170.223 272.78 169.545 273.78 168.868C274.118 169.377 274.458 169.888 274.796 170.397C273.642 170.843 272.488 171.29 271.334 171.735C271.15 171.457 270.966 171.179 270.78 170.9ZM287.007 176.293C287.131 179.502 287.485 181.494 287.193 183.327C286.959 184.805 285.946 186.09 284.902 188.233C283.034 187.469 280.962 186.62 278.747 185.713C277.761 180.222 285.053 181.062 287.007 176.293ZM259.723 170.588C259.746 170.517 260.762 170.653 260.807 170.785C261.129 171.719 261.318 172.676 261.551 173.626C260.738 173.449 259.923 173.272 259.109 173.095C259.298 172.252 259.458 171.4 259.723 170.588ZM265.314 179.711C262.814 180.856 260.449 181.94 256.911 183.563C259.379 176.591 259.908 176.403 265.314 179.711ZM274.518 193.261C276.166 194.376 277.562 195.321 279.647 196.731C276.349 197.906 273.768 198.826 270.834 199.87C269.613 196.556 271.846 195.194 274.518 193.261ZM241.606 178.757C244.678 181.375 244.678 181.375 240.901 184.647C237.794 181.75 241.247 180.762 241.606 178.757ZM245.967 187.462C245.795 185.265 245.66 182.773 250.093 183.206C250.946 185.221 251.746 187.112 252.627 189.193C250.998 189.978 249.549 190.675 247.63 191.599C246.967 190.026 246.065 188.723 245.967 187.462ZM235.625 184.161C240.077 189.108 239.116 192.129 231.23 197.588C232.042 192.453 232.214 187.817 235.625 184.161ZM241.463 198.642C240.644 200.609 239.932 202.322 239.101 204.317C237.609 203.898 236.224 203.51 234.984 203.162C234.552 200.758 236.853 199.205 241.463 198.642ZM221.71 202.559C223.373 204.039 224.546 205.47 226.053 206.313C227.626 207.194 229.522 207.507 231.275 208.069C230.6 212.699 230.6 212.699 225.457 216.116C224.292 211.9 223.111 207.63 221.71 202.559ZM220.014 223.101C219.642 222.435 219.776 221.117 220.299 220.708C220.811 220.308 222.084 220.703 223.025 220.749C223.014 221.634 223.004 222.519 222.99 223.887C221.682 223.575 220.268 223.556 220.014 223.101ZM192.426 235.31C192.33 232.375 193.722 229.906 198.016 227.698C197.115 232.164 196.475 235.341 195.683 239.271C194.467 237.863 192.465 236.496 192.426 235.31ZM182.635 255.177C185.76 259.335 185.76 259.335 182.954 261.738C182.84 259.396 182.754 257.625 182.635 255.177ZM171.731 288.056C171.731 288.054 171.731 288.051 171.731 288.049C172.93 289.641 176.297 290.447 174.292 294.28C173.175 291.565 172.452 289.812 171.731 288.056ZM159.43 308.884C160.102 307.001 160.93 305.18 161.688 303.33C162.033 303.541 162.377 303.753 162.722 303.963C163.139 308.347 163.555 312.732 163.971 317.101C157.86 314.45 157.599 314.017 159.43 308.884ZM156.193 314.67C156.588 316.945 157.419 318.571 156.912 319.416C155.436 321.874 153.424 324.018 151.621 326.286C151.195 326.004 150.767 325.723 150.341 325.441C151.193 321.686 152.706 318.267 156.193 314.67ZM141.779 317.483C142.177 316.254 143.128 315.231 143.848 314.123C144.448 314.277 145.048 314.43 145.648 314.584C145.564 316.193 145.689 317.875 145.271 319.37C145.139 319.839 143.546 319.808 142.622 320.006C142.31 319.152 141.567 318.137 141.779 317.483ZM131.516 532.725C131.519 532.721 131.521 532.719 131.524 532.714C132.09 531.602 132.42 530.272 133.313 529.464C133.674 529.138 134.508 529.263 135.458 529.744C135.369 529.74 135.283 529.737 135.193 529.734C134.564 530.485 133.896 531.233 133.225 531.983C132.656 532.231 132.086 532.477 131.516 532.725C131.836 532.755 132.159 532.785 132.485 532.815C131.193 534.271 129.935 535.744 128.978 537.289C127.814 539.172 126.593 540.874 125.282 542.441C127.438 539.081 129.479 535.901 131.516 532.725ZM79.5161 468.701C80.1518 467.343 79.0342 464.715 82.2994 465.297C82.263 463.327 79.2491 461.017 82.3591 459.322C83.8761 461.079 85.3641 462.804 86.9723 464.667C85.213 464.941 83.8844 465.147 82.555 465.354C84.4401 467.925 83.2841 469.59 81.1129 470.693C79.5451 471.489 77.7038 471.891 75.7615 472.542C75.5262 471.805 75.2136 471.251 75.2073 470.729C75.1679 467.846 78.7366 470.368 79.5161 468.701ZM74.068 463.599C75.5047 463.243 76.9423 462.885 78.3773 462.529C79.423 464.826 78.144 465.407 74.068 463.599ZM87.4328 471.492C87.5327 470.222 87.7678 468.978 87.8746 468.221C90.7019 467.488 92.8755 466.925 95.0293 466.367C94.0714 473.046 94.0714 473.046 87.3361 475.627C87.366 474.074 87.3322 472.77 87.4328 471.492ZM95.9896 463.793C94.4166 462.559 92.7328 461.239 90.4362 459.439C91.3905 458.324 92.3553 457.241 93.2645 456.117C93.8256 455.424 94.9104 454.584 94.7208 453.956C93.2314 449.031 96.6892 448.359 100.79 447.542C102.581 452.825 109.282 457.813 102.586 462.953C101.896 462.153 101.375 461.55 100.863 460.957C99.3591 461.832 97.8471 462.712 95.9896 463.793ZM113.685 471.633C116.881 471.393 118.293 469.547 119.818 467.377C120.508 466.395 122.728 466.416 124.422 466.4C122.379 469.129 119.172 470.824 119.996 474.774C117.568 474.657 115.149 474.539 111.331 474.353C112.53 472.908 112.975 471.686 113.685 471.633ZM116.328 373.531C116.396 374.13 114.946 375.307 114.389 375.152C113.044 374.78 111.481 373.987 110.658 372.963C109.992 372.133 110.276 370.717 110.041 368.744C112.113 369.542 113.547 369.793 114.525 370.557C115.427 371.262 116.216 372.529 116.328 373.531ZM141.175 510.853C142.269 508.616 144.766 507.207 146.468 504.984C146.419 504.841 146.367 504.685 146.319 504.542C146.517 504.727 146.722 504.925 146.908 505.088C143.432 508.532 145.292 511.89 149.139 515.066C144.235 516.691 142.555 516.027 141.574 512.4C141.434 511.887 141.306 511.368 141.175 510.853ZM128.008 476.028C127.564 475.94 127.228 475.591 126.968 474.963C126.636 474.158 126.321 473.336 126.034 472.486C127.366 471.312 129.023 470.351 129.271 468.642C132.016 469.258 133.867 469.672 136.004 470.152C136.004 470.233 136.002 470.31 136.001 470.39C135.653 470.983 135.316 471.558 134.989 472.111C133.66 472.496 132.647 473.123 131.041 474.484C130.77 474.714 130.517 474.916 130.277 475.095C129.529 475.186 128.777 475.552 128.008 476.028ZM124.225 482.228C124.656 482.355 125.074 482.477 125.501 482.603C125.156 483.071 124.716 483.525 124.196 483.891C124.197 483.363 124.2 482.816 124.225 482.228ZM144.151 467.601C144.166 467.539 144.18 467.477 144.195 467.414C144.618 466.225 145.047 465.021 145.562 463.573C143.379 462.693 143.903 460.157 145.304 457.191C146.011 456.99 146.773 456.857 147.583 456.778C146.78 459.367 147.208 460.354 148.716 460.831C148.366 462.543 147.65 464.142 146.663 465.473C146.575 465.393 146.499 465.326 146.408 465.243C145.607 466.081 144.878 466.842 144.151 467.601C144.128 467.698 144.103 467.802 144.08 467.899C143.921 467.998 143.754 468.081 143.59 468.169C143.782 467.941 143.985 467.684 144.205 467.37L144.145 467.547C144.129 467.597 144.115 467.638 144.115 467.638C144.126 467.627 144.138 467.614 144.151 467.601ZM144.957 472.325C148.455 474.699 147.398 476.44 145.568 478.803C141.476 475.92 143.166 474.36 144.957 472.325ZM140.107 468.916C140.176 468.827 140.231 468.749 140.31 468.653C140.502 468.746 140.685 468.868 140.87 468.982C140.625 468.981 140.37 468.959 140.107 468.916ZM142.22 458.586C142.392 458.955 142.406 459.528 142.16 460.441C141.071 460.89 139.997 461.333 138.808 461.824C139.77 460.549 140.893 459.45 142.22 458.586ZM136.82 465.184C136.86 464.969 136.915 464.771 136.999 464.619C137.274 464.124 137.563 463.644 137.862 463.176C137.516 463.841 137.171 464.507 136.82 465.184ZM137.411 467.818C137.322 467.748 137.241 467.65 137.169 467.536C137.327 467.558 137.471 467.579 137.643 467.604C137.589 467.695 137.54 467.779 137.486 467.869C137.463 467.851 137.434 467.835 137.411 467.818ZM153.392 497.527C153.451 498.31 153.501 498.987 153.561 499.798C154.094 499.828 154.632 499.857 155.178 499.889C155.05 499.979 154.925 500.081 154.796 500.171C154.139 500.625 153.429 501.139 152.824 501.78C151.445 503.245 150.104 504.77 148.759 506.275C148.214 505.895 147.641 505.472 147.012 504.977C146.998 504.991 146.988 505.004 146.974 505.016C146.708 504.041 146.438 503.048 146.142 501.962C148.68 500.409 151.042 498.965 153.392 497.527ZM159.317 500.119C156.502 506.145 154.792 508.465 152.182 507.971C153.132 507.058 154.016 506.134 154.655 505.135C156.006 503.025 157.39 501.526 158.969 500.099C159.086 500.107 159.196 500.113 159.317 500.119ZM107.144 446.891C105.441 448.343 103.721 447.52 102.41 445.623C103.017 443.464 104.68 442.926 106.739 443.896C107.26 444.142 107.652 446.459 107.144 446.891ZM123.944 487.27C124.063 486.803 124.115 486.308 124.149 485.797C124.654 485.542 125.107 485.314 125.5 485.116C126.273 485.994 126.772 486.909 127.581 487.397C128.778 488.12 129.535 487.598 130.838 485.083C132.157 488.942 127.598 490.559 127.942 494.109C125.673 493.068 124.066 492.33 121.925 491.349C122.68 489.88 123.588 488.666 123.944 487.27ZM147.523 486.32C147.993 486.327 148.425 486.335 148.836 486.344C148.827 486.407 148.82 486.469 148.812 486.532C148.851 486.468 148.893 486.41 148.933 486.346C154.324 486.472 154.882 486.934 158.062 491.066C155.014 491.28 152.131 491.169 149.668 488.977C150.162 488.021 149.732 487.686 148.666 486.954C148.533 487.113 148.402 487.269 148.269 487.428C148.016 487.085 147.765 486.724 147.523 486.32ZM123.159 357.343C123.339 355.136 123.419 352.69 124.549 350.958C125.308 349.795 127.761 349.681 129.456 349.098C129.744 349.431 130.032 349.764 130.321 350.096C128.83 353.073 127.339 356.05 125.62 359.483C124.537 358.575 123.119 357.824 123.159 357.343ZM102.98 339.305C109.674 344.327 110.342 345.541 108.119 349.095C106.046 347.454 103.851 345.968 101.999 344.186C99.6981 341.972 99.9821 340.179 102.98 339.305ZM121.784 360.146C121.089 363.445 120.401 366.703 119.714 369.96C119.229 369.881 118.744 369.803 118.259 369.723C118.15 368.115 118.041 366.508 117.886 364.22C116.338 365.269 115.232 366.019 114.088 366.794C110.677 361.547 110.982 360.557 115.964 359.835C116.888 359.701 121.149 359.953 121.784 360.146ZM103.855 350.987C101.795 352.383 100.205 353.46 98.5851 354.558C95.8051 353.39 98.3245 347.868 92.578 350.167C95.3675 343.875 95.4584 343.887 103.855 350.987ZM100.972 359.702C100.966 358.526 100.34 356.334 101.133 354.934C101.812 353.736 104.117 353.446 106.426 352.439C106.623 354.457 107.047 355.659 106.767 356.61C106.238 358.409 105.134 360 104.573 361.792C103.258 365.991 100.24 367.368 93.2802 366.013C96.1598 363.649 98.3836 361.826 100.972 359.702ZM85.0959 351.25C80.199 349.065 80.199 349.065 78.8921 343.192C86.1746 346.172 86.1746 346.172 91.5927 355.146C88.9808 357.862 86.3614 360.578 83.7427 363.292C83.3608 363.193 82.978 363.093 82.5961 362.994C83.4275 359.095 84.2563 355.194 85.0959 351.25ZM103.82 375.078C101.977 378.93 99.4143 380.354 95.1275 380.192C97.0662 377.277 98.2828 374.137 103.82 375.078ZM73.8687 361.382C76.1685 361.626 77.5362 361.771 79.4828 361.977C78.7914 363.45 78.2954 364.504 77.3965 366.419C76.0154 364.447 75.183 363.259 73.8687 361.382ZM86.1679 376.32C84.9887 372.754 89.3257 375.107 90.104 373.383C91.5994 376.15 91.2285 377.881 88.4639 378.054C87.8025 378.095 86.3999 377.02 86.1679 376.32ZM97.9537 390.487C93.234 390.174 90.7388 391.357 90.6088 395.757C90.5584 397.48 87.648 398.792 85.5117 399.858C86.3933 394.889 89.7119 391.525 93.1524 388.343C94.2036 387.371 96.3057 387.193 97.9537 390.487ZM76.0501 373.583C81.4262 376.761 81.4932 376.902 79.6524 381.164C78.2765 378.271 77.4131 376.452 76.0501 373.583ZM82.4068 385.435C84.0733 388.12 86.0356 389.949 85.9383 391.421C85.7704 393.978 83.0624 394.658 80.3189 395.15C78.4457 391.546 79.8593 389.182 82.4068 385.435ZM62.874 376.777C64.5589 378.034 65.841 378.991 67.3976 380.153C66.5696 380.566 65.9898 381.122 65.6304 380.989C63.9733 380.372 62.1287 379.727 62.874 376.777ZM90.5757 414.367C90.2146 414.773 89.8543 415.178 89.4924 415.583C87.6616 414.501 85.83 413.42 83.9993 412.338C86.9363 411.642 89.676 411.165 90.5757 414.367ZM65.1326 396.682C65.2038 396.596 66.5984 397.142 66.7031 397.49C67.2625 399.355 66.6631 400.548 62.5548 400.489C63.797 398.58 64.3905 397.575 65.1326 396.682ZM53.7531 405.493C57.8759 405.721 59.0186 404.013 59.4637 400.819C62.1281 402.098 64.4205 403.197 66.7859 404.332C65.416 410.985 60.0485 414.021 53.932 416.312C51.4633 414.239 49.4517 412.549 47.4002 410.826C47.8757 407.267 50.8002 405.329 53.7531 405.493ZM68.4479 439.629C68.4736 440.402 68.5418 441.179 68.6215 442.457C70.5235 442.366 72.1067 442.29 73.8061 442.208C72.0308 438.67 72.6267 437.507 75.9616 436.846C78.052 436.43 80.0735 435.83 82.6971 435.169C81.2052 432.872 80.3019 431.48 79.2809 429.909C76.7511 430.566 74.5163 431.146 72.2833 431.726C71.9187 431.352 71.555 430.979 71.1905 430.606C71.8622 429.415 72.6098 427.11 73.192 427.212C78.032 428.059 79.1661 424.48 81.56 422.37C82.5624 421.487 83.9024 420.922 85.052 420.235C87.7712 422.56 86.4581 424.145 85.0911 425.623C81.2209 429.81 81.1964 429.792 86.6758 433.793C86.6184 436.154 86.562 438.523 86.5053 440.879C83.6194 443.569 80.5281 446.371 77.5351 449.261C74.7025 451.995 71.5631 454.178 66.6785 453.928C66.4334 456.1 66.1989 458.184 65.9635 460.268C65.5192 460.246 65.0766 460.223 64.6324 460.201C64.059 456.793 63.4856 453.385 62.914 449.986C64.4227 449.456 65.5429 449.063 66.5269 448.717C67.2149 447.048 65.1781 445.887 61.0473 445.559C60.6875 443.816 60.4626 442.475 60.11 441.146C59.9572 440.57 59.3846 440.029 59.2677 439.459C58.5119 435.76 60.4771 432.574 63.3043 432.799C66.5559 433.058 68.3071 435.389 68.4479 439.629ZM33.0987 432.844C39.7049 429.206 46.5157 425.848 53.2469 422.38C53.6258 422.766 54.0047 423.151 54.3837 423.537C53.1657 428.204 48.2479 430.163 45.474 433.695C42.5641 437.4 36.1383 435.149 33.1722 438.945C30.5212 436.121 30.9508 434.026 33.0987 432.844ZM51.6216 440.995C53.1028 442.712 53.9449 443.688 55.1823 445.121C51.6801 445.232 51.6022 443.733 51.6216 440.995ZM42.5655 453.665C43.3619 452.707 44.1696 451.735 45.2236 450.466C47.7004 452.644 49.6968 454.4 52.3692 456.75C51.4917 457.644 50.6827 459.409 49.5288 459.471C45.6937 459.676 44.5649 456.411 42.5655 453.665ZM61.4117 462.746C58.4867 465.901 54.3573 462.492 50.1186 464.34C51.2873 462.294 51.5053 461.223 52.2267 460.76C56.9978 457.697 57.2015 452.86 56.9248 447.783C56.8921 447.192 57.0436 446.585 57.2599 446.052C57.3814 445.75 57.8092 445.582 58.463 445.066C60.4812 448.263 58.1166 450.928 58.7764 453.714C59.4864 456.71 60.5041 459.68 61.4117 462.746ZM88.5316 477.156C90.786 481.446 89.1974 483.792 84.0543 484.462C81.3512 478.936 87.4299 480.039 88.5316 477.156ZM96.4675 497.314C96.6264 497.125 96.7852 496.935 96.9448 496.745C96.7792 496.58 96.6136 496.413 96.448 496.248C96.1739 496.605 95.8998 496.961 95.6257 497.318C94.6187 497.291 93.5862 497.195 92.7214 497.367C90.3501 492.936 90.6194 491.848 94.8912 489.531C96.5121 490.79 98.2243 492.117 99.8292 493.362C99.787 496.628 98.2628 497.246 96.4675 497.314ZM112.204 487.759C111.2 483.873 111.2 483.873 116.63 479.282C116.846 480.365 116.979 481.265 117.068 482.087C115.852 484.046 115.481 485.381 115.609 486.728C115.916 486.497 116.2 486.281 116.471 486.075C115.738 487.054 114.401 487.519 112.204 487.759ZM128.861 508.767C126.739 504.455 127.361 501.181 129.723 497.607C131.597 494.771 132.125 491.084 133.194 487.753C133.526 486.722 133.854 485.693 134.307 484.768C135.835 483.627 137.352 482.745 138.878 481.674C139.366 481.639 139.881 481.627 140.473 481.679C142.309 483.8 142.498 485.203 141.966 486.315C140.674 486.845 139.49 487.338 138.355 487.702C135.697 488.556 135.535 488.705 133.879 492.865C135.194 492.054 136.527 491.231 138.024 490.307C137.709 490.721 137.461 491.172 137.343 491.689C137.59 491.869 137.88 492.056 138.189 492.252C137.938 493.19 137.671 494.187 137.318 495.507C137.915 494.546 138.514 493.667 139.095 492.836C139.815 493.314 140.543 493.859 141.066 494.529C141.204 494.705 141.338 494.903 141.469 495.108C140.568 496.866 139.806 498.561 139.146 500.21C138.879 500.27 138.607 500.332 138.36 500.386C138.01 500.462 136.808 499.23 136.551 498.497C135.669 495.992 134.245 497.782 133.073 497.598C133.066 497.657 133.054 497.716 133.047 497.776C131.964 497.735 130.888 497.695 129.762 497.653C127.888 501.122 128.819 502.958 129.932 504.55C130.425 505.257 131.254 505.433 132.347 504.585C132.37 505.633 132.448 506.621 132.989 507.704C131.863 508.788 130.742 509.866 129.641 510.925C129.487 510.266 129.253 509.563 128.861 508.767ZM124.745 517.282C124.653 517.702 124.563 518.118 124.472 518.542C125.088 518.32 125.965 518.288 126.318 517.831C126.962 517 127.586 516.154 128.219 515.313C128.871 514.773 129.323 514.181 129.575 513.517C130.847 511.805 132.114 510.089 133.381 508.372C133.663 508.796 134.007 509.234 134.473 509.703C135.502 510.737 136.031 512.179 136.375 513.733C136.379 513.941 136.366 514.155 136.375 514.361C136.414 514.339 136.451 514.317 136.491 514.295C136.832 516.067 136.983 517.938 137.387 519.496C134.66 520.945 132.766 521.951 130.232 523.296C130.055 521.287 129.9 519.526 129.732 517.63C122.505 517.764 123.693 526.226 117.708 527.419C117.851 523.662 121.041 519.155 124.745 517.282ZM110.303 532.424C110.513 532.971 110.495 533.77 110.455 534.618C110.23 534.807 110 534.999 109.754 535.207C109.729 533.949 109.955 533.085 110.303 532.424ZM88.8612 542.281C90.9427 541.338 93.7329 540.073 96.9123 538.631C96.6554 534.558 97.3627 530.645 102.27 528.984C102.964 528.749 103.559 527.459 103.441 526.661C102.865 522.741 104.575 520.801 107.302 519.711C105.976 521.529 104.844 523.435 104.983 525.588C107.16 523.283 108.077 521.209 108.796 519.216C109.533 519.018 110.299 518.843 111.115 518.708C111.394 518.662 111.672 518.617 111.942 518.575C111.787 518.849 111.63 519.127 111.475 519.4C111.701 519.447 111.926 519.494 112.153 519.541C112.438 519.165 112.723 518.788 113.008 518.412C113.443 518.348 113.804 518.293 113.989 518.264C113.837 518.924 113.671 519.645 113.49 520.432C112.756 521.442 112.085 522.545 111.396 523.555C110.276 523.851 109.275 524.667 108.922 526.032C107.768 524.996 111.703 521.339 109.329 521.016C107.412 524.434 106.979 526.87 107.308 529.049C107.448 529.979 106.917 531.629 107.653 531.893C106.943 533.061 106.436 534.247 107.693 535.886C104.278 537.699 102.074 540.511 100.303 543.678C95.0664 543.313 94.7215 547.654 92.5972 550.281C91.497 547.925 90.3837 545.539 88.8612 542.281ZM86.6846 545.728C87.0879 546.049 87.4912 546.372 87.8937 546.694C86.9578 548.933 86.021 551.173 84.9056 553.842C82.4014 552.242 80.2519 550.87 77.8758 549.352C79.4562 545.97 83.5993 546.754 86.6846 545.728ZM95.1321 566.604C94.5994 565.404 93.5601 564.106 93.6583 563.027C93.7875 561.608 94.8112 560.362 95.6866 558.552C99.3993 560.625 99.3334 563.133 98.3265 565.475C98.0162 566.196 96.238 566.247 95.1321 566.604ZM106.742 567.393C105.66 565.969 104.533 564.485 102.656 562.015C106.633 563.669 109.409 564.825 113.424 566.494C110.2 568.422 107.81 569.852 105.419 571.281C105.131 571.006 104.843 570.732 104.556 570.456C105.252 569.481 105.948 568.506 106.742 567.393ZM128.297 558.68C129.216 560.411 130.141 562.15 131.218 564.178C131.2 564.197 130.772 564.598 130.385 565.031C125.517 570.477 125.528 570.496 117.312 573.68C114.097 574.925 110.83 576.077 107.587 577.271C107.322 576.906 107.056 576.541 106.79 576.175C113.955 570.342 121.12 564.51 128.297 558.68ZM118.221 558.976C119.7 559.19 121.343 559.651 122.78 559.541C121.777 561.177 120.773 562.814 119.66 564.63C117.442 563.556 115.748 562.737 113.992 561.886C114.359 558.97 116.015 558.689 118.01 558.945C118.03 558.979 118.039 559.023 118.064 559.055C118.115 559.029 118.168 559.002 118.221 558.976ZM117.858 551.406C117.762 551.377 117.68 551.352 117.582 551.323C115.347 555.36 112.602 559.141 106.14 558.969C109.013 556.295 111.886 553.622 115.237 550.503C113.548 548.896 111.946 547.372 110.355 545.86C105.982 549.539 109.037 557.538 101.099 558.008C99.5291 556.718 97.9708 555.437 96.3119 554.074C94.991 554.872 93.6586 555.677 92.3254 556.482C93.5433 554.639 89.3324 551.893 92.4858 550.632C92.6163 551.175 92.7591 551.788 93.0935 553.235C94.9835 551.462 96.4238 550.032 97.9583 548.69C100.247 546.688 102.278 543.277 104.997 543.092C110.526 542.717 113.266 539.332 116.978 536.949C119.417 535.383 119.499 533.28 116.903 531.176C120.219 528.234 122.849 524.943 128.534 528.382C128.024 530.117 127.628 531.931 127.116 533.692C125.988 533.624 124.953 533.56 123.871 533.494C121.296 537.353 117.667 540.933 117.286 545.102C117.223 545.301 117.164 545.491 117.091 545.728C117.136 545.71 117.174 545.694 117.217 545.676C117.218 545.684 117.214 545.693 117.215 545.701C117.243 545.684 117.268 545.662 117.295 545.644C118.456 545.166 119.339 544.803 120.192 544.453C119.938 544.271 119.719 544.116 119.517 543.98C121.696 542.149 123.656 539.887 125.637 537.458C124.286 539.965 122.243 542.118 120.488 544.419C121.289 544.714 122.067 545.001 122.659 545.219C122.305 545.556 121.965 545.907 121.596 546.228C119.799 547.79 118.468 549.365 117.858 551.406ZM151.871 546.586C151.105 546.797 150.336 547.008 149.72 547.177C147.04 544.406 144.341 541.617 141.437 538.615C142.381 537.976 143.328 537.334 144.303 536.673C147.944 539.239 151.026 542.262 151.871 546.586ZM144.898 530.487C144.619 530.493 144.271 530.417 143.937 530.302C144.461 530.028 144.976 529.678 145.481 529.26C145.279 529.911 145.135 530.483 144.898 530.487ZM181.794 531.311C177.569 531.395 176.114 534.541 173.571 538.141C171.381 530.082 178.251 530.651 182.286 528.312C182.129 529.358 182.121 531.304 181.794 531.311ZM207.294 522.042C209.409 521.642 211.115 521.831 212.83 523.008C212.64 523.956 212.159 524.92 211.486 525.948C210.488 526.11 209.522 526.266 208.445 526.441C208.02 524.816 207.688 523.548 207.294 522.042ZM224.774 536.853C219.351 533.024 217.044 538.347 212.499 538.529C212.382 536.981 212.277 535.584 212.179 534.267C212.458 533.927 212.721 533.583 212.971 533.236C220.511 530.23 221.356 530.593 224.774 536.853ZM222.476 525.397C224.366 523.059 227.088 523.487 229.964 523.981C227.998 528.701 227.312 528.837 222.476 525.397ZM243.717 518.372C240.54 521.625 235.545 516.376 232.715 519.728C231.129 515.509 232.303 513.792 235.811 514.31C237.013 514.487 238.21 514.767 239.408 515.01C240.747 516.055 242.09 517.102 243.717 518.372ZM246.517 501.53C244.153 500.728 242.441 500.147 240.842 499.603C240.814 495.413 243.516 495.818 246.349 496.426C246.396 497.872 246.445 499.346 246.517 501.53ZM260.299 493.988C257.414 498.892 252.259 499.816 246.713 496.443C249.053 496.396 251.422 496.417 254.19 496.443C256.111 494.777 254.507 493.499 252.367 492.049C250.526 490.803 247.401 490.292 248.111 486.49C251.909 489.877 257.619 489.185 260.299 493.988ZM265.211 482.98C263.901 480.892 263.027 479.5 262.085 477.998C263.673 476.921 265.089 475.963 266.617 474.927C269.954 478.479 267.334 480.217 265.211 482.98ZM457.293 282.319C456.494 282.774 455.322 283.369 454.544 283.092C452.843 282.488 451.291 281.377 448.451 279.784C451.314 279.496 453.147 279.127 455.02 279.21C455.845 279.245 456.858 280.108 457.567 280.786C457.821 281.027 457.648 282.116 457.293 282.319ZM431.356 251.554C431.169 251.734 430.973 251.904 430.782 252.081C431.103 251.36 431.386 250.609 431.574 249.782C432.5 249.648 433.38 249.195 434.233 248.533C433.311 249.574 432.356 250.586 431.356 251.554ZM466.528 257.616C469.165 252.425 469.165 252.425 474.235 255.156C472.662 257.645 470.689 258.99 466.528 257.616ZM480.509 244.84C481.838 243.419 482.369 241.55 485.358 242.19C485.467 245.326 484.199 246.297 480.509 244.84ZM520.451 227.822C520.816 228.035 520.811 228.864 521.601 231.435C519.111 230.028 517.535 229.137 516.796 228.719C513.96 230.642 511.659 231.92 509.75 233.574C507.924 235.155 505.614 236.657 507.564 240.022C507.908 240.616 506.122 242.053 505.221 243.142C505.01 242.874 504.77 242.613 504.661 242.323C504.525 241.96 504.56 241.563 504.494 240.933C501.22 240.221 500.272 242.52 498.614 244.088C496.75 245.854 494.861 248.47 490.711 245.16C491.599 244.292 492.29 243.037 493.442 242.595C497.871 240.892 499.162 235.647 504.479 234.936C504.715 234.904 504.224 233.086 504.448 232.226C505.508 228.148 516.042 225.248 520.451 227.822ZM505.188 221.722C502.037 224.612 498.728 227.371 495.807 230.45C494.415 231.916 493.53 233.898 492.835 235.817C492.106 237.831 491.836 240.008 488.036 239.616C489.211 233.082 491.294 227.254 496.708 223.52C498.798 222.077 502.315 222.267 505.188 221.722ZM485.311 198.371C482.389 200.212 480.115 202.267 476.654 203.504C473.396 204.67 470.845 207.605 468.698 210.28C463.982 216.159 459.204 221.947 453.201 226.755C452.889 227.004 452.314 227.247 452.328 227.528C452.648 233.451 446.978 234.455 443.361 237.172C443.902 236.458 444.449 235.744 444.984 235.033C444.993 233.694 445.001 232.431 445.006 231.484C444.273 231.485 443.682 231.486 443.09 231.487C443.201 231.213 443.314 230.939 443.426 230.665C444.359 230.111 445.293 229.557 446.377 228.913C446.659 229.786 446.934 230.635 447.327 231.849C450.066 227.616 448.222 226.181 449.529 222.836C450.864 222.104 452.445 221.236 454.324 220.205C454.437 219.588 454.545 218.992 454.653 218.393C455.248 218.334 455.928 218.234 456.734 218.096C456.122 217.567 455.548 217.07 454.982 216.58C455.068 216.103 455.153 215.639 455.244 215.136C456.354 214.007 457.531 212.466 458.624 211.761C461.264 210.06 463.103 207.913 464.448 205.069C465.365 204.845 466.209 204.638 466.968 204.453C467.108 200.149 470.609 197.871 473.283 195.099C474.459 194.447 475.649 193.742 476.826 192.851C479.602 190.75 482.28 188.259 484.928 185.644C484.492 187.114 484.398 188.778 483.415 189.768C480.178 193.03 482.862 195.376 485.311 198.371ZM490.603 197.017C489.475 196.578 488.348 196.139 487.22 195.7C487.372 195.294 487.525 194.887 487.676 194.48C488.792 194.952 489.907 195.423 491.023 195.894C490.883 196.268 490.744 196.643 490.603 197.017ZM501.067 182.933C500.141 182.959 499.217 182.984 498.291 183.01C498.175 182.558 498.061 182.105 497.946 181.653C498.83 181.559 499.708 181.415 500.605 181.442C500.707 181.444 500.911 182.413 501.067 182.933ZM493.257 182.333C492.729 184.765 493.519 187.483 489.459 188.536C489.273 186.448 489.112 184.66 488.935 182.663C488.488 182.678 488.108 182.737 487.756 182.815C488.345 182.215 488.934 181.618 489.522 181.016C491.779 178.702 494.172 176.669 496.518 174.582C496.879 174.262 497.245 173.949 497.611 173.639C497.601 173.895 497.569 174.129 497.492 174.303C496.249 177.071 493.888 179.432 493.257 182.333ZM503.604 164.966C503.62 164.944 503.639 164.92 503.655 164.898C504.573 163.639 505.504 162.388 506.42 161.128C507.117 161.822 507.876 162.664 508.736 163.686C506.903 164.122 505.23 164.926 503.604 164.966ZM516.611 148.521C516.864 147.87 517.115 147.227 517.36 146.597C518.679 145.479 520.019 144.343 521.608 142.997C520.383 147.084 520.2 147.665 516.611 148.521ZM546.592 166.379C547.441 164.578 548.115 163.149 549.002 161.263C550.888 161.998 552.593 162.661 554.186 163.281C553.682 168.437 549.068 164.746 546.592 166.379ZM542.753 119.958C542.811 119.422 542.865 118.925 542.918 118.446C543.096 118.343 543.28 118.237 543.478 118.123C544.044 117.796 544.464 117.491 544.775 117.194C545.104 118.148 544.481 118.631 542.753 119.958ZM546.966 111.458C547.33 111.461 547.697 111.453 548.112 111.288C548.788 111.019 549.764 110.537 550.277 109.877C550.375 109.751 550.445 109.646 550.523 109.536C551.009 109.919 551.495 110.302 551.983 110.686C550.347 112.784 548.653 112.218 546.966 111.458ZM554.265 107.869C554.19 105.987 553.716 104.549 552.849 103.416C553.503 102.746 554.183 102.053 554.882 101.344C555.034 102.091 555.239 102.736 555.611 103.297C556.391 104.474 558.413 105.057 560.756 106.404C558.427 106.93 556.596 107.343 554.265 107.869ZM566.435 100.269C565.567 101.014 564.541 101.604 562.945 102.686C563.024 99.5016 563.96 98.2307 567.049 98.472C566.771 99.3389 566.779 99.9745 566.435 100.269ZM575.247 88.946C574.572 90.0009 573.868 91.1006 573.133 92.2482C570.05 92.0509 566.984 91.8539 563.815 91.651C565.342 89.9818 566.601 88.1042 566.954 85.5918C566.369 85.1971 565.655 85.3886 564.777 86.0049C564.887 85.7591 565.006 85.5231 565.086 85.2404C565.428 84.053 566.266 83.4549 567.3 83.3114C567.841 83.535 568.426 83.6562 569.158 83.4993C570.11 83.798 571.095 84.3611 571.978 85.1956C573.088 86.2464 573.986 87.4837 575.247 88.946ZM570.919 81.2559C571.159 79.7349 571.368 78.4132 571.588 77.0214C573.923 76.5649 574.519 77.3691 576.967 80.8561C575.788 81.9776 574.601 83.0858 572.898 84.6773C572.174 83.4238 571.53 82.3107 570.919 81.2559ZM578.68 88.8782C579.347 86.7272 579.725 85.5099 580.094 84.316C581.006 85.1924 581.947 86.0872 583.379 87.446C581.787 87.9323 580.712 88.2595 578.68 88.8782ZM579.545 79.0107C580.515 80.7534 584.578 82.5994 580.116 84.1594C579.889 82.5137 579.532 80.959 577.215 80.7876C577.989 80.1951 578.765 79.6025 579.545 79.0107ZM580.389 64.1881C579.448 64.7202 578.684 65.3633 578.111 66.1409C577.513 65.0892 576.927 64.0588 576.303 62.9619C577.757 63.4451 579.119 63.9269 580.389 64.1881ZM576.164 15.8379C574.167 18.2169 573.729 21.7765 571.601 24.2564C570.734 24.8451 569.86 25.532 568.991 26.203C568.268 26.526 567.439 26.7797 566.457 26.9305C566.952 25.5677 567.105 24.4841 567.682 23.6864C569.249 21.5219 572.419 20.1741 570.167 16.2807C569.81 15.6659 572.534 13.8315 574.343 12.0641C575.262 13.896 576.49 15.4503 576.164 15.8379ZM579.449 2.80551C576.135 -1.24298 576.135 -1.24309 577.304 -5.64953C580.835 -1.49099 580.835 -1.49088 579.449 2.80551ZM530.509 -56.0834C530.188 -54.6546 530.118 -53.1256 529.577 -51.8051C528.05 -48.08 526.332 -44.4396 524.51 -40.3691C520.629 -44.4453 517.237 -48.0077 513.43 -52.0057C510.628 -51.6996 507.415 -51.349 504.164 -50.9926C502.244 -55.1116 502.629 -58.6469 504.717 -61.5639C505.86 -63.1616 507.992 -64.3117 510.012 -65.0565C512.002 -65.7914 514.412 -65.7633 517.402 -66.1748C516.204 -64.8734 515.26 -63.8492 513.353 -61.778C516.693 -61.6677 518.654 -61.6034 521.396 -61.5142C519.11 -58.8673 517.081 -56.5176 515.06 -54.1773C517.384 -52.3231 519.704 -50.4731 522.034 -48.6142C524.584 -51.2725 523.249 -54.1667 520.793 -57.0925C522.323 -58.1293 523.636 -59.0185 524.892 -59.8698C526.818 -58.6006 528.695 -57.366 530.569 -56.1304C530.547 -56.1167 530.528 -56.0996 530.509 -56.0834ZM614.451 -4.76155C614.201 -6.65683 615.269 -7.19496 618.047 -6.13426C617.424 -4.96741 616.991 -4.15698 616.301 -2.86484C615.438 -3.7181 614.52 -4.24278 614.451 -4.76155ZM539.258 -69.2971C538.276 -68.5156 537.077 -67.2483 537.196 -66.1696C537.759 -61.0707 533.814 -58.9949 530.754 -56.2981C531.515 -59.1915 534.958 -61.4744 531.796 -65.345C531.459 -65.7566 532.582 -67.4312 533.413 -68.1488C534.386 -68.9899 535.783 -69.4253 537.014 -70.0468C534.778 -72.9117 530.929 -74.6301 531.424 -78.3838C535.106 -80.1332 535.628 -75.5959 538.057 -75.2815C540.498 -74.9657 542.943 -74.8777 546.923 -74.5708C543.775 -72.4356 541.391 -70.9958 539.258 -69.2971ZM579.185 -58.1969C578.355 -58.4318 577.366 -58.4829 576.744 -58.9599C576.236 -59.3504 576.169 -60.2482 575.579 -61.7539C577.393 -61.0432 578.494 -60.8507 579.171 -60.251C579.543 -59.9199 579.203 -58.9037 579.185 -58.1969Z" fill="#FFC107"/>
</svg>
